<?xml version="1.0" encoding="UTF-8"?>
<!-- Generator: CustomSymbols v2.7.2.48 by @serious_bret https://bretlester.com/app_content/CustomSymbols/ -->
<!-- Guides: Left/Right 0.0/0.0 Cap/Base 0.2/0.19999999999999996 -->
<!-- Settings: RefScale 1.0 Min/Max Stroke Scales 0.5/2.21 -->
<!DOCTYPE svg
PUBLIC "-//W3C//DTD SVG 1.1//EN"
       "http://www.w3.org/Graphics/SVG/1.1/DTD/svg11.dtd">
<svg version="1.1" xmlns="http://www.w3.org/2000/svg" xmlns:xlink="http://www.w3.org/1999/xlink" width="3300" height="2200">
<![CDATA[<svg xmlns="http://www.w3.org/2000/svg" width="24" height="24" viewBox="0 0 24 24" fill="none" stroke="currentColor" stroke-width="1.5" stroke-linecap="round" stroke-linejoin="round" class="lucide lucide-wallet"><path d="M19 7V4a1 1 0 0 0-1-1H5a2 2 0 0 0 0 4h15a1 1 0 0 1 1 1v4h-3a2 2 0 0 0 0 4h3a1 1 0 0 0 1-1v-2a1 1 0 0 0-1-1"/><path d="M3 5v14a2 2 0 0 0 2 2h15a1 1 0 0 0 1-1v-4"/></svg>]]>
 <g id="Notes">
  <rect height="2200" id="artboard" style="fill:white;opacity:1" width="3300" x="0" y="0"/>
  <line id="" style="fill:none;stroke:black;opacity:1;stroke-width:0.5;" x1="263" x2="3036" y1="292" y2="292"/>
  <text id="reftext1" style="stroke:none;fill:black;font-family:-apple-system,&quot;SF Pro Display&quot;,&quot;SF Pro Text&quot;,Helvetica,sans-serif;font-weight:bold;" transform="matrix(1 0 0 1 263 322)">Weight/Scale Variations</text>
  <text id="reftext2" style="stroke:none;fill:black;font-family:-apple-system,&quot;SF Pro Display&quot;,&quot;SF Pro Text&quot;,Helvetica,sans-serif;text-anchor:middle;" transform="matrix(1 0 0 1 559.711 322)">Ultralight</text>
  <text style="stroke:none;fill:black;font-family:-apple-system,&quot;SF Pro Display&quot;,&quot;SF Pro Text&quot;,Helvetica,sans-serif;text-anchor:middle;" transform="matrix(1 0 0 1 856.422 322)">Thin</text>
  <text style="stroke:none;fill:black;font-family:-apple-system,&quot;SF Pro Display&quot;,&quot;SF Pro Text&quot;,Helvetica,sans-serif;text-anchor:middle;" transform="matrix(1 0 0 1 1153.13 322)">Light</text>
  <text style="stroke:none;fill:black;font-family:-apple-system,&quot;SF Pro Display&quot;,&quot;SF Pro Text&quot;,Helvetica,sans-serif;text-anchor:middle;" transform="matrix(1 0 0 1 1449.84 322)">Regular</text>
  <text style="stroke:none;fill:black;font-family:-apple-system,&quot;SF Pro Display&quot;,&quot;SF Pro Text&quot;,Helvetica,sans-serif;text-anchor:middle;" transform="matrix(1 0 0 1 1746.56 322)">Medium</text>
  <text style="stroke:none;fill:black;font-family:-apple-system,&quot;SF Pro Display&quot;,&quot;SF Pro Text&quot;,Helvetica,sans-serif;text-anchor:middle;" transform="matrix(1 0 0 1 2043.27 322)">Semibold</text>
  <text style="stroke:none;fill:black;font-family:-apple-system,&quot;SF Pro Display&quot;,&quot;SF Pro Text&quot;,Helvetica,sans-serif;text-anchor:middle;" transform="matrix(1 0 0 1 2339.98 322)">Bold</text>
  <text style="stroke:none;fill:black;font-family:-apple-system,&quot;SF Pro Display&quot;,&quot;SF Pro Text&quot;,Helvetica,sans-serif;text-anchor:middle;" transform="matrix(1 0 0 1 2636.69 322)">Heavy</text>
  <text style="stroke:none;fill:black;font-family:-apple-system,&quot;SF Pro Display&quot;,&quot;SF Pro Text&quot;,Helvetica,sans-serif;text-anchor:middle;" transform="matrix(1 0 0 1 2933.4 322)">Black</text>
  <line id="" style="fill:none;stroke:black;opacity:1;stroke-width:0.5;" x1="263" x2="3036" y1="1903" y2="1903"/>
  <g id="" transform="matrix(1 0 0 1 263 1933)">
   <path d="M9.24805 0.830078C13.5547 0.830078 17.1387-2.74414 17.1387-7.05078C17.1387-11.3574 13.5449-14.9316 9.23828-14.9316C4.94141-14.9316 1.36719-11.3574 1.36719-7.05078C1.36719-2.74414 4.95117 0.830078 9.24805 0.830078ZM9.24805-0.654297C5.70312-0.654297 2.87109-3.49609 2.87109-7.05078C2.87109-10.6055 5.69336-13.4473 9.23828-13.4473C12.793-13.4473 15.6348-10.6055 15.6445-7.05078C15.6543-3.49609 12.8027-0.654297 9.24805-0.654297ZM6.39648-6.31836L8.50586-6.31836L8.50586-4.19922C8.50586-3.75977 8.79883-3.45703 9.22852-3.45703C9.67773-3.45703 9.9707-3.75977 9.9707-4.19922L9.9707-6.31836L12.0996-6.31836C12.5391-6.31836 12.8418-6.61133 12.8418-7.04102C12.8418-7.48047 12.5391-7.7832 12.0996-7.7832L9.9707-7.7832L9.9707-9.89258C9.9707-10.3418 9.67773-10.6445 9.22852-10.6445C8.79883-10.6445 8.50586-10.3418 8.50586-9.89258L8.50586-7.7832L6.39648-7.7832C5.94727-7.7832 5.64453-7.48047 5.64453-7.04102C5.64453-6.61133 5.94727-6.31836 6.39648-6.31836Z"/>
  </g>
  <g id="" transform="matrix(1 0 0 1 281.506 1933)">
   <path d="M11.709 2.91016C17.1582 2.91016 21.6699-1.61133 21.6699-7.05078C21.6699-12.5 17.1484-17.0117 11.6992-17.0117C6.25977-17.0117 1.74805-12.5 1.74805-7.05078C1.74805-1.61133 6.26953 2.91016 11.709 2.91016ZM11.709 1.25C7.09961 1.25 3.41797-2.44141 3.41797-7.05078C3.41797-11.6602 7.08984-15.3516 11.6992-15.3516C16.3086-15.3516 20-11.6602 20.0098-7.05078C20.0195-2.44141 16.3184 1.25 11.709 1.25ZM7.98828-6.23047L10.8789-6.23047L10.8789-3.32031C10.8789-2.83203 11.2109-2.5 11.6895-2.5C12.1777-2.5 12.5195-2.83203 12.5195-3.32031L12.5195-6.23047L15.4297-6.23047C15.918-6.23047 16.25-6.5625 16.25-7.04102C16.25-7.5293 15.918-7.87109 15.4297-7.87109L12.5195-7.87109L12.5195-10.7617C12.5195-11.2695 12.1777-11.6016 11.6895-11.6016C11.2109-11.6016 10.8789-11.2598 10.8789-10.7617L10.8789-7.87109L7.98828-7.87109C7.48047-7.87109 7.14844-7.5293 7.14844-7.04102C7.14844-6.5625 7.49023-6.23047 7.98828-6.23047Z"/>
  </g>
  <g id="" transform="matrix(1 0 0 1 304.924 1933)">
   <path d="M14.9707 5.66406C21.9336 5.66406 27.6953-0.0976562 27.6953-7.05078C27.6953-14.0137 21.9238-19.7754 14.9609-19.7754C8.00781-19.7754 2.25586-14.0137 2.25586-7.05078C2.25586-0.0976562 8.01758 5.66406 14.9707 5.66406ZM14.9707 3.84766C8.93555 3.84766 4.08203-1.01562 4.08203-7.05078C4.08203-13.0957 8.92578-17.9492 14.9609-17.9492C21.0059-17.9492 25.8594-13.0957 25.8691-7.05078C25.8789-1.01562 21.0156 3.84766 14.9707 3.84766ZM10.0586-6.14258L14.0625-6.14258L14.0625-2.12891C14.0625-1.5918 14.4336-1.2207 14.9512-1.2207C15.4883-1.2207 15.8594-1.5918 15.8594-2.12891L15.8594-6.14258L19.8828-6.14258C20.4102-6.14258 20.791-6.51367 20.791-7.03125C20.791-7.56836 20.4199-7.94922 19.8828-7.94922L15.8594-7.94922L15.8594-11.9531C15.8594-12.5098 15.4883-12.8809 14.9512-12.8809C14.4336-12.8809 14.0625-12.5 14.0625-11.9531L14.0625-7.94922L10.0586-7.94922C9.50195-7.94922 9.13086-7.56836 9.13086-7.03125C9.13086-6.51367 9.51172-6.14258 10.0586-6.14258Z"/>
  </g>
  <text style="stroke:none;fill:black;font-family:-apple-system,&quot;SF Pro Display&quot;,&quot;SF Pro Text&quot;,Helvetica,sans-serif;font-weight:bold;" transform="matrix(1 0 0 1 263 1953)">Design Variations</text>
  <text style="stroke:none;fill:black;font-family:-apple-system,&quot;SF Pro Display&quot;,&quot;SF Pro Text&quot;,Helvetica,sans-serif;" transform="matrix(1 0 0 1 263 1971)">Symbols are supported in up to nine weights and three scales.</text>
  <text style="stroke:none;fill:black;font-family:-apple-system,&quot;SF Pro Display&quot;,&quot;SF Pro Text&quot;,Helvetica,sans-serif;" transform="matrix(1 0 0 1 263 1989)">For optimal layout with text and other symbols, vertically align</text>
  <text style="stroke:none;fill:black;font-family:-apple-system,&quot;SF Pro Display&quot;,&quot;SF Pro Text&quot;,Helvetica,sans-serif;" transform="matrix(1 0 0 1 263 2007)">symbols with the adjacent text.</text>
  <line id="" style="fill:none;stroke:#00AEEF;stroke-width:0.5;opacity:1.0;" x1="776" x2="776" y1="1919" y2="1933"/>
  <g id="" transform="matrix(1 0 0 1 776 1933)">
   <path d="M3.31055 0.126953C3.82812 0.126953 4.08203-0.0683594 4.26758-0.605469L5.52734-4.0625L11.2891-4.0625L12.5488-0.605469C12.7344-0.0683594 12.9883 0.126953 13.4961 0.126953C14.0137 0.126953 14.3457-0.185547 14.3457-0.673828C14.3457-0.839844 14.3164-0.986328 14.2383-1.20117L9.6582-13.3887C9.43359-13.9941 9.0332-14.2871 8.4082-14.2871C7.80273-14.2871 7.39258-13.9941 7.17773-13.3984L2.59766-1.19141C2.51953-0.976562 2.49023-0.830078 2.49023-0.664062C2.49023-0.175781 2.80273 0.126953 3.31055 0.126953ZM6.00586-5.53711L8.37891-12.1094L8.42773-12.1094L10.8008-5.53711Z"/>
  </g>
  <line id="" style="fill:none;stroke:#00AEEF;stroke-width:0.5;opacity:1.0;" x1="792.836" x2="792.836" y1="1919" y2="1933"/>
  <text style="stroke:none;fill:black;font-family:-apple-system,&quot;SF Pro Display&quot;,&quot;SF Pro Text&quot;,Helvetica,sans-serif;font-weight:bold;" transform="matrix(1 0 0 1 776 1953)">Margins</text>
  <text style="stroke:none;fill:black;font-family:-apple-system,&quot;SF Pro Display&quot;,&quot;SF Pro Text&quot;,Helvetica,sans-serif;" transform="matrix(1 0 0 1 776 1971)">Leading and trailing margins on the left and right side of each symbol</text>
  <text style="stroke:none;fill:black;font-family:-apple-system,&quot;SF Pro Display&quot;,&quot;SF Pro Text&quot;,Helvetica,sans-serif;" transform="matrix(1 0 0 1 776 1989)">can be adjusted by modifying the x-location of the margin guidelines.</text>
  <text style="stroke:none;fill:black;font-family:-apple-system,&quot;SF Pro Display&quot;,&quot;SF Pro Text&quot;,Helvetica,sans-serif;" transform="matrix(1 0 0 1 776 2007)">Modifications are automatically applied proportionally to all</text>
  <text style="stroke:none;fill:black;font-family:-apple-system,&quot;SF Pro Display&quot;,&quot;SF Pro Text&quot;,Helvetica,sans-serif;" transform="matrix(1 0 0 1 776 2025)">scales and weights.</text>
  <g id="" transform="matrix(1 0 0 1 1289 1933)">
   <path d="M2.8418 1.86523L4.54102 3.57422C5.40039 4.44336 6.38672 4.38477 7.31445 3.35938L17.4902-7.85156C17.7539-7.76367 18.0273-7.7832 18.3398-7.8418L19.4043-8.03711L20.0684-7.36328L20.0293-6.80664C19.9902-6.30859 20.1172-5.92773 20.6055-5.44922L21.3672-4.70703C21.8457-4.22852 22.4609-4.19922 22.9297-4.66797L25.8398-7.58789C26.3086-8.05664 26.2891-8.65234 25.8105-9.13086L25.0391-9.89258C24.5605-10.3711 24.1895-10.5273 23.7109-10.4883L23.1348-10.4395L22.4902-11.0742L22.7344-12.1973C22.8613-12.7637 22.7051-13.2031 22.1191-13.7891L19.9219-15.9766C16.582-19.2969 12.1484-19.2188 9.25781-16.3281C8.83789-15.918 8.80859-15.3418 9.04297-14.9512C9.27734-14.5898 9.73633-14.3555 10.3809-14.5215C11.8457-14.8633 13.3691-14.9219 14.7949-13.9844L14.209-12.5293C14.0137-12.0508 13.9844-11.6504 14.1113-11.2891L3.04688-0.898438C2.06055 0.0195312 1.98242 0.996094 2.8418 1.86523ZM10.752-15.957C13.1836-17.7344 16.4746-17.4316 18.7012-15.2051L21.1328-12.793C21.3672-12.5586 21.4062-12.373 21.3379-12.0312L21.0156-10.5469L22.5195-9.0625L23.5059-9.12109C23.7598-9.13086 23.8379-9.11133 24.0332-8.91602L24.6094-8.33984L22.168-5.89844L21.5918-6.47461C21.3965-6.66992 21.3672-6.74805 21.377-7.01172L21.4453-7.98828L19.9512-9.47266L18.4277-9.21875C18.1055-9.15039 17.959-9.17969 17.7148-9.41406L15.7129-11.416C15.459-11.6504 15.4297-11.8164 15.5859-12.1875L16.4648-14.2773C14.9023-15.7324 12.8711-16.3574 10.8398-15.7617C10.6836-15.7227 10.625-15.8496 10.752-15.957ZM5.27344 2.30469L4.10156 1.14258C3.63281 0.683594 3.74023 0.341797 4.14062-0.0195312L14.9512-10.1953L16.416-8.71094L6.42578 2.27539C6.07422 2.67578 5.74219 2.77344 5.27344 2.30469Z"/>
  </g>
  <text style="stroke:none;fill:black;font-family:-apple-system,&quot;SF Pro Display&quot;,&quot;SF Pro Text&quot;,Helvetica,sans-serif;font-weight:bold;" transform="matrix(1 0 0 1 1289 1953)">Exporting</text>
  <text style="stroke:none;fill:black;font-family:-apple-system,&quot;SF Pro Display&quot;,&quot;SF Pro Text&quot;,Helvetica,sans-serif;" transform="matrix(1 0 0 1 1289 1971)">Symbols should be outlined when exporting to ensure the</text>
  <text style="stroke:none;fill:black;font-family:-apple-system,&quot;SF Pro Display&quot;,&quot;SF Pro Text&quot;,Helvetica,sans-serif;" transform="matrix(1 0 0 1 1289 1989)">design is preserved when submitting to Xcode.</text>
  <text id="template-version" style="stroke:none;fill:black;font-family:-apple-system,&quot;SF Pro Display&quot;,&quot;SF Pro Text&quot;,Helvetica,sans-serif;text-anchor:end;" transform="matrix(1 0 0 1 3036 1933)">Template v.2.0</text>
  <text style="stroke:none;fill:black;font-family:-apple-system,&quot;SF Pro Display&quot;,&quot;SF Pro Text&quot;,Helvetica,sans-serif;text-anchor:end;" transform="matrix(1 0 0 1 3036 1951)">Requires Xcode 12 or greater</text>
  <text style="stroke:none;fill:black;font-family:-apple-system,&quot;SF Pro Display&quot;,&quot;SF Pro Text&quot;,Helvetica,sans-serif;" transform="matrix(1 0 0 1 263 726)">Small</text>
  <text style="stroke:none;fill:black;font-family:-apple-system,&quot;SF Pro Display&quot;,&quot;SF Pro Text&quot;,Helvetica,sans-serif;" transform="matrix(1 0 0 1 263 1156)">Medium</text>
  <text style="stroke:none;fill:black;font-family:-apple-system,&quot;SF Pro Display&quot;,&quot;SF Pro Text&quot;,Helvetica,sans-serif;" transform="matrix(1 0 0 1 263 1586)">Large</text>
 </g>
 <g id="Guides">
  <g id="H-reference" style="fill:#27AAE1;stroke:none;" transform="matrix(1 0 0 1 339 696)">
   <path d="M0.976562 0L3.66211 0L12.9883-24.4629L45.752-24.4629L55.127 0L57.7637 0L30.6152-70.459L28.125-70.459ZM29.3457-67.1387L29.4434-67.1387L44.873-26.709L13.8672-26.709Z"/>
  </g>
  <line id="Baseline-S" style="fill:none;stroke:#27AAE1;opacity:1;stroke-width:0.5;" x1="263" x2="3036" y1="696" y2="696"/>
  <line id="Capline-S" style="fill:none;stroke:#27AAE1;opacity:1;stroke-width:0.5;" x1="263" x2="3036" y1="625.541" y2="625.541"/>
  <g id="H-reference" style="fill:#27AAE1;stroke:none;" transform="matrix(1 0 0 1 339 1126)">
   <path d="M0.976562 0L3.66211 0L12.9883-24.4629L45.752-24.4629L55.127 0L57.7637 0L30.6152-70.459L28.125-70.459ZM29.3457-67.1387L29.4434-67.1387L44.873-26.709L13.8672-26.709Z"/>
  </g>
  <line id="Baseline-M" style="fill:none;stroke:#27AAE1;opacity:1;stroke-width:0.5;" x1="263" x2="3036" y1="1126" y2="1126"/>
  <line id="Capline-M" style="fill:none;stroke:#27AAE1;opacity:1;stroke-width:0.5;" x1="263" x2="3036" y1="1055.54" y2="1055.54"/>
  <g id="H-reference" style="fill:#27AAE1;stroke:none;" transform="matrix(1 0 0 1 339 1556)">
   <path d="M0.976562 0L3.66211 0L12.9883-24.4629L45.752-24.4629L55.127 0L57.7637 0L30.6152-70.459L28.125-70.459ZM29.3457-67.1387L29.4434-67.1387L44.873-26.709L13.8672-26.709Z"/>
  </g>
  <line id="Baseline-L" style="fill:none;stroke:#27AAE1;opacity:1;stroke-width:0.5;" x1="263" x2="3036" y1="1556" y2="1556"/>
  <line id="Capline-L" style="fill:none;stroke:#27AAE1;opacity:1;stroke-width:0.5;" x1="263" x2="3036" y1="1485.54" y2="1485.54"/>
  <line id="left-margin" x1="1392.4133658854166" x2="1392.4133658854166" y1="1030.79" y2="1150.12" style="fill:none;stroke:#00AEEF;stroke-width:0.5;opacity:1.0;"/>
  <line id="right-margin" x1="1509.8466341145831" x2="1509.8466341145831" y1="1030.79" y2="1150.12" style="fill:none;stroke:#00AEEF;stroke-width:0.5;opacity:1.0;"/>
 </g>
 <g id="Symbols">
  <g id="Black-L" transform="matrix(1.0,0.0,0.0,1.0,2858.935541992187,1445.0255615234375)">  <path stroke-miterlimit="4" stroke="none" stroke-linecap="round" fill-opacity="1" fill-rule="nonzero" stroke-width="1.5px" stroke-dasharray="none" stroke-opacity="1" stroke-linejoin="round" fill="#000000" d="M130.391,44.184L130.391,25.248C130.391,15.984,122.881,8.474,113.617,8.474L31.56,8.474C18.81,8.474,8.474,18.81,8.474,31.56C8.474,44.31,18.81,54.646,31.56,54.646L126.241,54.646C123.949,54.646,122.091,52.788,122.091,50.496L122.091,75.744L132.553,65.282L113.617,65.282C100.866,65.282,90.53,75.618,90.53,88.369C90.53,101.119,100.866,111.455,113.617,111.455L132.553,111.455C141.817,111.455,149.327,103.945,149.327,94.681L149.327,82.056C149.327,72.792,141.817,65.282,132.553,65.282C126.775,65.282,122.091,69.966,122.091,75.744C122.091,81.523,126.775,86.207,132.553,86.207C130.261,86.207,128.403,84.349,128.403,82.056L128.403,94.681C128.403,92.388,130.261,90.53,132.553,90.53L113.617,90.53C112.423,90.53,111.455,89.563,111.455,88.369C111.455,87.175,112.423,86.207,113.617,86.207L132.553,86.207C138.331,86.207,143.015,81.523,143.015,75.744L143.015,50.496C143.015,41.232,135.505,33.722,126.241,33.722L31.56,33.722C30.366,33.722,29.398,32.754,29.398,31.56C29.398,30.366,30.366,29.398,31.56,29.398L113.617,29.398C111.325,29.398,109.467,27.54,109.467,25.248L109.467,44.184C109.467,49.962,114.151,54.646,119.929,54.646C125.707,54.646,130.391,49.962,130.391,44.184Z"/>
  <path stroke-opacity="1" stroke-miterlimit="4" stroke="none" fill-rule="nonzero" stroke-dasharray="none" stroke-linejoin="round" fill="#000000" fill-opacity="1" stroke-linecap="round" stroke-width="1.5px" d="M8.474,31.56L8.474,119.929C8.474,132.679,18.81,143.015,31.56,143.015L126.241,143.015C135.505,143.015,143.015,135.505,143.015,126.241L143.015,100.993C143.015,95.214,138.331,90.53,132.553,90.53C126.775,90.53,122.091,95.214,122.091,100.993L122.091,126.241C122.091,123.949,123.949,122.091,126.241,122.091L31.56,122.091C30.366,122.091,29.398,121.123,29.398,119.929L29.398,31.56C29.398,25.782,24.714,21.098,18.936,21.098C13.158,21.098,8.474,25.782,8.474,31.56Z"/>
</g>
  <g id="Heavy-L" transform="matrix(1.0,0.0,0.0,1.0,2562.225541992187,1445.0255615234375)">  <path stroke-miterlimit="4" fill-rule="nonzero" stroke-linejoin="round" stroke-linecap="round" stroke-width="1.5px" fill="#000000" fill-opacity="1" stroke="none" stroke-opacity="1" stroke-dasharray="none" d="M129.245,44.184L129.245,25.248C129.245,16.617,122.248,9.62,113.617,9.62L31.56,9.62C19.443,9.62,9.62,19.443,9.62,31.56C9.62,43.678,19.443,53.501,31.56,53.501L126.241,53.501C124.581,53.501,123.236,52.156,123.236,50.496L123.236,75.744L132.553,66.428L113.617,66.428C101.499,66.428,91.676,76.251,91.676,88.369C91.676,100.486,101.499,110.309,113.617,110.309L132.553,110.309C141.184,110.309,148.181,103.312,148.181,94.681L148.181,82.056C148.181,73.425,141.184,66.428,132.553,66.428C127.407,66.428,123.236,70.599,123.236,75.744C123.236,80.89,127.407,85.061,132.553,85.061C130.893,85.061,129.548,83.716,129.548,82.056L129.548,94.681C129.548,93.021,130.893,91.676,132.553,91.676L113.617,91.676C111.79,91.676,110.309,90.195,110.309,88.369C110.309,86.542,111.79,85.061,113.617,85.061L132.553,85.061C137.698,85.061,141.869,80.89,141.869,75.744L141.869,50.496C141.869,41.865,134.872,34.868,126.241,34.868L31.56,34.868C29.734,34.868,28.253,33.387,28.253,31.56C28.253,29.734,29.734,28.253,31.56,28.253L113.617,28.253C111.957,28.253,110.612,26.908,110.612,25.248L110.612,44.184C110.612,49.33,114.783,53.501,119.929,53.501C125.074,53.501,129.245,49.33,129.245,44.184Z"/>
  <path fill-opacity="1" fill-rule="nonzero" stroke-width="1.5px" stroke-linecap="round" stroke-dasharray="none" stroke-opacity="1" fill="#000000" stroke-miterlimit="4" stroke-linejoin="round" stroke="none" d="M9.62,31.56L9.62,119.929C9.62,132.046,19.443,141.869,31.56,141.869L126.241,141.869C134.872,141.869,141.869,134.872,141.869,126.241L141.869,100.993C141.869,95.847,137.698,91.676,132.553,91.676C127.407,91.676,123.236,95.847,123.236,100.993L123.236,126.241C123.236,124.581,124.581,123.236,126.241,123.236L31.56,123.236C29.734,123.236,28.253,121.755,28.253,119.929L28.253,31.56C28.253,26.415,24.082,22.244,18.936,22.244C13.791,22.244,9.62,26.415,9.62,31.56Z"/>
</g>
  <g id="Bold-L" transform="matrix(1.0,0.0,0.0,1.0,2265.515541992187,1445.0255615234375)">  <path stroke-miterlimit="4" stroke-linecap="round" stroke-dasharray="none" stroke="none" stroke-linejoin="round" stroke-opacity="1" fill-opacity="1" fill-rule="nonzero" fill="#000000" stroke-width="1.5px" d="M128.1,44.184L128.1,25.248C128.1,17.249,121.615,10.765,113.617,10.765L31.56,10.765C20.075,10.765,10.765,20.075,10.765,31.56C10.765,43.045,20.075,52.355,31.56,52.355L126.241,52.355C125.214,52.355,124.382,51.523,124.382,50.496L124.382,75.744L132.553,67.574L113.617,67.574C102.132,67.574,92.822,76.884,92.822,88.369C92.822,99.853,102.132,109.164,113.617,109.164L132.553,109.164C140.552,109.164,147.036,102.679,147.036,94.681L147.036,82.056C147.036,74.058,140.552,67.574,132.553,67.574C128.04,67.574,124.382,71.232,124.382,75.744C124.382,80.257,128.04,83.915,132.553,83.915C131.526,83.915,130.694,83.083,130.694,82.056L130.694,94.681C130.694,93.654,131.526,92.822,132.553,92.822L113.617,92.822C111.157,92.822,109.164,90.828,109.164,88.369C109.164,85.909,111.157,83.915,113.617,83.915L132.553,83.915C137.065,83.915,140.724,80.257,140.724,75.744L140.724,50.496C140.724,42.498,134.239,36.013,126.241,36.013L31.56,36.013C29.101,36.013,27.107,34.02,27.107,31.56C27.107,29.101,29.101,27.107,31.56,27.107L113.617,27.107C112.59,27.107,111.758,26.275,111.758,25.248L111.758,44.184C111.758,48.697,115.416,52.355,119.929,52.355C124.441,52.355,128.1,48.697,128.1,44.184Z"/>
  <path stroke-miterlimit="4" fill="#000000" stroke="none" stroke-opacity="1" stroke-dasharray="none" fill-rule="nonzero" fill-opacity="1" stroke-width="1.5px" stroke-linejoin="round" stroke-linecap="round" d="M10.765,31.56L10.765,119.929C10.765,131.413,20.075,140.724,31.56,140.724L126.241,140.724C134.239,140.724,140.724,134.239,140.724,126.241L140.724,100.993C140.724,96.48,137.065,92.822,132.553,92.822C128.04,92.822,124.382,96.48,124.382,100.993L124.382,126.241C124.382,125.214,125.214,124.382,126.241,124.382L31.56,124.382C29.101,124.382,27.107,122.388,27.107,119.929L27.107,31.56C27.107,27.048,23.449,23.389,18.936,23.389C14.423,23.389,10.765,27.048,10.765,31.56Z"/>
</g>
  <g id="Semibold-L" transform="matrix(1.0,0.0,0.0,1.0,1968.8055419921875,1445.0255615234375)">  <path fill="#000000" stroke-linejoin="round" stroke-opacity="1" fill-rule="nonzero" stroke-miterlimit="4" stroke-linecap="round" fill-opacity="1" stroke-width="1.5px" stroke="none" stroke-dasharray="none" d="M126.954,44.184L126.954,25.248C126.954,17.882,120.983,11.911,113.617,11.911L31.56,11.911C20.708,11.911,11.911,20.708,11.911,31.56C11.911,42.412,20.708,51.21,31.56,51.21L126.241,51.21C125.847,51.21,125.528,50.89,125.528,50.496L125.528,75.744L132.553,68.719L113.617,68.719C102.765,68.719,93.967,77.516,93.967,88.369C93.967,99.221,102.765,108.018,113.617,108.018L132.553,108.018C139.919,108.018,145.89,102.047,145.89,94.681L145.89,82.056C145.89,74.69,139.919,68.719,132.553,68.719C128.673,68.719,125.528,71.864,125.528,75.744C125.528,79.624,128.673,82.77,132.553,82.77C132.159,82.77,131.84,82.45,131.84,82.056L131.84,94.681C131.84,94.287,132.159,93.967,132.553,93.967L113.617,93.967C110.525,93.967,108.018,91.461,108.018,88.369C108.018,85.276,110.525,82.77,113.617,82.77L132.553,82.77C136.433,82.77,139.578,79.624,139.578,75.744L139.578,50.496C139.578,43.13,133.607,37.159,126.241,37.159L31.56,37.159C28.468,37.159,25.961,34.652,25.961,31.56C25.961,28.468,28.468,25.961,31.56,25.961L113.617,25.961C113.223,25.961,112.903,25.642,112.903,25.248L112.903,44.184C112.903,48.064,116.049,51.21,119.929,51.21C123.809,51.21,126.954,48.064,126.954,44.184Z"/>
  <path stroke-linecap="round" stroke-opacity="1" fill-rule="nonzero" stroke-linejoin="round" stroke-miterlimit="4" fill="#000000" stroke="none" stroke-dasharray="none" fill-opacity="1" stroke-width="1.5px" d="M11.911,31.56L11.911,119.929C11.911,130.781,20.708,139.578,31.56,139.578L126.241,139.578C133.607,139.578,139.578,133.607,139.578,126.241L139.578,100.993C139.578,97.113,136.433,93.967,132.553,93.967C128.673,93.967,125.528,97.113,125.528,100.993L125.528,126.241C125.528,125.847,125.847,125.528,126.241,125.528L31.56,125.528C28.468,125.528,25.961,123.021,25.961,119.929L25.961,31.56C25.961,27.68,22.816,24.535,18.936,24.535C15.056,24.535,11.911,27.68,11.911,31.56Z"/>
</g>
  <g id="Medium-L" transform="matrix(1.0,0.0,0.0,1.0,1672.0955419921875,1445.0255615234375)">  <path stroke-opacity="1" fill-opacity="1" stroke-linejoin="round" stroke-width="1.5px" stroke-linecap="round" fill="#000000" stroke-dasharray="none" stroke-miterlimit="4" stroke="none" fill-rule="nonzero" d="M125.808,44.184L125.808,25.248C125.808,18.515,120.35,13.056,113.617,13.056L31.56,13.056C21.341,13.056,13.056,21.341,13.056,31.56C13.056,41.78,21.341,50.064,31.56,50.064L126.241,50.064C126.48,50.064,126.673,50.258,126.673,50.496L126.673,75.744L132.553,69.865L113.617,69.865C103.397,69.865,95.113,78.149,95.113,88.369C95.113,98.588,103.397,106.872,113.617,106.872L132.553,106.872C139.286,106.872,144.745,101.414,144.745,94.681L144.745,82.056C144.745,75.323,139.286,69.865,132.553,69.865C129.306,69.865,126.673,72.497,126.673,75.744C126.673,78.992,129.306,81.624,132.553,81.624C132.792,81.624,132.985,81.818,132.985,82.056L132.985,94.681C132.985,94.919,132.792,95.113,132.553,95.113L113.617,95.113C109.892,95.113,106.872,92.093,106.872,88.369C106.872,84.644,109.892,81.624,113.617,81.624L132.553,81.624C135.8,81.624,138.432,78.992,138.432,75.744L138.432,50.496C138.432,43.763,132.974,38.305,126.241,38.305L31.56,38.305C27.835,38.305,24.816,35.285,24.816,31.56C24.816,27.835,27.835,24.816,31.56,24.816L113.617,24.816C113.855,24.816,114.049,25.009,114.049,25.248L114.049,44.184C114.049,47.432,116.681,50.064,119.929,50.064C123.176,50.064,125.808,47.432,125.808,44.184Z"/>
  <path stroke-linecap="round" stroke-width="1.5px" stroke-linejoin="round" fill-opacity="1" fill="#000000" stroke-miterlimit="4" stroke="none" fill-rule="nonzero" stroke-dasharray="none" stroke-opacity="1" d="M13.056,31.56L13.056,119.929C13.056,130.148,21.341,138.432,31.56,138.432L126.241,138.432C132.974,138.432,138.432,132.974,138.432,126.241L138.432,100.993C138.432,97.745,135.8,95.113,132.553,95.113C129.306,95.113,126.673,97.745,126.673,100.993L126.673,126.241C126.673,126.48,126.48,126.673,126.241,126.673L31.56,126.673C27.835,126.673,24.816,123.654,24.816,119.929L24.816,31.56C24.816,28.313,22.183,25.681,18.936,25.681C15.689,25.681,13.056,28.313,13.056,31.56Z"/>
</g>
  <g id="Regular-L" transform="matrix(1.0,0.0,0.0,1.0,1375.3855419921874,1445.0255615234375)">  <path stroke="none" fill="#000000" stroke-opacity="1" stroke-dasharray="none" stroke-linejoin="round" fill-rule="nonzero" stroke-miterlimit="4" stroke-linecap="round" stroke-width="1.5px" fill-opacity="1" d="M124.663,44.184L124.663,25.248C124.663,19.148,119.717,14.202,113.617,14.202L31.56,14.202C21.974,14.202,14.202,21.974,14.202,31.56C14.202,41.147,21.974,48.918,31.56,48.918L126.241,48.918C127.112,48.918,127.819,49.625,127.819,50.496L127.819,75.744L132.553,71.01L113.617,71.01C104.03,71.01,96.259,78.782,96.259,88.369C96.259,97.955,104.03,105.727,113.617,105.727L132.553,105.727C138.653,105.727,143.599,100.781,143.599,94.681L143.599,82.056C143.599,75.956,138.653,71.01,132.553,71.01C129.938,71.01,127.819,73.13,127.819,75.744C127.819,78.359,129.938,80.478,132.553,80.478C133.424,80.478,134.131,81.185,134.131,82.056L134.131,94.681C134.131,95.552,133.424,96.259,132.553,96.259L113.617,96.259C109.259,96.259,105.727,92.726,105.727,88.369C105.727,84.011,109.259,80.478,113.617,80.478L132.553,80.478C135.167,80.478,137.287,78.359,137.287,75.744L137.287,50.496C137.287,44.396,132.341,39.45,126.241,39.45L31.56,39.45C27.203,39.45,23.67,35.918,23.67,31.56C23.67,27.203,27.203,23.67,31.56,23.67L113.617,23.67C114.488,23.67,115.195,24.377,115.195,25.248L115.195,44.184C115.195,46.799,117.314,48.918,119.929,48.918C122.543,48.918,124.663,46.799,124.663,44.184Z"/>
  <path stroke="none" fill="#000000" stroke-opacity="1" stroke-dasharray="none" fill-rule="nonzero" fill-opacity="1" stroke-width="1.5px" stroke-linecap="round" stroke-miterlimit="4" stroke-linejoin="round" d="M14.202,31.56L14.202,119.929C14.202,129.515,21.974,137.287,31.56,137.287L126.241,137.287C132.341,137.287,137.287,132.341,137.287,126.241L137.287,100.993C137.287,98.378,135.167,96.259,132.553,96.259C129.938,96.259,127.819,98.378,127.819,100.993L127.819,126.241C127.819,127.112,127.112,127.819,126.241,127.819L31.56,127.819C27.203,127.819,23.67,124.286,23.67,119.929L23.67,31.56C23.67,28.946,21.551,26.826,18.936,26.826C16.322,26.826,14.202,28.946,14.202,31.56Z"/>
</g>
  <g id="Light-L" transform="matrix(1.0,0.0,0.0,1.0,1078.6755419921876,1445.0255615234375)">  <path stroke-opacity="1" stroke="none" stroke-width="1.5px" stroke-linecap="round" stroke-dasharray="none" stroke-miterlimit="4" fill-opacity="1" stroke-linejoin="round" fill="#000000" fill-rule="nonzero" d="M123.874,44.184L123.874,25.248C123.874,19.583,119.282,14.991,113.617,14.991L31.56,14.991C22.409,14.991,14.991,22.409,14.991,31.56C14.991,40.711,22.409,48.129,31.56,48.129L126.241,48.129C127.548,48.129,128.608,49.189,128.608,50.496L128.608,75.744L132.553,71.799L113.617,71.799C104.466,71.799,97.048,79.218,97.048,88.369C97.048,97.519,104.466,104.938,113.617,104.938L132.553,104.938C138.218,104.938,142.81,100.345,142.81,94.681L142.81,82.056C142.81,76.392,138.218,71.799,132.553,71.799C130.374,71.799,128.608,73.566,128.608,75.744C128.608,77.923,130.374,79.689,132.553,79.689C133.86,79.689,134.92,80.749,134.92,82.056L134.92,94.681C134.92,95.988,133.86,97.048,132.553,97.048L113.617,97.048C108.823,97.048,104.938,93.162,104.938,88.369C104.938,83.575,108.823,79.689,113.617,79.689L132.553,79.689C134.732,79.689,136.498,77.923,136.498,75.744L136.498,50.496C136.498,44.831,131.906,40.239,126.241,40.239L31.56,40.239C26.767,40.239,22.881,36.353,22.881,31.56C22.881,26.767,26.767,22.881,31.56,22.881L113.617,22.881C114.924,22.881,115.984,23.941,115.984,25.248L115.984,44.184C115.984,46.363,117.75,48.129,119.929,48.129C122.108,48.129,123.874,46.363,123.874,44.184Z"/>
  <path stroke="none" stroke-linecap="round" stroke-width="1.5px" fill-rule="nonzero" stroke-linejoin="round" stroke-dasharray="none" stroke-opacity="1" fill="#000000" fill-opacity="1" stroke-miterlimit="4" d="M14.991,31.56L14.991,119.929C14.991,129.08,22.409,136.498,31.56,136.498L126.241,136.498C131.906,136.498,136.498,131.906,136.498,126.241L136.498,100.993C136.498,98.814,134.732,97.048,132.553,97.048C130.374,97.048,128.608,98.814,128.608,100.993L128.608,126.241C128.608,127.548,127.548,128.608,126.241,128.608L31.56,128.608C26.767,128.608,22.881,124.722,22.881,119.929L22.881,31.56C22.881,29.381,21.115,27.615,18.936,27.615C16.757,27.615,14.991,29.381,14.991,31.56Z"/>
</g>
  <g id="Thin-L" transform="matrix(1.0,0.0,0.0,1.0,781.9655419921876,1445.0255615234375)">  <path stroke-dasharray="none" stroke-linejoin="round" fill="#000000" stroke-miterlimit="4" stroke-width="1.5px" stroke-opacity="1" stroke-linecap="round" stroke="none" fill-opacity="1" fill-rule="nonzero" d="M123.085,44.184L123.085,25.248C123.085,20.019,118.846,15.78,113.617,15.78L31.56,15.78C22.845,15.78,15.78,22.845,15.78,31.56C15.78,40.275,22.845,47.34,31.56,47.34L126.241,47.34C127.984,47.34,129.397,48.753,129.397,50.496L129.397,75.744L132.553,72.588L113.617,72.588C104.902,72.588,97.837,79.653,97.837,88.369C97.837,97.084,104.902,104.149,113.617,104.149L132.553,104.149C137.782,104.149,142.021,99.91,142.021,94.681L142.021,82.056C142.021,76.827,137.782,72.588,132.553,72.588C130.81,72.588,129.397,74.001,129.397,75.744C129.397,77.487,130.81,78.9,132.553,78.9C134.296,78.9,135.709,80.313,135.709,82.056L135.709,94.681C135.709,96.424,134.296,97.837,132.553,97.837L113.617,97.837C108.388,97.837,104.149,93.598,104.149,88.369C104.149,83.139,108.388,78.9,113.617,78.9L132.553,78.9C134.296,78.9,135.709,77.487,135.709,75.744L135.709,50.496C135.709,45.267,131.47,41.028,126.241,41.028L31.56,41.028C26.331,41.028,22.092,36.789,22.092,31.56C22.092,26.331,26.331,22.092,31.56,22.092L113.617,22.092C115.36,22.092,116.773,23.505,116.773,25.248L116.773,44.184C116.773,45.927,118.186,47.34,119.929,47.34C121.672,47.34,123.085,45.927,123.085,44.184Z"/>
  <path stroke-width="1.5px" stroke-opacity="1" fill="#000000" stroke-linecap="round" stroke="none" stroke-dasharray="none" stroke-linejoin="round" fill-opacity="1" stroke-miterlimit="4" fill-rule="nonzero" d="M15.78,31.56L15.78,119.929C15.78,128.644,22.845,135.709,31.56,135.709L126.241,135.709C131.47,135.709,135.709,131.47,135.709,126.241L135.709,100.993C135.709,99.25,134.296,97.837,132.553,97.837C130.81,97.837,129.397,99.25,129.397,100.993L129.397,126.241C129.397,127.984,127.984,129.397,126.241,129.397L31.56,129.397C26.331,129.397,22.092,125.158,22.092,119.929L22.092,31.56C22.092,29.817,20.679,28.404,18.936,28.404C17.193,28.404,15.78,29.817,15.78,31.56Z"/>
</g>
  <g id="Ultralight-L" transform="matrix(1.0,0.0,0.0,1.0,485.2555419921875,1445.0255615234375)">  <path fill="#000000" stroke="none" fill-rule="nonzero" stroke-linecap="round" stroke-miterlimit="4" stroke-opacity="1" fill-opacity="1" stroke-linejoin="round" stroke-width="1.5px" stroke-dasharray="none" d="M122.296,44.184L122.296,25.248C122.296,20.455,118.41,16.569,113.617,16.569L31.56,16.569C23.281,16.569,16.569,23.281,16.569,31.56C16.569,39.84,23.281,46.551,31.56,46.551L126.241,46.551C128.42,46.551,130.186,48.318,130.186,50.496L130.186,75.744L132.553,73.377L113.617,73.377C105.337,73.377,98.626,80.089,98.626,88.369C98.626,96.648,105.337,103.36,113.617,103.36L132.553,103.36C137.346,103.36,141.232,99.474,141.232,94.681L141.232,82.056C141.232,77.263,137.346,73.377,132.553,73.377C131.246,73.377,130.186,74.437,130.186,75.744C130.186,77.052,131.246,78.111,132.553,78.111C134.732,78.111,136.498,79.878,136.498,82.056L136.498,94.681C136.498,96.859,134.732,98.626,132.553,98.626L113.617,98.626C107.952,98.626,103.36,94.033,103.36,88.369C103.36,82.704,107.952,78.111,113.617,78.111L132.553,78.111C133.86,78.111,134.92,77.052,134.92,75.744L134.92,50.496C134.92,45.703,131.034,41.817,126.241,41.817L31.56,41.817C25.895,41.817,21.303,37.225,21.303,31.56C21.303,25.895,25.895,21.303,31.56,21.303L113.617,21.303C115.795,21.303,117.562,23.069,117.562,25.248L117.562,44.184C117.562,45.492,118.621,46.551,119.929,46.551C121.236,46.551,122.296,45.492,122.296,44.184Z"/>
  <path fill="#000000" fill-rule="nonzero" stroke-linecap="round" stroke="none" stroke-linejoin="round" stroke-dasharray="none" stroke-miterlimit="4" fill-opacity="1" stroke-width="1.5px" stroke-opacity="1" d="M16.569,31.56L16.569,119.929C16.569,128.208,23.281,134.92,31.56,134.92L126.241,134.92C131.034,134.92,134.92,131.034,134.92,126.241L134.92,100.993C134.92,99.685,133.86,98.626,132.553,98.626C131.246,98.626,130.186,99.685,130.186,100.993L130.186,126.241C130.186,128.42,128.42,130.186,126.241,130.186L31.56,130.186C25.895,130.186,21.303,125.594,21.303,119.929L21.303,31.56C21.303,30.253,20.243,29.193,18.936,29.193C17.629,29.193,16.569,30.253,16.569,31.56Z"/>
</g>
  <g id="Black-M" transform="matrix(1.0,0.0,0.0,1.0,2875.9633658854164,1032.0533854166667)">  <path stroke-miterlimit="4" stroke="none" stroke-linecap="round" fill-opacity="1" fill-rule="nonzero" stroke-width="1.5px" stroke-dasharray="none" stroke-opacity="1" stroke-linejoin="round" fill="#000000" d="M101.078,34.251L101.078,19.572C101.078,12.391,95.256,6.569,88.075,6.569L24.465,6.569C14.581,6.569,6.569,14.581,6.569,24.465C6.569,34.349,14.581,42.362,24.465,42.362L97.861,42.362C96.084,42.362,94.644,40.921,94.644,39.144L94.644,58.717L102.754,50.606L88.075,50.606C78.191,50.606,70.179,58.619,70.179,68.503C70.179,78.387,78.191,86.399,88.075,86.399L102.754,86.399C109.936,86.399,115.757,80.577,115.757,73.396L115.757,63.61C115.757,56.428,109.936,50.606,102.754,50.606C98.275,50.606,94.644,54.237,94.644,58.717C94.644,63.196,98.275,66.827,102.754,66.827C100.977,66.827,99.537,65.386,99.537,63.61L99.537,73.396C99.537,71.619,100.977,70.179,102.754,70.179L88.075,70.179C87.149,70.179,86.399,69.428,86.399,68.503C86.399,67.577,87.149,66.827,88.075,66.827L102.754,66.827C107.233,66.827,110.864,63.196,110.864,58.717L110.864,39.144C110.864,31.963,105.043,26.141,97.861,26.141L24.465,26.141C23.54,26.141,22.789,25.391,22.789,24.465C22.789,23.54,23.54,22.789,24.465,22.789L88.075,22.789C86.298,22.789,84.858,21.349,84.858,19.572L84.858,34.251C84.858,38.731,88.489,42.362,92.968,42.362C97.447,42.362,101.078,38.731,101.078,34.251Z"/>
  <path stroke-opacity="1" stroke-miterlimit="4" stroke="none" fill-rule="nonzero" stroke-dasharray="none" stroke-linejoin="round" fill="#000000" fill-opacity="1" stroke-linecap="round" stroke-width="1.5px" d="M6.569,24.465L6.569,92.968C6.569,102.852,14.581,110.864,24.465,110.864L97.861,110.864C105.043,110.864,110.864,105.043,110.864,97.861L110.864,78.289C110.864,73.81,107.233,70.179,102.754,70.179C98.275,70.179,94.644,73.81,94.644,78.289L94.644,97.861C94.644,96.084,96.084,94.644,97.861,94.644L24.465,94.644C23.54,94.644,22.789,93.894,22.789,92.968L22.789,24.465C22.789,19.986,19.158,16.355,14.679,16.355C10.2,16.355,6.569,19.986,6.569,24.465Z"/>
</g>
  <g id="Heavy-M" transform="matrix(1.0,0.0,0.0,1.0,2579.2533658854163,1032.0533854166667)">  <path stroke-miterlimit="4" fill-rule="nonzero" stroke-linejoin="round" stroke-linecap="round" stroke-width="1.5px" fill="#000000" fill-opacity="1" stroke="none" stroke-opacity="1" stroke-dasharray="none" d="M100.19,34.251L100.19,19.572C100.19,12.881,94.766,7.457,88.075,7.457L24.465,7.457C15.072,7.457,7.457,15.072,7.457,24.465C7.457,33.859,15.072,41.474,24.465,41.474L97.861,41.474C96.575,41.474,95.532,40.431,95.532,39.144L95.532,58.717L102.754,51.494L88.075,51.494C78.682,51.494,71.067,59.109,71.067,68.503C71.067,77.896,78.682,85.511,88.075,85.511L102.754,85.511C109.445,85.511,114.869,80.087,114.869,73.396L114.869,63.61C114.869,56.919,109.445,51.494,102.754,51.494C98.765,51.494,95.532,54.728,95.532,58.717C95.532,62.705,98.765,65.939,102.754,65.939C101.468,65.939,100.425,64.896,100.425,63.61L100.425,73.396C100.425,72.109,101.468,71.067,102.754,71.067L88.075,71.067C86.659,71.067,85.511,69.919,85.511,68.503C85.511,67.087,86.659,65.939,88.075,65.939L102.754,65.939C106.743,65.939,109.976,62.705,109.976,58.717L109.976,39.144C109.976,32.453,104.552,27.029,97.861,27.029L24.465,27.029C23.049,27.029,21.901,25.881,21.901,24.465C21.901,23.049,23.049,21.901,24.465,21.901L88.075,21.901C86.789,21.901,85.746,20.859,85.746,19.572L85.746,34.251C85.746,38.24,88.979,41.474,92.968,41.474C96.957,41.474,100.19,38.24,100.19,34.251Z"/>
  <path fill-opacity="1" fill-rule="nonzero" stroke-width="1.5px" stroke-linecap="round" stroke-dasharray="none" stroke-opacity="1" fill="#000000" stroke-miterlimit="4" stroke-linejoin="round" stroke="none" d="M7.457,24.465L7.457,92.968C7.457,102.361,15.072,109.976,24.465,109.976L97.861,109.976C104.552,109.976,109.976,104.552,109.976,97.861L109.976,78.289C109.976,74.3,106.743,71.067,102.754,71.067C98.765,71.067,95.532,74.3,95.532,78.289L95.532,97.861C95.532,96.575,96.575,95.532,97.861,95.532L24.465,95.532C23.049,95.532,21.901,94.384,21.901,92.968L21.901,24.465C21.901,20.477,18.668,17.243,14.679,17.243C10.69,17.243,7.457,20.477,7.457,24.465Z"/>
</g>
  <g id="Bold-M" transform="matrix(1.0,0.0,0.0,1.0,2282.5433658854163,1032.0533854166667)">  <path stroke-miterlimit="4" stroke-linecap="round" stroke-dasharray="none" stroke="none" stroke-linejoin="round" stroke-opacity="1" fill-opacity="1" fill-rule="nonzero" fill="#000000" stroke-width="1.5px" d="M99.302,34.251L99.302,19.572C99.302,13.372,94.276,8.345,88.075,8.345L24.465,8.345C15.562,8.345,8.345,15.562,8.345,24.465C8.345,33.368,15.562,40.585,24.465,40.585L97.861,40.585C97.065,40.585,96.42,39.94,96.42,39.144L96.42,58.717L102.754,52.383L88.075,52.383C79.172,52.383,71.955,59.6,71.955,68.503C71.955,77.406,79.172,84.623,88.075,84.623L102.754,84.623C108.955,84.623,113.981,79.596,113.981,73.396L113.981,63.61C113.981,57.409,108.955,52.383,102.754,52.383C99.256,52.383,96.42,55.218,96.42,58.717C96.42,62.215,99.256,65.051,102.754,65.051C101.958,65.051,101.313,64.406,101.313,63.61L101.313,73.396C101.313,72.6,101.958,71.955,102.754,71.955L88.075,71.955C86.168,71.955,84.623,70.409,84.623,68.503C84.623,66.596,86.168,65.051,88.075,65.051L102.754,65.051C106.252,65.051,109.088,62.215,109.088,58.717L109.088,39.144C109.088,32.944,104.062,27.917,97.861,27.917L24.465,27.917C22.559,27.917,21.013,26.372,21.013,24.465C21.013,22.559,22.559,21.013,24.465,21.013L88.075,21.013C87.279,21.013,86.634,20.368,86.634,19.572L86.634,34.251C86.634,37.75,89.47,40.585,92.968,40.585C96.466,40.585,99.302,37.75,99.302,34.251Z"/>
  <path stroke-miterlimit="4" fill="#000000" stroke="none" stroke-opacity="1" stroke-dasharray="none" fill-rule="nonzero" fill-opacity="1" stroke-width="1.5px" stroke-linejoin="round" stroke-linecap="round" d="M8.345,24.465L8.345,92.968C8.345,101.871,15.562,109.088,24.465,109.088L97.861,109.088C104.062,109.088,109.088,104.062,109.088,97.861L109.088,78.289C109.088,74.791,106.252,71.955,102.754,71.955C99.256,71.955,96.42,74.791,96.42,78.289L96.42,97.861C96.42,97.065,97.065,96.42,97.861,96.42L24.465,96.42C22.559,96.42,21.013,94.875,21.013,92.968L21.013,24.465C21.013,20.967,18.177,18.131,14.679,18.131C11.181,18.131,8.345,20.967,8.345,24.465Z"/>
</g>
  <g id="Semibold-M" transform="matrix(1.0,0.0,0.0,1.0,1985.8333658854167,1032.0533854166667)">  <path fill="#000000" stroke-linejoin="round" stroke-opacity="1" fill-rule="nonzero" stroke-miterlimit="4" stroke-linecap="round" fill-opacity="1" stroke-width="1.5px" stroke="none" stroke-dasharray="none" d="M98.414,34.251L98.414,19.572C98.414,13.862,93.785,9.233,88.075,9.233L24.465,9.233C16.053,9.233,9.233,16.053,9.233,24.465C9.233,32.878,16.053,39.697,24.465,39.697L97.861,39.697C97.556,39.697,97.308,39.45,97.308,39.144L97.308,58.717L102.754,53.271L88.075,53.271C79.663,53.271,72.843,60.09,72.843,68.503C72.843,76.915,79.663,83.735,88.075,83.735L102.754,83.735C108.464,83.735,113.093,79.106,113.093,73.396L113.093,63.61C113.093,57.9,108.464,53.271,102.754,53.271C99.746,53.271,97.308,55.709,97.308,58.717C97.308,61.724,99.746,64.163,102.754,64.163C102.449,64.163,102.201,63.915,102.201,63.61L102.201,73.396C102.201,73.09,102.449,72.843,102.754,72.843L88.075,72.843C85.678,72.843,83.735,70.9,83.735,68.503C83.735,66.106,85.678,64.163,88.075,64.163L102.754,64.163C105.762,64.163,108.2,61.724,108.2,58.717L108.2,39.144C108.2,33.434,103.571,28.805,97.861,28.805L24.465,28.805C22.068,28.805,20.125,26.862,20.125,24.465C20.125,22.068,22.068,20.125,24.465,20.125L88.075,20.125C87.77,20.125,87.522,19.878,87.522,19.572L87.522,34.251C87.522,37.259,89.96,39.697,92.968,39.697C95.976,39.697,98.414,37.259,98.414,34.251Z"/>
  <path stroke-linecap="round" stroke-opacity="1" fill-rule="nonzero" stroke-linejoin="round" stroke-miterlimit="4" fill="#000000" stroke="none" stroke-dasharray="none" fill-opacity="1" stroke-width="1.5px" d="M9.233,24.465L9.233,92.968C9.233,101.38,16.053,108.2,24.465,108.2L97.861,108.2C103.571,108.2,108.2,103.571,108.2,97.861L108.2,78.289C108.2,75.281,105.762,72.843,102.754,72.843C99.746,72.843,97.308,75.281,97.308,78.289L97.308,97.861C97.308,97.556,97.556,97.308,97.861,97.308L24.465,97.308C22.068,97.308,20.125,95.365,20.125,92.968L20.125,24.465C20.125,21.458,17.687,19.019,14.679,19.019C11.671,19.019,9.233,21.458,9.233,24.465Z"/>
</g>
  <g id="Medium-M" transform="matrix(1.0,0.0,0.0,1.0,1689.1233658854167,1032.0533854166667)">  <path stroke-opacity="1" fill-opacity="1" stroke-linejoin="round" stroke-width="1.5px" stroke-linecap="round" fill="#000000" stroke-dasharray="none" stroke-miterlimit="4" stroke="none" fill-rule="nonzero" d="M97.526,34.251L97.526,19.572C97.526,14.353,93.295,10.121,88.075,10.121L24.465,10.121C16.543,10.121,10.121,16.543,10.121,24.465C10.121,32.387,16.543,38.809,24.465,38.809L97.861,38.809C98.046,38.809,98.196,38.959,98.196,39.144L98.196,58.717L102.754,54.159L88.075,54.159C80.153,54.159,73.731,60.581,73.731,68.503C73.731,76.425,80.153,82.847,88.075,82.847L102.754,82.847C107.974,82.847,112.205,78.615,112.205,73.396L112.205,63.61C112.205,58.39,107.974,54.159,102.754,54.159C100.237,54.159,98.196,56.199,98.196,58.717C98.196,61.234,100.237,63.275,102.754,63.275C102.939,63.275,103.089,63.425,103.089,63.61L103.089,73.396C103.089,73.581,102.939,73.731,102.754,73.731L88.075,73.731C85.187,73.731,82.847,71.39,82.847,68.503C82.847,65.615,85.187,63.275,88.075,63.275L102.754,63.275C105.271,63.275,107.312,61.234,107.312,58.717L107.312,39.144C107.312,33.925,103.081,29.693,97.861,29.693L24.465,29.693C21.578,29.693,19.237,27.353,19.237,24.465C19.237,21.578,21.578,19.237,24.465,19.237L88.075,19.237C88.26,19.237,88.41,19.387,88.41,19.572L88.41,34.251C88.41,36.769,90.451,38.809,92.968,38.809C95.485,38.809,97.526,36.769,97.526,34.251Z"/>
  <path stroke-linecap="round" stroke-width="1.5px" stroke-linejoin="round" fill-opacity="1" fill="#000000" stroke-miterlimit="4" stroke="none" fill-rule="nonzero" stroke-dasharray="none" stroke-opacity="1" d="M10.121,24.465L10.121,92.968C10.121,100.89,16.543,107.312,24.465,107.312L97.861,107.312C103.081,107.312,107.312,103.081,107.312,97.861L107.312,78.289C107.312,75.772,105.271,73.731,102.754,73.731C100.237,73.731,98.196,75.772,98.196,78.289L98.196,97.861C98.196,98.046,98.046,98.196,97.861,98.196L24.465,98.196C21.578,98.196,19.237,95.855,19.237,92.968L19.237,24.465C19.237,21.948,17.196,19.907,14.679,19.907C12.162,19.907,10.121,21.948,10.121,24.465Z"/>
</g>
  <g id="Regular-M" transform="matrix(1.0,0.0,0.0,1.0,1392.4133658854166,1032.0533854166667)">  <path stroke="none" fill="#000000" stroke-opacity="1" stroke-dasharray="none" stroke-linejoin="round" fill-rule="nonzero" stroke-miterlimit="4" stroke-linecap="round" stroke-width="1.5px" fill-opacity="1" d="M96.638,34.251L96.638,19.572C96.638,14.843,92.804,11.009,88.075,11.009L24.465,11.009C17.034,11.009,11.009,17.034,11.009,24.465C11.009,31.897,17.034,37.921,24.465,37.921L97.861,37.921C98.537,37.921,99.084,38.469,99.084,39.144L99.084,58.717L102.754,55.047L88.075,55.047C80.643,55.047,74.619,61.071,74.619,68.503C74.619,75.934,80.643,81.959,88.075,81.959L102.754,81.959C107.483,81.959,111.317,78.125,111.317,73.396L111.317,63.61C111.317,58.881,107.483,55.047,102.754,55.047C100.727,55.047,99.084,56.69,99.084,58.717C99.084,60.743,100.727,62.386,102.754,62.386C103.43,62.386,103.977,62.934,103.977,63.61L103.977,73.396C103.977,74.071,103.43,74.619,102.754,74.619L88.075,74.619C84.697,74.619,81.959,71.881,81.959,68.503C81.959,65.125,84.697,62.386,88.075,62.386L102.754,62.386C104.781,62.386,106.424,60.743,106.424,58.717L106.424,39.144C106.424,34.415,102.59,30.582,97.861,30.582L24.465,30.582C21.087,30.582,18.349,27.843,18.349,24.465C18.349,21.087,21.087,18.349,24.465,18.349L88.075,18.349C88.751,18.349,89.298,18.897,89.298,19.572L89.298,34.251C89.298,36.278,90.941,37.921,92.968,37.921C94.995,37.921,96.638,36.278,96.638,34.251Z"/>
  <path stroke="none" fill="#000000" stroke-opacity="1" stroke-dasharray="none" fill-rule="nonzero" fill-opacity="1" stroke-width="1.5px" stroke-linecap="round" stroke-miterlimit="4" stroke-linejoin="round" d="M11.009,24.465L11.009,92.968C11.009,100.399,17.034,106.424,24.465,106.424L97.861,106.424C102.59,106.424,106.424,102.59,106.424,97.861L106.424,78.289C106.424,76.262,104.781,74.619,102.754,74.619C100.727,74.619,99.084,76.262,99.084,78.289L99.084,97.861C99.084,98.537,98.537,99.084,97.861,99.084L24.465,99.084C21.087,99.084,18.349,96.346,18.349,92.968L18.349,24.465C18.349,22.438,16.706,20.795,14.679,20.795C12.652,20.795,11.009,22.438,11.009,24.465Z"/>
</g>
  <g id="Light-M" transform="matrix(1.0,0.0,0.0,1.0,1095.7033658854168,1032.0533854166667)">  <path stroke-opacity="1" stroke="none" stroke-width="1.5px" stroke-linecap="round" stroke-dasharray="none" stroke-miterlimit="4" fill-opacity="1" stroke-linejoin="round" fill="#000000" fill-rule="nonzero" d="M96.026,34.251L96.026,19.572C96.026,15.181,92.466,11.621,88.075,11.621L24.465,11.621C17.372,11.621,11.621,17.372,11.621,24.465C11.621,31.559,17.372,37.31,24.465,37.31L97.861,37.31C98.874,37.31,99.696,38.131,99.696,39.144L99.696,58.717L102.754,55.658L88.075,55.658C80.981,55.658,75.231,61.409,75.231,68.503C75.231,75.596,80.981,81.347,88.075,81.347L102.754,81.347C107.145,81.347,110.705,77.787,110.705,73.396L110.705,63.61C110.705,59.218,107.145,55.658,102.754,55.658C101.065,55.658,99.696,57.028,99.696,58.717C99.696,60.406,101.065,61.775,102.754,61.775C103.767,61.775,104.589,62.596,104.589,63.61L104.589,73.396C104.589,74.409,103.767,75.231,102.754,75.231L88.075,75.231C84.359,75.231,81.347,72.218,81.347,68.503C81.347,64.787,84.359,61.775,88.075,61.775L102.754,61.775C104.443,61.775,105.812,60.406,105.812,58.717L105.812,39.144C105.812,34.753,102.252,31.193,97.861,31.193L24.465,31.193C20.75,31.193,17.737,28.181,17.737,24.465C17.737,20.75,20.75,17.737,24.465,17.737L88.075,17.737C89.088,17.737,89.91,18.559,89.91,19.572L89.91,34.251C89.91,35.94,91.279,37.31,92.968,37.31C94.657,37.31,96.026,35.94,96.026,34.251Z"/>
  <path stroke="none" stroke-linecap="round" stroke-width="1.5px" fill-rule="nonzero" stroke-linejoin="round" stroke-dasharray="none" stroke-opacity="1" fill="#000000" fill-opacity="1" stroke-miterlimit="4" d="M11.621,24.465L11.621,92.968C11.621,100.062,17.372,105.812,24.465,105.812L97.861,105.812C102.252,105.812,105.812,102.252,105.812,97.861L105.812,78.289C105.812,76.6,104.443,75.231,102.754,75.231C101.065,75.231,99.696,76.6,99.696,78.289L99.696,97.861C99.696,98.874,98.874,99.696,97.861,99.696L24.465,99.696C20.75,99.696,17.737,96.684,17.737,92.968L17.737,24.465C17.737,22.776,16.368,21.407,14.679,21.407C12.99,21.407,11.621,22.776,11.621,24.465Z"/>
</g>
  <g id="Thin-M" transform="matrix(1.0,0.0,0.0,1.0,798.9933658854167,1032.0533854166667)">  <path stroke-dasharray="none" stroke-linejoin="round" fill="#000000" stroke-miterlimit="4" stroke-width="1.5px" stroke-opacity="1" stroke-linecap="round" stroke="none" fill-opacity="1" fill-rule="nonzero" d="M95.415,34.251L95.415,19.572C95.415,15.519,92.128,12.233,88.075,12.233L24.465,12.233C17.709,12.233,12.233,17.709,12.233,24.465C12.233,31.221,17.709,36.698,24.465,36.698L97.861,36.698C99.212,36.698,100.308,37.793,100.308,39.144L100.308,58.717L102.754,56.27L88.075,56.27C81.319,56.27,75.842,61.747,75.842,68.503C75.842,75.259,81.319,80.735,88.075,80.735L102.754,80.735C106.808,80.735,110.094,77.449,110.094,73.396L110.094,63.61C110.094,59.556,106.808,56.27,102.754,56.27C101.403,56.27,100.308,57.365,100.308,58.717C100.308,60.068,101.403,61.163,102.754,61.163C104.105,61.163,105.201,62.259,105.201,63.61L105.201,73.396C105.201,74.747,104.105,75.842,102.754,75.842L88.075,75.842C84.021,75.842,80.735,72.556,80.735,68.503C80.735,64.449,84.021,61.163,88.075,61.163L102.754,61.163C104.105,61.163,105.201,60.068,105.201,58.717L105.201,39.144C105.201,35.091,101.915,31.805,97.861,31.805L24.465,31.805C20.412,31.805,17.126,28.519,17.126,24.465C17.126,20.412,20.412,17.126,24.465,17.126L88.075,17.126C89.426,17.126,90.521,18.221,90.521,19.572L90.521,34.251C90.521,35.603,91.617,36.698,92.968,36.698C94.319,36.698,95.415,35.603,95.415,34.251Z"/>
  <path stroke-width="1.5px" stroke-opacity="1" fill="#000000" stroke-linecap="round" stroke="none" stroke-dasharray="none" stroke-linejoin="round" fill-opacity="1" stroke-miterlimit="4" fill-rule="nonzero" d="M12.233,24.465L12.233,92.968C12.233,99.724,17.709,105.201,24.465,105.201L97.861,105.201C101.915,105.201,105.201,101.915,105.201,97.861L105.201,78.289C105.201,76.938,104.105,75.842,102.754,75.842C101.403,75.842,100.308,76.938,100.308,78.289L100.308,97.861C100.308,99.212,99.212,100.308,97.861,100.308L24.465,100.308C20.412,100.308,17.126,97.022,17.126,92.968L17.126,24.465C17.126,23.114,16.03,22.019,14.679,22.019C13.328,22.019,12.233,23.114,12.233,24.465Z"/>
</g>
  <g id="Ultralight-M" transform="matrix(1.0,0.0,0.0,1.0,502.2833658854167,1032.0533854166667)">  <path fill="#000000" stroke="none" fill-rule="nonzero" stroke-linecap="round" stroke-miterlimit="4" stroke-opacity="1" fill-opacity="1" stroke-linejoin="round" stroke-width="1.5px" stroke-dasharray="none" d="M94.803,34.251L94.803,19.572C94.803,15.856,91.791,12.844,88.075,12.844L24.465,12.844C18.047,12.844,12.844,18.047,12.844,24.465C12.844,30.883,18.047,36.086,24.465,36.086L97.861,36.086C99.55,36.086,100.919,37.455,100.919,39.144L100.919,58.717L102.754,56.882L88.075,56.882C81.657,56.882,76.454,62.085,76.454,68.503C76.454,74.921,81.657,80.124,88.075,80.124L102.754,80.124C106.47,80.124,109.482,77.112,109.482,73.396L109.482,63.61C109.482,59.894,106.47,56.882,102.754,56.882C101.741,56.882,100.919,57.703,100.919,58.717C100.919,59.73,101.741,60.552,102.754,60.552C104.443,60.552,105.812,61.921,105.812,63.61L105.812,73.396C105.812,75.085,104.443,76.454,102.754,76.454L88.075,76.454C83.684,76.454,80.124,72.894,80.124,68.503C80.124,64.111,83.684,60.552,88.075,60.552L102.754,60.552C103.767,60.552,104.589,59.73,104.589,58.717L104.589,39.144C104.589,35.429,101.577,32.416,97.861,32.416L24.465,32.416C20.074,32.416,16.514,28.857,16.514,24.465C16.514,20.074,20.074,16.514,24.465,16.514L88.075,16.514C89.764,16.514,91.133,17.883,91.133,19.572L91.133,34.251C91.133,35.265,91.955,36.086,92.968,36.086C93.981,36.086,94.803,35.265,94.803,34.251Z"/>
  <path fill="#000000" fill-rule="nonzero" stroke-linecap="round" stroke="none" stroke-linejoin="round" stroke-dasharray="none" stroke-miterlimit="4" fill-opacity="1" stroke-width="1.5px" stroke-opacity="1" d="M12.844,24.465L12.844,92.968C12.844,99.386,18.047,104.589,24.465,104.589L97.861,104.589C101.577,104.589,104.589,101.577,104.589,97.861L104.589,78.289C104.589,77.275,103.767,76.454,102.754,76.454C101.741,76.454,100.919,77.275,100.919,78.289L100.919,97.861C100.919,99.55,99.55,100.919,97.861,100.919L24.465,100.919C20.074,100.919,16.514,97.359,16.514,92.968L16.514,24.465C16.514,23.452,15.693,22.63,14.679,22.63C13.666,22.63,12.844,23.452,12.844,24.465Z"/>
</g>
  <g id="Black-S" transform="matrix(1.0,0.0,0.0,1.0,2888.7048754882812,614.7948950195313)">  <path stroke-miterlimit="4" stroke="none" stroke-linecap="round" fill-opacity="1" fill-rule="nonzero" stroke-width="1.5px" stroke-dasharray="none" stroke-opacity="1" stroke-linejoin="round" fill="#000000" d="M79.144,26.819L79.144,15.325C79.144,9.702,74.586,5.143,68.963,5.143L19.156,5.143C11.417,5.143,5.143,11.417,5.143,19.156C5.143,26.895,11.417,33.169,19.156,33.169L76.625,33.169C75.234,33.169,74.106,32.041,74.106,30.65L74.106,45.975L80.456,39.625L68.963,39.625C61.224,39.625,54.95,45.899,54.95,53.638C54.95,61.377,61.224,67.65,68.963,67.65L80.456,67.65C86.08,67.65,90.638,63.092,90.638,57.469L90.638,49.806C90.638,44.183,86.08,39.625,80.456,39.625C76.949,39.625,74.106,42.468,74.106,45.975C74.106,49.482,76.949,52.325,80.456,52.325C79.065,52.325,77.937,51.198,77.937,49.806L77.937,57.469C77.937,56.078,79.065,54.95,80.456,54.95L68.963,54.95C68.238,54.95,67.65,54.362,67.65,53.638C67.65,52.913,68.238,52.325,68.963,52.325L80.456,52.325C83.964,52.325,86.807,49.482,86.807,45.975L86.807,30.65C86.807,25.027,82.248,20.469,76.625,20.469L19.156,20.469C18.432,20.469,17.844,19.881,17.844,19.156C17.844,18.432,18.432,17.844,19.156,17.844L68.963,17.844C67.571,17.844,66.444,16.716,66.444,15.325L66.444,26.819C66.444,30.326,69.287,33.169,72.794,33.169C76.301,33.169,79.144,30.326,79.144,26.819Z"/>
  <path stroke-opacity="1" stroke-miterlimit="4" stroke="none" fill-rule="nonzero" stroke-dasharray="none" stroke-linejoin="round" fill="#000000" fill-opacity="1" stroke-linecap="round" stroke-width="1.5px" d="M5.143,19.156L5.143,72.794C5.143,80.533,11.417,86.807,19.156,86.807L76.625,86.807C82.248,86.807,86.807,82.248,86.807,76.625L86.807,61.3C86.807,57.793,83.964,54.95,80.456,54.95C76.949,54.95,74.106,57.793,74.106,61.3L74.106,76.625C74.106,75.234,75.234,74.106,76.625,74.106L19.156,74.106C18.432,74.106,17.844,73.519,17.844,72.794L17.844,19.156C17.844,15.649,15.001,12.806,11.494,12.806C7.987,12.806,5.143,15.649,5.143,19.156Z"/>
</g>
  <g id="Heavy-S" transform="matrix(1.0,0.0,0.0,1.0,2591.994875488281,614.7948950195313)">  <path stroke-miterlimit="4" fill-rule="nonzero" stroke-linejoin="round" stroke-linecap="round" stroke-width="1.5px" fill="#000000" fill-opacity="1" stroke="none" stroke-opacity="1" stroke-dasharray="none" d="M78.449,26.819L78.449,15.325C78.449,10.086,74.202,5.839,68.963,5.839L19.156,5.839C11.801,5.839,5.839,11.801,5.839,19.156C5.839,26.511,11.801,32.474,19.156,32.474L76.625,32.474C75.618,32.474,74.802,31.657,74.802,30.65L74.802,45.975L80.456,40.32L68.963,40.32C61.608,40.32,55.645,46.283,55.645,53.638C55.645,60.993,61.608,66.955,68.963,66.955L80.456,66.955C85.696,66.955,89.943,62.708,89.943,57.469L89.943,49.806C89.943,44.567,85.696,40.32,80.456,40.32C77.333,40.32,74.802,42.852,74.802,45.975C74.802,49.098,77.333,51.63,80.456,51.63C79.449,51.63,78.633,50.814,78.633,49.806L78.633,57.469C78.633,56.462,79.449,55.645,80.456,55.645L68.963,55.645C67.854,55.645,66.955,54.746,66.955,53.638C66.955,52.529,67.854,51.63,68.963,51.63L80.456,51.63C83.58,51.63,86.111,49.098,86.111,45.975L86.111,30.65C86.111,25.411,81.864,21.164,76.625,21.164L19.156,21.164C18.048,21.164,17.149,20.265,17.149,19.156C17.149,18.048,18.048,17.149,19.156,17.149L68.963,17.149C67.955,17.149,67.139,16.332,67.139,15.325L67.139,26.819C67.139,29.942,69.671,32.474,72.794,32.474C75.917,32.474,78.449,29.942,78.449,26.819Z"/>
  <path fill-opacity="1" fill-rule="nonzero" stroke-width="1.5px" stroke-linecap="round" stroke-dasharray="none" stroke-opacity="1" fill="#000000" stroke-miterlimit="4" stroke-linejoin="round" stroke="none" d="M5.839,19.156L5.839,72.794C5.839,80.149,11.801,86.111,19.156,86.111L76.625,86.111C81.864,86.111,86.111,81.864,86.111,76.625L86.111,61.3C86.111,58.177,83.58,55.645,80.456,55.645C77.333,55.645,74.802,58.177,74.802,61.3L74.802,76.625C74.802,75.618,75.618,74.802,76.625,74.802L19.156,74.802C18.048,74.802,17.149,73.903,17.149,72.794L17.149,19.156C17.149,16.033,14.617,13.501,11.494,13.501C8.371,13.501,5.839,16.033,5.839,19.156Z"/>
</g>
  <g id="Bold-S" transform="matrix(1.0,0.0,0.0,1.0,2295.284875488281,614.7948950195313)">  <path stroke-miterlimit="4" stroke-linecap="round" stroke-dasharray="none" stroke="none" stroke-linejoin="round" stroke-opacity="1" fill-opacity="1" fill-rule="nonzero" fill="#000000" stroke-width="1.5px" d="M77.754,26.819L77.754,15.325C77.754,10.47,73.818,6.534,68.963,6.534L19.156,6.534C12.185,6.534,6.534,12.185,6.534,19.156C6.534,26.127,12.185,31.778,19.156,31.778L76.625,31.778C76.002,31.778,75.497,31.273,75.497,30.65L75.497,45.975L80.456,41.016L68.963,41.016C61.992,41.016,56.341,46.667,56.341,53.638C56.341,60.609,61.992,66.26,68.963,66.26L80.456,66.26C85.312,66.26,89.247,62.324,89.247,57.469L89.247,49.806C89.247,44.951,85.312,41.016,80.456,41.016C77.717,41.016,75.497,43.236,75.497,45.975C75.497,48.714,77.717,50.935,80.456,50.935C79.833,50.935,79.328,50.43,79.328,49.806L79.328,57.469C79.328,56.846,79.833,56.341,80.456,56.341L68.963,56.341C67.47,56.341,66.26,55.13,66.26,53.638C66.26,52.145,67.47,50.935,68.963,50.935L80.456,50.935C83.196,50.935,85.416,48.714,85.416,45.975L85.416,30.65C85.416,25.795,81.48,21.859,76.625,21.859L19.156,21.859C17.664,21.859,16.453,20.649,16.453,19.156C16.453,17.664,17.664,16.453,19.156,16.453L68.963,16.453C68.34,16.453,67.834,15.948,67.834,15.325L67.834,26.819C67.834,29.558,70.055,31.778,72.794,31.778C75.533,31.778,77.754,29.558,77.754,26.819Z"/>
  <path stroke-miterlimit="4" fill="#000000" stroke="none" stroke-opacity="1" stroke-dasharray="none" fill-rule="nonzero" fill-opacity="1" stroke-width="1.5px" stroke-linejoin="round" stroke-linecap="round" d="M6.534,19.156L6.534,72.794C6.534,79.765,12.185,85.416,19.156,85.416L76.625,85.416C81.48,85.416,85.416,81.48,85.416,76.625L85.416,61.3C85.416,58.561,83.196,56.341,80.456,56.341C77.717,56.341,75.497,58.561,75.497,61.3L75.497,76.625C75.497,76.002,76.002,75.497,76.625,75.497L19.156,75.497C17.664,75.497,16.453,74.287,16.453,72.794L16.453,19.156C16.453,16.417,14.233,14.197,11.494,14.197C8.755,14.197,6.534,16.417,6.534,19.156Z"/>
</g>
  <g id="Semibold-S" transform="matrix(1.0,0.0,0.0,1.0,1998.5748754882811,614.7948950195313)">  <path fill="#000000" stroke-linejoin="round" stroke-opacity="1" fill-rule="nonzero" stroke-miterlimit="4" stroke-linecap="round" fill-opacity="1" stroke-width="1.5px" stroke="none" stroke-dasharray="none" d="M77.058,26.819L77.058,15.325C77.058,10.854,73.434,7.23,68.963,7.23L19.156,7.23C12.569,7.23,7.23,12.569,7.23,19.156C7.23,25.743,12.569,31.083,19.156,31.083L76.625,31.083C76.386,31.083,76.192,30.889,76.192,30.65L76.192,45.975L80.456,41.711L68.963,41.711C62.376,41.711,57.036,47.051,57.036,53.638C57.036,60.225,62.376,65.564,68.963,65.564L80.456,65.564C84.927,65.564,88.552,61.94,88.552,57.469L88.552,49.806C88.552,45.335,84.927,41.711,80.456,41.711C78.101,41.711,76.192,43.62,76.192,45.975C76.192,48.33,78.101,50.239,80.456,50.239C80.217,50.239,80.024,50.045,80.024,49.806L80.024,57.469C80.024,57.23,80.217,57.036,80.456,57.036L68.963,57.036C67.086,57.036,65.564,55.514,65.564,53.638C65.564,51.761,67.086,50.239,68.963,50.239L80.456,50.239C82.812,50.239,84.721,48.33,84.721,45.975L84.721,30.65C84.721,26.179,81.096,22.555,76.625,22.555L19.156,22.555C17.279,22.555,15.758,21.033,15.758,19.156C15.758,17.279,17.279,15.758,19.156,15.758L68.963,15.758C68.724,15.758,68.53,15.564,68.53,15.325L68.53,26.819C68.53,29.174,70.439,31.083,72.794,31.083C75.149,31.083,77.058,29.174,77.058,26.819Z"/>
  <path stroke-linecap="round" stroke-opacity="1" fill-rule="nonzero" stroke-linejoin="round" stroke-miterlimit="4" fill="#000000" stroke="none" stroke-dasharray="none" fill-opacity="1" stroke-width="1.5px" d="M7.23,19.156L7.23,72.794C7.23,79.381,12.569,84.721,19.156,84.721L76.625,84.721C81.096,84.721,84.721,81.096,84.721,76.625L84.721,61.3C84.721,58.945,82.812,57.036,80.456,57.036C78.101,57.036,76.192,58.945,76.192,61.3L76.192,76.625C76.192,76.386,76.386,76.192,76.625,76.192L19.156,76.192C17.279,76.192,15.758,74.671,15.758,72.794L15.758,19.156C15.758,16.801,13.849,14.892,11.494,14.892C9.139,14.892,7.23,16.801,7.23,19.156Z"/>
</g>
  <g id="Medium-S" transform="matrix(1.0,0.0,0.0,1.0,1701.864875488281,614.7948950195313)">  <path stroke-opacity="1" fill-opacity="1" stroke-linejoin="round" stroke-width="1.5px" stroke-linecap="round" fill="#000000" stroke-dasharray="none" stroke-miterlimit="4" stroke="none" fill-rule="nonzero" d="M76.363,26.819L76.363,15.325C76.363,11.238,73.05,7.925,68.963,7.925L19.156,7.925C12.953,7.925,7.925,12.953,7.925,19.156C7.925,25.359,12.953,30.388,19.156,30.388L76.625,30.388C76.77,30.388,76.888,30.505,76.888,30.65L76.888,45.975L80.456,42.406L68.963,42.406C62.76,42.406,57.731,47.435,57.731,53.638C57.731,59.841,62.76,64.869,68.963,64.869L80.456,64.869C84.543,64.869,87.857,61.556,87.857,57.469L87.857,49.806C87.857,45.719,84.543,42.406,80.456,42.406C78.485,42.406,76.888,44.004,76.888,45.975C76.888,47.946,78.485,49.544,80.456,49.544C80.601,49.544,80.719,49.661,80.719,49.806L80.719,57.469C80.719,57.614,80.601,57.731,80.456,57.731L68.963,57.731C66.702,57.731,64.869,55.899,64.869,53.638C64.869,51.377,66.702,49.544,68.963,49.544L80.456,49.544C82.427,49.544,84.025,47.946,84.025,45.975L84.025,30.65C84.025,26.563,80.712,23.25,76.625,23.25L19.156,23.25C16.895,23.25,15.063,21.417,15.063,19.156C15.063,16.895,16.895,15.063,19.156,15.063L68.963,15.063C69.108,15.063,69.225,15.18,69.225,15.325L69.225,26.819C69.225,28.79,70.823,30.388,72.794,30.388C74.765,30.388,76.363,28.79,76.363,26.819Z"/>
  <path stroke-linecap="round" stroke-width="1.5px" stroke-linejoin="round" fill-opacity="1" fill="#000000" stroke-miterlimit="4" stroke="none" fill-rule="nonzero" stroke-dasharray="none" stroke-opacity="1" d="M7.925,19.156L7.925,72.794C7.925,78.997,12.953,84.025,19.156,84.025L76.625,84.025C80.712,84.025,84.025,80.712,84.025,76.625L84.025,61.3C84.025,59.329,82.427,57.731,80.456,57.731C78.485,57.731,76.888,59.329,76.888,61.3L76.888,76.625C76.888,76.77,76.77,76.888,76.625,76.888L19.156,76.888C16.895,76.888,15.063,75.055,15.063,72.794L15.063,19.156C15.063,17.185,13.465,15.587,11.494,15.587C9.523,15.587,7.925,17.185,7.925,19.156Z"/>
</g>
  <g id="Regular-S" transform="matrix(1.0,0.0,0.0,1.0,1405.154875488281,614.7948950195313)">  <path stroke="none" fill="#000000" stroke-opacity="1" stroke-dasharray="none" stroke-linejoin="round" fill-rule="nonzero" stroke-miterlimit="4" stroke-linecap="round" stroke-width="1.5px" fill-opacity="1" d="M75.667,26.819L75.667,15.325C75.667,11.622,72.666,8.62,68.963,8.62L19.156,8.62C13.337,8.62,8.62,13.337,8.62,19.156C8.62,24.975,13.337,29.692,19.156,29.692L76.625,29.692C77.154,29.692,77.583,30.121,77.583,30.65L77.583,45.975L80.456,43.102L68.963,43.102C63.144,43.102,58.427,47.819,58.427,53.638C58.427,59.456,63.144,64.174,68.963,64.174L80.456,64.174C84.159,64.174,87.161,61.172,87.161,57.469L87.161,49.806C87.161,46.103,84.159,43.102,80.456,43.102C78.87,43.102,77.583,44.388,77.583,45.975C77.583,47.562,78.87,48.849,80.456,48.849C80.985,48.849,81.414,49.277,81.414,49.806L81.414,57.469C81.414,57.998,80.985,58.427,80.456,58.427L68.963,58.427C66.318,58.427,64.174,56.283,64.174,53.638C64.174,50.993,66.318,48.849,68.963,48.849L80.456,48.849C82.043,48.849,83.33,47.562,83.33,45.975L83.33,30.65C83.33,26.947,80.328,23.945,76.625,23.945L19.156,23.945C16.511,23.945,14.367,21.801,14.367,19.156C14.367,16.511,16.511,14.367,19.156,14.367L68.963,14.367C69.492,14.367,69.921,14.796,69.921,15.325L69.921,26.819C69.921,28.406,71.207,29.692,72.794,29.692C74.381,29.692,75.667,28.406,75.667,26.819Z"/>
  <path stroke="none" fill="#000000" stroke-opacity="1" stroke-dasharray="none" fill-rule="nonzero" fill-opacity="1" stroke-width="1.5px" stroke-linecap="round" stroke-miterlimit="4" stroke-linejoin="round" d="M8.62,19.156L8.62,72.794C8.62,78.613,13.337,83.33,19.156,83.33L76.625,83.33C80.328,83.33,83.33,80.328,83.33,76.625L83.33,61.3C83.33,59.713,82.043,58.427,80.456,58.427C78.87,58.427,77.583,59.713,77.583,61.3L77.583,76.625C77.583,77.154,77.154,77.583,76.625,77.583L19.156,77.583C16.511,77.583,14.367,75.439,14.367,72.794L14.367,19.156C14.367,17.569,13.081,16.283,11.494,16.283C9.907,16.283,8.62,17.569,8.62,19.156Z"/>
</g>
  <g id="Light-S" transform="matrix(1.0,0.0,0.0,1.0,1108.4448754882812,614.7948950195313)">  <path stroke-opacity="1" stroke="none" stroke-width="1.5px" stroke-linecap="round" stroke-dasharray="none" stroke-miterlimit="4" fill-opacity="1" stroke-linejoin="round" fill="#000000" fill-rule="nonzero" d="M75.188,26.819L75.188,15.325C75.188,11.887,72.401,9.099,68.963,9.099L19.156,9.099C13.602,9.099,9.099,13.602,9.099,19.156C9.099,24.711,13.602,29.213,19.156,29.213L76.625,29.213C77.419,29.213,78.062,29.857,78.062,30.65L78.062,45.975L80.456,43.581L68.963,43.581C63.408,43.581,58.906,48.083,58.906,53.638C58.906,59.192,63.408,63.695,68.963,63.695L80.456,63.695C83.895,63.695,86.682,60.907,86.682,57.469L86.682,49.806C86.682,46.368,83.895,43.581,80.456,43.581C79.134,43.581,78.062,44.653,78.062,45.975C78.062,47.298,79.134,48.37,80.456,48.37C81.25,48.37,81.893,49.013,81.893,49.806L81.893,57.469C81.893,58.262,81.25,58.906,80.456,58.906L68.963,58.906C66.053,58.906,63.695,56.547,63.695,53.638C63.695,50.728,66.053,48.37,68.963,48.37L80.456,48.37C81.779,48.37,82.851,47.298,82.851,45.975L82.851,30.65C82.851,27.212,80.064,24.424,76.625,24.424L19.156,24.424C16.247,24.424,13.888,22.066,13.888,19.156C13.888,16.247,16.247,13.888,19.156,13.888L68.963,13.888C69.756,13.888,70.399,14.532,70.399,15.325L70.399,26.819C70.399,28.141,71.471,29.213,72.794,29.213C74.116,29.213,75.188,28.141,75.188,26.819Z"/>
  <path stroke="none" stroke-linecap="round" stroke-width="1.5px" fill-rule="nonzero" stroke-linejoin="round" stroke-dasharray="none" stroke-opacity="1" fill="#000000" fill-opacity="1" stroke-miterlimit="4" d="M9.099,19.156L9.099,72.794C9.099,78.348,13.602,82.851,19.156,82.851L76.625,82.851C80.064,82.851,82.851,80.064,82.851,76.625L82.851,61.3C82.851,59.978,81.779,58.906,80.456,58.906C79.134,58.906,78.062,59.978,78.062,61.3L78.062,76.625C78.062,77.419,77.419,78.062,76.625,78.062L19.156,78.062C16.247,78.062,13.888,75.703,13.888,72.794L13.888,19.156C13.888,17.834,12.816,16.762,11.494,16.762C10.171,16.762,9.099,17.834,9.099,19.156Z"/>
</g>
  <g id="Thin-S" transform="matrix(1.0,0.0,0.0,1.0,811.7348754882813,614.7948950195313)">  <path stroke-dasharray="none" stroke-linejoin="round" fill="#000000" stroke-miterlimit="4" stroke-width="1.5px" stroke-opacity="1" stroke-linecap="round" stroke="none" fill-opacity="1" fill-rule="nonzero" d="M74.71,26.819L74.71,15.325C74.71,12.151,72.137,9.578,68.963,9.578L19.156,9.578C13.866,9.578,9.578,13.866,9.578,19.156C9.578,24.446,13.866,28.734,19.156,28.734L76.625,28.734C77.683,28.734,78.541,29.592,78.541,30.65L78.541,45.975L80.456,44.059L68.963,44.059C63.673,44.059,59.385,48.348,59.385,53.638C59.385,58.928,63.673,63.216,68.963,63.216L80.456,63.216C83.63,63.216,86.203,60.643,86.203,57.469L86.203,49.806C86.203,46.632,83.63,44.059,80.456,44.059C79.398,44.059,78.541,44.917,78.541,45.975C78.541,47.033,79.398,47.891,80.456,47.891C81.514,47.891,82.372,48.748,82.372,49.806L82.372,57.469C82.372,58.527,81.514,59.385,80.456,59.385L68.963,59.385C65.789,59.385,63.216,56.812,63.216,53.638C63.216,50.464,65.789,47.891,68.963,47.891L80.456,47.891C81.514,47.891,82.372,47.033,82.372,45.975L82.372,30.65C82.372,27.476,79.799,24.903,76.625,24.903L19.156,24.903C15.982,24.903,13.409,22.33,13.409,19.156C13.409,15.982,15.982,13.409,19.156,13.409L68.963,13.409C70.021,13.409,70.878,14.267,70.878,15.325L70.878,26.819C70.878,27.877,71.736,28.734,72.794,28.734C73.852,28.734,74.71,27.877,74.71,26.819Z"/>
  <path stroke-width="1.5px" stroke-opacity="1" fill="#000000" stroke-linecap="round" stroke="none" stroke-dasharray="none" stroke-linejoin="round" fill-opacity="1" stroke-miterlimit="4" fill-rule="nonzero" d="M9.578,19.156L9.578,72.794C9.578,78.084,13.866,82.372,19.156,82.372L76.625,82.372C79.799,82.372,82.372,79.799,82.372,76.625L82.372,61.3C82.372,60.242,81.514,59.385,80.456,59.385C79.398,59.385,78.541,60.242,78.541,61.3L78.541,76.625C78.541,77.683,77.683,78.541,76.625,78.541L19.156,78.541C15.982,78.541,13.409,75.968,13.409,72.794L13.409,19.156C13.409,18.098,12.552,17.241,11.494,17.241C10.436,17.241,9.578,18.098,9.578,19.156Z"/>
</g>
  <g id="Ultralight-S" transform="matrix(1.0,0.0,0.0,1.0,515.0248754882813,614.7948950195313)">  <path fill="#000000" stroke="none" fill-rule="nonzero" stroke-linecap="round" stroke-miterlimit="4" stroke-opacity="1" fill-opacity="1" stroke-linejoin="round" stroke-width="1.5px" stroke-dasharray="none" d="M74.231,26.819L74.231,15.325C74.231,12.416,71.872,10.057,68.963,10.057L19.156,10.057C14.131,10.057,10.057,14.131,10.057,19.156C10.057,24.182,14.131,28.256,19.156,28.256L76.625,28.256C77.948,28.256,79.02,29.328,79.02,30.65L79.02,45.975L80.456,44.538L68.963,44.538C63.937,44.538,59.863,48.612,59.863,53.638C59.863,58.663,63.937,62.737,68.963,62.737L80.456,62.737C83.366,62.737,85.724,60.378,85.724,57.469L85.724,49.806C85.724,46.897,83.366,44.538,80.456,44.538C79.663,44.538,79.02,45.182,79.02,45.975C79.02,46.769,79.663,47.412,80.456,47.412C81.779,47.412,82.851,48.484,82.851,49.806L82.851,57.469C82.851,58.791,81.779,59.863,80.456,59.863L68.963,59.863C65.524,59.863,62.737,57.076,62.737,53.638C62.737,50.199,65.524,47.412,68.963,47.412L80.456,47.412C81.25,47.412,81.893,46.769,81.893,45.975L81.893,30.65C81.893,27.741,79.535,25.382,76.625,25.382L19.156,25.382C15.718,25.382,12.931,22.595,12.931,19.156C12.931,15.718,15.718,12.931,19.156,12.931L68.963,12.931C70.285,12.931,71.357,14.003,71.357,15.325L71.357,26.819C71.357,27.612,72,28.256,72.794,28.256C73.587,28.256,74.231,27.612,74.231,26.819Z"/>
  <path fill="#000000" fill-rule="nonzero" stroke-linecap="round" stroke="none" stroke-linejoin="round" stroke-dasharray="none" stroke-miterlimit="4" fill-opacity="1" stroke-width="1.5px" stroke-opacity="1" d="M10.057,19.156L10.057,72.794C10.057,77.819,14.131,81.893,19.156,81.893L76.625,81.893C79.535,81.893,81.893,79.535,81.893,76.625L81.893,61.3C81.893,60.507,81.25,59.863,80.456,59.863C79.663,59.863,79.02,60.507,79.02,61.3L79.02,76.625C79.02,77.948,77.948,79.02,76.625,79.02L19.156,79.02C15.718,79.02,12.931,76.232,12.931,72.794L12.931,19.156C12.931,18.363,12.287,17.72,11.494,17.72C10.7,17.72,10.057,18.363,10.057,19.156Z"/>
</g>
 </g>
</svg>
