<?xml version="1.0" encoding="UTF-8"?>
<!-- Generator: CustomSymbols v2.7.2.48 by @serious_bret https://bretlester.com/app_content/CustomSymbols/ -->
<!-- Guides: Left/Right 0.0/0.0 Cap/Base 0.2/0.19999999999999996 -->
<!-- Settings: RefScale 1.0 Min/Max Stroke Scales 0.5/2.21 -->
<!DOCTYPE svg
PUBLIC "-//W3C//DTD SVG 1.1//EN"
       "http://www.w3.org/Graphics/SVG/1.1/DTD/svg11.dtd">
<svg version="1.1" xmlns="http://www.w3.org/2000/svg" xmlns:xlink="http://www.w3.org/1999/xlink" width="3300" height="2200">
<![CDATA[<svg xmlns="http://www.w3.org/2000/svg" width="24" height="24" viewBox="0 0 24 24" fill="none" stroke="currentColor" stroke-width="1.5" stroke-linecap="round" stroke-linejoin="round" class="lucide lucide-vote"><path d="m9 12 2 2 4-4"/><path d="M5 7c0-1.1.9-2 2-2h10a2 2 0 0 1 2 2v12H5V7Z"/><path d="M22 19H2"/></svg>]]>
 <g id="Notes">
  <rect height="2200" id="artboard" style="fill:white;opacity:1" width="3300" x="0" y="0"/>
  <line id="" style="fill:none;stroke:black;opacity:1;stroke-width:0.5;" x1="263" x2="3036" y1="292" y2="292"/>
  <text id="reftext1" style="stroke:none;fill:black;font-family:-apple-system,&quot;SF Pro Display&quot;,&quot;SF Pro Text&quot;,Helvetica,sans-serif;font-weight:bold;" transform="matrix(1 0 0 1 263 322)">Weight/Scale Variations</text>
  <text id="reftext2" style="stroke:none;fill:black;font-family:-apple-system,&quot;SF Pro Display&quot;,&quot;SF Pro Text&quot;,Helvetica,sans-serif;text-anchor:middle;" transform="matrix(1 0 0 1 559.711 322)">Ultralight</text>
  <text style="stroke:none;fill:black;font-family:-apple-system,&quot;SF Pro Display&quot;,&quot;SF Pro Text&quot;,Helvetica,sans-serif;text-anchor:middle;" transform="matrix(1 0 0 1 856.422 322)">Thin</text>
  <text style="stroke:none;fill:black;font-family:-apple-system,&quot;SF Pro Display&quot;,&quot;SF Pro Text&quot;,Helvetica,sans-serif;text-anchor:middle;" transform="matrix(1 0 0 1 1153.13 322)">Light</text>
  <text style="stroke:none;fill:black;font-family:-apple-system,&quot;SF Pro Display&quot;,&quot;SF Pro Text&quot;,Helvetica,sans-serif;text-anchor:middle;" transform="matrix(1 0 0 1 1449.84 322)">Regular</text>
  <text style="stroke:none;fill:black;font-family:-apple-system,&quot;SF Pro Display&quot;,&quot;SF Pro Text&quot;,Helvetica,sans-serif;text-anchor:middle;" transform="matrix(1 0 0 1 1746.56 322)">Medium</text>
  <text style="stroke:none;fill:black;font-family:-apple-system,&quot;SF Pro Display&quot;,&quot;SF Pro Text&quot;,Helvetica,sans-serif;text-anchor:middle;" transform="matrix(1 0 0 1 2043.27 322)">Semibold</text>
  <text style="stroke:none;fill:black;font-family:-apple-system,&quot;SF Pro Display&quot;,&quot;SF Pro Text&quot;,Helvetica,sans-serif;text-anchor:middle;" transform="matrix(1 0 0 1 2339.98 322)">Bold</text>
  <text style="stroke:none;fill:black;font-family:-apple-system,&quot;SF Pro Display&quot;,&quot;SF Pro Text&quot;,Helvetica,sans-serif;text-anchor:middle;" transform="matrix(1 0 0 1 2636.69 322)">Heavy</text>
  <text style="stroke:none;fill:black;font-family:-apple-system,&quot;SF Pro Display&quot;,&quot;SF Pro Text&quot;,Helvetica,sans-serif;text-anchor:middle;" transform="matrix(1 0 0 1 2933.4 322)">Black</text>
  <line id="" style="fill:none;stroke:black;opacity:1;stroke-width:0.5;" x1="263" x2="3036" y1="1903" y2="1903"/>
  <g id="" transform="matrix(1 0 0 1 263 1933)">
   <path d="M9.24805 0.830078C13.5547 0.830078 17.1387-2.74414 17.1387-7.05078C17.1387-11.3574 13.5449-14.9316 9.23828-14.9316C4.94141-14.9316 1.36719-11.3574 1.36719-7.05078C1.36719-2.74414 4.95117 0.830078 9.24805 0.830078ZM9.24805-0.654297C5.70312-0.654297 2.87109-3.49609 2.87109-7.05078C2.87109-10.6055 5.69336-13.4473 9.23828-13.4473C12.793-13.4473 15.6348-10.6055 15.6445-7.05078C15.6543-3.49609 12.8027-0.654297 9.24805-0.654297ZM6.39648-6.31836L8.50586-6.31836L8.50586-4.19922C8.50586-3.75977 8.79883-3.45703 9.22852-3.45703C9.67773-3.45703 9.9707-3.75977 9.9707-4.19922L9.9707-6.31836L12.0996-6.31836C12.5391-6.31836 12.8418-6.61133 12.8418-7.04102C12.8418-7.48047 12.5391-7.7832 12.0996-7.7832L9.9707-7.7832L9.9707-9.89258C9.9707-10.3418 9.67773-10.6445 9.22852-10.6445C8.79883-10.6445 8.50586-10.3418 8.50586-9.89258L8.50586-7.7832L6.39648-7.7832C5.94727-7.7832 5.64453-7.48047 5.64453-7.04102C5.64453-6.61133 5.94727-6.31836 6.39648-6.31836Z"/>
  </g>
  <g id="" transform="matrix(1 0 0 1 281.506 1933)">
   <path d="M11.709 2.91016C17.1582 2.91016 21.6699-1.61133 21.6699-7.05078C21.6699-12.5 17.1484-17.0117 11.6992-17.0117C6.25977-17.0117 1.74805-12.5 1.74805-7.05078C1.74805-1.61133 6.26953 2.91016 11.709 2.91016ZM11.709 1.25C7.09961 1.25 3.41797-2.44141 3.41797-7.05078C3.41797-11.6602 7.08984-15.3516 11.6992-15.3516C16.3086-15.3516 20-11.6602 20.0098-7.05078C20.0195-2.44141 16.3184 1.25 11.709 1.25ZM7.98828-6.23047L10.8789-6.23047L10.8789-3.32031C10.8789-2.83203 11.2109-2.5 11.6895-2.5C12.1777-2.5 12.5195-2.83203 12.5195-3.32031L12.5195-6.23047L15.4297-6.23047C15.918-6.23047 16.25-6.5625 16.25-7.04102C16.25-7.5293 15.918-7.87109 15.4297-7.87109L12.5195-7.87109L12.5195-10.7617C12.5195-11.2695 12.1777-11.6016 11.6895-11.6016C11.2109-11.6016 10.8789-11.2598 10.8789-10.7617L10.8789-7.87109L7.98828-7.87109C7.48047-7.87109 7.14844-7.5293 7.14844-7.04102C7.14844-6.5625 7.49023-6.23047 7.98828-6.23047Z"/>
  </g>
  <g id="" transform="matrix(1 0 0 1 304.924 1933)">
   <path d="M14.9707 5.66406C21.9336 5.66406 27.6953-0.0976562 27.6953-7.05078C27.6953-14.0137 21.9238-19.7754 14.9609-19.7754C8.00781-19.7754 2.25586-14.0137 2.25586-7.05078C2.25586-0.0976562 8.01758 5.66406 14.9707 5.66406ZM14.9707 3.84766C8.93555 3.84766 4.08203-1.01562 4.08203-7.05078C4.08203-13.0957 8.92578-17.9492 14.9609-17.9492C21.0059-17.9492 25.8594-13.0957 25.8691-7.05078C25.8789-1.01562 21.0156 3.84766 14.9707 3.84766ZM10.0586-6.14258L14.0625-6.14258L14.0625-2.12891C14.0625-1.5918 14.4336-1.2207 14.9512-1.2207C15.4883-1.2207 15.8594-1.5918 15.8594-2.12891L15.8594-6.14258L19.8828-6.14258C20.4102-6.14258 20.791-6.51367 20.791-7.03125C20.791-7.56836 20.4199-7.94922 19.8828-7.94922L15.8594-7.94922L15.8594-11.9531C15.8594-12.5098 15.4883-12.8809 14.9512-12.8809C14.4336-12.8809 14.0625-12.5 14.0625-11.9531L14.0625-7.94922L10.0586-7.94922C9.50195-7.94922 9.13086-7.56836 9.13086-7.03125C9.13086-6.51367 9.51172-6.14258 10.0586-6.14258Z"/>
  </g>
  <text style="stroke:none;fill:black;font-family:-apple-system,&quot;SF Pro Display&quot;,&quot;SF Pro Text&quot;,Helvetica,sans-serif;font-weight:bold;" transform="matrix(1 0 0 1 263 1953)">Design Variations</text>
  <text style="stroke:none;fill:black;font-family:-apple-system,&quot;SF Pro Display&quot;,&quot;SF Pro Text&quot;,Helvetica,sans-serif;" transform="matrix(1 0 0 1 263 1971)">Symbols are supported in up to nine weights and three scales.</text>
  <text style="stroke:none;fill:black;font-family:-apple-system,&quot;SF Pro Display&quot;,&quot;SF Pro Text&quot;,Helvetica,sans-serif;" transform="matrix(1 0 0 1 263 1989)">For optimal layout with text and other symbols, vertically align</text>
  <text style="stroke:none;fill:black;font-family:-apple-system,&quot;SF Pro Display&quot;,&quot;SF Pro Text&quot;,Helvetica,sans-serif;" transform="matrix(1 0 0 1 263 2007)">symbols with the adjacent text.</text>
  <line id="" style="fill:none;stroke:#00AEEF;stroke-width:0.5;opacity:1.0;" x1="776" x2="776" y1="1919" y2="1933"/>
  <g id="" transform="matrix(1 0 0 1 776 1933)">
   <path d="M3.31055 0.126953C3.82812 0.126953 4.08203-0.0683594 4.26758-0.605469L5.52734-4.0625L11.2891-4.0625L12.5488-0.605469C12.7344-0.0683594 12.9883 0.126953 13.4961 0.126953C14.0137 0.126953 14.3457-0.185547 14.3457-0.673828C14.3457-0.839844 14.3164-0.986328 14.2383-1.20117L9.6582-13.3887C9.43359-13.9941 9.0332-14.2871 8.4082-14.2871C7.80273-14.2871 7.39258-13.9941 7.17773-13.3984L2.59766-1.19141C2.51953-0.976562 2.49023-0.830078 2.49023-0.664062C2.49023-0.175781 2.80273 0.126953 3.31055 0.126953ZM6.00586-5.53711L8.37891-12.1094L8.42773-12.1094L10.8008-5.53711Z"/>
  </g>
  <line id="" style="fill:none;stroke:#00AEEF;stroke-width:0.5;opacity:1.0;" x1="792.836" x2="792.836" y1="1919" y2="1933"/>
  <text style="stroke:none;fill:black;font-family:-apple-system,&quot;SF Pro Display&quot;,&quot;SF Pro Text&quot;,Helvetica,sans-serif;font-weight:bold;" transform="matrix(1 0 0 1 776 1953)">Margins</text>
  <text style="stroke:none;fill:black;font-family:-apple-system,&quot;SF Pro Display&quot;,&quot;SF Pro Text&quot;,Helvetica,sans-serif;" transform="matrix(1 0 0 1 776 1971)">Leading and trailing margins on the left and right side of each symbol</text>
  <text style="stroke:none;fill:black;font-family:-apple-system,&quot;SF Pro Display&quot;,&quot;SF Pro Text&quot;,Helvetica,sans-serif;" transform="matrix(1 0 0 1 776 1989)">can be adjusted by modifying the x-location of the margin guidelines.</text>
  <text style="stroke:none;fill:black;font-family:-apple-system,&quot;SF Pro Display&quot;,&quot;SF Pro Text&quot;,Helvetica,sans-serif;" transform="matrix(1 0 0 1 776 2007)">Modifications are automatically applied proportionally to all</text>
  <text style="stroke:none;fill:black;font-family:-apple-system,&quot;SF Pro Display&quot;,&quot;SF Pro Text&quot;,Helvetica,sans-serif;" transform="matrix(1 0 0 1 776 2025)">scales and weights.</text>
  <g id="" transform="matrix(1 0 0 1 1289 1933)">
   <path d="M2.8418 1.86523L4.54102 3.57422C5.40039 4.44336 6.38672 4.38477 7.31445 3.35938L17.4902-7.85156C17.7539-7.76367 18.0273-7.7832 18.3398-7.8418L19.4043-8.03711L20.0684-7.36328L20.0293-6.80664C19.9902-6.30859 20.1172-5.92773 20.6055-5.44922L21.3672-4.70703C21.8457-4.22852 22.4609-4.19922 22.9297-4.66797L25.8398-7.58789C26.3086-8.05664 26.2891-8.65234 25.8105-9.13086L25.0391-9.89258C24.5605-10.3711 24.1895-10.5273 23.7109-10.4883L23.1348-10.4395L22.4902-11.0742L22.7344-12.1973C22.8613-12.7637 22.7051-13.2031 22.1191-13.7891L19.9219-15.9766C16.582-19.2969 12.1484-19.2188 9.25781-16.3281C8.83789-15.918 8.80859-15.3418 9.04297-14.9512C9.27734-14.5898 9.73633-14.3555 10.3809-14.5215C11.8457-14.8633 13.3691-14.9219 14.7949-13.9844L14.209-12.5293C14.0137-12.0508 13.9844-11.6504 14.1113-11.2891L3.04688-0.898438C2.06055 0.0195312 1.98242 0.996094 2.8418 1.86523ZM10.752-15.957C13.1836-17.7344 16.4746-17.4316 18.7012-15.2051L21.1328-12.793C21.3672-12.5586 21.4062-12.373 21.3379-12.0312L21.0156-10.5469L22.5195-9.0625L23.5059-9.12109C23.7598-9.13086 23.8379-9.11133 24.0332-8.91602L24.6094-8.33984L22.168-5.89844L21.5918-6.47461C21.3965-6.66992 21.3672-6.74805 21.377-7.01172L21.4453-7.98828L19.9512-9.47266L18.4277-9.21875C18.1055-9.15039 17.959-9.17969 17.7148-9.41406L15.7129-11.416C15.459-11.6504 15.4297-11.8164 15.5859-12.1875L16.4648-14.2773C14.9023-15.7324 12.8711-16.3574 10.8398-15.7617C10.6836-15.7227 10.625-15.8496 10.752-15.957ZM5.27344 2.30469L4.10156 1.14258C3.63281 0.683594 3.74023 0.341797 4.14062-0.0195312L14.9512-10.1953L16.416-8.71094L6.42578 2.27539C6.07422 2.67578 5.74219 2.77344 5.27344 2.30469Z"/>
  </g>
  <text style="stroke:none;fill:black;font-family:-apple-system,&quot;SF Pro Display&quot;,&quot;SF Pro Text&quot;,Helvetica,sans-serif;font-weight:bold;" transform="matrix(1 0 0 1 1289 1953)">Exporting</text>
  <text style="stroke:none;fill:black;font-family:-apple-system,&quot;SF Pro Display&quot;,&quot;SF Pro Text&quot;,Helvetica,sans-serif;" transform="matrix(1 0 0 1 1289 1971)">Symbols should be outlined when exporting to ensure the</text>
  <text style="stroke:none;fill:black;font-family:-apple-system,&quot;SF Pro Display&quot;,&quot;SF Pro Text&quot;,Helvetica,sans-serif;" transform="matrix(1 0 0 1 1289 1989)">design is preserved when submitting to Xcode.</text>
  <text id="template-version" style="stroke:none;fill:black;font-family:-apple-system,&quot;SF Pro Display&quot;,&quot;SF Pro Text&quot;,Helvetica,sans-serif;text-anchor:end;" transform="matrix(1 0 0 1 3036 1933)">Template v.2.0</text>
  <text style="stroke:none;fill:black;font-family:-apple-system,&quot;SF Pro Display&quot;,&quot;SF Pro Text&quot;,Helvetica,sans-serif;text-anchor:end;" transform="matrix(1 0 0 1 3036 1951)">Requires Xcode 12 or greater</text>
  <text style="stroke:none;fill:black;font-family:-apple-system,&quot;SF Pro Display&quot;,&quot;SF Pro Text&quot;,Helvetica,sans-serif;" transform="matrix(1 0 0 1 263 726)">Small</text>
  <text style="stroke:none;fill:black;font-family:-apple-system,&quot;SF Pro Display&quot;,&quot;SF Pro Text&quot;,Helvetica,sans-serif;" transform="matrix(1 0 0 1 263 1156)">Medium</text>
  <text style="stroke:none;fill:black;font-family:-apple-system,&quot;SF Pro Display&quot;,&quot;SF Pro Text&quot;,Helvetica,sans-serif;" transform="matrix(1 0 0 1 263 1586)">Large</text>
 </g>
 <g id="Guides">
  <g id="H-reference" style="fill:#27AAE1;stroke:none;" transform="matrix(1 0 0 1 339 696)">
   <path d="M0.976562 0L3.66211 0L12.9883-24.4629L45.752-24.4629L55.127 0L57.7637 0L30.6152-70.459L28.125-70.459ZM29.3457-67.1387L29.4434-67.1387L44.873-26.709L13.8672-26.709Z"/>
  </g>
  <line id="Baseline-S" style="fill:none;stroke:#27AAE1;opacity:1;stroke-width:0.5;" x1="263" x2="3036" y1="696" y2="696"/>
  <line id="Capline-S" style="fill:none;stroke:#27AAE1;opacity:1;stroke-width:0.5;" x1="263" x2="3036" y1="625.541" y2="625.541"/>
  <g id="H-reference" style="fill:#27AAE1;stroke:none;" transform="matrix(1 0 0 1 339 1126)">
   <path d="M0.976562 0L3.66211 0L12.9883-24.4629L45.752-24.4629L55.127 0L57.7637 0L30.6152-70.459L28.125-70.459ZM29.3457-67.1387L29.4434-67.1387L44.873-26.709L13.8672-26.709Z"/>
  </g>
  <line id="Baseline-M" style="fill:none;stroke:#27AAE1;opacity:1;stroke-width:0.5;" x1="263" x2="3036" y1="1126" y2="1126"/>
  <line id="Capline-M" style="fill:none;stroke:#27AAE1;opacity:1;stroke-width:0.5;" x1="263" x2="3036" y1="1055.54" y2="1055.54"/>
  <g id="H-reference" style="fill:#27AAE1;stroke:none;" transform="matrix(1 0 0 1 339 1556)">
   <path d="M0.976562 0L3.66211 0L12.9883-24.4629L45.752-24.4629L55.127 0L57.7637 0L30.6152-70.459L28.125-70.459ZM29.3457-67.1387L29.4434-67.1387L44.873-26.709L13.8672-26.709Z"/>
  </g>
  <line id="Baseline-L" style="fill:none;stroke:#27AAE1;opacity:1;stroke-width:0.5;" x1="263" x2="3036" y1="1556" y2="1556"/>
  <line id="Capline-L" style="fill:none;stroke:#27AAE1;opacity:1;stroke-width:0.5;" x1="263" x2="3036" y1="1485.54" y2="1485.54"/>
  <line id="left-margin" x1="1392.4133658854166" x2="1392.4133658854166" y1="1030.79" y2="1150.12" style="fill:none;stroke:#00AEEF;stroke-width:0.5;opacity:1.0;"/>
  <line id="right-margin" x1="1509.8466341145831" x2="1509.8466341145831" y1="1030.79" y2="1150.12" style="fill:none;stroke:#00AEEF;stroke-width:0.5;opacity:1.0;"/>
 </g>
 <g id="Symbols">
  <g id="Black-L" transform="matrix(1.0,0.0,0.0,1.0,2858.935541992187,1445.0255615234375)">  <path stroke-linecap="round" stroke-width="1.5px" stroke-miterlimit="4" stroke="none" stroke-linejoin="round" fill="#000000" fill-opacity="1" fill-rule="nonzero" stroke-opacity="1" stroke-dasharray="none" d="M49.41,83.142L62.035,95.766C66.12,99.852,72.745,99.852,76.83,95.766L102.078,70.518C106.164,66.433,106.164,59.808,102.078,55.722C97.993,51.637,91.368,51.637,87.283,55.722L62.035,80.971L76.83,80.971L64.206,68.347C60.12,64.261,53.496,64.261,49.41,68.347C45.325,72.432,45.325,79.057,49.41,83.142Z"/>
  <path stroke-linecap="round" fill-rule="nonzero" stroke-width="1.5px" fill-opacity="1" stroke="none" fill="#000000" stroke-miterlimit="4" stroke-dasharray="none" stroke-opacity="1" stroke-linejoin="round" d="M42.022,44.184C42.022,43.019,43.019,42.022,44.184,42.022L107.305,42.022C108.499,42.022,109.467,42.99,109.467,44.184L109.467,119.929L119.929,109.467L31.56,109.467L42.022,119.929L42.022,44.184ZM21.098,44.184L21.098,119.929C21.098,125.707,25.782,130.391,31.56,130.391L119.929,130.391C125.707,130.391,130.391,125.707,130.391,119.929L130.391,44.184C130.391,31.434,120.055,21.098,107.305,21.098L44.184,21.098C31.463,21.098,21.098,31.463,21.098,44.184Z"/>
  <path stroke-width="1.5px" fill="#000000" stroke-opacity="1" stroke-linecap="round" stroke-linejoin="round" fill-opacity="1" stroke-miterlimit="4" stroke="none" fill-rule="nonzero" stroke-dasharray="none" d="M138.865,109.467L12.624,109.467C6.846,109.467,2.162,114.151,2.162,119.929C2.162,125.707,6.846,130.391,12.624,130.391L138.865,130.391C144.643,130.391,149.327,125.707,149.327,119.929C149.327,114.151,144.643,109.467,138.865,109.467Z"/>
</g>
  <g id="Heavy-L" transform="matrix(1.0,0.0,0.0,1.0,2562.225541992187,1445.0255615234375)">  <path stroke-linejoin="round" stroke-linecap="round" stroke-miterlimit="4" fill="#000000" stroke-width="1.5px" stroke="none" fill-opacity="1" stroke-opacity="1" fill-rule="nonzero" stroke-dasharray="none" d="M50.221,82.332L62.845,94.956C66.483,98.595,72.382,98.595,76.02,94.956L101.268,69.708C104.907,66.07,104.907,60.171,101.268,56.533C97.63,52.894,91.731,52.894,88.093,56.533L62.845,81.781L76.02,81.781L63.396,69.157C59.758,65.518,53.859,65.518,50.221,69.157C46.582,72.795,46.582,78.694,50.221,82.332Z"/>
  <path stroke="none" stroke-miterlimit="4" stroke-linecap="round" stroke-opacity="1" stroke-dasharray="none" fill="#000000" fill-opacity="1" stroke-linejoin="round" fill-rule="nonzero" stroke-width="1.5px" d="M40.877,44.184C40.877,42.386,42.386,40.877,44.184,40.877L107.305,40.877C109.131,40.877,110.612,42.358,110.612,44.184L110.612,119.929L119.929,110.612L31.56,110.612L40.877,119.929L40.877,44.184ZM22.244,44.184L22.244,119.929C22.244,125.074,26.415,129.245,31.56,129.245L119.929,129.245C125.074,129.245,129.245,125.074,129.245,119.929L129.245,44.184C129.245,32.067,119.422,22.244,107.305,22.244L44.184,22.244C32.096,22.244,22.244,32.096,22.244,44.184Z"/>
  <path stroke-dasharray="none" stroke-linejoin="round" stroke-width="1.5px" stroke-miterlimit="4" stroke-opacity="1" stroke-linecap="round" stroke="none" fill-rule="nonzero" fill-opacity="1" fill="#000000" d="M138.865,110.612L12.624,110.612C7.479,110.612,3.308,114.783,3.308,119.929C3.308,125.074,7.479,129.245,12.624,129.245L138.865,129.245C144.01,129.245,148.181,125.074,148.181,119.929C148.181,114.783,144.01,110.612,138.865,110.612Z"/>
</g>
  <g id="Bold-L" transform="matrix(1.0,0.0,0.0,1.0,2265.515541992187,1445.0255615234375)">  <path stroke-dasharray="none" stroke-opacity="1" stroke-linejoin="round" stroke-linecap="round" stroke-miterlimit="4" fill-rule="nonzero" stroke-width="1.5px" fill-opacity="1" fill="#000000" stroke="none" d="M51.031,81.522L63.655,94.146C66.846,97.337,72.019,97.337,75.21,94.146L100.458,68.898C103.649,65.707,103.649,60.534,100.458,57.343C97.267,54.152,92.094,54.152,88.903,57.343L63.655,82.591L75.21,82.591L62.586,69.967C59.395,66.776,54.222,66.776,51.031,69.967C47.84,73.158,47.84,78.331,51.031,81.522Z"/>
  <path fill-rule="nonzero" fill-opacity="1" stroke="none" stroke-miterlimit="4" stroke-linejoin="round" stroke-linecap="round" stroke-width="1.5px" fill="#000000" stroke-opacity="1" stroke-dasharray="none" d="M39.731,44.184C39.731,41.754,41.754,39.731,44.184,39.731L107.305,39.731C109.764,39.731,111.758,41.725,111.758,44.184L111.758,119.929L119.929,111.758L31.56,111.758L39.731,119.929L39.731,44.184ZM23.389,44.184L23.389,119.929C23.389,124.441,27.048,128.1,31.56,128.1L119.929,128.1C124.441,128.1,128.1,124.441,128.1,119.929L128.1,44.184C128.1,32.7,118.789,23.389,107.305,23.389L44.184,23.389C32.728,23.389,23.389,32.728,23.389,44.184Z"/>
  <path stroke-opacity="1" stroke-miterlimit="4" stroke-dasharray="none" fill-rule="nonzero" fill-opacity="1" stroke-linejoin="round" stroke-linecap="round" stroke="none" stroke-width="1.5px" fill="#000000" d="M138.865,111.758L12.624,111.758C8.111,111.758,4.453,115.416,4.453,119.929C4.453,124.441,8.111,128.1,12.624,128.1L138.865,128.1C143.378,128.1,147.036,124.441,147.036,119.929C147.036,115.416,143.378,111.758,138.865,111.758Z"/>
</g>
  <g id="Semibold-L" transform="matrix(1.0,0.0,0.0,1.0,1968.8055419921875,1445.0255615234375)">  <path fill="#000000" stroke-miterlimit="4" stroke-opacity="1" stroke-dasharray="none" fill-opacity="1" stroke-width="1.5px" stroke-linejoin="round" stroke="none" fill-rule="nonzero" stroke-linecap="round" d="M51.841,80.712L64.465,93.336C67.208,96.08,71.657,96.08,74.4,93.336L99.648,68.088C102.392,65.344,102.392,60.896,99.648,58.153C96.905,55.409,92.456,55.409,89.713,58.153L64.465,83.401L74.4,83.401L61.776,70.777C59.032,68.033,54.584,68.033,51.841,70.777C49.097,73.52,49.097,77.969,51.841,80.712Z"/>
  <path stroke="none" stroke-width="1.5px" stroke-opacity="1" stroke-miterlimit="4" fill-rule="nonzero" fill-opacity="1" stroke-linejoin="round" stroke-linecap="round" fill="#000000" stroke-dasharray="none" d="M38.585,44.184C38.585,41.121,41.121,38.585,44.184,38.585L107.305,38.585C110.397,38.585,112.903,41.092,112.903,44.184L112.903,119.929L119.929,112.903L31.56,112.903L38.585,119.929L38.585,44.184ZM24.535,44.184L24.535,119.929C24.535,123.809,27.68,126.954,31.56,126.954L119.929,126.954C123.809,126.954,126.954,123.809,126.954,119.929L126.954,44.184C126.954,33.332,118.157,24.535,107.305,24.535L44.184,24.535C33.361,24.535,24.535,33.361,24.535,44.184Z"/>
  <path stroke-dasharray="none" fill="#000000" stroke-linejoin="round" stroke="none" stroke-width="1.5px" fill-opacity="1" fill-rule="nonzero" stroke-linecap="round" stroke-miterlimit="4" stroke-opacity="1" d="M138.865,112.903L12.624,112.903C8.744,112.903,5.599,116.049,5.599,119.929C5.599,123.809,8.744,126.954,12.624,126.954L138.865,126.954C142.745,126.954,145.89,123.809,145.89,119.929C145.89,116.049,142.745,112.903,138.865,112.903Z"/>
</g>
  <g id="Medium-L" transform="matrix(1.0,0.0,0.0,1.0,1672.0955419921875,1445.0255615234375)">  <path fill="#000000" stroke-linejoin="round" stroke-dasharray="none" stroke-opacity="1" fill-rule="nonzero" stroke="none" stroke-linecap="round" stroke-miterlimit="4" fill-opacity="1" stroke-width="1.5px" d="M52.651,79.902L65.275,92.526C67.571,94.822,71.294,94.822,73.59,92.526L98.838,67.278C101.134,64.982,101.134,61.259,98.838,58.963C96.542,56.667,92.819,56.667,90.523,58.963L65.275,84.211L73.59,84.211L60.966,71.587C58.67,69.291,54.947,69.291,52.651,71.587C50.355,73.883,50.355,77.606,52.651,79.902Z"/>
  <path stroke-linecap="round" fill-rule="nonzero" fill="#000000" stroke-linejoin="round" stroke-miterlimit="4" stroke-width="1.5px" stroke="none" fill-opacity="1" stroke-opacity="1" stroke-dasharray="none" d="M37.44,44.184C37.44,40.488,40.488,37.44,44.184,37.44L107.305,37.44C111.029,37.44,114.049,40.459,114.049,44.184L114.049,119.929L119.929,114.049L31.56,114.049L37.44,119.929L37.44,44.184ZM25.681,44.184L25.681,119.929C25.681,123.176,28.313,125.808,31.56,125.808L119.929,125.808C123.176,125.808,125.808,123.176,125.808,119.929L125.808,44.184C125.808,33.965,117.524,25.681,107.305,25.681L44.184,25.681C33.994,25.681,25.681,33.994,25.681,44.184Z"/>
  <path stroke-dasharray="none" stroke-linejoin="round" stroke-opacity="1" stroke-linecap="round" fill-opacity="1" stroke-miterlimit="4" fill="#000000" fill-rule="nonzero" stroke="none" stroke-width="1.5px" d="M138.865,114.049L12.624,114.049C9.377,114.049,6.744,116.681,6.744,119.929C6.744,123.176,9.377,125.808,12.624,125.808L138.865,125.808C142.112,125.808,144.745,123.176,144.745,119.929C144.745,116.681,142.112,114.049,138.865,114.049Z"/>
</g>
  <g id="Regular-L" transform="matrix(1.0,0.0,0.0,1.0,1375.3855419921874,1445.0255615234375)">  <path fill="#000000" fill-opacity="1" stroke-linecap="round" stroke-opacity="1" stroke-dasharray="none" stroke-miterlimit="4" fill-rule="nonzero" stroke-width="1.5px" stroke="none" stroke-linejoin="round" d="M53.461,79.092L66.085,91.716C67.934,93.565,70.931,93.565,72.78,91.716L98.028,66.468C99.877,64.619,99.877,61.622,98.028,59.773C96.179,57.924,93.182,57.924,91.333,59.773L66.085,85.021L72.78,85.021L60.156,72.397C58.307,70.548,55.31,70.548,53.461,72.397C51.612,74.246,51.612,77.243,53.461,79.092Z"/>
  <path stroke-dasharray="none" stroke="none" stroke-linejoin="round" fill-rule="nonzero" fill="#000000" stroke-linecap="round" stroke-width="1.5px" stroke-opacity="1" stroke-miterlimit="4" fill-opacity="1" d="M36.294,44.184C36.294,39.856,39.856,36.294,44.184,36.294L107.305,36.294C111.662,36.294,115.195,39.827,115.195,44.184L115.195,119.929L119.929,115.195L31.56,115.195L36.294,119.929L36.294,44.184ZM26.826,44.184L26.826,119.929C26.826,122.543,28.946,124.663,31.56,124.663L119.929,124.663C122.543,124.663,124.663,122.543,124.663,119.929L124.663,44.184C124.663,34.598,116.891,26.826,107.305,26.826L44.184,26.826C34.626,26.826,26.826,34.626,26.826,44.184Z"/>
  <path stroke-width="1.5px" stroke-linecap="round" fill-opacity="1" stroke-miterlimit="4" stroke-linejoin="round" fill-rule="nonzero" stroke="none" stroke-opacity="1" stroke-dasharray="none" fill="#000000" d="M138.865,115.195L12.624,115.195C10.01,115.195,7.89,117.314,7.89,119.929C7.89,122.543,10.01,124.663,12.624,124.663L138.865,124.663C141.479,124.663,143.599,122.543,143.599,119.929C143.599,117.314,141.479,115.195,138.865,115.195Z"/>
</g>
  <g id="Light-L" transform="matrix(1.0,0.0,0.0,1.0,1078.6755419921876,1445.0255615234375)">  <path fill-rule="nonzero" stroke-dasharray="none" fill-opacity="1" stroke-linecap="round" fill="#000000" stroke-miterlimit="4" stroke-linejoin="round" stroke-width="1.5px" stroke-opacity="1" stroke="none" d="M54.019,78.534L66.643,91.158C68.183,92.699,70.681,92.699,72.222,91.158L97.47,65.91C99.011,64.369,99.011,61.871,97.47,60.331C95.929,58.79,93.432,58.79,91.891,60.331L66.643,85.579L72.222,85.579L59.598,72.955C58.057,71.414,55.559,71.414,54.019,72.955C52.478,74.496,52.478,76.993,54.019,78.534Z"/>
  <path stroke-linejoin="round" fill-opacity="1" stroke-linecap="round" stroke-dasharray="none" stroke-miterlimit="4" stroke="none" fill="#000000" fill-rule="nonzero" stroke-width="1.5px" stroke-opacity="1" d="M35.505,44.184C35.505,39.42,39.42,35.505,44.184,35.505L107.305,35.505C112.098,35.505,115.984,39.391,115.984,44.184L115.984,119.929L119.929,115.984L31.56,115.984L35.505,119.929L35.505,44.184ZM27.615,44.184L27.615,119.929C27.615,122.108,29.381,123.874,31.56,123.874L119.929,123.874C122.108,123.874,123.874,122.108,123.874,119.929L123.874,44.184C123.874,35.033,116.456,27.615,107.305,27.615L44.184,27.615C35.062,27.615,27.615,35.062,27.615,44.184Z"/>
  <path stroke-linecap="round" stroke-dasharray="none" stroke-width="1.5px" fill="#000000" fill-opacity="1" stroke-opacity="1" stroke-miterlimit="4" fill-rule="nonzero" stroke="none" stroke-linejoin="round" d="M138.865,115.984L12.624,115.984C10.445,115.984,8.679,117.75,8.679,119.929C8.679,122.108,10.445,123.874,12.624,123.874L138.865,123.874C141.044,123.874,142.81,122.108,142.81,119.929C142.81,117.75,141.044,115.984,138.865,115.984Z"/>
</g>
  <g id="Thin-L" transform="matrix(1.0,0.0,0.0,1.0,781.9655419921876,1445.0255615234375)">  <path fill="#000000" stroke-miterlimit="4" stroke-dasharray="none" stroke-opacity="1" fill-rule="nonzero" fill-opacity="1" stroke="none" stroke-width="1.5px" stroke-linecap="round" stroke-linejoin="round" d="M54.577,77.976L67.201,90.6C68.433,91.833,70.432,91.833,71.664,90.6L96.912,65.352C98.145,64.12,98.145,62.121,96.912,60.889C95.68,59.656,93.681,59.656,92.449,60.889L67.201,86.137L71.664,86.137L59.04,73.513C57.807,72.28,55.809,72.28,54.577,73.513C53.344,74.745,53.344,76.744,54.577,77.976Z"/>
  <path fill="#000000" stroke="none" fill-opacity="1" stroke-dasharray="none" stroke-width="1.5px" stroke-opacity="1" stroke-linejoin="round" stroke-miterlimit="4" stroke-linecap="round" fill-rule="nonzero" d="M34.716,44.184C34.716,38.984,38.984,34.716,44.184,34.716L107.305,34.716C112.534,34.716,116.773,38.955,116.773,44.184L116.773,119.929L119.929,116.773L31.56,116.773L34.716,119.929L34.716,44.184ZM28.404,44.184L28.404,119.929C28.404,121.672,29.817,123.085,31.56,123.085L119.929,123.085C121.672,123.085,123.085,121.672,123.085,119.929L123.085,44.184C123.085,35.469,116.02,28.404,107.305,28.404L44.184,28.404C35.498,28.404,28.404,35.498,28.404,44.184Z"/>
  <path stroke="none" stroke-linecap="round" stroke-dasharray="none" fill="#000000" fill-rule="nonzero" stroke-opacity="1" fill-opacity="1" stroke-miterlimit="4" stroke-linejoin="round" stroke-width="1.5px" d="M138.865,116.773L12.624,116.773C10.881,116.773,9.468,118.186,9.468,119.929C9.468,121.672,10.881,123.085,12.624,123.085L138.865,123.085C140.608,123.085,142.021,121.672,142.021,119.929C142.021,118.186,140.608,116.773,138.865,116.773Z"/>
</g>
  <g id="Ultralight-L" transform="matrix(1.0,0.0,0.0,1.0,485.2555419921875,1445.0255615234375)">  <path stroke-dasharray="none" fill="#000000" fill-opacity="1" stroke-miterlimit="4" stroke-linejoin="round" fill-rule="nonzero" stroke-linecap="round" stroke="none" stroke-width="1.5px" stroke-opacity="1" d="M55.135,77.418L67.759,90.042C68.683,90.967,70.182,90.967,71.106,90.042L96.354,64.794C97.279,63.87,97.279,62.371,96.354,61.447C95.43,60.522,93.931,60.522,93.007,61.447L67.759,86.695L71.106,86.695L58.482,74.071C57.558,73.146,56.059,73.146,55.135,74.071C54.21,74.995,54.21,76.494,55.135,77.418Z"/>
  <path fill="#000000" fill-rule="nonzero" stroke-miterlimit="4" stroke-linejoin="round" stroke-width="1.5px" stroke-linecap="round" fill-opacity="1" stroke="none" stroke-opacity="1" stroke-dasharray="none" d="M33.927,44.184C33.927,38.548,38.548,33.927,44.184,33.927L107.305,33.927C112.969,33.927,117.562,38.519,117.562,44.184L117.562,119.929L119.929,117.562L31.56,117.562L33.927,119.929L33.927,44.184ZM29.193,44.184L29.193,119.929C29.193,121.236,30.253,122.296,31.56,122.296L119.929,122.296C121.236,122.296,122.296,121.236,122.296,119.929L122.296,44.184C122.296,35.905,115.584,29.193,107.305,29.193L44.184,29.193C35.934,29.193,29.193,35.934,29.193,44.184Z"/>
  <path stroke-width="1.5px" fill-rule="nonzero" stroke-linecap="round" stroke-linejoin="round" stroke="none" stroke-miterlimit="4" stroke-opacity="1" fill="#000000" fill-opacity="1" stroke-dasharray="none" d="M138.865,117.562L12.624,117.562C11.317,117.562,10.257,118.621,10.257,119.929C10.257,121.236,11.317,122.296,12.624,122.296L138.865,122.296C140.172,122.296,141.232,121.236,141.232,119.929C141.232,118.621,140.172,117.562,138.865,117.562Z"/>
</g>
  <g id="Black-M" transform="matrix(1.0,0.0,0.0,1.0,2875.9633658854164,1032.0533854166667)">  <path stroke-linecap="round" stroke-width="1.5px" stroke-miterlimit="4" stroke="none" stroke-linejoin="round" fill="#000000" fill-opacity="1" fill-rule="nonzero" stroke-opacity="1" stroke-dasharray="none" d="M38.303,64.451L48.089,74.238C51.256,77.405,56.391,77.405,59.558,74.238L79.131,54.665C82.298,51.498,82.298,46.363,79.131,43.196C75.963,40.028,70.828,40.028,67.661,43.196L48.089,62.768L59.558,62.768L49.772,52.982C46.605,49.815,41.47,49.815,38.303,52.982C35.135,56.149,35.135,61.284,38.303,64.451Z"/>
  <path stroke-linecap="round" fill-rule="nonzero" stroke-width="1.5px" fill-opacity="1" stroke="none" fill="#000000" stroke-miterlimit="4" stroke-dasharray="none" stroke-opacity="1" stroke-linejoin="round" d="M32.575,34.251C32.575,33.348,33.348,32.575,34.251,32.575L83.182,32.575C84.107,32.575,84.858,33.326,84.858,34.251L84.858,92.968L92.968,84.858L24.465,84.858L32.575,92.968L32.575,34.251ZM16.355,34.251L16.355,92.968C16.355,97.447,19.986,101.078,24.465,101.078L92.968,101.078C97.447,101.078,101.078,97.447,101.078,92.968L101.078,34.251C101.078,24.367,93.066,16.355,83.182,16.355L34.251,16.355C24.39,16.355,16.355,24.39,16.355,34.251Z"/>
  <path stroke-width="1.5px" fill="#000000" stroke-opacity="1" stroke-linecap="round" stroke-linejoin="round" fill-opacity="1" stroke-miterlimit="4" stroke="none" fill-rule="nonzero" stroke-dasharray="none" d="M107.647,84.858L9.786,84.858C5.307,84.858,1.676,88.489,1.676,92.968C1.676,97.447,5.307,101.078,9.786,101.078L107.647,101.078C112.126,101.078,115.757,97.447,115.757,92.968C115.757,88.489,112.126,84.858,107.647,84.858Z"/>
</g>
  <g id="Heavy-M" transform="matrix(1.0,0.0,0.0,1.0,2579.2533658854163,1032.0533854166667)">  <path stroke-linejoin="round" stroke-linecap="round" stroke-miterlimit="4" fill="#000000" stroke-width="1.5px" stroke="none" fill-opacity="1" stroke-opacity="1" fill-rule="nonzero" stroke-dasharray="none" d="M38.931,63.823L48.717,73.61C51.537,76.43,56.11,76.43,58.93,73.61L78.503,54.037C81.323,51.217,81.323,46.644,78.503,43.824C75.682,41.003,71.109,41.003,68.289,43.824L48.717,63.396L58.93,63.396L49.144,53.61C46.324,50.789,41.751,50.789,38.931,53.61C36.11,56.43,36.11,61.003,38.931,63.823Z"/>
  <path stroke="none" stroke-miterlimit="4" stroke-linecap="round" stroke-opacity="1" stroke-dasharray="none" fill="#000000" fill-opacity="1" stroke-linejoin="round" fill-rule="nonzero" stroke-width="1.5px" d="M31.687,34.251C31.687,32.858,32.858,31.687,34.251,31.687L83.182,31.687C84.598,31.687,85.746,32.835,85.746,34.251L85.746,92.968L92.968,85.746L24.465,85.746L31.687,92.968L31.687,34.251ZM17.243,34.251L17.243,92.968C17.243,96.957,20.477,100.19,24.465,100.19L92.968,100.19C96.957,100.19,100.19,96.957,100.19,92.968L100.19,34.251C100.19,24.858,92.575,17.243,83.182,17.243L34.251,17.243C24.88,17.243,17.243,24.88,17.243,34.251Z"/>
  <path stroke-dasharray="none" stroke-linejoin="round" stroke-width="1.5px" stroke-miterlimit="4" stroke-opacity="1" stroke-linecap="round" stroke="none" fill-rule="nonzero" fill-opacity="1" fill="#000000" d="M107.647,85.746L9.786,85.746C5.797,85.746,2.564,88.979,2.564,92.968C2.564,96.957,5.797,100.19,9.786,100.19L107.647,100.19C111.636,100.19,114.869,96.957,114.869,92.968C114.869,88.979,111.636,85.746,107.647,85.746Z"/>
</g>
  <g id="Bold-M" transform="matrix(1.0,0.0,0.0,1.0,2282.5433658854163,1032.0533854166667)">  <path stroke-dasharray="none" stroke-opacity="1" stroke-linejoin="round" stroke-linecap="round" stroke-miterlimit="4" fill-rule="nonzero" stroke-width="1.5px" fill-opacity="1" fill="#000000" stroke="none" d="M39.559,63.195L49.345,72.982C51.818,75.455,55.829,75.455,58.302,72.982L77.875,53.409C80.348,50.936,80.348,46.925,77.875,44.452C75.401,41.978,71.391,41.978,68.917,44.452L49.345,64.024L58.302,64.024L48.516,54.238C46.043,51.764,42.032,51.764,39.559,54.238C37.085,56.711,37.085,60.722,39.559,63.195Z"/>
  <path fill-rule="nonzero" fill-opacity="1" stroke="none" stroke-miterlimit="4" stroke-linejoin="round" stroke-linecap="round" stroke-width="1.5px" fill="#000000" stroke-opacity="1" stroke-dasharray="none" d="M30.799,34.251C30.799,32.367,32.367,30.799,34.251,30.799L83.182,30.799C85.088,30.799,86.634,32.345,86.634,34.251L86.634,92.968L92.968,86.634L24.465,86.634L30.799,92.968L30.799,34.251ZM18.131,34.251L18.131,92.968C18.131,96.466,20.967,99.302,24.465,99.302L92.968,99.302C96.466,99.302,99.302,96.466,99.302,92.968L99.302,34.251C99.302,25.348,92.085,18.131,83.182,18.131L34.251,18.131C25.371,18.131,18.131,25.371,18.131,34.251Z"/>
  <path stroke-opacity="1" stroke-miterlimit="4" stroke-dasharray="none" fill-rule="nonzero" fill-opacity="1" stroke-linejoin="round" stroke-linecap="round" stroke="none" stroke-width="1.5px" fill="#000000" d="M107.647,86.634L9.786,86.634C6.288,86.634,3.452,89.47,3.452,92.968C3.452,96.466,6.288,99.302,9.786,99.302L107.647,99.302C111.145,99.302,113.981,96.466,113.981,92.968C113.981,89.47,111.145,86.634,107.647,86.634Z"/>
</g>
  <g id="Semibold-M" transform="matrix(1.0,0.0,0.0,1.0,1985.8333658854167,1032.0533854166667)">  <path fill="#000000" stroke-miterlimit="4" stroke-opacity="1" stroke-dasharray="none" fill-opacity="1" stroke-width="1.5px" stroke-linejoin="round" stroke="none" fill-rule="nonzero" stroke-linecap="round" d="M40.187,62.568L49.973,72.354C52.099,74.48,55.548,74.48,57.674,72.354L77.247,52.781C79.373,50.655,79.373,47.206,77.247,45.08C75.12,42.953,71.672,42.953,69.545,45.08L49.973,64.652L57.674,64.652L47.888,54.866C45.762,52.739,42.313,52.739,40.187,54.866C38.06,56.993,38.06,60.441,40.187,62.568Z"/>
  <path stroke="none" stroke-width="1.5px" stroke-opacity="1" stroke-miterlimit="4" fill-rule="nonzero" fill-opacity="1" stroke-linejoin="round" stroke-linecap="round" fill="#000000" stroke-dasharray="none" d="M29.911,34.251C29.911,31.877,31.877,29.911,34.251,29.911L83.182,29.911C85.579,29.911,87.522,31.854,87.522,34.251L87.522,92.968L92.968,87.522L24.465,87.522L29.911,92.968L29.911,34.251ZM19.019,34.251L19.019,92.968C19.019,95.976,21.458,98.414,24.465,98.414L92.968,98.414C95.976,98.414,98.414,95.976,98.414,92.968L98.414,34.251C98.414,25.839,91.594,19.019,83.182,19.019L34.251,19.019C25.861,19.019,19.019,25.861,19.019,34.251Z"/>
  <path stroke-dasharray="none" fill="#000000" stroke-linejoin="round" stroke="none" stroke-width="1.5px" fill-opacity="1" fill-rule="nonzero" stroke-linecap="round" stroke-miterlimit="4" stroke-opacity="1" d="M107.647,87.522L9.786,87.522C6.778,87.522,4.34,89.96,4.34,92.968C4.34,95.976,6.778,98.414,9.786,98.414L107.647,98.414C110.655,98.414,113.093,95.976,113.093,92.968C113.093,89.96,110.655,87.522,107.647,87.522Z"/>
</g>
  <g id="Medium-M" transform="matrix(1.0,0.0,0.0,1.0,1689.1233658854167,1032.0533854166667)">  <path fill="#000000" stroke-linejoin="round" stroke-dasharray="none" stroke-opacity="1" fill-rule="nonzero" stroke="none" stroke-linecap="round" stroke-miterlimit="4" fill-opacity="1" stroke-width="1.5px" d="M40.815,61.94L50.601,71.726C52.381,73.506,55.267,73.506,57.046,71.726L76.619,52.153C78.399,50.373,78.399,47.488,76.619,45.708C74.839,43.928,71.953,43.928,70.173,45.708L50.601,65.28L57.046,65.28L47.26,55.494C45.48,53.714,42.595,53.714,40.815,55.494C39.035,57.274,39.035,60.16,40.815,61.94Z"/>
  <path stroke-linecap="round" fill-rule="nonzero" fill="#000000" stroke-linejoin="round" stroke-miterlimit="4" stroke-width="1.5px" stroke="none" fill-opacity="1" stroke-opacity="1" stroke-dasharray="none" d="M29.023,34.251C29.023,31.386,31.386,29.023,34.251,29.023L83.182,29.023C86.069,29.023,88.41,31.364,88.41,34.251L88.41,92.968L92.968,88.41L24.465,88.41L29.023,92.968L29.023,34.251ZM19.907,34.251L19.907,92.968C19.907,95.485,21.948,97.526,24.465,97.526L92.968,97.526C95.485,97.526,97.526,95.485,97.526,92.968L97.526,34.251C97.526,26.329,91.104,19.907,83.182,19.907L34.251,19.907C26.352,19.907,19.907,26.352,19.907,34.251Z"/>
  <path stroke-dasharray="none" stroke-linejoin="round" stroke-opacity="1" stroke-linecap="round" fill-opacity="1" stroke-miterlimit="4" fill="#000000" fill-rule="nonzero" stroke="none" stroke-width="1.5px" d="M107.647,88.41L9.786,88.41C7.269,88.41,5.228,90.451,5.228,92.968C5.228,95.485,7.269,97.526,9.786,97.526L107.647,97.526C110.164,97.526,112.205,95.485,112.205,92.968C112.205,90.451,110.164,88.41,107.647,88.41Z"/>
</g>
  <g id="Regular-M" transform="matrix(1.0,0.0,0.0,1.0,1392.4133658854166,1032.0533854166667)">  <path fill="#000000" fill-opacity="1" stroke-linecap="round" stroke-opacity="1" stroke-dasharray="none" stroke-miterlimit="4" fill-rule="nonzero" stroke-width="1.5px" stroke="none" stroke-linejoin="round" d="M41.443,61.312L51.229,71.098C52.662,72.531,54.985,72.531,56.419,71.098L75.991,51.525C77.424,50.092,77.424,47.769,75.991,46.336C74.558,44.902,72.234,44.902,70.801,46.336L51.229,65.908L56.419,65.908L46.632,56.122C45.199,54.689,42.876,54.689,41.443,56.122C40.009,57.555,40.009,59.878,41.443,61.312Z"/>
  <path stroke-dasharray="none" stroke="none" stroke-linejoin="round" fill-rule="nonzero" fill="#000000" stroke-linecap="round" stroke-width="1.5px" stroke-opacity="1" stroke-miterlimit="4" fill-opacity="1" d="M28.135,34.251C28.135,30.896,30.896,28.135,34.251,28.135L83.182,28.135C86.56,28.135,89.298,30.873,89.298,34.251L89.298,92.968L92.968,89.298L24.465,89.298L28.135,92.968L28.135,34.251ZM20.795,34.251L20.795,92.968C20.795,94.995,22.438,96.638,24.465,96.638L92.968,96.638C94.995,96.638,96.638,94.995,96.638,92.968L96.638,34.251C96.638,26.82,90.613,20.795,83.182,20.795L34.251,20.795C26.842,20.795,20.795,26.842,20.795,34.251Z"/>
  <path stroke-width="1.5px" stroke-linecap="round" fill-opacity="1" stroke-miterlimit="4" stroke-linejoin="round" fill-rule="nonzero" stroke="none" stroke-opacity="1" stroke-dasharray="none" fill="#000000" d="M107.647,89.298L9.786,89.298C7.759,89.298,6.116,90.941,6.116,92.968C6.116,94.995,7.759,96.638,9.786,96.638L107.647,96.638C109.674,96.638,111.317,94.995,111.317,92.968C111.317,90.941,109.674,89.298,107.647,89.298Z"/>
</g>
  <g id="Light-M" transform="matrix(1.0,0.0,0.0,1.0,1095.7033658854168,1032.0533854166667)">  <path fill-rule="nonzero" stroke-dasharray="none" fill-opacity="1" stroke-linecap="round" fill="#000000" stroke-miterlimit="4" stroke-linejoin="round" stroke-width="1.5px" stroke-opacity="1" stroke="none" d="M41.875,60.879L51.661,70.665C52.855,71.859,54.792,71.859,55.986,70.665L75.558,51.093C76.753,49.899,76.753,47.962,75.558,46.768C74.364,45.574,72.428,45.574,71.233,46.768L51.661,66.34L55.986,66.34L46.2,56.554C45.006,55.36,43.069,55.36,41.875,56.554C40.681,57.748,40.681,59.685,41.875,60.879Z"/>
  <path stroke-linejoin="round" fill-opacity="1" stroke-linecap="round" stroke-dasharray="none" stroke-miterlimit="4" stroke="none" fill="#000000" fill-rule="nonzero" stroke-width="1.5px" stroke-opacity="1" d="M27.523,34.251C27.523,30.558,30.558,27.523,34.251,27.523L83.182,27.523C86.898,27.523,89.91,30.536,89.91,34.251L89.91,92.968L92.968,89.91L24.465,89.91L27.523,92.968L27.523,34.251ZM21.407,34.251L21.407,92.968C21.407,94.657,22.776,96.026,24.465,96.026L92.968,96.026C94.657,96.026,96.026,94.657,96.026,92.968L96.026,34.251C96.026,27.158,90.276,21.407,83.182,21.407L34.251,21.407C27.18,21.407,21.407,27.18,21.407,34.251Z"/>
  <path stroke-linecap="round" stroke-dasharray="none" stroke-width="1.5px" fill="#000000" fill-opacity="1" stroke-opacity="1" stroke-miterlimit="4" fill-rule="nonzero" stroke="none" stroke-linejoin="round" d="M107.647,89.91L9.786,89.91C8.097,89.91,6.728,91.279,6.728,92.968C6.728,94.657,8.097,96.026,9.786,96.026L107.647,96.026C109.336,96.026,110.705,94.657,110.705,92.968C110.705,91.279,109.336,89.91,107.647,89.91Z"/>
</g>
  <g id="Thin-M" transform="matrix(1.0,0.0,0.0,1.0,798.9933658854167,1032.0533854166667)">  <path fill="#000000" stroke-miterlimit="4" stroke-dasharray="none" stroke-opacity="1" fill-rule="nonzero" fill-opacity="1" stroke="none" stroke-width="1.5px" stroke-linecap="round" stroke-linejoin="round" d="M42.308,60.447L52.094,70.233C53.049,71.188,54.598,71.188,55.554,70.233L75.126,50.66C76.081,49.705,76.081,48.156,75.126,47.201C74.17,46.245,72.621,46.245,71.666,47.201L52.094,66.773L55.554,66.773L45.767,56.987C44.812,56.031,43.263,56.031,42.308,56.987C41.352,57.942,41.352,59.491,42.308,60.447Z"/>
  <path fill="#000000" stroke="none" fill-opacity="1" stroke-dasharray="none" stroke-width="1.5px" stroke-opacity="1" stroke-linejoin="round" stroke-miterlimit="4" stroke-linecap="round" fill-rule="nonzero" d="M26.912,34.251C26.912,30.22,30.22,26.912,34.251,26.912L83.182,26.912C87.235,26.912,90.521,30.198,90.521,34.251L90.521,92.968L92.968,90.521L24.465,90.521L26.912,92.968L26.912,34.251ZM22.019,34.251L22.019,92.968C22.019,94.319,23.114,95.415,24.465,95.415L92.968,95.415C94.319,95.415,95.415,94.319,95.415,92.968L95.415,34.251C95.415,27.495,89.938,22.019,83.182,22.019L34.251,22.019C27.518,22.019,22.019,27.518,22.019,34.251Z"/>
  <path stroke="none" stroke-linecap="round" stroke-dasharray="none" fill="#000000" fill-rule="nonzero" stroke-opacity="1" fill-opacity="1" stroke-miterlimit="4" stroke-linejoin="round" stroke-width="1.5px" d="M107.647,90.521L9.786,90.521C8.435,90.521,7.34,91.617,7.34,92.968C7.34,94.319,8.435,95.415,9.786,95.415L107.647,95.415C108.998,95.415,110.094,94.319,110.094,92.968C110.094,91.617,108.998,90.521,107.647,90.521Z"/>
</g>
  <g id="Ultralight-M" transform="matrix(1.0,0.0,0.0,1.0,502.2833658854167,1032.0533854166667)">  <path stroke-dasharray="none" fill="#000000" fill-opacity="1" stroke-miterlimit="4" stroke-linejoin="round" fill-rule="nonzero" stroke-linecap="round" stroke="none" stroke-width="1.5px" stroke-opacity="1" d="M42.74,60.014L52.526,69.8C53.243,70.517,54.404,70.517,55.121,69.8L74.693,50.228C75.41,49.511,75.41,48.35,74.693,47.633C73.977,46.916,72.815,46.916,72.098,47.633L52.526,67.205L55.121,67.205L45.335,57.419C44.618,56.703,43.457,56.703,42.74,57.419C42.023,58.136,42.023,59.298,42.74,60.014Z"/>
  <path fill="#000000" fill-rule="nonzero" stroke-miterlimit="4" stroke-linejoin="round" stroke-width="1.5px" stroke-linecap="round" fill-opacity="1" stroke="none" stroke-opacity="1" stroke-dasharray="none" d="M26.3,34.251C26.3,29.882,29.882,26.3,34.251,26.3L83.182,26.3C87.573,26.3,91.133,29.86,91.133,34.251L91.133,92.968L92.968,91.133L24.465,91.133L26.3,92.968L26.3,34.251ZM22.63,34.251L22.63,92.968C22.63,93.981,23.452,94.803,24.465,94.803L92.968,94.803C93.981,94.803,94.803,93.981,94.803,92.968L94.803,34.251C94.803,27.833,89.6,22.63,83.182,22.63L34.251,22.63C27.856,22.63,22.63,27.856,22.63,34.251Z"/>
  <path stroke-width="1.5px" fill-rule="nonzero" stroke-linecap="round" stroke-linejoin="round" stroke="none" stroke-miterlimit="4" stroke-opacity="1" fill="#000000" fill-opacity="1" stroke-dasharray="none" d="M107.647,91.133L9.786,91.133C8.773,91.133,7.951,91.955,7.951,92.968C7.951,93.981,8.773,94.803,9.786,94.803L107.647,94.803C108.661,94.803,109.482,93.981,109.482,92.968C109.482,91.955,108.661,91.133,107.647,91.133Z"/>
</g>
  <g id="Black-S" transform="matrix(1.0,0.0,0.0,1.0,2888.7048754882812,614.7948950195313)">  <path stroke-linecap="round" stroke-width="1.5px" stroke-miterlimit="4" stroke="none" stroke-linejoin="round" fill="#000000" fill-opacity="1" fill-rule="nonzero" stroke-opacity="1" stroke-dasharray="none" d="M29.991,50.465L37.654,58.128C40.133,60.608,44.154,60.608,46.634,58.128L61.959,42.803C64.439,40.323,64.439,36.302,61.959,33.822C59.479,31.342,55.459,31.342,52.979,33.822L37.654,49.147L46.634,49.147L38.972,41.485C36.492,39.005,32.471,39.005,29.991,41.485C27.511,43.965,27.511,47.986,29.991,50.465Z"/>
  <path stroke-linecap="round" fill-rule="nonzero" stroke-width="1.5px" fill-opacity="1" stroke="none" fill="#000000" stroke-miterlimit="4" stroke-dasharray="none" stroke-opacity="1" stroke-linejoin="round" d="M25.507,26.819C25.507,26.112,26.112,25.507,26.819,25.507L65.131,25.507C65.856,25.507,66.444,26.094,66.444,26.819L66.444,72.794L72.794,66.444L19.156,66.444L25.507,72.794L25.507,26.819ZM12.806,26.819L12.806,72.794C12.806,76.301,15.649,79.144,19.156,79.144L72.794,79.144C76.301,79.144,79.144,76.301,79.144,72.794L79.144,26.819C79.144,19.08,72.871,12.806,65.131,12.806L26.819,12.806C19.097,12.806,12.806,19.097,12.806,26.819Z"/>
  <path stroke-width="1.5px" fill="#000000" stroke-opacity="1" stroke-linecap="round" stroke-linejoin="round" fill-opacity="1" stroke-miterlimit="4" stroke="none" fill-rule="nonzero" stroke-dasharray="none" d="M84.288,66.444L7.663,66.444C4.155,66.444,1.312,69.287,1.312,72.794C1.312,76.301,4.155,79.144,7.663,79.144L84.288,79.144C87.795,79.144,90.638,76.301,90.638,72.794C90.638,69.287,87.795,66.444,84.288,66.444Z"/>
</g>
  <g id="Heavy-S" transform="matrix(1.0,0.0,0.0,1.0,2591.994875488281,614.7948950195313)">  <path stroke-linejoin="round" stroke-linecap="round" stroke-miterlimit="4" fill="#000000" stroke-width="1.5px" stroke="none" fill-opacity="1" stroke-opacity="1" fill-rule="nonzero" stroke-dasharray="none" d="M30.483,49.974L38.145,57.636C40.354,59.845,43.934,59.845,46.143,57.636L61.468,42.311C63.676,40.103,63.676,36.522,61.468,34.314C59.259,32.106,55.679,32.106,53.47,34.314L38.145,49.639L46.143,49.639L38.48,41.976C36.272,39.768,32.691,39.768,30.483,41.976C28.274,44.185,28.274,47.765,30.483,49.974Z"/>
  <path stroke="none" stroke-miterlimit="4" stroke-linecap="round" stroke-opacity="1" stroke-dasharray="none" fill="#000000" fill-opacity="1" stroke-linejoin="round" fill-rule="nonzero" stroke-width="1.5px" d="M24.811,26.819C24.811,25.728,25.728,24.811,26.819,24.811L65.131,24.811C66.24,24.811,67.139,25.71,67.139,26.819L67.139,72.794L72.794,67.139L19.156,67.139L24.811,72.794L24.811,26.819ZM13.501,26.819L13.501,72.794C13.501,75.917,16.033,78.449,19.156,78.449L72.794,78.449C75.917,78.449,78.449,75.917,78.449,72.794L78.449,26.819C78.449,19.464,72.486,13.501,65.131,13.501L26.819,13.501C19.481,13.501,13.501,19.481,13.501,26.819Z"/>
  <path stroke-dasharray="none" stroke-linejoin="round" stroke-width="1.5px" stroke-miterlimit="4" stroke-opacity="1" stroke-linecap="round" stroke="none" fill-rule="nonzero" fill-opacity="1" fill="#000000" d="M84.288,67.139L7.663,67.139C4.539,67.139,2.008,69.671,2.008,72.794C2.008,75.917,4.539,78.449,7.663,78.449L84.288,78.449C87.411,78.449,89.943,75.917,89.943,72.794C89.943,69.671,87.411,67.139,84.288,67.139Z"/>
</g>
  <g id="Bold-S" transform="matrix(1.0,0.0,0.0,1.0,2295.284875488281,614.7948950195313)">  <path stroke-dasharray="none" stroke-opacity="1" stroke-linejoin="round" stroke-linecap="round" stroke-miterlimit="4" fill-rule="nonzero" stroke-width="1.5px" fill-opacity="1" fill="#000000" stroke="none" d="M30.974,49.482L38.637,57.145C40.574,59.081,43.714,59.081,45.651,57.145L60.976,41.82C62.913,39.883,62.913,36.742,60.976,34.806C59.039,32.869,55.899,32.869,53.962,34.806L38.637,50.131L45.651,50.131L37.988,42.468C36.051,40.531,32.911,40.531,30.974,42.468C29.038,44.405,29.038,47.545,30.974,49.482Z"/>
  <path fill-rule="nonzero" fill-opacity="1" stroke="none" stroke-miterlimit="4" stroke-linejoin="round" stroke-linecap="round" stroke-width="1.5px" fill="#000000" stroke-opacity="1" stroke-dasharray="none" d="M24.116,26.819C24.116,25.344,25.344,24.116,26.819,24.116L65.131,24.116C66.624,24.116,67.834,25.326,67.834,26.819L67.834,72.794L72.794,67.834L19.156,67.834L24.116,72.794L24.116,26.819ZM14.197,26.819L14.197,72.794C14.197,75.533,16.417,77.754,19.156,77.754L72.794,77.754C75.533,77.754,77.754,75.533,77.754,72.794L77.754,26.819C77.754,19.848,72.102,14.197,65.131,14.197L26.819,14.197C19.865,14.197,14.197,19.865,14.197,26.819Z"/>
  <path stroke-opacity="1" stroke-miterlimit="4" stroke-dasharray="none" fill-rule="nonzero" fill-opacity="1" stroke-linejoin="round" stroke-linecap="round" stroke="none" stroke-width="1.5px" fill="#000000" d="M84.288,67.834L7.663,67.834C4.923,67.834,2.703,70.055,2.703,72.794C2.703,75.533,4.923,77.754,7.663,77.754L84.288,77.754C87.027,77.754,89.247,75.533,89.247,72.794C89.247,70.055,87.027,67.834,84.288,67.834Z"/>
</g>
  <g id="Semibold-S" transform="matrix(1.0,0.0,0.0,1.0,1998.5748754882811,614.7948950195313)">  <path fill="#000000" stroke-miterlimit="4" stroke-opacity="1" stroke-dasharray="none" fill-opacity="1" stroke-width="1.5px" stroke-linejoin="round" stroke="none" fill-rule="nonzero" stroke-linecap="round" d="M31.466,48.99L39.129,56.653C40.794,58.318,43.494,58.318,45.159,56.653L60.484,41.328C62.149,39.663,62.149,36.963,60.484,35.297C58.819,33.632,56.119,33.632,54.454,35.297L39.129,50.622L45.159,50.622L37.497,42.96C35.831,41.295,33.131,41.295,31.466,42.96C29.801,44.625,29.801,47.325,31.466,48.99Z"/>
  <path stroke="none" stroke-width="1.5px" stroke-opacity="1" stroke-miterlimit="4" fill-rule="nonzero" fill-opacity="1" stroke-linejoin="round" stroke-linecap="round" fill="#000000" stroke-dasharray="none" d="M23.42,26.819C23.42,24.959,24.959,23.42,26.819,23.42L65.131,23.42C67.008,23.42,68.53,24.942,68.53,26.819L68.53,72.794L72.794,68.53L19.156,68.53L23.42,72.794L23.42,26.819ZM14.892,26.819L14.892,72.794C14.892,75.149,16.801,77.058,19.156,77.058L72.794,77.058C75.149,77.058,77.058,75.149,77.058,72.794L77.058,26.819C77.058,20.232,71.718,14.892,65.131,14.892L26.819,14.892C20.249,14.892,14.892,20.249,14.892,26.819Z"/>
  <path stroke-dasharray="none" fill="#000000" stroke-linejoin="round" stroke="none" stroke-width="1.5px" fill-opacity="1" fill-rule="nonzero" stroke-linecap="round" stroke-miterlimit="4" stroke-opacity="1" d="M84.288,68.53L7.663,68.53C5.307,68.53,3.398,70.439,3.398,72.794C3.398,75.149,5.307,77.058,7.663,77.058L84.288,77.058C86.643,77.058,88.552,75.149,88.552,72.794C88.552,70.439,86.643,68.53,84.288,68.53Z"/>
</g>
  <g id="Medium-S" transform="matrix(1.0,0.0,0.0,1.0,1701.864875488281,614.7948950195313)">  <path fill="#000000" stroke-linejoin="round" stroke-dasharray="none" stroke-opacity="1" fill-rule="nonzero" stroke="none" stroke-linecap="round" stroke-miterlimit="4" fill-opacity="1" stroke-width="1.5px" d="M31.958,48.499L39.62,56.161C41.014,57.555,43.274,57.555,44.667,56.161L59.992,40.836C61.386,39.442,61.386,37.183,59.992,35.789C58.599,34.395,56.339,34.395,54.945,35.789L39.62,51.114L44.667,51.114L37.005,43.452C35.611,42.058,33.352,42.058,31.958,43.452C30.564,44.845,30.564,47.105,31.958,48.499Z"/>
  <path stroke-linecap="round" fill-rule="nonzero" fill="#000000" stroke-linejoin="round" stroke-miterlimit="4" stroke-width="1.5px" stroke="none" fill-opacity="1" stroke-opacity="1" stroke-dasharray="none" d="M22.725,26.819C22.725,24.575,24.575,22.725,26.819,22.725L65.131,22.725C67.392,22.725,69.225,24.558,69.225,26.819L69.225,72.794L72.794,69.225L19.156,69.225L22.725,72.794L22.725,26.819ZM15.587,26.819L15.587,72.794C15.587,74.765,17.185,76.363,19.156,76.363L72.794,76.363C74.765,76.363,76.363,74.765,76.363,72.794L76.363,26.819C76.363,20.616,71.334,15.587,65.131,15.587L26.819,15.587C20.633,15.587,15.587,20.633,15.587,26.819Z"/>
  <path stroke-dasharray="none" stroke-linejoin="round" stroke-opacity="1" stroke-linecap="round" fill-opacity="1" stroke-miterlimit="4" fill="#000000" fill-rule="nonzero" stroke="none" stroke-width="1.5px" d="M84.288,69.225L7.663,69.225C5.692,69.225,4.094,70.823,4.094,72.794C4.094,74.765,5.692,76.363,7.663,76.363L84.288,76.363C86.259,76.363,87.857,74.765,87.857,72.794C87.857,70.823,86.259,69.225,84.288,69.225Z"/>
</g>
  <g id="Regular-S" transform="matrix(1.0,0.0,0.0,1.0,1405.154875488281,614.7948950195313)">  <path fill="#000000" fill-opacity="1" stroke-linecap="round" stroke-opacity="1" stroke-dasharray="none" stroke-miterlimit="4" fill-rule="nonzero" stroke-width="1.5px" stroke="none" stroke-linejoin="round" d="M32.45,48.007L40.112,55.669C41.234,56.792,43.054,56.792,44.176,55.669L59.501,40.344C60.623,39.222,60.623,37.403,59.501,36.281C58.379,35.159,56.559,35.159,55.437,36.281L40.112,51.606L44.176,51.606L36.513,43.943C35.391,42.821,33.572,42.821,32.45,43.943C31.327,45.065,31.327,46.885,32.45,48.007Z"/>
  <path stroke-dasharray="none" stroke="none" stroke-linejoin="round" fill-rule="nonzero" fill="#000000" stroke-linecap="round" stroke-width="1.5px" stroke-opacity="1" stroke-miterlimit="4" fill-opacity="1" d="M22.03,26.819C22.03,24.191,24.191,22.03,26.819,22.03L65.131,22.03C67.776,22.03,69.921,24.174,69.921,26.819L69.921,72.794L72.794,69.921L19.156,69.921L22.03,72.794L22.03,26.819ZM16.283,26.819L16.283,72.794C16.283,74.381,17.569,75.667,19.156,75.667L72.794,75.667C74.381,75.667,75.667,74.381,75.667,72.794L75.667,26.819C75.667,21,70.95,16.283,65.131,16.283L26.819,16.283C21.017,16.283,16.283,21.017,16.283,26.819Z"/>
  <path stroke-width="1.5px" stroke-linecap="round" fill-opacity="1" stroke-miterlimit="4" stroke-linejoin="round" fill-rule="nonzero" stroke="none" stroke-opacity="1" stroke-dasharray="none" fill="#000000" d="M84.288,69.921L7.663,69.921C6.076,69.921,4.789,71.207,4.789,72.794C4.789,74.381,6.076,75.667,7.663,75.667L84.288,75.667C85.875,75.667,87.161,74.381,87.161,72.794C87.161,71.207,85.875,69.921,84.288,69.921Z"/>
</g>
  <g id="Light-S" transform="matrix(1.0,0.0,0.0,1.0,1108.4448754882812,614.7948950195313)">  <path fill-rule="nonzero" stroke-dasharray="none" fill-opacity="1" stroke-linecap="round" fill="#000000" stroke-miterlimit="4" stroke-linejoin="round" stroke-width="1.5px" stroke-opacity="1" stroke="none" d="M32.788,47.668L40.451,55.331C41.386,56.266,42.902,56.266,43.837,55.331L59.162,40.006C60.097,39.071,60.097,37.555,59.162,36.619C58.227,35.684,56.711,35.684,55.776,36.619L40.451,51.944L43.837,51.944L36.175,44.282C35.239,43.347,33.723,43.347,32.788,44.282C31.853,45.217,31.853,46.733,32.788,47.668Z"/>
  <path stroke-linejoin="round" fill-opacity="1" stroke-linecap="round" stroke-dasharray="none" stroke-miterlimit="4" stroke="none" fill="#000000" fill-rule="nonzero" stroke-width="1.5px" stroke-opacity="1" d="M21.551,26.819C21.551,23.927,23.927,21.551,26.819,21.551L65.131,21.551C68.041,21.551,70.399,23.909,70.399,26.819L70.399,72.794L72.794,70.399L19.156,70.399L21.551,72.794L21.551,26.819ZM16.762,26.819L16.762,72.794C16.762,74.116,17.834,75.188,19.156,75.188L72.794,75.188C74.116,75.188,75.188,74.116,75.188,72.794L75.188,26.819C75.188,21.264,70.686,16.762,65.131,16.762L26.819,16.762C21.282,16.762,16.762,21.282,16.762,26.819Z"/>
  <path stroke-linecap="round" stroke-dasharray="none" stroke-width="1.5px" fill="#000000" fill-opacity="1" stroke-opacity="1" stroke-miterlimit="4" fill-rule="nonzero" stroke="none" stroke-linejoin="round" d="M84.288,70.399L7.663,70.399C6.34,70.399,5.268,71.471,5.268,72.794C5.268,74.116,6.34,75.188,7.663,75.188L84.288,75.188C85.61,75.188,86.682,74.116,86.682,72.794C86.682,71.471,85.61,70.399,84.288,70.399Z"/>
</g>
  <g id="Thin-S" transform="matrix(1.0,0.0,0.0,1.0,811.7348754882813,614.7948950195313)">  <path fill="#000000" stroke-miterlimit="4" stroke-dasharray="none" stroke-opacity="1" fill-rule="nonzero" fill-opacity="1" stroke="none" stroke-width="1.5px" stroke-linecap="round" stroke-linejoin="round" d="M33.127,47.33L40.789,54.992C41.537,55.74,42.75,55.74,43.498,54.992L58.823,39.667C59.572,38.919,59.572,37.706,58.823,36.958C58.075,36.21,56.862,36.21,56.114,36.958L40.789,52.283L43.498,52.283L35.836,44.621C35.088,43.872,33.875,43.872,33.127,44.621C32.379,45.369,32.379,46.582,33.127,47.33Z"/>
  <path fill="#000000" stroke="none" fill-opacity="1" stroke-dasharray="none" stroke-width="1.5px" stroke-opacity="1" stroke-linejoin="round" stroke-miterlimit="4" stroke-linecap="round" fill-rule="nonzero" d="M21.072,26.819C21.072,23.662,23.662,21.072,26.819,21.072L65.131,21.072C68.305,21.072,70.878,23.645,70.878,26.819L70.878,72.794L72.794,70.878L19.156,70.878L21.072,72.794L21.072,26.819ZM17.241,26.819L17.241,72.794C17.241,73.852,18.098,74.71,19.156,74.71L72.794,74.71C73.852,74.71,74.71,73.852,74.71,72.794L74.71,26.819C74.71,21.529,70.421,17.241,65.131,17.241L26.819,17.241C21.546,17.241,17.241,21.546,17.241,26.819Z"/>
  <path stroke="none" stroke-linecap="round" stroke-dasharray="none" fill="#000000" fill-rule="nonzero" stroke-opacity="1" fill-opacity="1" stroke-miterlimit="4" stroke-linejoin="round" stroke-width="1.5px" d="M84.288,70.878L7.663,70.878C6.605,70.878,5.747,71.736,5.747,72.794C5.747,73.852,6.605,74.71,7.663,74.71L84.288,74.71C85.346,74.71,86.203,73.852,86.203,72.794C86.203,71.736,85.346,70.878,84.288,70.878Z"/>
</g>
  <g id="Ultralight-S" transform="matrix(1.0,0.0,0.0,1.0,515.0248754882813,614.7948950195313)">  <path stroke-dasharray="none" fill="#000000" fill-opacity="1" stroke-miterlimit="4" stroke-linejoin="round" fill-rule="nonzero" stroke-linecap="round" stroke="none" stroke-width="1.5px" stroke-opacity="1" d="M33.465,46.991L41.128,54.654C41.689,55.215,42.599,55.215,43.16,54.654L58.485,39.329C59.046,38.767,59.046,37.858,58.485,37.297C57.924,36.736,57.014,36.736,56.453,37.297L41.128,52.622L43.16,52.622L35.497,44.959C34.936,44.398,34.027,44.398,33.465,44.959C32.904,45.52,32.904,46.43,33.465,46.991Z"/>
  <path fill="#000000" fill-rule="nonzero" stroke-miterlimit="4" stroke-linejoin="round" stroke-width="1.5px" stroke-linecap="round" fill-opacity="1" stroke="none" stroke-opacity="1" stroke-dasharray="none" d="M20.593,26.819C20.593,23.398,23.398,20.593,26.819,20.593L65.131,20.593C68.57,20.593,71.357,23.38,71.357,26.819L71.357,72.794L72.794,71.357L19.156,71.357L20.593,72.794L20.593,26.819ZM17.72,26.819L17.72,72.794C17.72,73.587,18.363,74.231,19.156,74.231L72.794,74.231C73.587,74.231,74.231,73.587,74.231,72.794L74.231,26.819C74.231,21.793,70.157,17.72,65.131,17.72L26.819,17.72C21.811,17.72,17.72,21.811,17.72,26.819Z"/>
  <path stroke-width="1.5px" fill-rule="nonzero" stroke-linecap="round" stroke-linejoin="round" stroke="none" stroke-miterlimit="4" stroke-opacity="1" fill="#000000" fill-opacity="1" stroke-dasharray="none" d="M84.288,71.357L7.663,71.357C6.869,71.357,6.226,72,6.226,72.794C6.226,73.587,6.869,74.231,7.663,74.231L84.288,74.231C85.081,74.231,85.724,73.587,85.724,72.794C85.724,72,85.081,71.357,84.288,71.357Z"/>
</g>
 </g>
</svg>
