<?xml version="1.0" encoding="UTF-8"?>
<!-- Generator: CustomSymbols v2.7.2.48 by @serious_bret https://bretlester.com/app_content/CustomSymbols/ -->
<!-- Guides: Left/Right 0.0/0.0 Cap/Base 0.2/0.19999999999999996 -->
<!-- Settings: RefScale 1.0 Min/Max Stroke Scales 0.5/2.21 -->
<!DOCTYPE svg
PUBLIC "-//W3C//DTD SVG 1.1//EN"
       "http://www.w3.org/Graphics/SVG/1.1/DTD/svg11.dtd">
<svg version="1.1" xmlns="http://www.w3.org/2000/svg" xmlns:xlink="http://www.w3.org/1999/xlink" width="3300" height="2200">
<![CDATA[<svg xmlns="http://www.w3.org/2000/svg" width="24" height="24" viewBox="0 0 24 24" fill="none" stroke="currentColor" stroke-width="1.5" stroke-linecap="round" stroke-linejoin="round" class="lucide lucide-coins"><circle cx="8" cy="8" r="6"/><path d="M18.09 10.37A6 6 0 1 1 10.34 18"/><path d="M7 6h1v4"/><path d="m16.71 13.88.7.71-2.82 2.82"/></svg>]]>
 <g id="Notes">
  <rect height="2200" id="artboard" style="fill:white;opacity:1" width="3300" x="0" y="0"/>
  <line id="" style="fill:none;stroke:black;opacity:1;stroke-width:0.5;" x1="263" x2="3036" y1="292" y2="292"/>
  <text id="reftext1" style="stroke:none;fill:black;font-family:-apple-system,&quot;SF Pro Display&quot;,&quot;SF Pro Text&quot;,Helvetica,sans-serif;font-weight:bold;" transform="matrix(1 0 0 1 263 322)">Weight/Scale Variations</text>
  <text id="reftext2" style="stroke:none;fill:black;font-family:-apple-system,&quot;SF Pro Display&quot;,&quot;SF Pro Text&quot;,Helvetica,sans-serif;text-anchor:middle;" transform="matrix(1 0 0 1 559.711 322)">Ultralight</text>
  <text style="stroke:none;fill:black;font-family:-apple-system,&quot;SF Pro Display&quot;,&quot;SF Pro Text&quot;,Helvetica,sans-serif;text-anchor:middle;" transform="matrix(1 0 0 1 856.422 322)">Thin</text>
  <text style="stroke:none;fill:black;font-family:-apple-system,&quot;SF Pro Display&quot;,&quot;SF Pro Text&quot;,Helvetica,sans-serif;text-anchor:middle;" transform="matrix(1 0 0 1 1153.13 322)">Light</text>
  <text style="stroke:none;fill:black;font-family:-apple-system,&quot;SF Pro Display&quot;,&quot;SF Pro Text&quot;,Helvetica,sans-serif;text-anchor:middle;" transform="matrix(1 0 0 1 1449.84 322)">Regular</text>
  <text style="stroke:none;fill:black;font-family:-apple-system,&quot;SF Pro Display&quot;,&quot;SF Pro Text&quot;,Helvetica,sans-serif;text-anchor:middle;" transform="matrix(1 0 0 1 1746.56 322)">Medium</text>
  <text style="stroke:none;fill:black;font-family:-apple-system,&quot;SF Pro Display&quot;,&quot;SF Pro Text&quot;,Helvetica,sans-serif;text-anchor:middle;" transform="matrix(1 0 0 1 2043.27 322)">Semibold</text>
  <text style="stroke:none;fill:black;font-family:-apple-system,&quot;SF Pro Display&quot;,&quot;SF Pro Text&quot;,Helvetica,sans-serif;text-anchor:middle;" transform="matrix(1 0 0 1 2339.98 322)">Bold</text>
  <text style="stroke:none;fill:black;font-family:-apple-system,&quot;SF Pro Display&quot;,&quot;SF Pro Text&quot;,Helvetica,sans-serif;text-anchor:middle;" transform="matrix(1 0 0 1 2636.69 322)">Heavy</text>
  <text style="stroke:none;fill:black;font-family:-apple-system,&quot;SF Pro Display&quot;,&quot;SF Pro Text&quot;,Helvetica,sans-serif;text-anchor:middle;" transform="matrix(1 0 0 1 2933.4 322)">Black</text>
  <line id="" style="fill:none;stroke:black;opacity:1;stroke-width:0.5;" x1="263" x2="3036" y1="1903" y2="1903"/>
  <g id="" transform="matrix(1 0 0 1 263 1933)">
   <path d="M9.24805 0.830078C13.5547 0.830078 17.1387-2.74414 17.1387-7.05078C17.1387-11.3574 13.5449-14.9316 9.23828-14.9316C4.94141-14.9316 1.36719-11.3574 1.36719-7.05078C1.36719-2.74414 4.95117 0.830078 9.24805 0.830078ZM9.24805-0.654297C5.70312-0.654297 2.87109-3.49609 2.87109-7.05078C2.87109-10.6055 5.69336-13.4473 9.23828-13.4473C12.793-13.4473 15.6348-10.6055 15.6445-7.05078C15.6543-3.49609 12.8027-0.654297 9.24805-0.654297ZM6.39648-6.31836L8.50586-6.31836L8.50586-4.19922C8.50586-3.75977 8.79883-3.45703 9.22852-3.45703C9.67773-3.45703 9.9707-3.75977 9.9707-4.19922L9.9707-6.31836L12.0996-6.31836C12.5391-6.31836 12.8418-6.61133 12.8418-7.04102C12.8418-7.48047 12.5391-7.7832 12.0996-7.7832L9.9707-7.7832L9.9707-9.89258C9.9707-10.3418 9.67773-10.6445 9.22852-10.6445C8.79883-10.6445 8.50586-10.3418 8.50586-9.89258L8.50586-7.7832L6.39648-7.7832C5.94727-7.7832 5.64453-7.48047 5.64453-7.04102C5.64453-6.61133 5.94727-6.31836 6.39648-6.31836Z"/>
  </g>
  <g id="" transform="matrix(1 0 0 1 281.506 1933)">
   <path d="M11.709 2.91016C17.1582 2.91016 21.6699-1.61133 21.6699-7.05078C21.6699-12.5 17.1484-17.0117 11.6992-17.0117C6.25977-17.0117 1.74805-12.5 1.74805-7.05078C1.74805-1.61133 6.26953 2.91016 11.709 2.91016ZM11.709 1.25C7.09961 1.25 3.41797-2.44141 3.41797-7.05078C3.41797-11.6602 7.08984-15.3516 11.6992-15.3516C16.3086-15.3516 20-11.6602 20.0098-7.05078C20.0195-2.44141 16.3184 1.25 11.709 1.25ZM7.98828-6.23047L10.8789-6.23047L10.8789-3.32031C10.8789-2.83203 11.2109-2.5 11.6895-2.5C12.1777-2.5 12.5195-2.83203 12.5195-3.32031L12.5195-6.23047L15.4297-6.23047C15.918-6.23047 16.25-6.5625 16.25-7.04102C16.25-7.5293 15.918-7.87109 15.4297-7.87109L12.5195-7.87109L12.5195-10.7617C12.5195-11.2695 12.1777-11.6016 11.6895-11.6016C11.2109-11.6016 10.8789-11.2598 10.8789-10.7617L10.8789-7.87109L7.98828-7.87109C7.48047-7.87109 7.14844-7.5293 7.14844-7.04102C7.14844-6.5625 7.49023-6.23047 7.98828-6.23047Z"/>
  </g>
  <g id="" transform="matrix(1 0 0 1 304.924 1933)">
   <path d="M14.9707 5.66406C21.9336 5.66406 27.6953-0.0976562 27.6953-7.05078C27.6953-14.0137 21.9238-19.7754 14.9609-19.7754C8.00781-19.7754 2.25586-14.0137 2.25586-7.05078C2.25586-0.0976562 8.01758 5.66406 14.9707 5.66406ZM14.9707 3.84766C8.93555 3.84766 4.08203-1.01562 4.08203-7.05078C4.08203-13.0957 8.92578-17.9492 14.9609-17.9492C21.0059-17.9492 25.8594-13.0957 25.8691-7.05078C25.8789-1.01562 21.0156 3.84766 14.9707 3.84766ZM10.0586-6.14258L14.0625-6.14258L14.0625-2.12891C14.0625-1.5918 14.4336-1.2207 14.9512-1.2207C15.4883-1.2207 15.8594-1.5918 15.8594-2.12891L15.8594-6.14258L19.8828-6.14258C20.4102-6.14258 20.791-6.51367 20.791-7.03125C20.791-7.56836 20.4199-7.94922 19.8828-7.94922L15.8594-7.94922L15.8594-11.9531C15.8594-12.5098 15.4883-12.8809 14.9512-12.8809C14.4336-12.8809 14.0625-12.5 14.0625-11.9531L14.0625-7.94922L10.0586-7.94922C9.50195-7.94922 9.13086-7.56836 9.13086-7.03125C9.13086-6.51367 9.51172-6.14258 10.0586-6.14258Z"/>
  </g>
  <text style="stroke:none;fill:black;font-family:-apple-system,&quot;SF Pro Display&quot;,&quot;SF Pro Text&quot;,Helvetica,sans-serif;font-weight:bold;" transform="matrix(1 0 0 1 263 1953)">Design Variations</text>
  <text style="stroke:none;fill:black;font-family:-apple-system,&quot;SF Pro Display&quot;,&quot;SF Pro Text&quot;,Helvetica,sans-serif;" transform="matrix(1 0 0 1 263 1971)">Symbols are supported in up to nine weights and three scales.</text>
  <text style="stroke:none;fill:black;font-family:-apple-system,&quot;SF Pro Display&quot;,&quot;SF Pro Text&quot;,Helvetica,sans-serif;" transform="matrix(1 0 0 1 263 1989)">For optimal layout with text and other symbols, vertically align</text>
  <text style="stroke:none;fill:black;font-family:-apple-system,&quot;SF Pro Display&quot;,&quot;SF Pro Text&quot;,Helvetica,sans-serif;" transform="matrix(1 0 0 1 263 2007)">symbols with the adjacent text.</text>
  <line id="" style="fill:none;stroke:#00AEEF;stroke-width:0.5;opacity:1.0;" x1="776" x2="776" y1="1919" y2="1933"/>
  <g id="" transform="matrix(1 0 0 1 776 1933)">
   <path d="M3.31055 0.126953C3.82812 0.126953 4.08203-0.0683594 4.26758-0.605469L5.52734-4.0625L11.2891-4.0625L12.5488-0.605469C12.7344-0.0683594 12.9883 0.126953 13.4961 0.126953C14.0137 0.126953 14.3457-0.185547 14.3457-0.673828C14.3457-0.839844 14.3164-0.986328 14.2383-1.20117L9.6582-13.3887C9.43359-13.9941 9.0332-14.2871 8.4082-14.2871C7.80273-14.2871 7.39258-13.9941 7.17773-13.3984L2.59766-1.19141C2.51953-0.976562 2.49023-0.830078 2.49023-0.664062C2.49023-0.175781 2.80273 0.126953 3.31055 0.126953ZM6.00586-5.53711L8.37891-12.1094L8.42773-12.1094L10.8008-5.53711Z"/>
  </g>
  <line id="" style="fill:none;stroke:#00AEEF;stroke-width:0.5;opacity:1.0;" x1="792.836" x2="792.836" y1="1919" y2="1933"/>
  <text style="stroke:none;fill:black;font-family:-apple-system,&quot;SF Pro Display&quot;,&quot;SF Pro Text&quot;,Helvetica,sans-serif;font-weight:bold;" transform="matrix(1 0 0 1 776 1953)">Margins</text>
  <text style="stroke:none;fill:black;font-family:-apple-system,&quot;SF Pro Display&quot;,&quot;SF Pro Text&quot;,Helvetica,sans-serif;" transform="matrix(1 0 0 1 776 1971)">Leading and trailing margins on the left and right side of each symbol</text>
  <text style="stroke:none;fill:black;font-family:-apple-system,&quot;SF Pro Display&quot;,&quot;SF Pro Text&quot;,Helvetica,sans-serif;" transform="matrix(1 0 0 1 776 1989)">can be adjusted by modifying the x-location of the margin guidelines.</text>
  <text style="stroke:none;fill:black;font-family:-apple-system,&quot;SF Pro Display&quot;,&quot;SF Pro Text&quot;,Helvetica,sans-serif;" transform="matrix(1 0 0 1 776 2007)">Modifications are automatically applied proportionally to all</text>
  <text style="stroke:none;fill:black;font-family:-apple-system,&quot;SF Pro Display&quot;,&quot;SF Pro Text&quot;,Helvetica,sans-serif;" transform="matrix(1 0 0 1 776 2025)">scales and weights.</text>
  <g id="" transform="matrix(1 0 0 1 1289 1933)">
   <path d="M2.8418 1.86523L4.54102 3.57422C5.40039 4.44336 6.38672 4.38477 7.31445 3.35938L17.4902-7.85156C17.7539-7.76367 18.0273-7.7832 18.3398-7.8418L19.4043-8.03711L20.0684-7.36328L20.0293-6.80664C19.9902-6.30859 20.1172-5.92773 20.6055-5.44922L21.3672-4.70703C21.8457-4.22852 22.4609-4.19922 22.9297-4.66797L25.8398-7.58789C26.3086-8.05664 26.2891-8.65234 25.8105-9.13086L25.0391-9.89258C24.5605-10.3711 24.1895-10.5273 23.7109-10.4883L23.1348-10.4395L22.4902-11.0742L22.7344-12.1973C22.8613-12.7637 22.7051-13.2031 22.1191-13.7891L19.9219-15.9766C16.582-19.2969 12.1484-19.2188 9.25781-16.3281C8.83789-15.918 8.80859-15.3418 9.04297-14.9512C9.27734-14.5898 9.73633-14.3555 10.3809-14.5215C11.8457-14.8633 13.3691-14.9219 14.7949-13.9844L14.209-12.5293C14.0137-12.0508 13.9844-11.6504 14.1113-11.2891L3.04688-0.898438C2.06055 0.0195312 1.98242 0.996094 2.8418 1.86523ZM10.752-15.957C13.1836-17.7344 16.4746-17.4316 18.7012-15.2051L21.1328-12.793C21.3672-12.5586 21.4062-12.373 21.3379-12.0312L21.0156-10.5469L22.5195-9.0625L23.5059-9.12109C23.7598-9.13086 23.8379-9.11133 24.0332-8.91602L24.6094-8.33984L22.168-5.89844L21.5918-6.47461C21.3965-6.66992 21.3672-6.74805 21.377-7.01172L21.4453-7.98828L19.9512-9.47266L18.4277-9.21875C18.1055-9.15039 17.959-9.17969 17.7148-9.41406L15.7129-11.416C15.459-11.6504 15.4297-11.8164 15.5859-12.1875L16.4648-14.2773C14.9023-15.7324 12.8711-16.3574 10.8398-15.7617C10.6836-15.7227 10.625-15.8496 10.752-15.957ZM5.27344 2.30469L4.10156 1.14258C3.63281 0.683594 3.74023 0.341797 4.14062-0.0195312L14.9512-10.1953L16.416-8.71094L6.42578 2.27539C6.07422 2.67578 5.74219 2.77344 5.27344 2.30469Z"/>
  </g>
  <text style="stroke:none;fill:black;font-family:-apple-system,&quot;SF Pro Display&quot;,&quot;SF Pro Text&quot;,Helvetica,sans-serif;font-weight:bold;" transform="matrix(1 0 0 1 1289 1953)">Exporting</text>
  <text style="stroke:none;fill:black;font-family:-apple-system,&quot;SF Pro Display&quot;,&quot;SF Pro Text&quot;,Helvetica,sans-serif;" transform="matrix(1 0 0 1 1289 1971)">Symbols should be outlined when exporting to ensure the</text>
  <text style="stroke:none;fill:black;font-family:-apple-system,&quot;SF Pro Display&quot;,&quot;SF Pro Text&quot;,Helvetica,sans-serif;" transform="matrix(1 0 0 1 1289 1989)">design is preserved when submitting to Xcode.</text>
  <text id="template-version" style="stroke:none;fill:black;font-family:-apple-system,&quot;SF Pro Display&quot;,&quot;SF Pro Text&quot;,Helvetica,sans-serif;text-anchor:end;" transform="matrix(1 0 0 1 3036 1933)">Template v.2.0</text>
  <text style="stroke:none;fill:black;font-family:-apple-system,&quot;SF Pro Display&quot;,&quot;SF Pro Text&quot;,Helvetica,sans-serif;text-anchor:end;" transform="matrix(1 0 0 1 3036 1951)">Requires Xcode 12 or greater</text>
  <text style="stroke:none;fill:black;font-family:-apple-system,&quot;SF Pro Display&quot;,&quot;SF Pro Text&quot;,Helvetica,sans-serif;" transform="matrix(1 0 0 1 263 726)">Small</text>
  <text style="stroke:none;fill:black;font-family:-apple-system,&quot;SF Pro Display&quot;,&quot;SF Pro Text&quot;,Helvetica,sans-serif;" transform="matrix(1 0 0 1 263 1156)">Medium</text>
  <text style="stroke:none;fill:black;font-family:-apple-system,&quot;SF Pro Display&quot;,&quot;SF Pro Text&quot;,Helvetica,sans-serif;" transform="matrix(1 0 0 1 263 1586)">Large</text>
 </g>
 <g id="Guides">
  <g id="H-reference" style="fill:#27AAE1;stroke:none;" transform="matrix(1 0 0 1 339 696)">
   <path d="M0.976562 0L3.66211 0L12.9883-24.4629L45.752-24.4629L55.127 0L57.7637 0L30.6152-70.459L28.125-70.459ZM29.3457-67.1387L29.4434-67.1387L44.873-26.709L13.8672-26.709Z"/>
  </g>
  <line id="Baseline-S" style="fill:none;stroke:#27AAE1;opacity:1;stroke-width:0.5;" x1="263" x2="3036" y1="696" y2="696"/>
  <line id="Capline-S" style="fill:none;stroke:#27AAE1;opacity:1;stroke-width:0.5;" x1="263" x2="3036" y1="625.541" y2="625.541"/>
  <g id="H-reference" style="fill:#27AAE1;stroke:none;" transform="matrix(1 0 0 1 339 1126)">
   <path d="M0.976562 0L3.66211 0L12.9883-24.4629L45.752-24.4629L55.127 0L57.7637 0L30.6152-70.459L28.125-70.459ZM29.3457-67.1387L29.4434-67.1387L44.873-26.709L13.8672-26.709Z"/>
  </g>
  <line id="Baseline-M" style="fill:none;stroke:#27AAE1;opacity:1;stroke-width:0.5;" x1="263" x2="3036" y1="1126" y2="1126"/>
  <line id="Capline-M" style="fill:none;stroke:#27AAE1;opacity:1;stroke-width:0.5;" x1="263" x2="3036" y1="1055.54" y2="1055.54"/>
  <g id="H-reference" style="fill:#27AAE1;stroke:none;" transform="matrix(1 0 0 1 339 1556)">
   <path d="M0.976562 0L3.66211 0L12.9883-24.4629L45.752-24.4629L55.127 0L57.7637 0L30.6152-70.459L28.125-70.459ZM29.3457-67.1387L29.4434-67.1387L44.873-26.709L13.8672-26.709Z"/>
  </g>
  <line id="Baseline-L" style="fill:none;stroke:#27AAE1;opacity:1;stroke-width:0.5;" x1="263" x2="3036" y1="1556" y2="1556"/>
  <line id="Capline-L" style="fill:none;stroke:#27AAE1;opacity:1;stroke-width:0.5;" x1="263" x2="3036" y1="1485.54" y2="1485.54"/>
  <line id="left-margin" x1="1392.4133658854166" x2="1392.4133658854166" y1="1030.79" y2="1150.12" style="fill:none;stroke:#00AEEF;stroke-width:0.5;opacity:1.0;"/>
  <line id="right-margin" x1="1509.8466341145831" x2="1509.8466341145831" y1="1030.79" y2="1150.12" style="fill:none;stroke:#00AEEF;stroke-width:0.5;opacity:1.0;"/>
 </g>
 <g id="Symbols">
  <g id="Black-L" transform="matrix(1.0,0.0,0.0,1.0,2858.935541992187,1445.0255615234375)">  <path fill="#000000" stroke-miterlimit="4" stroke="none" stroke-width="1.5px" stroke-opacity="1" stroke-linejoin="round" stroke-dasharray="none" fill-opacity="1" cy="8" cx="8" stroke-linecap="round" r="6" fill-rule="nonzero" d="M77.906,50.496C77.906,65.634,65.634,77.906,50.496,77.906C35.358,77.906,23.086,65.634,23.086,50.496C23.086,35.358,35.358,23.086,50.496,23.086C65.634,23.086,77.906,35.358,77.906,50.496ZM98.831,50.496C98.831,23.802,77.191,2.162,50.496,2.162C23.802,2.162,2.162,23.802,2.162,50.496C2.162,77.191,23.802,98.831,50.496,98.831C77.191,98.831,98.831,77.191,98.831,50.496Z"/>
  <path stroke="none" stroke-opacity="1" fill="#000000" stroke-miterlimit="4" stroke-width="1.5px" stroke-linejoin="round" fill-opacity="1" stroke-dasharray="none" stroke-linecap="round" fill-rule="nonzero" d="M110.53,75.259C122.433,79.697,129.727,91.731,128.154,104.336C126.581,116.942,116.553,126.815,103.924,128.191C91.296,129.567,79.377,122.086,75.125,110.115C73.192,104.67,67.21,101.824,61.765,103.758C56.32,105.692,53.474,111.673,55.408,117.118C62.904,138.227,83.923,151.419,106.191,148.992C128.46,146.565,146.143,129.156,148.917,106.928C151.691,84.699,138.829,63.478,117.84,55.653C112.425,53.634,106.4,56.387,104.382,61.801C102.363,67.215,105.116,73.24,110.53,75.259Z"/>
  <path stroke-linecap="round" fill-rule="nonzero" stroke-linejoin="round" fill="#000000" stroke="none" stroke-miterlimit="4" stroke-width="1.5px" stroke-opacity="1" fill-opacity="1" stroke-dasharray="none" d="M44.184,48.334L50.496,48.334L50.496,37.872L40.034,37.872L40.034,63.12C40.034,68.898,44.718,73.583,50.496,73.583C56.274,73.583,60.959,68.898,60.959,63.12L60.959,37.872C60.959,32.094,56.274,27.41,50.496,27.41L44.184,27.41C38.406,27.41,33.722,32.094,33.722,37.872C33.722,43.65,38.406,48.334,44.184,48.334Z"/>
  <path stroke-miterlimit="4" fill="#000000" stroke="none" fill-rule="nonzero" stroke-opacity="1" stroke-dasharray="none" fill-opacity="1" stroke-width="1.5px" stroke-linecap="round" stroke-linejoin="round" d="M98.024,94.956L102.442,99.438L109.893,92.093L102.495,84.695L84.695,102.495C80.609,106.58,80.609,113.205,84.695,117.29C88.78,121.376,95.405,121.376,99.491,117.29L117.29,99.491C121.356,95.425,121.379,88.841,117.343,84.747L112.924,80.266C108.868,76.151,102.244,76.104,98.129,80.161C94.014,84.218,93.967,90.842,98.024,94.956Z"/>
</g>
  <g id="Heavy-L" transform="matrix(1.0,0.0,0.0,1.0,2562.225541992187,1445.0255615234375)">  <path stroke-dasharray="none" cx="8" fill="#000000" stroke="none" cy="8" r="6" stroke-opacity="1" fill-rule="nonzero" stroke-linecap="round" fill-opacity="1" stroke-miterlimit="4" stroke-width="1.5px" stroke-linejoin="round" d="M79.052,50.496C79.052,66.267,66.267,79.052,50.496,79.052C34.725,79.052,21.941,66.267,21.941,50.496C21.941,34.725,34.725,21.941,50.496,21.941C66.267,21.941,79.052,34.725,79.052,50.496ZM97.685,50.496C97.685,24.435,76.558,3.308,50.496,3.308C24.435,3.308,3.308,24.435,3.308,50.496C3.308,76.558,24.435,97.685,50.496,97.685C76.558,97.685,97.685,76.558,97.685,50.496Z"/>
  <path fill-rule="nonzero" stroke="none" stroke-linejoin="round" stroke-miterlimit="4" stroke-opacity="1" fill-opacity="1" stroke-linecap="round" fill="#000000" stroke-dasharray="none" stroke-width="1.5px" d="M110.93,74.185C123.331,78.809,130.93,91.346,129.291,104.478C127.652,117.611,117.205,127.896,104.048,129.33C90.892,130.763,78.475,122.97,74.046,110.499C72.324,105.65,66.997,103.115,62.149,104.837C57.3,106.559,54.765,111.886,56.487,116.735C63.806,137.343,84.326,150.222,106.067,147.853C127.808,145.484,145.072,128.487,147.78,106.786C150.489,85.084,137.931,64.366,117.439,56.726C112.618,54.929,107.253,57.38,105.455,62.201C103.658,67.023,106.109,72.388,110.93,74.185Z"/>
  <path fill="#000000" fill-opacity="1" stroke-miterlimit="4" stroke-opacity="1" stroke-dasharray="none" stroke-linejoin="round" stroke="none" fill-rule="nonzero" stroke-width="1.5px" stroke-linecap="round" d="M44.184,47.189L50.496,47.189L50.496,37.872L41.18,37.872L41.18,63.12C41.18,68.266,45.351,72.437,50.496,72.437C55.642,72.437,59.813,68.266,59.813,63.12L59.813,37.872C59.813,32.727,55.642,28.556,50.496,28.556L44.184,28.556C39.039,28.556,34.868,32.727,34.868,37.872C34.868,43.018,39.039,47.189,44.184,47.189Z"/>
  <path fill-opacity="1" fill-rule="nonzero" stroke-linejoin="round" stroke-opacity="1" stroke="none" stroke-width="1.5px" stroke-linecap="round" fill="#000000" stroke-miterlimit="4" stroke-dasharray="none" d="M98.84,94.152L103.258,98.634L109.893,92.093L103.305,85.505L85.505,103.305C81.866,106.943,81.866,112.842,85.505,116.48C89.143,120.119,95.042,120.119,98.68,116.48L116.48,98.68C120.101,95.06,120.121,89.197,116.527,85.552L112.109,81.07C108.496,77.406,102.597,77.364,98.933,80.977C95.269,84.589,95.227,90.488,98.84,94.152Z"/>
</g>
  <g id="Bold-L" transform="matrix(1.0,0.0,0.0,1.0,2265.515541992187,1445.0255615234375)">  <path stroke="none" stroke-width="1.5px" stroke-miterlimit="4" fill-opacity="1" stroke-linecap="round" fill="#000000" stroke-linejoin="round" fill-rule="nonzero" cy="8" r="6" stroke-opacity="1" cx="8" stroke-dasharray="none" d="M80.198,50.496C80.198,66.9,66.9,80.198,50.496,80.198C34.093,80.198,20.795,66.9,20.795,50.496C20.795,34.093,34.093,20.795,50.496,20.795C66.9,20.795,80.198,34.093,80.198,50.496ZM96.539,50.496C96.539,25.067,75.925,4.453,50.496,4.453C25.067,4.453,4.453,25.067,4.453,50.496C4.453,75.925,25.067,96.539,50.496,96.539C75.925,96.539,96.539,75.925,96.539,50.496Z"/>
  <path fill-rule="nonzero" fill="#000000" stroke-width="1.5px" stroke-linecap="round" stroke-opacity="1" stroke-miterlimit="4" stroke-dasharray="none" stroke-linejoin="round" fill-opacity="1" stroke="none" d="M111.33,73.112C124.228,77.921,132.132,90.961,130.428,104.62C128.723,118.279,117.857,128.977,104.173,130.469C90.489,131.96,77.573,123.853,72.966,110.882C71.456,106.63,66.784,104.407,62.532,105.917C58.279,107.427,56.056,112.099,57.567,116.351C64.708,136.459,84.73,149.026,105.943,146.714C127.156,144.403,144.001,127.818,146.644,106.644C149.286,85.469,137.033,65.254,117.039,57.8C112.811,56.223,108.105,58.373,106.529,62.601C104.952,66.83,107.102,71.536,111.33,73.112Z"/>
  <path stroke-width="1.5px" stroke-linejoin="round" stroke-dasharray="none" stroke-miterlimit="4" stroke="none" stroke-linecap="round" fill-opacity="1" fill="#000000" fill-rule="nonzero" stroke-opacity="1" d="M44.184,46.043L50.496,46.043L50.496,37.872L42.325,37.872L42.325,63.12C42.325,67.633,45.984,71.291,50.496,71.291C55.009,71.291,58.667,67.633,58.667,63.12L58.667,37.872C58.667,33.36,55.009,29.701,50.496,29.701L44.184,29.701C39.672,29.701,36.013,33.36,36.013,37.872C36.013,42.385,39.672,46.043,44.184,46.043Z"/>
  <path stroke-dasharray="none" stroke-opacity="1" fill="#000000" stroke-width="1.5px" fill-rule="nonzero" stroke="none" stroke-miterlimit="4" stroke-linejoin="round" stroke-linecap="round" fill-opacity="1" d="M99.656,93.348L104.074,97.829L109.893,92.093L104.115,86.315L86.315,104.115C83.124,107.306,83.124,112.479,86.315,115.67C89.506,118.861,94.679,118.861,97.87,115.67L115.67,97.87C118.845,94.695,118.863,89.553,115.711,86.356L111.293,81.874C108.124,78.661,102.951,78.624,99.738,81.793C96.524,84.961,96.487,90.134,99.656,93.348Z"/>
</g>
  <g id="Semibold-L" transform="matrix(1.0,0.0,0.0,1.0,1968.8055419921875,1445.0255615234375)">  <path stroke-opacity="1" fill="#000000" stroke-width="1.5px" r="6" cy="8" stroke-linecap="round" stroke-miterlimit="4" stroke="none" stroke-linejoin="round" stroke-dasharray="none" cx="8" fill-opacity="1" fill-rule="nonzero" d="M81.343,50.496C81.343,67.533,67.533,81.343,50.496,81.343C33.46,81.343,19.649,67.533,19.649,50.496C19.649,33.46,33.46,19.649,50.496,19.649C67.533,19.649,81.343,33.46,81.343,50.496ZM95.394,50.496C95.394,25.7,75.293,5.599,50.496,5.599C25.7,5.599,5.599,25.7,5.599,50.496C5.599,75.293,25.7,95.394,50.496,95.394C75.293,95.394,95.394,75.293,95.394,50.496Z"/>
  <path stroke-opacity="1" fill-opacity="1" fill-rule="nonzero" stroke-miterlimit="4" fill="#000000" stroke-linejoin="round" stroke-width="1.5px" stroke-linecap="round" stroke="none" stroke-dasharray="none" d="M111.731,72.039C125.126,77.033,133.335,90.576,131.564,104.762C129.794,118.948,118.509,130.059,104.297,131.607C90.085,133.156,76.671,124.737,71.887,111.266C70.588,107.609,66.572,105.698,62.915,106.996C59.259,108.295,57.348,112.312,58.646,115.968C65.61,135.576,85.134,147.83,105.819,145.575C126.504,143.321,142.93,127.15,145.507,106.502C148.084,85.854,136.136,66.142,116.639,58.873C113.003,57.518,108.957,59.366,107.602,63.002C106.247,66.637,108.095,70.683,111.731,72.039Z"/>
  <path stroke-width="1.5px" fill-rule="nonzero" stroke="none" stroke-dasharray="none" fill-opacity="1" stroke-linejoin="round" stroke-linecap="round" fill="#000000" stroke-miterlimit="4" stroke-opacity="1" d="M44.184,44.898L50.496,44.898L50.496,37.872L43.471,37.872L43.471,63.12C43.471,67,46.616,70.146,50.496,70.146C54.376,70.146,57.522,67,57.522,63.12L57.522,37.872C57.522,33.992,54.376,30.847,50.496,30.847L44.184,30.847C40.304,30.847,37.159,33.992,37.159,37.872C37.159,41.752,40.304,44.898,44.184,44.898Z"/>
  <path stroke-opacity="1" fill-rule="nonzero" stroke-dasharray="none" fill="#000000" fill-opacity="1" stroke-linecap="round" stroke-linejoin="round" stroke-miterlimit="4" stroke="none" stroke-width="1.5px" d="M100.471,92.543L104.89,97.025L109.893,92.093L104.925,87.125L87.125,104.925C84.381,107.668,84.381,112.117,87.125,114.86C89.869,117.604,94.317,117.604,97.06,114.86L114.86,97.06C117.59,94.33,117.606,89.909,114.895,87.16L110.477,82.679C107.753,79.916,103.305,79.884,100.542,82.608C97.779,85.332,97.747,89.78,100.471,92.543Z"/>
</g>
  <g id="Medium-L" transform="matrix(1.0,0.0,0.0,1.0,1672.0955419921875,1445.0255615234375)">  <path fill="#000000" stroke-width="1.5px" cy="8" cx="8" stroke-dasharray="none" stroke-linejoin="round" stroke-opacity="1" fill-rule="nonzero" stroke-miterlimit="4" r="6" stroke-linecap="round" fill-opacity="1" stroke="none" d="M82.489,50.496C82.489,68.165,68.165,82.489,50.496,82.489C32.827,82.489,18.504,68.165,18.504,50.496C18.504,32.827,32.827,18.504,50.496,18.504C68.165,18.504,82.489,32.827,82.489,50.496ZM94.248,50.496C94.248,26.333,74.66,6.744,50.496,6.744C26.333,6.744,6.744,26.333,6.744,50.496C6.744,74.66,26.333,94.248,50.496,94.248C74.66,94.248,94.248,74.66,94.248,50.496Z"/>
  <path stroke-width="1.5px" fill="#000000" stroke="none" stroke-dasharray="none" stroke-linejoin="round" fill-opacity="1" fill-rule="nonzero" stroke-opacity="1" stroke-miterlimit="4" stroke-linecap="round" d="M112.131,70.965C126.024,76.145,134.537,90.191,132.701,104.904C130.865,119.617,119.16,131.14,104.421,132.746C89.681,134.353,75.769,125.621,70.807,111.649C69.72,108.589,66.359,106.989,63.299,108.076C60.239,109.163,58.639,112.524,59.726,115.584C66.512,134.692,85.537,146.633,105.695,144.436C125.852,142.24,141.859,126.481,144.37,106.36C146.881,86.239,135.238,67.03,116.239,59.947C113.196,58.812,109.81,60.359,108.676,63.402C107.541,66.445,109.088,69.831,112.131,70.965Z"/>
  <path stroke="none" stroke-linecap="round" stroke-linejoin="round" stroke-width="1.5px" fill="#000000" stroke-dasharray="none" stroke-miterlimit="4" stroke-opacity="1" fill-opacity="1" fill-rule="nonzero" d="M44.184,43.752L50.496,43.752L44.617,37.872L44.617,63.12C44.617,66.368,47.249,69,50.496,69C53.744,69,56.376,66.368,56.376,63.12L56.376,37.872C56.376,34.625,53.744,31.993,50.496,31.993L44.184,31.993C40.937,31.993,38.305,34.625,38.305,37.872C38.305,41.119,40.937,43.752,44.184,43.752Z"/>
  <path stroke="none" fill-opacity="1" stroke-linejoin="round" stroke-opacity="1" stroke-width="1.5px" stroke-dasharray="none" stroke-miterlimit="4" fill-rule="nonzero" fill="#000000" stroke-linecap="round" d="M101.287,91.739L105.706,96.221L105.735,87.935L87.935,105.735C85.639,108.031,85.639,111.754,87.935,114.05C90.231,116.346,93.954,116.346,96.25,114.05L114.05,96.25C116.335,93.966,116.348,90.265,114.08,87.965L109.661,83.483C107.381,81.171,103.659,81.144,101.346,83.424C99.034,85.704,99.007,89.427,101.287,91.739Z"/>
</g>
  <g id="Regular-L" transform="matrix(1.0,0.0,0.0,1.0,1375.3855419921874,1445.0255615234375)">  <path cx="8" stroke-miterlimit="4" stroke-linejoin="round" fill-rule="nonzero" cy="8" fill="#000000" stroke-linecap="round" fill-opacity="1" stroke="none" stroke-dasharray="none" stroke-width="1.5px" r="6" stroke-opacity="1" d="M83.635,50.496C83.635,68.798,68.798,83.635,50.496,83.635C32.195,83.635,17.358,68.798,17.358,50.496C17.358,32.195,32.195,17.358,50.496,17.358C68.798,17.358,83.635,32.195,83.635,50.496ZM93.103,50.496C93.103,26.966,74.027,7.89,50.496,7.89C26.966,7.89,7.89,26.966,7.89,50.496C7.89,74.027,26.966,93.103,50.496,93.103C74.027,93.103,93.103,74.027,93.103,50.496Z"/>
  <path fill-opacity="1" stroke-dasharray="none" stroke-opacity="1" fill-rule="nonzero" stroke-linecap="round" stroke="none" stroke-width="1.5px" stroke-miterlimit="4" stroke-linejoin="round" fill="#000000" d="M112.531,69.892C126.921,75.257,135.74,89.806,133.838,105.046C131.936,120.285,119.812,132.221,104.545,133.885C89.277,135.549,74.867,126.505,69.728,112.032C68.853,109.569,66.146,108.281,63.682,109.156C61.218,110.031,59.93,112.737,60.805,115.201C67.414,133.808,85.941,145.437,105.571,143.298C125.2,141.158,140.788,125.812,143.233,106.218C145.678,86.624,134.34,67.918,115.839,61.02C113.389,60.107,110.662,61.352,109.749,63.802C108.836,66.252,110.081,68.978,112.531,69.892Z"/>
  <path fill-rule="nonzero" stroke-opacity="1" stroke-linejoin="round" fill="#000000" stroke-width="1.5px" stroke-miterlimit="4" fill-opacity="1" stroke-dasharray="none" stroke-linecap="round" stroke="none" d="M44.184,42.606L50.496,42.606L45.762,37.872L45.762,63.12C45.762,65.735,47.882,67.854,50.496,67.854C53.111,67.854,55.23,65.735,55.23,63.12L55.23,37.872C55.23,35.258,53.111,33.138,50.496,33.138L44.184,33.138C41.57,33.138,39.45,35.258,39.45,37.872C39.45,40.487,41.57,42.606,44.184,42.606Z"/>
  <path fill-opacity="1" stroke-dasharray="none" stroke="none" stroke-linejoin="round" stroke-miterlimit="4" stroke-linecap="round" stroke-width="1.5px" fill-rule="nonzero" stroke-opacity="1" fill="#000000" d="M102.103,90.935L106.521,95.416L106.545,88.745L88.745,106.545C86.896,108.394,86.896,111.391,88.745,113.24C90.594,115.089,93.591,115.089,95.44,113.24L113.24,95.44C115.08,93.601,115.09,90.621,113.264,88.769L108.845,84.287C107.01,82.426,104.012,82.404,102.151,84.24C100.289,86.076,100.267,89.073,102.103,90.935Z"/>
</g>
  <g id="Light-L" transform="matrix(1.0,0.0,0.0,1.0,1078.6755419921876,1445.0255615234375)">  <path stroke-opacity="1" stroke-dasharray="none" stroke-width="1.5px" stroke-linecap="round" r="6" stroke-linejoin="round" cx="8" stroke="none" cy="8" fill-opacity="1" fill="#000000" stroke-miterlimit="4" fill-rule="nonzero" d="M84.424,50.496C84.424,69.234,69.234,84.424,50.496,84.424C31.759,84.424,16.569,69.234,16.569,50.496C16.569,31.759,31.759,16.569,50.496,16.569C69.234,16.569,84.424,31.759,84.424,50.496ZM92.314,50.496C92.314,27.401,73.591,8.679,50.496,8.679C27.401,8.679,8.679,27.401,8.679,50.496C8.679,73.591,27.401,92.314,50.496,92.314C73.591,92.314,92.314,73.591,92.314,50.496Z"/>
  <path stroke-dasharray="none" stroke="none" stroke-linejoin="round" fill-rule="nonzero" fill-opacity="1" stroke-width="1.5px" stroke-linecap="round" fill="#000000" stroke-miterlimit="4" stroke-opacity="1" d="M112.807,69.152C127.54,74.645,136.568,89.541,134.621,105.143C132.674,120.746,120.261,132.966,104.63,134.67C88.999,136.373,74.246,127.113,68.984,112.296C68.255,110.243,65.999,109.17,63.946,109.899C61.893,110.628,60.82,112.884,61.549,114.937C68.035,133.2,86.219,144.613,105.485,142.513C124.751,140.414,140.05,125.352,142.45,106.121C144.85,86.89,133.722,68.529,115.563,61.759C113.521,60.998,111.249,62.036,110.488,64.078C109.727,66.119,110.765,68.391,112.807,69.152Z"/>
  <path fill-rule="nonzero" stroke-width="1.5px" stroke-dasharray="none" fill="#000000" stroke-linejoin="round" stroke-linecap="round" fill-opacity="1" stroke-opacity="1" stroke="none" stroke-miterlimit="4" d="M44.184,41.817L50.496,41.817L46.551,37.872L46.551,63.12C46.551,65.299,48.318,67.065,50.496,67.065C52.675,67.065,54.441,65.299,54.441,63.12L54.441,37.872C54.441,35.693,52.675,33.927,50.496,33.927L44.184,33.927C42.005,33.927,40.239,35.693,40.239,37.872C40.239,40.051,42.005,41.817,44.184,41.817Z"/>
  <path stroke-miterlimit="4" stroke-opacity="1" stroke-width="1.5px" stroke="none" stroke-linecap="round" fill-opacity="1" fill="#000000" stroke-linejoin="round" fill-rule="nonzero" stroke-dasharray="none" d="M102.665,90.381L107.083,94.862L107.103,89.303L89.303,107.103C87.762,108.644,87.762,111.142,89.303,112.682C90.844,114.223,93.342,114.223,94.882,112.682L112.682,94.882C114.215,93.349,114.224,90.867,112.702,89.323L108.283,84.841C106.754,83.29,104.256,83.272,102.704,84.802C101.153,86.331,101.135,88.829,102.665,90.381Z"/>
</g>
  <g id="Thin-L" transform="matrix(1.0,0.0,0.0,1.0,781.9655419921876,1445.0255615234375)">  <path cx="8" stroke-dasharray="none" cy="8" stroke-opacity="1" stroke="none" stroke-linecap="round" stroke-miterlimit="4" fill-opacity="1" fill-rule="nonzero" stroke-linejoin="round" fill="#000000" r="6" stroke-width="1.5px" d="M85.213,50.496C85.213,69.67,69.67,85.213,50.496,85.213C31.323,85.213,15.78,69.67,15.78,50.496C15.78,31.323,31.323,15.78,50.496,15.78C69.67,15.78,85.213,31.323,85.213,50.496ZM91.525,50.496C91.525,27.837,73.156,9.468,50.496,9.468C27.837,9.468,9.468,27.837,9.468,50.496C9.468,73.156,27.837,91.525,50.496,91.525C73.156,91.525,91.525,73.156,91.525,50.496Z"/>
  <path stroke="none" stroke-width="1.5px" stroke-linecap="round" fill-rule="nonzero" stroke-linejoin="round" fill="#000000" stroke-opacity="1" stroke-miterlimit="4" fill-opacity="1" stroke-dasharray="none" d="M113.082,68.413C128.158,74.033,137.396,89.276,135.404,105.241C133.411,121.207,120.71,133.711,104.716,135.454C88.721,137.197,73.625,127.722,68.241,112.56C67.657,110.918,65.853,110.059,64.21,110.643C62.568,111.226,61.709,113.03,62.292,114.673C68.656,132.591,86.497,143.789,105.4,141.729C124.302,139.669,139.313,124.891,141.667,106.023C144.022,87.155,133.104,69.141,115.287,62.499C113.654,61.89,111.836,62.72,111.228,64.353C110.619,65.987,111.449,67.804,113.082,68.413Z"/>
  <path fill="#000000" fill-rule="nonzero" stroke="none" stroke-dasharray="none" fill-opacity="1" stroke-linecap="round" stroke-linejoin="round" stroke-width="1.5px" stroke-opacity="1" stroke-miterlimit="4" d="M44.184,41.028L50.496,41.028L47.34,37.872L47.34,63.12C47.34,64.863,48.753,66.276,50.496,66.276C52.239,66.276,53.652,64.863,53.652,63.12L53.652,37.872C53.652,36.129,52.239,34.716,50.496,34.716L44.184,34.716C42.441,34.716,41.028,36.129,41.028,37.872C41.028,39.615,42.441,41.028,44.184,41.028Z"/>
  <path stroke-width="1.5px" fill-rule="nonzero" stroke-miterlimit="4" stroke-opacity="1" fill="#000000" fill-opacity="1" stroke="none" stroke-linejoin="round" stroke-linecap="round" stroke-dasharray="none" d="M103.227,89.827L107.645,94.308L107.661,89.861L89.861,107.661C88.628,108.893,88.628,110.892,89.861,112.124C91.093,113.357,93.092,113.357,94.324,112.124L112.124,94.324C113.351,93.098,113.358,91.112,112.14,89.877L107.722,85.395C106.498,84.154,104.5,84.14,103.258,85.364C102.017,86.587,102.003,88.586,103.227,89.827Z"/>
</g>
  <g id="Ultralight-L" transform="matrix(1.0,0.0,0.0,1.0,485.2555419921875,1445.0255615234375)">  <path cx="8" stroke-width="1.5px" stroke-opacity="1" stroke-miterlimit="4" stroke-dasharray="none" fill="#000000" stroke="none" cy="8" stroke-linecap="round" fill-rule="nonzero" fill-opacity="1" stroke-linejoin="round" r="6" d="M86.002,50.496C86.002,70.105,70.105,86.002,50.496,86.002C30.887,86.002,14.991,70.105,14.991,50.496C14.991,30.887,30.887,14.991,50.496,14.991C70.105,14.991,86.002,30.887,86.002,50.496ZM90.736,50.496C90.736,28.273,72.72,10.257,50.496,10.257C28.273,10.257,10.257,28.273,10.257,50.496C10.257,72.72,28.273,90.736,50.496,90.736C72.72,90.736,90.736,72.72,90.736,50.496Z"/>
  <path stroke-linecap="round" stroke-opacity="1" fill-opacity="1" stroke-dasharray="none" stroke="none" fill="#000000" stroke-linejoin="round" stroke-miterlimit="4" stroke-width="1.5px" fill-rule="nonzero" d="M113.358,67.674C128.776,73.422,138.224,89.011,136.187,105.339C134.149,121.667,121.159,134.456,104.801,136.238C88.443,138.021,73.004,128.331,67.497,112.825C67.06,111.593,65.706,110.949,64.474,111.386C63.242,111.824,62.598,113.177,63.036,114.409C69.277,131.982,86.775,142.965,105.314,140.945C123.853,138.924,138.575,124.43,140.884,105.925C143.194,87.42,132.486,69.753,115.012,63.238C113.787,62.781,112.424,63.404,111.967,64.629C111.51,65.854,112.133,67.217,113.358,67.674Z"/>
  <path stroke-linejoin="round" fill-rule="nonzero" stroke-linecap="round" stroke="none" stroke-width="1.5px" fill-opacity="1" stroke-dasharray="none" fill="#000000" stroke-opacity="1" stroke-miterlimit="4" d="M44.184,40.239L50.496,40.239L48.129,37.872L48.129,63.12C48.129,64.428,49.189,65.487,50.496,65.487C51.804,65.487,52.863,64.428,52.863,63.12L52.863,37.872C52.863,36.565,51.804,35.505,50.496,35.505L44.184,35.505C42.877,35.505,41.817,36.565,41.817,37.872C41.817,39.179,42.877,40.239,44.184,40.239Z"/>
  <path fill="#000000" stroke-miterlimit="4" stroke-linecap="round" stroke-linejoin="round" stroke-dasharray="none" fill-rule="nonzero" fill-opacity="1" stroke-width="1.5px" stroke="none" stroke-opacity="1" d="M103.789,89.273L108.207,93.754L108.219,90.419L90.419,108.219C89.495,109.143,89.495,110.642,90.419,111.566C91.343,112.491,92.842,112.491,93.766,111.566L111.566,93.766C112.486,92.847,112.491,91.357,111.578,90.431L107.16,85.949C106.242,85.018,104.743,85.008,103.812,85.926C102.881,86.843,102.871,88.342,103.789,89.273Z"/>
</g>
  <g id="Black-M" transform="matrix(1.0,0.0,0.0,1.0,2875.9633658854164,1032.0533854166667)">  <path fill="#000000" stroke-miterlimit="4" stroke="none" stroke-width="1.5px" stroke-opacity="1" stroke-linejoin="round" stroke-dasharray="none" fill-opacity="1" cy="8" cx="8" stroke-linecap="round" r="6" fill-rule="nonzero" d="M60.393,39.144C60.393,50.879,50.879,60.393,39.144,60.393C27.409,60.393,17.896,50.879,17.896,39.144C17.896,27.409,27.409,17.896,39.144,17.896C50.879,17.896,60.393,27.409,60.393,39.144ZM76.613,39.144C76.613,18.451,59.838,1.676,39.144,1.676C18.451,1.676,1.676,18.451,1.676,39.144C1.676,59.838,18.451,76.613,39.144,76.613C59.838,76.613,76.613,59.838,76.613,39.144Z"/>
  <path stroke="none" stroke-opacity="1" fill="#000000" stroke-miterlimit="4" stroke-width="1.5px" stroke-linejoin="round" fill-opacity="1" stroke-dasharray="none" stroke-linecap="round" fill-rule="nonzero" d="M85.682,58.34C94.909,61.78,100.564,71.109,99.344,80.881C98.125,90.653,90.351,98.306,80.562,99.373C70.772,100.44,61.532,94.64,58.237,85.361C56.738,81.14,52.101,78.933,47.88,80.432C43.659,81.931,41.453,86.568,42.952,90.789C48.763,107.153,65.056,117.379,82.319,115.498C99.581,113.616,113.289,100.121,115.44,82.89C117.59,65.658,107.619,49.208,91.348,43.142C87.152,41.577,82.481,43.711,80.916,47.908C79.351,52.105,81.485,56.776,85.682,58.34Z"/>
  <path stroke-linecap="round" fill-rule="nonzero" stroke-linejoin="round" fill="#000000" stroke="none" stroke-miterlimit="4" stroke-width="1.5px" stroke-opacity="1" fill-opacity="1" stroke-dasharray="none" d="M34.251,37.469L39.144,37.469L39.144,29.358L31.034,29.358L31.034,48.931C31.034,53.41,34.665,57.041,39.144,57.041C43.624,57.041,47.255,53.41,47.255,48.931L47.255,29.358C47.255,24.879,43.624,21.248,39.144,21.248L34.251,21.248C29.772,21.248,26.141,24.879,26.141,29.358C26.141,33.837,29.772,37.469,34.251,37.469Z"/>
  <path stroke-miterlimit="4" fill="#000000" stroke="none" fill-rule="nonzero" stroke-opacity="1" stroke-dasharray="none" fill-opacity="1" stroke-width="1.5px" stroke-linecap="round" stroke-linejoin="round" d="M75.988,73.61L79.413,77.084L85.188,71.39L79.453,65.655L65.655,79.453C62.488,82.62,62.488,87.756,65.655,90.923C68.822,94.09,73.957,94.09,77.124,90.923L90.923,77.124C94.074,73.973,94.092,68.869,90.963,65.696L87.538,62.222C84.394,59.032,79.259,58.996,76.069,62.14C72.879,65.285,72.843,70.42,75.988,73.61Z"/>
</g>
  <g id="Heavy-M" transform="matrix(1.0,0.0,0.0,1.0,2579.2533658854163,1032.0533854166667)">  <path stroke-dasharray="none" cx="8" fill="#000000" stroke="none" cy="8" r="6" stroke-opacity="1" fill-rule="nonzero" stroke-linecap="round" fill-opacity="1" stroke-miterlimit="4" stroke-width="1.5px" stroke-linejoin="round" d="M61.281,39.144C61.281,51.37,51.37,61.281,39.144,61.281C26.919,61.281,17.008,51.37,17.008,39.144C17.008,26.919,26.919,17.008,39.144,17.008C51.37,17.008,61.281,26.919,61.281,39.144ZM75.725,39.144C75.725,18.942,59.347,2.564,39.144,2.564C18.942,2.564,2.564,18.942,2.564,39.144C2.564,59.347,18.942,75.725,39.144,75.725C59.347,75.725,75.725,59.347,75.725,39.144Z"/>
  <path fill-rule="nonzero" stroke="none" stroke-linejoin="round" stroke-miterlimit="4" stroke-opacity="1" fill-opacity="1" stroke-linecap="round" fill="#000000" stroke-dasharray="none" stroke-width="1.5px" d="M85.992,57.508C95.605,61.092,101.496,70.811,100.225,80.991C98.955,91.171,90.856,99.144,80.658,100.256C70.459,101.367,60.833,95.325,57.4,85.658C56.065,81.899,51.936,79.934,48.177,81.269C44.418,82.604,42.454,86.733,43.788,90.492C49.462,106.468,65.369,116.451,82.223,114.615C99.076,112.778,112.459,99.602,114.558,82.78C116.658,65.957,106.923,49.896,91.038,43.974C87.301,42.58,83.142,44.481,81.748,48.218C80.355,51.955,82.255,56.115,85.992,57.508Z"/>
  <path fill="#000000" fill-opacity="1" stroke-miterlimit="4" stroke-opacity="1" stroke-dasharray="none" stroke-linejoin="round" stroke="none" fill-rule="nonzero" stroke-width="1.5px" stroke-linecap="round" d="M34.251,36.58L39.144,36.58L39.144,29.358L31.922,29.358L31.922,48.931C31.922,52.919,35.156,56.153,39.144,56.153C43.133,56.153,46.367,52.919,46.367,48.931L46.367,29.358C46.367,25.37,43.133,22.136,39.144,22.136L34.251,22.136C30.263,22.136,27.029,25.37,27.029,29.358C27.029,33.347,30.263,36.58,34.251,36.58Z"/>
  <path fill-opacity="1" fill-rule="nonzero" stroke-linejoin="round" stroke-opacity="1" stroke="none" stroke-width="1.5px" stroke-linecap="round" fill="#000000" stroke-miterlimit="4" stroke-dasharray="none" d="M76.62,72.986L80.045,76.46L85.188,71.39L80.081,66.283L66.283,80.081C63.462,82.902,63.462,87.474,66.283,90.295C69.103,93.115,73.676,93.115,76.496,90.295L90.295,76.496C93.101,73.69,93.117,69.145,90.331,66.319L86.906,62.845C84.105,60.005,79.533,59.972,76.692,62.773C73.852,65.573,73.82,70.146,76.62,72.986Z"/>
</g>
  <g id="Bold-M" transform="matrix(1.0,0.0,0.0,1.0,2282.5433658854163,1032.0533854166667)">  <path stroke="none" stroke-width="1.5px" stroke-miterlimit="4" fill-opacity="1" stroke-linecap="round" fill="#000000" stroke-linejoin="round" fill-rule="nonzero" cy="8" r="6" stroke-opacity="1" cx="8" stroke-dasharray="none" d="M62.169,39.144C62.169,51.86,51.86,62.169,39.144,62.169C26.428,62.169,16.12,51.86,16.12,39.144C16.12,26.428,26.428,16.12,39.144,16.12C51.86,16.12,62.169,26.428,62.169,39.144ZM74.837,39.144C74.837,19.432,58.857,3.452,39.144,3.452C19.432,3.452,3.452,19.432,3.452,39.144C3.452,58.857,19.432,74.837,39.144,74.837C58.857,74.837,74.837,58.857,74.837,39.144Z"/>
  <path fill-rule="nonzero" fill="#000000" stroke-width="1.5px" stroke-linecap="round" stroke-opacity="1" stroke-miterlimit="4" stroke-dasharray="none" stroke-linejoin="round" fill-opacity="1" stroke="none" d="M86.303,56.676C96.301,60.404,102.428,70.512,101.107,81.101C99.785,91.689,91.362,99.982,80.754,101.138C70.146,102.294,60.134,96.01,56.563,85.955C55.392,82.659,51.771,80.935,48.474,82.106C45.178,83.277,43.455,86.898,44.625,90.195C50.161,105.783,65.682,115.524,82.126,113.732C98.571,111.94,111.629,99.084,113.677,82.67C115.726,66.255,106.227,50.584,90.728,44.806C87.45,43.584,83.802,45.25,82.58,48.528C81.358,51.806,83.025,55.454,86.303,56.676Z"/>
  <path stroke-width="1.5px" stroke-linejoin="round" stroke-dasharray="none" stroke-miterlimit="4" stroke="none" stroke-linecap="round" fill-opacity="1" fill="#000000" fill-rule="nonzero" stroke-opacity="1" d="M34.251,35.692L39.144,35.692L39.144,29.358L32.81,29.358L32.81,48.931C32.81,52.429,35.646,55.265,39.144,55.265C42.643,55.265,45.478,52.429,45.478,48.931L45.478,29.358C45.478,25.86,42.643,23.024,39.144,23.024L34.251,23.024C30.753,23.024,27.917,25.86,27.917,29.358C27.917,32.857,30.753,35.692,34.251,35.692Z"/>
  <path stroke-dasharray="none" stroke-opacity="1" fill="#000000" stroke-width="1.5px" fill-rule="nonzero" stroke="none" stroke-miterlimit="4" stroke-linejoin="round" stroke-linecap="round" fill-opacity="1" d="M77.252,72.363L80.678,75.837L85.188,71.39L80.709,66.911L66.911,80.709C64.437,83.183,64.437,87.193,66.911,89.667C69.384,92.141,73.395,92.141,75.868,89.667L89.667,75.868C92.128,73.407,92.142,69.421,89.699,66.943L86.273,63.469C83.817,60.978,79.807,60.949,77.316,63.405C74.825,65.861,74.796,69.871,77.252,72.363Z"/>
</g>
  <g id="Semibold-M" transform="matrix(1.0,0.0,0.0,1.0,1985.8333658854167,1032.0533854166667)">  <path stroke-opacity="1" fill="#000000" stroke-width="1.5px" r="6" cy="8" stroke-linecap="round" stroke-miterlimit="4" stroke="none" stroke-linejoin="round" stroke-dasharray="none" cx="8" fill-opacity="1" fill-rule="nonzero" d="M63.057,39.144C63.057,52.351,52.351,63.057,39.144,63.057C25.938,63.057,15.232,52.351,15.232,39.144C15.232,25.938,25.938,15.232,39.144,15.232C52.351,15.232,63.057,25.938,63.057,39.144ZM73.949,39.144C73.949,19.923,58.366,4.34,39.144,4.34C19.923,4.34,4.34,19.923,4.34,39.144C4.34,58.366,19.923,73.949,39.144,73.949C58.366,73.949,73.949,58.366,73.949,39.144Z"/>
  <path stroke-opacity="1" fill-opacity="1" fill-rule="nonzero" stroke-miterlimit="4" fill="#000000" stroke-linejoin="round" stroke-width="1.5px" stroke-linecap="round" stroke="none" stroke-dasharray="none" d="M86.613,55.844C96.997,59.715,103.36,70.214,101.988,81.211C100.616,92.208,91.867,100.821,80.85,102.021C69.833,103.222,59.435,96.695,55.726,86.252C54.72,83.418,51.606,81.936,48.772,82.943C45.937,83.95,44.456,87.063,45.462,89.898C50.86,105.097,65.995,114.597,82.03,112.849C98.065,111.102,110.799,98.566,112.796,82.56C114.793,66.554,105.532,51.273,90.418,45.638C87.6,44.587,84.463,46.02,83.412,48.839C82.362,51.657,83.795,54.793,86.613,55.844Z"/>
  <path stroke-width="1.5px" fill-rule="nonzero" stroke="none" stroke-dasharray="none" fill-opacity="1" stroke-linejoin="round" stroke-linecap="round" fill="#000000" stroke-miterlimit="4" stroke-opacity="1" d="M34.251,34.804L39.144,34.804L39.144,29.358L33.698,29.358L33.698,48.931C33.698,51.938,36.137,54.376,39.144,54.376C42.152,54.376,44.59,51.938,44.59,48.931L44.59,29.358C44.59,26.351,42.152,23.912,39.144,23.912L34.251,23.912C31.244,23.912,28.805,26.351,28.805,29.358C28.805,32.366,31.244,34.804,34.251,34.804Z"/>
  <path stroke-opacity="1" fill-rule="nonzero" stroke-dasharray="none" fill="#000000" fill-opacity="1" stroke-linecap="round" stroke-linejoin="round" stroke-miterlimit="4" stroke="none" stroke-width="1.5px" d="M77.885,71.739L81.31,75.213L85.188,71.39L81.337,67.539L67.539,81.337C65.412,83.464,65.412,86.912,67.539,89.039C69.666,91.166,73.114,91.166,75.241,89.039L89.039,75.241C91.155,73.124,91.167,69.697,89.066,67.566L85.641,64.092C83.529,61.95,80.081,61.926,77.939,64.037C75.798,66.149,75.773,69.597,77.885,71.739Z"/>
</g>
  <g id="Medium-M" transform="matrix(1.0,0.0,0.0,1.0,1689.1233658854167,1032.0533854166667)">  <path fill="#000000" stroke-width="1.5px" cy="8" cx="8" stroke-dasharray="none" stroke-linejoin="round" stroke-opacity="1" fill-rule="nonzero" stroke-miterlimit="4" r="6" stroke-linecap="round" fill-opacity="1" stroke="none" d="M63.945,39.144C63.945,52.841,52.841,63.945,39.144,63.945C25.448,63.945,14.344,52.841,14.344,39.144C14.344,25.448,25.448,14.344,39.144,14.344C52.841,14.344,63.945,25.448,63.945,39.144ZM73.061,39.144C73.061,20.413,57.876,5.228,39.144,5.228C20.413,5.228,5.228,20.413,5.228,39.144C5.228,57.876,20.413,73.061,39.144,73.061C57.876,73.061,73.061,57.876,73.061,39.144Z"/>
  <path stroke-width="1.5px" fill="#000000" stroke="none" stroke-dasharray="none" stroke-linejoin="round" fill-opacity="1" fill-rule="nonzero" stroke-opacity="1" stroke-miterlimit="4" stroke-linecap="round" d="M86.923,55.012C97.693,59.027,104.292,69.916,102.869,81.321C101.446,92.726,92.372,101.659,80.946,102.904C69.52,104.149,58.736,97.381,54.889,86.55C54.047,84.177,51.441,82.937,49.069,83.78C46.697,84.622,45.457,87.228,46.299,89.6C51.56,104.412,66.308,113.669,81.934,111.966C97.56,110.263,109.968,98.047,111.915,82.45C113.861,66.852,104.836,51.961,90.108,46.47C87.749,45.591,85.124,46.79,84.245,49.149C83.365,51.507,84.564,54.132,86.923,55.012Z"/>
  <path stroke="none" stroke-linecap="round" stroke-linejoin="round" stroke-width="1.5px" fill="#000000" stroke-dasharray="none" stroke-miterlimit="4" stroke-opacity="1" fill-opacity="1" fill-rule="nonzero" d="M34.251,33.916L39.144,33.916L34.587,29.358L34.587,48.931C34.587,51.448,36.627,53.488,39.144,53.488C41.662,53.488,43.702,51.448,43.702,48.931L43.702,29.358C43.702,26.841,41.662,24.8,39.144,24.8L34.251,24.8C31.734,24.8,29.693,26.841,29.693,29.358C29.693,31.876,31.734,33.916,34.251,33.916Z"/>
  <path stroke="none" fill-opacity="1" stroke-linejoin="round" stroke-opacity="1" stroke-width="1.5px" stroke-dasharray="none" stroke-miterlimit="4" fill-rule="nonzero" fill="#000000" stroke-linecap="round" d="M78.517,71.116L81.942,74.59L81.965,68.167L68.167,81.965C66.387,83.745,66.387,86.631,68.167,88.411C69.947,90.191,72.833,90.191,74.613,88.411L88.411,74.613C90.182,72.842,90.192,69.973,88.434,68.19L85.009,64.716C83.241,62.923,80.355,62.903,78.563,64.67C76.77,66.437,76.75,69.323,78.517,71.116Z"/>
</g>
  <g id="Regular-M" transform="matrix(1.0,0.0,0.0,1.0,1392.4133658854166,1032.0533854166667)">  <path cx="8" stroke-miterlimit="4" stroke-linejoin="round" fill-rule="nonzero" cy="8" fill="#000000" stroke-linecap="round" fill-opacity="1" stroke="none" stroke-dasharray="none" stroke-width="1.5px" r="6" stroke-opacity="1" d="M64.833,39.144C64.833,53.332,53.332,64.833,39.144,64.833C24.957,64.833,13.456,53.332,13.456,39.144C13.456,24.957,24.957,13.456,39.144,13.456C53.332,13.456,64.833,24.957,64.833,39.144ZM72.173,39.144C72.173,20.904,57.385,6.116,39.144,6.116C20.904,6.116,6.116,20.904,6.116,39.144C6.116,57.385,20.904,72.173,39.144,72.173C57.385,72.173,72.173,57.385,72.173,39.144Z"/>
  <path fill-opacity="1" stroke-dasharray="none" stroke-opacity="1" fill-rule="nonzero" stroke-linecap="round" stroke="none" stroke-width="1.5px" stroke-miterlimit="4" stroke-linejoin="round" fill="#000000" d="M87.233,54.18C98.389,58.338,105.225,69.617,103.75,81.431C102.276,93.245,92.878,102.497,81.043,103.787C69.207,105.077,58.037,98.066,54.052,86.847C53.374,84.937,51.276,83.938,49.366,84.617C47.456,85.295,46.458,87.393,47.136,89.303C52.259,103.727,66.621,112.742,81.838,111.083C97.054,109.425,109.138,97.529,111.033,82.34C112.929,67.151,104.14,52.65,89.797,47.302C87.898,46.594,85.785,47.56,85.077,49.459C84.369,51.358,85.334,53.472,87.233,54.18Z"/>
  <path fill-rule="nonzero" stroke-opacity="1" stroke-linejoin="round" fill="#000000" stroke-width="1.5px" stroke-miterlimit="4" fill-opacity="1" stroke-dasharray="none" stroke-linecap="round" stroke="none" d="M34.251,33.028L39.144,33.028L35.475,29.358L35.475,48.931C35.475,50.957,37.118,52.6,39.144,52.6C41.171,52.6,42.814,50.957,42.814,48.931L42.814,29.358C42.814,27.332,41.171,25.689,39.144,25.689L34.251,25.689C32.225,25.689,30.582,27.332,30.582,29.358C30.582,31.385,32.225,33.028,34.251,33.028Z"/>
  <path fill-opacity="1" stroke-dasharray="none" stroke="none" stroke-linejoin="round" stroke-miterlimit="4" stroke-linecap="round" stroke-width="1.5px" fill-rule="nonzero" stroke-opacity="1" fill="#000000" d="M79.15,70.492L82.575,73.966L82.593,68.795L68.795,82.593C67.362,84.026,67.362,86.35,68.795,87.783C70.228,89.216,72.551,89.216,73.985,87.783L87.783,73.985C89.209,72.559,89.217,70.249,87.801,68.813L84.376,65.339C82.953,63.896,80.63,63.879,79.186,65.302C77.743,66.725,77.727,69.049,79.15,70.492Z"/>
</g>
  <g id="Light-M" transform="matrix(1.0,0.0,0.0,1.0,1095.7033658854168,1032.0533854166667)">  <path stroke-opacity="1" stroke-dasharray="none" stroke-width="1.5px" stroke-linecap="round" r="6" stroke-linejoin="round" cx="8" stroke="none" cy="8" fill-opacity="1" fill="#000000" stroke-miterlimit="4" fill-rule="nonzero" d="M65.445,39.144C65.445,53.67,53.67,65.445,39.144,65.445C24.619,65.445,12.844,53.67,12.844,39.144C12.844,24.619,24.619,12.844,39.144,12.844C53.67,12.844,65.445,24.619,65.445,39.144ZM71.561,39.144C71.561,21.241,57.048,6.728,39.144,6.728C21.241,6.728,6.728,21.241,6.728,39.144C6.728,57.048,21.241,71.561,39.144,71.561C57.048,71.561,71.561,57.048,71.561,39.144Z"/>
  <path stroke-dasharray="none" stroke="none" stroke-linejoin="round" fill-rule="nonzero" fill-opacity="1" stroke-width="1.5px" stroke-linecap="round" fill="#000000" stroke-miterlimit="4" stroke-opacity="1" d="M87.447,53.606C98.868,57.864,105.867,69.412,104.357,81.507C102.848,93.602,93.226,103.075,81.109,104.395C68.992,105.716,57.555,98.537,53.476,87.051C52.911,85.46,51.162,84.628,49.571,85.193C47.979,85.758,47.147,87.507,47.712,89.098C52.74,103.256,66.836,112.103,81.771,110.475C96.706,108.848,108.566,97.172,110.427,82.264C112.287,67.356,103.661,53.124,89.584,47.875C88.001,47.285,86.24,48.09,85.65,49.673C85.06,51.255,85.864,53.016,87.447,53.606Z"/>
  <path fill-rule="nonzero" stroke-width="1.5px" stroke-dasharray="none" fill="#000000" stroke-linejoin="round" stroke-linecap="round" fill-opacity="1" stroke-opacity="1" stroke="none" stroke-miterlimit="4" d="M34.251,32.416L39.144,32.416L36.086,29.358L36.086,48.931C36.086,50.62,37.455,51.989,39.144,51.989C40.833,51.989,42.203,50.62,42.203,48.931L42.203,29.358C42.203,27.669,40.833,26.3,39.144,26.3L34.251,26.3C32.562,26.3,31.193,27.669,31.193,29.358C31.193,31.047,32.562,32.416,34.251,32.416Z"/>
  <path stroke-miterlimit="4" stroke-opacity="1" stroke-width="1.5px" stroke="none" stroke-linecap="round" fill-opacity="1" fill="#000000" stroke-linejoin="round" fill-rule="nonzero" stroke-dasharray="none" d="M79.585,70.063L83.01,73.537L83.026,69.227L69.227,83.026C68.033,84.22,68.033,86.156,69.227,87.35C70.421,88.545,72.358,88.545,73.552,87.35L87.35,73.552C88.539,72.364,88.546,70.439,87.366,69.243L83.941,65.769C82.755,64.566,80.819,64.552,79.616,65.738C78.413,66.924,78.399,68.86,79.585,70.063Z"/>
</g>
  <g id="Thin-M" transform="matrix(1.0,0.0,0.0,1.0,798.9933658854167,1032.0533854166667)">  <path cx="8" stroke-dasharray="none" cy="8" stroke-opacity="1" stroke="none" stroke-linecap="round" stroke-miterlimit="4" fill-opacity="1" fill-rule="nonzero" stroke-linejoin="round" fill="#000000" r="6" stroke-width="1.5px" d="M66.056,39.144C66.056,54.007,54.007,66.056,39.144,66.056C24.281,66.056,12.233,54.007,12.233,39.144C12.233,24.281,24.281,12.233,39.144,12.233C54.007,12.233,66.056,24.281,66.056,39.144ZM70.949,39.144C70.949,21.579,56.71,7.34,39.144,7.34C21.579,7.34,7.34,21.579,7.34,39.144C7.34,56.71,21.579,70.949,39.144,70.949C56.71,70.949,70.949,56.71,70.949,39.144Z"/>
  <path stroke="none" stroke-width="1.5px" stroke-linecap="round" fill-rule="nonzero" stroke-linejoin="round" fill="#000000" stroke-opacity="1" stroke-miterlimit="4" fill-opacity="1" stroke-dasharray="none" d="M87.661,53.033C99.347,57.39,106.509,69.206,104.964,81.582C103.42,93.959,93.574,103.652,81.175,105.003C68.776,106.354,57.074,99.009,52.9,87.256C52.447,85.983,51.049,85.317,49.775,85.77C48.502,86.222,47.837,87.62,48.289,88.894C53.222,102.784,67.052,111.464,81.705,109.867C96.358,108.27,107.994,96.815,109.82,82.188C111.645,67.562,103.181,53.598,89.37,48.449C88.104,47.977,86.695,48.62,86.223,49.886C85.751,51.152,86.395,52.561,87.661,53.033Z"/>
  <path fill="#000000" fill-rule="nonzero" stroke="none" stroke-dasharray="none" fill-opacity="1" stroke-linecap="round" stroke-linejoin="round" stroke-width="1.5px" stroke-opacity="1" stroke-miterlimit="4" d="M34.251,31.805L39.144,31.805L36.698,29.358L36.698,48.931C36.698,50.282,37.793,51.377,39.144,51.377C40.496,51.377,41.591,50.282,41.591,48.931L41.591,29.358C41.591,28.007,40.496,26.912,39.144,26.912L34.251,26.912C32.9,26.912,31.805,28.007,31.805,29.358C31.805,30.709,32.9,31.805,34.251,31.805Z"/>
  <path stroke-width="1.5px" fill-rule="nonzero" stroke-miterlimit="4" stroke-opacity="1" fill="#000000" fill-opacity="1" stroke="none" stroke-linejoin="round" stroke-linecap="round" stroke-dasharray="none" d="M80.021,69.633L83.446,73.107L83.458,69.66L69.66,83.458C68.704,84.414,68.704,85.963,69.66,86.918C70.615,87.873,72.164,87.873,73.12,86.918L86.918,73.12C87.869,72.169,87.874,70.629,86.93,69.672L83.505,66.198C82.556,65.236,81.007,65.225,80.045,66.173C79.083,67.122,79.072,68.671,80.021,69.633Z"/>
</g>
  <g id="Ultralight-M" transform="matrix(1.0,0.0,0.0,1.0,502.2833658854167,1032.0533854166667)">  <path cx="8" stroke-width="1.5px" stroke-opacity="1" stroke-miterlimit="4" stroke-dasharray="none" fill="#000000" stroke="none" cy="8" stroke-linecap="round" fill-rule="nonzero" fill-opacity="1" stroke-linejoin="round" r="6" d="M66.668,39.144C66.668,54.345,54.345,66.668,39.144,66.668C23.944,66.668,11.621,54.345,11.621,39.144C11.621,23.944,23.944,11.621,39.144,11.621C54.345,11.621,66.668,23.944,66.668,39.144ZM70.338,39.144C70.338,21.917,56.372,7.951,39.144,7.951C21.917,7.951,7.951,21.917,7.951,39.144C7.951,56.372,21.917,70.338,39.144,70.338C56.372,70.338,70.338,56.372,70.338,39.144Z"/>
  <path stroke-linecap="round" stroke-opacity="1" fill-opacity="1" stroke-dasharray="none" stroke="none" fill="#000000" stroke-linejoin="round" stroke-miterlimit="4" stroke-width="1.5px" fill-rule="nonzero" d="M87.874,52.46C99.826,56.916,107.151,69.001,105.571,81.658C103.992,94.316,93.922,104.229,81.241,105.611C68.561,106.993,56.592,99.481,52.323,87.461C51.984,86.506,50.935,86.007,49.98,86.346C49.025,86.685,48.526,87.734,48.865,88.689C53.703,102.312,67.268,110.825,81.639,109.259C96.01,107.693,107.422,96.458,109.213,82.112C111.003,67.767,102.702,54.072,89.156,49.022C88.207,48.668,87.15,49.15,86.796,50.1C86.442,51.05,86.925,52.106,87.874,52.46Z"/>
  <path stroke-linejoin="round" fill-rule="nonzero" stroke-linecap="round" stroke="none" stroke-width="1.5px" fill-opacity="1" stroke-dasharray="none" fill="#000000" stroke-opacity="1" stroke-miterlimit="4" d="M34.251,31.193L39.144,31.193L37.31,29.358L37.31,48.931C37.31,49.944,38.131,50.765,39.144,50.765C40.158,50.765,40.979,49.944,40.979,48.931L40.979,29.358C40.979,28.345,40.158,27.523,39.144,27.523L34.251,27.523C33.238,27.523,32.416,28.345,32.416,29.358C32.416,30.372,33.238,31.193,34.251,31.193Z"/>
  <path fill="#000000" stroke-miterlimit="4" stroke-linecap="round" stroke-linejoin="round" stroke-dasharray="none" fill-rule="nonzero" fill-opacity="1" stroke-width="1.5px" stroke="none" stroke-opacity="1" d="M80.456,69.204L83.881,72.678L83.891,70.092L70.092,83.891C69.376,84.607,69.376,85.769,70.092,86.486C70.809,87.202,71.971,87.202,72.687,86.486L86.486,72.687C87.198,71.974,87.203,70.819,86.495,70.101L83.07,66.627C82.358,65.906,81.196,65.897,80.475,66.609C79.753,67.32,79.745,68.482,80.456,69.204Z"/>
</g>
  <g id="Black-S" transform="matrix(1.0,0.0,0.0,1.0,2888.7048754882812,614.7948950195313)">  <path fill="#000000" stroke-miterlimit="4" stroke="none" stroke-width="1.5px" stroke-opacity="1" stroke-linejoin="round" stroke-dasharray="none" fill-opacity="1" cy="8" cx="8" stroke-linecap="round" r="6" fill-rule="nonzero" d="M47.287,30.65C47.287,39.839,39.839,47.287,30.65,47.287C21.462,47.287,14.013,39.839,14.013,30.65C14.013,21.462,21.462,14.013,30.65,14.013C39.839,14.013,47.287,21.462,47.287,30.65ZM59.988,30.65C59.988,14.447,46.853,1.312,30.65,1.312C14.447,1.312,1.312,14.447,1.312,30.65C1.312,46.853,14.447,59.988,30.65,59.988C46.853,59.988,59.988,46.853,59.988,30.65Z"/>
  <path stroke="none" stroke-opacity="1" fill="#000000" stroke-miterlimit="4" stroke-width="1.5px" stroke-linejoin="round" fill-opacity="1" stroke-dasharray="none" stroke-linecap="round" fill-rule="nonzero" d="M67.089,45.68C74.314,48.374,78.741,55.679,77.786,63.33C76.832,70.981,70.745,76.974,63.08,77.809C55.415,78.644,48.18,74.103,45.599,66.837C44.426,63.533,40.795,61.805,37.49,62.979C34.185,64.152,32.457,67.783,33.631,71.088C38.181,83.901,50.939,91.908,64.456,90.435C77.972,88.962,88.706,78.395,90.389,64.903C92.073,51.411,84.266,38.53,71.526,33.78C68.24,32.555,64.582,34.226,63.357,37.512C62.132,40.798,63.803,44.455,67.089,45.68Z"/>
  <path stroke-linecap="round" fill-rule="nonzero" stroke-linejoin="round" fill="#000000" stroke="none" stroke-miterlimit="4" stroke-width="1.5px" stroke-opacity="1" fill-opacity="1" stroke-dasharray="none" d="M26.819,29.338L30.65,29.338L30.65,22.988L24.3,22.988L24.3,38.313C24.3,41.82,27.143,44.663,30.65,44.663C34.157,44.663,37,41.82,37,38.313L37,22.988C37,19.48,34.157,16.637,30.65,16.637L26.819,16.637C23.312,16.637,20.469,19.48,20.469,22.988C20.469,26.495,23.312,29.338,26.819,29.338Z"/>
  <path stroke-miterlimit="4" fill="#000000" stroke="none" fill-rule="nonzero" stroke-opacity="1" stroke-dasharray="none" fill-opacity="1" stroke-width="1.5px" stroke-linecap="round" stroke-linejoin="round" d="M59.498,57.636L62.18,60.356L66.702,55.898L62.212,51.408L51.408,62.212C48.928,64.692,48.928,68.713,51.408,71.193C53.888,73.673,57.908,73.673,60.388,71.193L71.193,60.388C73.66,57.921,73.674,53.925,71.224,51.44L68.542,48.72C66.08,46.222,62.059,46.194,59.562,48.656C57.064,51.118,57.036,55.139,59.498,57.636Z"/>
</g>
  <g id="Heavy-S" transform="matrix(1.0,0.0,0.0,1.0,2591.994875488281,614.7948950195313)">  <path stroke-dasharray="none" cx="8" fill="#000000" stroke="none" cy="8" r="6" stroke-opacity="1" fill-rule="nonzero" stroke-linecap="round" fill-opacity="1" stroke-miterlimit="4" stroke-width="1.5px" stroke-linejoin="round" d="M47.983,30.65C47.983,40.223,40.223,47.983,30.65,47.983C21.078,47.983,13.317,40.223,13.317,30.65C13.317,21.078,21.078,13.317,30.65,13.317C40.223,13.317,47.983,21.078,47.983,30.65ZM59.293,30.65C59.293,14.831,46.469,2.008,30.65,2.008C14.831,2.008,2.008,14.831,2.008,30.65C2.008,46.469,14.831,59.293,30.65,59.293C46.469,59.293,59.293,46.469,59.293,30.65Z"/>
  <path fill-rule="nonzero" stroke="none" stroke-linejoin="round" stroke-miterlimit="4" stroke-opacity="1" fill-opacity="1" stroke-linecap="round" fill="#000000" stroke-dasharray="none" stroke-width="1.5px" d="M67.332,45.029C74.859,47.835,79.471,55.445,78.476,63.416C77.482,71.387,71.141,77.63,63.155,78.5C55.169,79.37,47.632,74.64,44.944,67.07C43.899,64.127,40.666,62.589,37.723,63.634C34.78,64.679,33.241,67.912,34.286,70.855C38.729,83.364,51.184,91.182,64.38,89.743C77.576,88.305,88.055,77.989,89.699,64.816C91.343,51.644,83.721,39.069,71.283,34.431C68.357,33.34,65.1,34.828,64.009,37.755C62.918,40.681,64.406,43.938,67.332,45.029Z"/>
  <path fill="#000000" fill-opacity="1" stroke-miterlimit="4" stroke-opacity="1" stroke-dasharray="none" stroke-linejoin="round" stroke="none" fill-rule="nonzero" stroke-width="1.5px" stroke-linecap="round" d="M26.819,28.643L30.65,28.643L30.65,22.988L24.995,22.988L24.995,38.313C24.995,41.436,27.527,43.968,30.65,43.968C33.773,43.968,36.305,41.436,36.305,38.313L36.305,22.988C36.305,19.864,33.773,17.333,30.65,17.333L26.819,17.333C23.696,17.333,21.164,19.864,21.164,22.988C21.164,26.111,23.696,28.643,26.819,28.643Z"/>
  <path fill-opacity="1" fill-rule="nonzero" stroke-linejoin="round" stroke-opacity="1" stroke="none" stroke-width="1.5px" stroke-linecap="round" fill="#000000" stroke-miterlimit="4" stroke-dasharray="none" d="M59.993,57.148L62.675,59.868L66.702,55.898L62.704,51.899L51.899,62.704C49.691,64.912,49.691,68.492,51.899,70.701C54.108,72.909,57.688,72.909,59.897,70.701L70.701,59.897C72.898,57.699,72.911,54.141,70.729,51.928L68.047,49.208C65.855,46.984,62.274,46.958,60.05,49.151C57.826,51.344,57.801,54.924,59.993,57.148Z"/>
</g>
  <g id="Bold-S" transform="matrix(1.0,0.0,0.0,1.0,2295.284875488281,614.7948950195313)">  <path stroke="none" stroke-width="1.5px" stroke-miterlimit="4" fill-opacity="1" stroke-linecap="round" fill="#000000" stroke-linejoin="round" fill-rule="nonzero" cy="8" r="6" stroke-opacity="1" cx="8" stroke-dasharray="none" d="M48.678,30.65C48.678,40.607,40.607,48.678,30.65,48.678C20.693,48.678,12.622,40.607,12.622,30.65C12.622,20.693,20.693,12.622,30.65,12.622C40.607,12.622,48.678,20.693,48.678,30.65ZM58.597,30.65C58.597,15.215,46.085,2.703,30.65,2.703C15.215,2.703,2.703,15.215,2.703,30.65C2.703,46.085,15.215,58.597,30.65,58.597C46.085,58.597,58.597,46.085,58.597,30.65Z"/>
  <path fill-rule="nonzero" fill="#000000" stroke-width="1.5px" stroke-linecap="round" stroke-opacity="1" stroke-miterlimit="4" stroke-dasharray="none" stroke-linejoin="round" fill-opacity="1" stroke="none" d="M67.575,44.377C75.404,47.296,80.201,55.211,79.166,63.502C78.132,71.793,71.536,78.286,63.23,79.191C54.924,80.097,47.085,75.176,44.289,67.303C43.372,64.722,40.537,63.372,37.955,64.289C35.374,65.206,34.025,68.041,34.942,70.622C39.276,82.828,51.429,90.455,64.305,89.052C77.181,87.649,87.405,77.583,89.009,64.73C90.613,51.878,83.176,39.608,71.04,35.083C68.473,34.126,65.617,35.431,64.66,37.998C63.704,40.564,65.008,43.42,67.575,44.377Z"/>
  <path stroke-width="1.5px" stroke-linejoin="round" stroke-dasharray="none" stroke-miterlimit="4" stroke="none" stroke-linecap="round" fill-opacity="1" fill="#000000" fill-rule="nonzero" stroke-opacity="1" d="M26.819,27.947L30.65,27.947L30.65,22.988L25.691,22.988L25.691,38.313C25.691,41.052,27.911,43.272,30.65,43.272C33.389,43.272,35.61,41.052,35.61,38.313L35.61,22.988C35.61,20.248,33.389,18.028,30.65,18.028L26.819,18.028C24.08,18.028,21.859,20.248,21.859,22.988C21.859,25.727,24.08,27.947,26.819,27.947Z"/>
  <path stroke-dasharray="none" stroke-opacity="1" fill="#000000" stroke-width="1.5px" fill-rule="nonzero" stroke="none" stroke-miterlimit="4" stroke-linejoin="round" stroke-linecap="round" fill-opacity="1" d="M60.489,56.66L63.171,59.38L66.702,55.898L63.195,52.391L52.391,63.195C50.454,65.132,50.454,68.272,52.391,70.209C54.328,72.146,57.468,72.146,59.405,70.209L70.209,59.405C72.136,57.478,72.147,54.357,70.234,52.416L67.552,49.696C65.629,47.745,62.489,47.723,60.538,49.646C58.588,51.569,58.566,54.709,60.489,56.66Z"/>
</g>
  <g id="Semibold-S" transform="matrix(1.0,0.0,0.0,1.0,1998.5748754882811,614.7948950195313)">  <path stroke-opacity="1" fill="#000000" stroke-width="1.5px" r="6" cy="8" stroke-linecap="round" stroke-miterlimit="4" stroke="none" stroke-linejoin="round" stroke-dasharray="none" cx="8" fill-opacity="1" fill-rule="nonzero" d="M49.373,30.65C49.373,40.991,40.991,49.373,30.65,49.373C20.309,49.373,11.927,40.991,11.927,30.65C11.927,20.309,20.309,11.927,30.65,11.927C40.991,11.927,49.373,20.309,49.373,30.65ZM57.902,30.65C57.902,15.599,45.701,3.398,30.65,3.398C15.599,3.398,3.398,15.599,3.398,30.65C3.398,45.701,15.599,57.902,30.65,57.902C45.701,57.902,57.902,45.701,57.902,30.65Z"/>
  <path stroke-opacity="1" fill-opacity="1" fill-rule="nonzero" stroke-miterlimit="4" fill="#000000" stroke-linejoin="round" stroke-width="1.5px" stroke-linecap="round" stroke="none" stroke-dasharray="none" d="M67.818,43.726C75.949,46.757,80.931,54.978,79.857,63.588C78.782,72.199,71.932,78.943,63.306,79.883C54.679,80.823,46.538,75.713,43.634,67.536C42.845,65.316,40.407,64.156,38.188,64.944C35.969,65.733,34.809,68.171,35.597,70.39C39.824,82.291,51.674,89.729,64.23,88.361C76.785,86.993,86.755,77.177,88.319,64.644C89.883,52.112,82.631,40.147,70.797,35.735C68.59,34.912,66.135,36.034,65.312,38.241C64.489,40.447,65.611,42.903,67.818,43.726Z"/>
  <path stroke-width="1.5px" fill-rule="nonzero" stroke="none" stroke-dasharray="none" fill-opacity="1" stroke-linejoin="round" stroke-linecap="round" fill="#000000" stroke-miterlimit="4" stroke-opacity="1" d="M26.819,27.252L30.65,27.252L30.65,22.988L26.386,22.988L26.386,38.313C26.386,40.668,28.295,42.577,30.65,42.577C33.005,42.577,34.914,40.668,34.914,38.313L34.914,22.988C34.914,20.633,33.005,18.723,30.65,18.723L26.819,18.723C24.464,18.723,22.555,20.633,22.555,22.988C22.555,25.343,24.464,27.252,26.819,27.252Z"/>
  <path stroke-opacity="1" fill-rule="nonzero" stroke-dasharray="none" fill="#000000" fill-opacity="1" stroke-linecap="round" stroke-linejoin="round" stroke-miterlimit="4" stroke="none" stroke-width="1.5px" d="M60.984,56.172L63.666,58.892L66.702,55.898L63.687,52.883L52.883,63.687C51.218,65.352,51.218,68.052,52.883,69.717C54.548,71.383,57.248,71.383,58.913,69.717L69.717,58.913C71.374,57.256,71.384,54.573,69.739,52.904L67.057,50.184C65.403,48.507,62.704,48.488,61.027,50.141C59.35,51.795,59.33,54.495,60.984,56.172Z"/>
</g>
  <g id="Medium-S" transform="matrix(1.0,0.0,0.0,1.0,1701.864875488281,614.7948950195313)">  <path fill="#000000" stroke-width="1.5px" cy="8" cx="8" stroke-dasharray="none" stroke-linejoin="round" stroke-opacity="1" fill-rule="nonzero" stroke-miterlimit="4" r="6" stroke-linecap="round" fill-opacity="1" stroke="none" d="M50.069,30.65C50.069,41.375,41.375,50.069,30.65,50.069C19.925,50.069,11.231,41.375,11.231,30.65C11.231,19.925,19.925,11.231,30.65,11.231C41.375,11.231,50.069,19.925,50.069,30.65ZM57.206,30.65C57.206,15.983,45.317,4.094,30.65,4.094C15.983,4.094,4.094,15.983,4.094,30.65C4.094,45.317,15.983,57.206,30.65,57.206C45.317,57.206,57.206,45.317,57.206,30.65Z"/>
  <path stroke-width="1.5px" fill="#000000" stroke="none" stroke-dasharray="none" stroke-linejoin="round" fill-opacity="1" fill-rule="nonzero" stroke-opacity="1" stroke-miterlimit="4" stroke-linecap="round" d="M68.061,43.074C76.493,46.218,81.661,54.744,80.547,63.674C79.432,72.605,72.328,79.599,63.381,80.574C54.434,81.549,45.99,76.249,42.978,67.768C42.319,65.911,40.278,64.94,38.421,65.6C36.564,66.259,35.593,68.3,36.252,70.157C40.371,81.755,51.919,89.003,64.154,87.67C76.389,86.336,86.105,76.771,87.629,64.558C89.153,52.345,82.086,40.686,70.554,36.386C68.707,35.698,66.652,36.637,65.964,38.483C65.275,40.33,66.214,42.386,68.061,43.074Z"/>
  <path stroke="none" stroke-linecap="round" stroke-linejoin="round" stroke-width="1.5px" fill="#000000" stroke-dasharray="none" stroke-miterlimit="4" stroke-opacity="1" fill-opacity="1" fill-rule="nonzero" d="M26.819,26.556L30.65,26.556L27.081,22.988L27.081,38.313C27.081,40.284,28.679,41.881,30.65,41.881C32.621,41.881,34.219,40.284,34.219,38.313L34.219,22.988C34.219,21.017,32.621,19.419,30.65,19.419L26.819,19.419C24.848,19.419,23.25,21.017,23.25,22.988C23.25,24.959,24.848,26.556,26.819,26.556Z"/>
  <path stroke="none" fill-opacity="1" stroke-linejoin="round" stroke-opacity="1" stroke-width="1.5px" stroke-dasharray="none" stroke-miterlimit="4" fill-rule="nonzero" fill="#000000" stroke-linecap="round" d="M61.479,55.683L64.161,58.404L64.179,53.375L53.375,64.179C51.981,65.572,51.981,67.832,53.375,69.226C54.768,70.619,57.028,70.619,58.422,69.226L69.226,58.422C70.613,57.035,70.62,54.789,69.244,53.393L66.562,50.672C65.178,49.269,62.918,49.253,61.515,50.637C60.111,52.02,60.095,54.28,61.479,55.683Z"/>
</g>
  <g id="Regular-S" transform="matrix(1.0,0.0,0.0,1.0,1405.154875488281,614.7948950195313)">  <path cx="8" stroke-miterlimit="4" stroke-linejoin="round" fill-rule="nonzero" cy="8" fill="#000000" stroke-linecap="round" fill-opacity="1" stroke="none" stroke-dasharray="none" stroke-width="1.5px" r="6" stroke-opacity="1" d="M50.764,30.65C50.764,41.759,41.759,50.764,30.65,50.764C19.541,50.764,10.536,41.759,10.536,30.65C10.536,19.541,19.541,10.536,30.65,10.536C41.759,10.536,50.764,19.541,50.764,30.65ZM56.511,30.65C56.511,16.367,44.933,4.789,30.65,4.789C16.367,4.789,4.789,16.367,4.789,30.65C4.789,44.933,16.367,56.511,30.65,56.511C44.933,56.511,56.511,44.933,56.511,30.65Z"/>
  <path fill-opacity="1" stroke-dasharray="none" stroke-opacity="1" fill-rule="nonzero" stroke-linecap="round" stroke="none" stroke-width="1.5px" stroke-miterlimit="4" stroke-linejoin="round" fill="#000000" d="M68.304,42.423C77.038,45.679,82.391,54.51,81.237,63.76C80.082,73.01,72.723,80.255,63.456,81.265C54.189,82.275,45.443,76.785,42.323,68.001C41.792,66.506,40.149,65.724,38.654,66.255C37.158,66.786,36.376,68.429,36.907,69.924C40.919,81.218,52.164,88.277,64.079,86.978C75.994,85.68,85.455,76.365,86.939,64.472C88.423,52.579,81.541,41.225,70.311,37.038C68.824,36.483,67.169,37.239,66.615,38.726C66.061,40.213,66.817,41.868,68.304,42.423Z"/>
  <path fill-rule="nonzero" stroke-opacity="1" stroke-linejoin="round" fill="#000000" stroke-width="1.5px" stroke-miterlimit="4" fill-opacity="1" stroke-dasharray="none" stroke-linecap="round" stroke="none" d="M26.819,25.861L30.65,25.861L27.777,22.988L27.777,38.313C27.777,39.9,29.063,41.186,30.65,41.186C32.237,41.186,33.524,39.9,33.524,38.313L33.524,22.988C33.524,21.401,32.237,20.114,30.65,20.114L26.819,20.114C25.232,20.114,23.945,21.401,23.945,22.988C23.945,24.575,25.232,25.861,26.819,25.861Z"/>
  <path fill-opacity="1" stroke-dasharray="none" stroke="none" stroke-linejoin="round" stroke-miterlimit="4" stroke-linecap="round" stroke-width="1.5px" fill-rule="nonzero" stroke-opacity="1" fill="#000000" d="M61.974,55.195L64.656,57.915L64.67,53.866L53.866,64.67C52.744,65.793,52.744,67.612,53.866,68.734C54.988,69.856,56.808,69.856,57.93,68.734L68.734,57.93C69.851,56.813,69.857,55.005,68.748,53.881L66.067,51.161C64.952,50.03,63.133,50.018,62.003,51.132C60.873,52.246,60.86,54.065,61.974,55.195Z"/>
</g>
  <g id="Light-S" transform="matrix(1.0,0.0,0.0,1.0,1108.4448754882812,614.7948950195313)">  <path stroke-opacity="1" stroke-dasharray="none" stroke-width="1.5px" stroke-linecap="round" r="6" stroke-linejoin="round" cx="8" stroke="none" cy="8" fill-opacity="1" fill="#000000" stroke-miterlimit="4" fill-rule="nonzero" d="M51.243,30.65C51.243,42.023,42.023,51.243,30.65,51.243C19.277,51.243,10.057,42.023,10.057,30.65C10.057,19.277,19.277,10.057,30.65,10.057C42.023,10.057,51.243,19.277,51.243,30.65ZM56.032,30.65C56.032,16.632,44.668,5.268,30.65,5.268C16.632,5.268,5.268,16.632,5.268,30.65C5.268,44.668,16.632,56.032,30.65,56.032C44.668,56.032,56.032,44.668,56.032,30.65Z"/>
  <path stroke-dasharray="none" stroke="none" stroke-linejoin="round" fill-rule="nonzero" fill-opacity="1" stroke-width="1.5px" stroke-linecap="round" fill="#000000" stroke-miterlimit="4" stroke-opacity="1" d="M68.471,41.974C77.414,45.308,82.894,54.349,81.712,63.82C80.53,73.29,72.996,80.707,63.508,81.741C54.021,82.775,45.066,77.155,41.872,68.161C41.429,66.915,40.06,66.264,38.814,66.706C37.568,67.149,36.916,68.518,37.359,69.764C41.296,80.849,52.333,87.777,64.027,86.502C75.721,85.228,85.007,76.085,86.464,64.413C87.921,52.74,81.166,41.596,70.144,37.486C68.905,37.025,67.526,37.655,67.064,38.894C66.602,40.133,67.232,41.512,68.471,41.974Z"/>
  <path fill-rule="nonzero" stroke-width="1.5px" stroke-dasharray="none" fill="#000000" stroke-linejoin="round" stroke-linecap="round" fill-opacity="1" stroke-opacity="1" stroke="none" stroke-miterlimit="4" d="M26.819,25.382L30.65,25.382L28.256,22.988L28.256,38.313C28.256,39.635,29.328,40.707,30.65,40.707C31.973,40.707,33.045,39.635,33.045,38.313L33.045,22.988C33.045,21.665,31.973,20.593,30.65,20.593L26.819,20.593C25.496,20.593,24.424,21.665,24.424,22.988C24.424,24.31,25.496,25.382,26.819,25.382Z"/>
  <path stroke-miterlimit="4" stroke-opacity="1" stroke-width="1.5px" stroke="none" stroke-linecap="round" fill-opacity="1" fill="#000000" stroke-linejoin="round" fill-rule="nonzero" stroke-dasharray="none" d="M62.315,54.859L64.997,57.579L65.009,54.205L54.205,65.009C53.27,65.944,53.27,67.46,54.205,68.395C55.14,69.331,56.656,69.331,57.591,68.395L68.395,57.591C69.326,56.661,69.331,55.154,68.407,54.217L65.726,51.497C64.797,50.555,63.281,50.544,62.339,51.473C61.397,52.401,61.387,53.917,62.315,54.859Z"/>
</g>
  <g id="Thin-S" transform="matrix(1.0,0.0,0.0,1.0,811.7348754882813,614.7948950195313)">  <path cx="8" stroke-dasharray="none" cy="8" stroke-opacity="1" stroke="none" stroke-linecap="round" stroke-miterlimit="4" fill-opacity="1" fill-rule="nonzero" stroke-linejoin="round" fill="#000000" r="6" stroke-width="1.5px" d="M51.722,30.65C51.722,42.288,42.288,51.722,30.65,51.722C19.012,51.722,9.578,42.288,9.578,30.65C9.578,19.012,19.012,9.578,30.65,9.578C42.288,9.578,51.722,19.012,51.722,30.65ZM55.553,30.65C55.553,16.896,44.404,5.747,30.65,5.747C16.896,5.747,5.747,16.896,5.747,30.65C5.747,44.404,16.896,55.553,30.65,55.553C44.404,55.553,55.553,44.404,55.553,30.65Z"/>
  <path stroke="none" stroke-width="1.5px" stroke-linecap="round" fill-rule="nonzero" stroke-linejoin="round" fill="#000000" stroke-opacity="1" stroke-miterlimit="4" fill-opacity="1" stroke-dasharray="none" d="M68.638,41.525C77.789,44.937,83.396,54.188,82.187,63.879C80.978,73.57,73.268,81.159,63.56,82.217C53.852,83.275,44.689,77.524,41.42,68.322C41.066,67.325,39.971,66.803,38.974,67.158C37.977,67.512,37.456,68.607,37.81,69.604C41.673,80.48,52.502,87.276,63.975,86.026C75.449,84.776,84.56,75.806,85.989,64.353C87.418,52.901,80.791,41.967,69.977,37.935C68.985,37.566,67.882,38.07,67.513,39.061C67.143,40.052,67.647,41.156,68.638,41.525Z"/>
  <path fill="#000000" fill-rule="nonzero" stroke="none" stroke-dasharray="none" fill-opacity="1" stroke-linecap="round" stroke-linejoin="round" stroke-width="1.5px" stroke-opacity="1" stroke-miterlimit="4" d="M26.819,24.903L30.65,24.903L28.734,22.988L28.734,38.313C28.734,39.371,29.592,40.228,30.65,40.228C31.708,40.228,32.566,39.371,32.566,38.313L32.566,22.988C32.566,21.93,31.708,21.072,30.65,21.072L26.819,21.072C25.761,21.072,24.903,21.93,24.903,22.988C24.903,24.046,25.761,24.903,26.819,24.903Z"/>
  <path stroke-width="1.5px" fill-rule="nonzero" stroke-miterlimit="4" stroke-opacity="1" fill="#000000" fill-opacity="1" stroke="none" stroke-linejoin="round" stroke-linecap="round" stroke-dasharray="none" d="M62.656,54.523L65.338,57.243L65.348,54.544L54.544,65.348C53.795,66.096,53.795,67.309,54.544,68.057C55.292,68.805,56.505,68.805,57.253,68.057L68.057,57.253C68.801,56.508,68.805,55.303,68.066,54.553L65.384,51.833C64.642,51.08,63.429,51.071,62.675,51.814C61.922,52.557,61.913,53.769,62.656,54.523Z"/>
</g>
  <g id="Ultralight-S" transform="matrix(1.0,0.0,0.0,1.0,515.0248754882813,614.7948950195313)">  <path cx="8" stroke-width="1.5px" stroke-opacity="1" stroke-miterlimit="4" stroke-dasharray="none" fill="#000000" stroke="none" cy="8" stroke-linecap="round" fill-rule="nonzero" fill-opacity="1" stroke-linejoin="round" r="6" d="M52.201,30.65C52.201,42.552,42.552,52.201,30.65,52.201C18.748,52.201,9.099,42.552,9.099,30.65C9.099,18.748,18.748,9.099,30.65,9.099C42.552,9.099,52.201,18.748,52.201,30.65ZM55.074,30.65C55.074,17.161,44.139,6.226,30.65,6.226C17.161,6.226,6.226,17.161,6.226,30.65C6.226,44.139,17.161,55.074,30.65,55.074C44.139,55.074,55.074,44.139,55.074,30.65Z"/>
  <path stroke-linecap="round" stroke-opacity="1" fill-opacity="1" stroke-dasharray="none" stroke="none" fill="#000000" stroke-linejoin="round" stroke-miterlimit="4" stroke-width="1.5px" fill-rule="nonzero" d="M68.806,41.076C78.164,44.565,83.899,54.027,82.662,63.938C81.425,73.849,73.541,81.611,63.612,82.694C53.683,83.776,44.312,77.894,40.969,68.482C40.704,67.734,39.882,67.343,39.134,67.609C38.387,67.874,37.996,68.696,38.261,69.444C42.05,80.11,52.67,86.776,63.923,85.55C75.176,84.324,84.112,75.526,85.514,64.294C86.915,53.062,80.416,42.338,69.809,38.384C69.066,38.107,68.238,38.485,67.961,39.228C67.684,39.972,68.062,40.799,68.806,41.076Z"/>
  <path stroke-linejoin="round" fill-rule="nonzero" stroke-linecap="round" stroke="none" stroke-width="1.5px" fill-opacity="1" stroke-dasharray="none" fill="#000000" stroke-opacity="1" stroke-miterlimit="4" d="M26.819,24.424L30.65,24.424L29.213,22.988L29.213,38.313C29.213,39.106,29.857,39.749,30.65,39.749C31.444,39.749,32.087,39.106,32.087,38.313L32.087,22.988C32.087,22.194,31.444,21.551,30.65,21.551L26.819,21.551C26.025,21.551,25.382,22.194,25.382,22.988C25.382,23.781,26.025,24.424,26.819,24.424Z"/>
  <path fill="#000000" stroke-miterlimit="4" stroke-linecap="round" stroke-linejoin="round" stroke-dasharray="none" fill-rule="nonzero" fill-opacity="1" stroke-width="1.5px" stroke="none" stroke-opacity="1" d="M62.997,54.187L65.679,56.907L65.686,54.882L54.882,65.686C54.321,66.247,54.321,67.157,54.882,67.718C55.443,68.279,56.353,68.279,56.914,67.718L67.718,56.914C68.276,56.356,68.28,55.452,67.725,54.889L65.043,52.169C64.486,51.604,63.577,51.598,63.012,52.155C62.447,52.712,62.44,53.622,62.997,54.187Z"/>
</g>
 </g>
</svg>
