<?xml version="1.0" encoding="UTF-8"?>
<!-- Generator: CustomSymbols v2.7.2.48 by @serious_bret https://bretlester.com/app_content/CustomSymbols/ -->
<!-- Guides: Left/Right 0.0/0.0 Cap/Base 0.2/0.19999999999999996 -->
<!-- Settings: RefScale 1.0 Min/Max Stroke Scales 0.5/2.21 -->
<!DOCTYPE svg
PUBLIC "-//W3C//DTD SVG 1.1//EN"
       "http://www.w3.org/Graphics/SVG/1.1/DTD/svg11.dtd">
<svg version="1.1" xmlns="http://www.w3.org/2000/svg" xmlns:xlink="http://www.w3.org/1999/xlink" width="3300" height="2200">
<![CDATA[<svg xmlns="http://www.w3.org/2000/svg" width="24" height="24" viewBox="0 0 24 24" fill="none" stroke="currentColor" stroke-width="1.5" stroke-linecap="round" stroke-linejoin="round" class="lucide lucide-landmark"><line x1="3" x2="21" y1="22" y2="22"/><line x1="6" x2="6" y1="18" y2="11"/><line x1="10" x2="10" y1="18" y2="11"/><line x1="14" x2="14" y1="18" y2="11"/><line x1="18" x2="18" y1="18" y2="11"/><polygon points="12 2 20 7 4 7"/></svg>]]>
 <g id="Notes">
  <rect height="2200" id="artboard" style="fill:white;opacity:1" width="3300" x="0" y="0"/>
  <line id="" style="fill:none;stroke:black;opacity:1;stroke-width:0.5;" x1="263" x2="3036" y1="292" y2="292"/>
  <text id="reftext1" style="stroke:none;fill:black;font-family:-apple-system,&quot;SF Pro Display&quot;,&quot;SF Pro Text&quot;,Helvetica,sans-serif;font-weight:bold;" transform="matrix(1 0 0 1 263 322)">Weight/Scale Variations</text>
  <text id="reftext2" style="stroke:none;fill:black;font-family:-apple-system,&quot;SF Pro Display&quot;,&quot;SF Pro Text&quot;,Helvetica,sans-serif;text-anchor:middle;" transform="matrix(1 0 0 1 559.711 322)">Ultralight</text>
  <text style="stroke:none;fill:black;font-family:-apple-system,&quot;SF Pro Display&quot;,&quot;SF Pro Text&quot;,Helvetica,sans-serif;text-anchor:middle;" transform="matrix(1 0 0 1 856.422 322)">Thin</text>
  <text style="stroke:none;fill:black;font-family:-apple-system,&quot;SF Pro Display&quot;,&quot;SF Pro Text&quot;,Helvetica,sans-serif;text-anchor:middle;" transform="matrix(1 0 0 1 1153.13 322)">Light</text>
  <text style="stroke:none;fill:black;font-family:-apple-system,&quot;SF Pro Display&quot;,&quot;SF Pro Text&quot;,Helvetica,sans-serif;text-anchor:middle;" transform="matrix(1 0 0 1 1449.84 322)">Regular</text>
  <text style="stroke:none;fill:black;font-family:-apple-system,&quot;SF Pro Display&quot;,&quot;SF Pro Text&quot;,Helvetica,sans-serif;text-anchor:middle;" transform="matrix(1 0 0 1 1746.56 322)">Medium</text>
  <text style="stroke:none;fill:black;font-family:-apple-system,&quot;SF Pro Display&quot;,&quot;SF Pro Text&quot;,Helvetica,sans-serif;text-anchor:middle;" transform="matrix(1 0 0 1 2043.27 322)">Semibold</text>
  <text style="stroke:none;fill:black;font-family:-apple-system,&quot;SF Pro Display&quot;,&quot;SF Pro Text&quot;,Helvetica,sans-serif;text-anchor:middle;" transform="matrix(1 0 0 1 2339.98 322)">Bold</text>
  <text style="stroke:none;fill:black;font-family:-apple-system,&quot;SF Pro Display&quot;,&quot;SF Pro Text&quot;,Helvetica,sans-serif;text-anchor:middle;" transform="matrix(1 0 0 1 2636.69 322)">Heavy</text>
  <text style="stroke:none;fill:black;font-family:-apple-system,&quot;SF Pro Display&quot;,&quot;SF Pro Text&quot;,Helvetica,sans-serif;text-anchor:middle;" transform="matrix(1 0 0 1 2933.4 322)">Black</text>
  <line id="" style="fill:none;stroke:black;opacity:1;stroke-width:0.5;" x1="263" x2="3036" y1="1903" y2="1903"/>
  <g id="" transform="matrix(1 0 0 1 263 1933)">
   <path d="M9.24805 0.830078C13.5547 0.830078 17.1387-2.74414 17.1387-7.05078C17.1387-11.3574 13.5449-14.9316 9.23828-14.9316C4.94141-14.9316 1.36719-11.3574 1.36719-7.05078C1.36719-2.74414 4.95117 0.830078 9.24805 0.830078ZM9.24805-0.654297C5.70312-0.654297 2.87109-3.49609 2.87109-7.05078C2.87109-10.6055 5.69336-13.4473 9.23828-13.4473C12.793-13.4473 15.6348-10.6055 15.6445-7.05078C15.6543-3.49609 12.8027-0.654297 9.24805-0.654297ZM6.39648-6.31836L8.50586-6.31836L8.50586-4.19922C8.50586-3.75977 8.79883-3.45703 9.22852-3.45703C9.67773-3.45703 9.9707-3.75977 9.9707-4.19922L9.9707-6.31836L12.0996-6.31836C12.5391-6.31836 12.8418-6.61133 12.8418-7.04102C12.8418-7.48047 12.5391-7.7832 12.0996-7.7832L9.9707-7.7832L9.9707-9.89258C9.9707-10.3418 9.67773-10.6445 9.22852-10.6445C8.79883-10.6445 8.50586-10.3418 8.50586-9.89258L8.50586-7.7832L6.39648-7.7832C5.94727-7.7832 5.64453-7.48047 5.64453-7.04102C5.64453-6.61133 5.94727-6.31836 6.39648-6.31836Z"/>
  </g>
  <g id="" transform="matrix(1 0 0 1 281.506 1933)">
   <path d="M11.709 2.91016C17.1582 2.91016 21.6699-1.61133 21.6699-7.05078C21.6699-12.5 17.1484-17.0117 11.6992-17.0117C6.25977-17.0117 1.74805-12.5 1.74805-7.05078C1.74805-1.61133 6.26953 2.91016 11.709 2.91016ZM11.709 1.25C7.09961 1.25 3.41797-2.44141 3.41797-7.05078C3.41797-11.6602 7.08984-15.3516 11.6992-15.3516C16.3086-15.3516 20-11.6602 20.0098-7.05078C20.0195-2.44141 16.3184 1.25 11.709 1.25ZM7.98828-6.23047L10.8789-6.23047L10.8789-3.32031C10.8789-2.83203 11.2109-2.5 11.6895-2.5C12.1777-2.5 12.5195-2.83203 12.5195-3.32031L12.5195-6.23047L15.4297-6.23047C15.918-6.23047 16.25-6.5625 16.25-7.04102C16.25-7.5293 15.918-7.87109 15.4297-7.87109L12.5195-7.87109L12.5195-10.7617C12.5195-11.2695 12.1777-11.6016 11.6895-11.6016C11.2109-11.6016 10.8789-11.2598 10.8789-10.7617L10.8789-7.87109L7.98828-7.87109C7.48047-7.87109 7.14844-7.5293 7.14844-7.04102C7.14844-6.5625 7.49023-6.23047 7.98828-6.23047Z"/>
  </g>
  <g id="" transform="matrix(1 0 0 1 304.924 1933)">
   <path d="M14.9707 5.66406C21.9336 5.66406 27.6953-0.0976562 27.6953-7.05078C27.6953-14.0137 21.9238-19.7754 14.9609-19.7754C8.00781-19.7754 2.25586-14.0137 2.25586-7.05078C2.25586-0.0976562 8.01758 5.66406 14.9707 5.66406ZM14.9707 3.84766C8.93555 3.84766 4.08203-1.01562 4.08203-7.05078C4.08203-13.0957 8.92578-17.9492 14.9609-17.9492C21.0059-17.9492 25.8594-13.0957 25.8691-7.05078C25.8789-1.01562 21.0156 3.84766 14.9707 3.84766ZM10.0586-6.14258L14.0625-6.14258L14.0625-2.12891C14.0625-1.5918 14.4336-1.2207 14.9512-1.2207C15.4883-1.2207 15.8594-1.5918 15.8594-2.12891L15.8594-6.14258L19.8828-6.14258C20.4102-6.14258 20.791-6.51367 20.791-7.03125C20.791-7.56836 20.4199-7.94922 19.8828-7.94922L15.8594-7.94922L15.8594-11.9531C15.8594-12.5098 15.4883-12.8809 14.9512-12.8809C14.4336-12.8809 14.0625-12.5 14.0625-11.9531L14.0625-7.94922L10.0586-7.94922C9.50195-7.94922 9.13086-7.56836 9.13086-7.03125C9.13086-6.51367 9.51172-6.14258 10.0586-6.14258Z"/>
  </g>
  <text style="stroke:none;fill:black;font-family:-apple-system,&quot;SF Pro Display&quot;,&quot;SF Pro Text&quot;,Helvetica,sans-serif;font-weight:bold;" transform="matrix(1 0 0 1 263 1953)">Design Variations</text>
  <text style="stroke:none;fill:black;font-family:-apple-system,&quot;SF Pro Display&quot;,&quot;SF Pro Text&quot;,Helvetica,sans-serif;" transform="matrix(1 0 0 1 263 1971)">Symbols are supported in up to nine weights and three scales.</text>
  <text style="stroke:none;fill:black;font-family:-apple-system,&quot;SF Pro Display&quot;,&quot;SF Pro Text&quot;,Helvetica,sans-serif;" transform="matrix(1 0 0 1 263 1989)">For optimal layout with text and other symbols, vertically align</text>
  <text style="stroke:none;fill:black;font-family:-apple-system,&quot;SF Pro Display&quot;,&quot;SF Pro Text&quot;,Helvetica,sans-serif;" transform="matrix(1 0 0 1 263 2007)">symbols with the adjacent text.</text>
  <line id="" style="fill:none;stroke:#00AEEF;stroke-width:0.5;opacity:1.0;" x1="776" x2="776" y1="1919" y2="1933"/>
  <g id="" transform="matrix(1 0 0 1 776 1933)">
   <path d="M3.31055 0.126953C3.82812 0.126953 4.08203-0.0683594 4.26758-0.605469L5.52734-4.0625L11.2891-4.0625L12.5488-0.605469C12.7344-0.0683594 12.9883 0.126953 13.4961 0.126953C14.0137 0.126953 14.3457-0.185547 14.3457-0.673828C14.3457-0.839844 14.3164-0.986328 14.2383-1.20117L9.6582-13.3887C9.43359-13.9941 9.0332-14.2871 8.4082-14.2871C7.80273-14.2871 7.39258-13.9941 7.17773-13.3984L2.59766-1.19141C2.51953-0.976562 2.49023-0.830078 2.49023-0.664062C2.49023-0.175781 2.80273 0.126953 3.31055 0.126953ZM6.00586-5.53711L8.37891-12.1094L8.42773-12.1094L10.8008-5.53711Z"/>
  </g>
  <line id="" style="fill:none;stroke:#00AEEF;stroke-width:0.5;opacity:1.0;" x1="792.836" x2="792.836" y1="1919" y2="1933"/>
  <text style="stroke:none;fill:black;font-family:-apple-system,&quot;SF Pro Display&quot;,&quot;SF Pro Text&quot;,Helvetica,sans-serif;font-weight:bold;" transform="matrix(1 0 0 1 776 1953)">Margins</text>
  <text style="stroke:none;fill:black;font-family:-apple-system,&quot;SF Pro Display&quot;,&quot;SF Pro Text&quot;,Helvetica,sans-serif;" transform="matrix(1 0 0 1 776 1971)">Leading and trailing margins on the left and right side of each symbol</text>
  <text style="stroke:none;fill:black;font-family:-apple-system,&quot;SF Pro Display&quot;,&quot;SF Pro Text&quot;,Helvetica,sans-serif;" transform="matrix(1 0 0 1 776 1989)">can be adjusted by modifying the x-location of the margin guidelines.</text>
  <text style="stroke:none;fill:black;font-family:-apple-system,&quot;SF Pro Display&quot;,&quot;SF Pro Text&quot;,Helvetica,sans-serif;" transform="matrix(1 0 0 1 776 2007)">Modifications are automatically applied proportionally to all</text>
  <text style="stroke:none;fill:black;font-family:-apple-system,&quot;SF Pro Display&quot;,&quot;SF Pro Text&quot;,Helvetica,sans-serif;" transform="matrix(1 0 0 1 776 2025)">scales and weights.</text>
  <g id="" transform="matrix(1 0 0 1 1289 1933)">
   <path d="M2.8418 1.86523L4.54102 3.57422C5.40039 4.44336 6.38672 4.38477 7.31445 3.35938L17.4902-7.85156C17.7539-7.76367 18.0273-7.7832 18.3398-7.8418L19.4043-8.03711L20.0684-7.36328L20.0293-6.80664C19.9902-6.30859 20.1172-5.92773 20.6055-5.44922L21.3672-4.70703C21.8457-4.22852 22.4609-4.19922 22.9297-4.66797L25.8398-7.58789C26.3086-8.05664 26.2891-8.65234 25.8105-9.13086L25.0391-9.89258C24.5605-10.3711 24.1895-10.5273 23.7109-10.4883L23.1348-10.4395L22.4902-11.0742L22.7344-12.1973C22.8613-12.7637 22.7051-13.2031 22.1191-13.7891L19.9219-15.9766C16.582-19.2969 12.1484-19.2188 9.25781-16.3281C8.83789-15.918 8.80859-15.3418 9.04297-14.9512C9.27734-14.5898 9.73633-14.3555 10.3809-14.5215C11.8457-14.8633 13.3691-14.9219 14.7949-13.9844L14.209-12.5293C14.0137-12.0508 13.9844-11.6504 14.1113-11.2891L3.04688-0.898438C2.06055 0.0195312 1.98242 0.996094 2.8418 1.86523ZM10.752-15.957C13.1836-17.7344 16.4746-17.4316 18.7012-15.2051L21.1328-12.793C21.3672-12.5586 21.4062-12.373 21.3379-12.0312L21.0156-10.5469L22.5195-9.0625L23.5059-9.12109C23.7598-9.13086 23.8379-9.11133 24.0332-8.91602L24.6094-8.33984L22.168-5.89844L21.5918-6.47461C21.3965-6.66992 21.3672-6.74805 21.377-7.01172L21.4453-7.98828L19.9512-9.47266L18.4277-9.21875C18.1055-9.15039 17.959-9.17969 17.7148-9.41406L15.7129-11.416C15.459-11.6504 15.4297-11.8164 15.5859-12.1875L16.4648-14.2773C14.9023-15.7324 12.8711-16.3574 10.8398-15.7617C10.6836-15.7227 10.625-15.8496 10.752-15.957ZM5.27344 2.30469L4.10156 1.14258C3.63281 0.683594 3.74023 0.341797 4.14062-0.0195312L14.9512-10.1953L16.416-8.71094L6.42578 2.27539C6.07422 2.67578 5.74219 2.77344 5.27344 2.30469Z"/>
  </g>
  <text style="stroke:none;fill:black;font-family:-apple-system,&quot;SF Pro Display&quot;,&quot;SF Pro Text&quot;,Helvetica,sans-serif;font-weight:bold;" transform="matrix(1 0 0 1 1289 1953)">Exporting</text>
  <text style="stroke:none;fill:black;font-family:-apple-system,&quot;SF Pro Display&quot;,&quot;SF Pro Text&quot;,Helvetica,sans-serif;" transform="matrix(1 0 0 1 1289 1971)">Symbols should be outlined when exporting to ensure the</text>
  <text style="stroke:none;fill:black;font-family:-apple-system,&quot;SF Pro Display&quot;,&quot;SF Pro Text&quot;,Helvetica,sans-serif;" transform="matrix(1 0 0 1 1289 1989)">design is preserved when submitting to Xcode.</text>
  <text id="template-version" style="stroke:none;fill:black;font-family:-apple-system,&quot;SF Pro Display&quot;,&quot;SF Pro Text&quot;,Helvetica,sans-serif;text-anchor:end;" transform="matrix(1 0 0 1 3036 1933)">Template v.2.0</text>
  <text style="stroke:none;fill:black;font-family:-apple-system,&quot;SF Pro Display&quot;,&quot;SF Pro Text&quot;,Helvetica,sans-serif;text-anchor:end;" transform="matrix(1 0 0 1 3036 1951)">Requires Xcode 12 or greater</text>
  <text style="stroke:none;fill:black;font-family:-apple-system,&quot;SF Pro Display&quot;,&quot;SF Pro Text&quot;,Helvetica,sans-serif;" transform="matrix(1 0 0 1 263 726)">Small</text>
  <text style="stroke:none;fill:black;font-family:-apple-system,&quot;SF Pro Display&quot;,&quot;SF Pro Text&quot;,Helvetica,sans-serif;" transform="matrix(1 0 0 1 263 1156)">Medium</text>
  <text style="stroke:none;fill:black;font-family:-apple-system,&quot;SF Pro Display&quot;,&quot;SF Pro Text&quot;,Helvetica,sans-serif;" transform="matrix(1 0 0 1 263 1586)">Large</text>
 </g>
 <g id="Guides">
  <g id="H-reference" style="fill:#27AAE1;stroke:none;" transform="matrix(1 0 0 1 339 696)">
   <path d="M0.976562 0L3.66211 0L12.9883-24.4629L45.752-24.4629L55.127 0L57.7637 0L30.6152-70.459L28.125-70.459ZM29.3457-67.1387L29.4434-67.1387L44.873-26.709L13.8672-26.709Z"/>
  </g>
  <line id="Baseline-S" style="fill:none;stroke:#27AAE1;opacity:1;stroke-width:0.5;" x1="263" x2="3036" y1="696" y2="696"/>
  <line id="Capline-S" style="fill:none;stroke:#27AAE1;opacity:1;stroke-width:0.5;" x1="263" x2="3036" y1="625.541" y2="625.541"/>
  <g id="H-reference" style="fill:#27AAE1;stroke:none;" transform="matrix(1 0 0 1 339 1126)">
   <path d="M0.976562 0L3.66211 0L12.9883-24.4629L45.752-24.4629L55.127 0L57.7637 0L30.6152-70.459L28.125-70.459ZM29.3457-67.1387L29.4434-67.1387L44.873-26.709L13.8672-26.709Z"/>
  </g>
  <line id="Baseline-M" style="fill:none;stroke:#27AAE1;opacity:1;stroke-width:0.5;" x1="263" x2="3036" y1="1126" y2="1126"/>
  <line id="Capline-M" style="fill:none;stroke:#27AAE1;opacity:1;stroke-width:0.5;" x1="263" x2="3036" y1="1055.54" y2="1055.54"/>
  <g id="H-reference" style="fill:#27AAE1;stroke:none;" transform="matrix(1 0 0 1 339 1556)">
   <path d="M0.976562 0L3.66211 0L12.9883-24.4629L45.752-24.4629L55.127 0L57.7637 0L30.6152-70.459L28.125-70.459ZM29.3457-67.1387L29.4434-67.1387L44.873-26.709L13.8672-26.709Z"/>
  </g>
  <line id="Baseline-L" style="fill:none;stroke:#27AAE1;opacity:1;stroke-width:0.5;" x1="263" x2="3036" y1="1556" y2="1556"/>
  <line id="Capline-L" style="fill:none;stroke:#27AAE1;opacity:1;stroke-width:0.5;" x1="263" x2="3036" y1="1485.54" y2="1485.54"/>
  <line id="left-margin" x1="1392.4133658854166" x2="1392.4133658854166" y1="1030.79" y2="1150.12" style="fill:none;stroke:#00AEEF;stroke-width:0.5;opacity:1.0;"/>
  <line id="right-margin" x1="1509.8466341145831" x2="1509.8466341145831" y1="1030.79" y2="1150.12" style="fill:none;stroke:#00AEEF;stroke-width:0.5;opacity:1.0;"/>
 </g>
 <g id="Symbols">
  <g id="Black-L" transform="matrix(1.0,0.0,0.0,1.0,2858.935541992187,1445.0255615234375)">  <path stroke-dasharray="none" fill="#000000" stroke-linejoin="round" stroke-width="1.5px" fill-rule="nonzero" fill-opacity="1" x2="21" stroke-linecap="round" y1="22" stroke-miterlimit="4" y2="22" stroke="none" stroke-opacity="1" x1="3" d="M18.936,149.327L132.553,149.327C138.331,149.327,143.015,144.643,143.015,138.865C143.015,133.087,138.331,128.403,132.553,128.403L18.936,128.403C13.158,128.403,8.474,133.087,8.474,138.865C8.474,144.643,13.158,149.327,18.936,149.327Z"/>
  <path stroke-linejoin="round" stroke-width="1.5px" fill-rule="nonzero" stroke-miterlimit="4" x2="6" fill="#000000" stroke-dasharray="none" stroke-linecap="round" stroke="none" fill-opacity="1" stroke-opacity="1" y1="18" y2="11" x1="6" d="M48.334,113.617L48.334,69.432C48.334,63.654,43.65,58.97,37.872,58.97C32.094,58.97,27.41,63.654,27.41,69.432L27.41,113.617C27.41,119.395,32.094,124.079,37.872,124.079C43.65,124.079,48.334,119.395,48.334,113.617Z"/>
  <path y1="18" fill-opacity="1" stroke="none" fill-rule="nonzero" x1="10" stroke-opacity="1" stroke-miterlimit="4" stroke-linecap="round" y2="11" x2="10" fill="#000000" stroke-linejoin="round" stroke-width="1.5px" stroke-dasharray="none" d="M73.583,113.617L73.583,69.432C73.583,63.654,68.898,58.97,63.12,58.97C57.342,58.97,52.658,63.654,52.658,69.432L52.658,113.617C52.658,119.395,57.342,124.079,63.12,124.079C68.898,124.079,73.583,119.395,73.583,113.617Z"/>
  <path stroke-linejoin="round" stroke-opacity="1" x1="14" stroke-miterlimit="4" stroke-linecap="round" stroke-width="1.5px" stroke="none" fill="#000000" x2="14" y2="11" fill-rule="nonzero" y1="18" fill-opacity="1" stroke-dasharray="none" d="M98.831,113.617L98.831,69.432C98.831,63.654,94.147,58.97,88.369,58.97C82.59,58.97,77.906,63.654,77.906,69.432L77.906,113.617C77.906,119.395,82.59,124.079,88.369,124.079C94.147,124.079,98.831,119.395,98.831,113.617Z"/>
  <path stroke-dasharray="none" fill-opacity="1" fill-rule="nonzero" y2="11" stroke-miterlimit="4" stroke="none" fill="#000000" y1="18" stroke-linecap="round" x2="18" x1="18" stroke-linejoin="round" stroke-opacity="1" stroke-width="1.5px" d="M124.079,113.617L124.079,69.432C124.079,63.654,119.395,58.97,113.617,58.97C107.839,58.97,103.154,63.654,103.154,69.432L103.154,113.617C103.154,119.395,107.839,124.079,113.617,124.079C119.395,124.079,124.079,119.395,124.079,113.617Z"/>
  <path stroke-linejoin="round" fill-opacity="1" stroke-miterlimit="4" stroke-linecap="round" stroke="none" fill="#000000" points="12 2 20 7 4 7" stroke-opacity="1" stroke-dasharray="none" stroke-width="1.5px" fill-rule="nonzero" d="M70.2,21.496L120.696,53.056L126.241,33.722L25.248,33.722L30.793,53.056L81.289,21.496L70.2,21.496ZM81.289,3.752C77.897,1.632,73.592,1.632,70.2,3.752L19.703,35.312C10.79,40.883,14.737,54.646,25.248,54.646L126.241,54.646C136.752,54.646,140.699,40.883,131.786,35.312L81.289,3.752Z"/>
</g>
  <g id="Heavy-L" transform="matrix(1.0,0.0,0.0,1.0,2562.225541992187,1445.0255615234375)">  <path y2="22" stroke-opacity="1" stroke-linecap="round" y1="22" fill-rule="nonzero" fill-opacity="1" x2="21" stroke-dasharray="none" x1="3" stroke-width="1.5px" stroke-miterlimit="4" stroke-linejoin="round" fill="#000000" stroke="none" d="M18.936,148.181L132.553,148.181C137.698,148.181,141.869,144.01,141.869,138.865C141.869,133.719,137.698,129.548,132.553,129.548L18.936,129.548C13.791,129.548,9.62,133.719,9.62,138.865C9.62,144.01,13.791,148.181,18.936,148.181Z"/>
  <path stroke-opacity="1" stroke-miterlimit="4" stroke="none" fill-rule="nonzero" fill-opacity="1" x2="6" stroke-linejoin="round" fill="#000000" y2="11" stroke-width="1.5px" stroke-linecap="round" y1="18" x1="6" stroke-dasharray="none" d="M47.189,113.617L47.189,69.432C47.189,64.287,43.018,60.116,37.872,60.116C32.727,60.116,28.556,64.287,28.556,69.432L28.556,113.617C28.556,118.762,32.727,122.933,37.872,122.933C43.018,122.933,47.189,118.762,47.189,113.617Z"/>
  <path stroke-linecap="round" stroke-width="1.5px" stroke="none" y2="11" x1="10" stroke-linejoin="round" stroke-dasharray="none" stroke-opacity="1" fill="#000000" fill-rule="nonzero" x2="10" fill-opacity="1" stroke-miterlimit="4" y1="18" d="M72.437,113.617L72.437,69.432C72.437,64.287,68.266,60.116,63.12,60.116C57.975,60.116,53.804,64.287,53.804,69.432L53.804,113.617C53.804,118.762,57.975,122.933,63.12,122.933C68.266,122.933,72.437,118.762,72.437,113.617Z"/>
  <path x2="14" fill="#000000" stroke-opacity="1" y1="18" stroke-miterlimit="4" fill-opacity="1" y2="11" stroke-dasharray="none" fill-rule="nonzero" stroke="none" stroke-width="1.5px" stroke-linejoin="round" x1="14" stroke-linecap="round" d="M97.685,113.617L97.685,69.432C97.685,64.287,93.514,60.116,88.369,60.116C83.223,60.116,79.052,64.287,79.052,69.432L79.052,113.617C79.052,118.762,83.223,122.933,88.369,122.933C93.514,122.933,97.685,118.762,97.685,113.617Z"/>
  <path x1="18" stroke-opacity="1" stroke-dasharray="none" y1="18" fill-opacity="1" x2="18" stroke-linejoin="round" fill="#000000" stroke-width="1.5px" stroke-linecap="round" fill-rule="nonzero" stroke="none" stroke-miterlimit="4" y2="11" d="M122.933,113.617L122.933,69.432C122.933,64.287,118.762,60.116,113.617,60.116C108.471,60.116,104.3,64.287,104.3,69.432L104.3,113.617C104.3,118.762,108.471,122.933,113.617,122.933C118.762,122.933,122.933,118.762,122.933,113.617Z"/>
  <path stroke-linejoin="round" fill="#000000" stroke-linecap="round" stroke="none" stroke-width="1.5px" fill-opacity="1" stroke-opacity="1" stroke-miterlimit="4" points="12 2 20 7 4 7" stroke-dasharray="none" fill-rule="nonzero" d="M70.807,20.525L121.303,52.085L126.241,34.868L25.248,34.868L30.186,52.085L80.682,20.525L70.807,20.525ZM80.682,4.724C77.661,2.835,73.828,2.835,70.807,4.724L20.31,36.284C12.373,41.245,15.888,53.501,25.248,53.501L126.241,53.501C135.601,53.501,139.116,41.245,131.179,36.284L80.682,4.724Z"/>
</g>
  <g id="Bold-L" transform="matrix(1.0,0.0,0.0,1.0,2265.515541992187,1445.0255615234375)">  <path x2="21" y2="22" fill-opacity="1" stroke-miterlimit="4" x1="3" stroke-linecap="round" y1="22" stroke-opacity="1" fill="#000000" stroke="none" stroke-dasharray="none" fill-rule="nonzero" stroke-linejoin="round" stroke-width="1.5px" d="M18.936,147.036L132.553,147.036C137.065,147.036,140.724,143.378,140.724,138.865C140.724,134.352,137.065,130.694,132.553,130.694L18.936,130.694C14.423,130.694,10.765,134.352,10.765,138.865C10.765,143.378,14.423,147.036,18.936,147.036Z"/>
  <path fill="#000000" x2="6" stroke-linecap="round" stroke="none" x1="6" stroke-miterlimit="4" y2="11" stroke-width="1.5px" stroke-linejoin="round" fill-rule="nonzero" stroke-dasharray="none" y1="18" stroke-opacity="1" fill-opacity="1" d="M46.043,113.617L46.043,69.432C46.043,64.92,42.385,61.261,37.872,61.261C33.36,61.261,29.701,64.92,29.701,69.432L29.701,113.617C29.701,118.129,33.36,121.788,37.872,121.788C42.385,121.788,46.043,118.129,46.043,113.617Z"/>
  <path stroke-dasharray="none" stroke-linecap="round" stroke-width="1.5px" stroke="none" fill="#000000" y2="11" fill-opacity="1" stroke-miterlimit="4" x1="10" x2="10" y1="18" fill-rule="nonzero" stroke-linejoin="round" stroke-opacity="1" d="M71.291,113.617L71.291,69.432C71.291,64.92,67.633,61.261,63.12,61.261C58.608,61.261,54.949,64.92,54.949,69.432L54.949,113.617C54.949,118.129,58.608,121.788,63.12,121.788C67.633,121.788,71.291,118.129,71.291,113.617Z"/>
  <path x2="14" stroke-dasharray="none" stroke="none" stroke-opacity="1" fill-opacity="1" x1="14" stroke-linecap="round" fill-rule="nonzero" fill="#000000" y2="11" y1="18" stroke-linejoin="round" stroke-miterlimit="4" stroke-width="1.5px" d="M96.539,113.617L96.539,69.432C96.539,64.92,92.881,61.261,88.369,61.261C83.856,61.261,80.198,64.92,80.198,69.432L80.198,113.617C80.198,118.129,83.856,121.788,88.369,121.788C92.881,121.788,96.539,118.129,96.539,113.617Z"/>
  <path fill="#000000" stroke="none" stroke-dasharray="none" fill-opacity="1" y1="18" fill-rule="nonzero" x2="18" x1="18" y2="11" stroke-miterlimit="4" stroke-width="1.5px" stroke-opacity="1" stroke-linecap="round" stroke-linejoin="round" d="M121.788,113.617L121.788,69.432C121.788,64.92,118.129,61.261,113.617,61.261C109.104,61.261,105.446,64.92,105.446,69.432L105.446,113.617C105.446,118.129,109.104,121.788,113.617,121.788C118.129,121.788,121.788,118.129,121.788,113.617Z"/>
  <path stroke-linejoin="round" stroke-width="1.5px" fill="#000000" stroke-linecap="round" points="12 2 20 7 4 7" stroke-opacity="1" stroke="none" fill-rule="nonzero" stroke-dasharray="none" fill-opacity="1" stroke-miterlimit="4" d="M71.414,19.553L121.91,51.113L126.241,36.013L25.248,36.013L29.579,51.113L80.075,19.553L71.414,19.553ZM80.075,5.695C77.425,4.039,74.063,4.039,71.414,5.695L20.918,37.255C13.956,41.606,17.039,52.355,25.248,52.355L126.241,52.355C134.45,52.355,137.533,41.606,130.571,37.255L80.075,5.695Z"/>
</g>
  <g id="Semibold-L" transform="matrix(1.0,0.0,0.0,1.0,1968.8055419921875,1445.0255615234375)">  <path stroke-miterlimit="4" x2="21" stroke-width="1.5px" y1="22" stroke-linejoin="round" stroke-linecap="round" y2="22" stroke-dasharray="none" stroke="none" stroke-opacity="1" fill="#000000" fill-rule="nonzero" x1="3" fill-opacity="1" d="M18.936,145.89L132.553,145.89C136.433,145.89,139.578,142.745,139.578,138.865C139.578,134.985,136.433,131.84,132.553,131.84L18.936,131.84C15.056,131.84,11.911,134.985,11.911,138.865C11.911,142.745,15.056,145.89,18.936,145.89Z"/>
  <path fill-opacity="1" fill-rule="nonzero" x1="6" stroke-dasharray="none" y2="11" stroke-miterlimit="4" y1="18" stroke-width="1.5px" fill="#000000" stroke-opacity="1" stroke-linecap="round" stroke-linejoin="round" x2="6" stroke="none" d="M44.898,113.617L44.898,69.432C44.898,65.552,41.752,62.407,37.872,62.407C33.992,62.407,30.847,65.552,30.847,69.432L30.847,113.617C30.847,117.497,33.992,120.642,37.872,120.642C41.752,120.642,44.898,117.497,44.898,113.617Z"/>
  <path stroke-opacity="1" fill="#000000" y1="18" fill-rule="nonzero" stroke-width="1.5px" stroke-linejoin="round" x2="10" stroke-miterlimit="4" x1="10" stroke-linecap="round" stroke-dasharray="none" stroke="none" fill-opacity="1" y2="11" d="M70.146,113.617L70.146,69.432C70.146,65.552,67,62.407,63.12,62.407C59.24,62.407,56.095,65.552,56.095,69.432L56.095,113.617C56.095,117.497,59.24,120.642,63.12,120.642C67,120.642,70.146,117.497,70.146,113.617Z"/>
  <path stroke-width="1.5px" stroke-miterlimit="4" x2="14" stroke-dasharray="none" y2="11" stroke-linecap="round" fill-opacity="1" fill-rule="nonzero" stroke-opacity="1" fill="#000000" x1="14" stroke-linejoin="round" stroke="none" y1="18" d="M95.394,113.617L95.394,69.432C95.394,65.552,92.248,62.407,88.369,62.407C84.489,62.407,81.343,65.552,81.343,69.432L81.343,113.617C81.343,117.497,84.489,120.642,88.369,120.642C92.248,120.642,95.394,117.497,95.394,113.617Z"/>
  <path stroke-linejoin="round" fill="#000000" stroke-miterlimit="4" x2="18" stroke-dasharray="none" stroke="none" stroke-linecap="round" x1="18" stroke-width="1.5px" fill-opacity="1" y1="18" fill-rule="nonzero" y2="11" stroke-opacity="1" d="M120.642,113.617L120.642,69.432C120.642,65.552,117.497,62.407,113.617,62.407C109.737,62.407,106.591,65.552,106.591,69.432L106.591,113.617C106.591,117.497,109.737,120.642,113.617,120.642C117.497,120.642,120.642,117.497,120.642,113.617Z"/>
  <path stroke-linecap="round" stroke-width="1.5px" stroke-miterlimit="4" stroke-dasharray="none" stroke-opacity="1" points="12 2 20 7 4 7" fill="#000000" fill-opacity="1" fill-rule="nonzero" stroke="none" stroke-linejoin="round" d="M72.021,18.582L122.517,50.142L126.241,37.159L25.248,37.159L28.972,50.142L79.468,18.582L72.021,18.582ZM79.468,6.667C77.19,5.243,74.299,5.243,72.021,6.667L21.525,38.227C15.539,41.968,18.19,51.21,25.248,51.21L126.241,51.21C133.299,51.21,135.95,41.968,129.964,38.227L79.468,6.667Z"/>
</g>
  <g id="Medium-L" transform="matrix(1.0,0.0,0.0,1.0,1672.0955419921875,1445.0255615234375)">  <path stroke-linecap="round" y1="22" stroke-dasharray="none" fill-opacity="1" stroke-opacity="1" y2="22" fill-rule="nonzero" stroke-miterlimit="4" stroke-linejoin="round" x2="21" fill="#000000" stroke="none" x1="3" stroke-width="1.5px" d="M18.936,144.745L132.553,144.745C135.8,144.745,138.432,142.112,138.432,138.865C138.432,135.618,135.8,132.985,132.553,132.985L18.936,132.985C15.689,132.985,13.056,135.618,13.056,138.865C13.056,142.112,15.689,144.745,18.936,144.745Z"/>
  <path y1="18" stroke-linejoin="round" fill-opacity="1" stroke-miterlimit="4" stroke-dasharray="none" stroke-opacity="1" stroke="none" stroke-linecap="round" stroke-width="1.5px" y2="11" x1="6" x2="6" fill="#000000" fill-rule="nonzero" d="M43.752,113.617L43.752,69.432C43.752,66.185,41.119,63.553,37.872,63.553C34.625,63.553,31.993,66.185,31.993,69.432L31.993,113.617C31.993,116.864,34.625,119.496,37.872,119.496C41.119,119.496,43.752,116.864,43.752,113.617Z"/>
  <path fill-opacity="1" y1="18" stroke-width="1.5px" stroke-miterlimit="4" y2="11" stroke-dasharray="none" x1="10" x2="10" fill="#000000" stroke-linecap="round" stroke-opacity="1" stroke-linejoin="round" stroke="none" fill-rule="nonzero" d="M69,113.617L69,69.432C69,66.185,66.368,63.553,63.12,63.553C59.873,63.553,57.241,66.185,57.241,69.432L57.241,113.617C57.241,116.864,59.873,119.496,63.12,119.496C66.368,119.496,69,116.864,69,113.617Z"/>
  <path stroke-linecap="round" stroke-miterlimit="4" y1="18" stroke-dasharray="none" stroke-linejoin="round" x2="14" stroke-width="1.5px" y2="11" fill="#000000" stroke="none" x1="14" fill-opacity="1" fill-rule="nonzero" stroke-opacity="1" d="M94.248,113.617L94.248,69.432C94.248,66.185,91.616,63.553,88.369,63.553C85.121,63.553,82.489,66.185,82.489,69.432L82.489,113.617C82.489,116.864,85.121,119.496,88.369,119.496C91.616,119.496,94.248,116.864,94.248,113.617Z"/>
  <path x1="18" stroke-linecap="round" x2="18" fill-rule="nonzero" y2="11" fill="#000000" fill-opacity="1" y1="18" stroke-opacity="1" stroke-width="1.5px" stroke-linejoin="round" stroke-dasharray="none" stroke="none" stroke-miterlimit="4" d="M119.496,113.617L119.496,69.432C119.496,66.185,116.864,63.553,113.617,63.553C110.369,63.553,107.737,66.185,107.737,69.432L107.737,113.617C107.737,116.864,110.369,119.496,113.617,119.496C116.864,119.496,119.496,116.864,119.496,113.617Z"/>
  <path stroke-linecap="round" stroke-dasharray="none" stroke="none" stroke-linejoin="round" fill-rule="nonzero" stroke-width="1.5px" fill="#000000" stroke-opacity="1" stroke-miterlimit="4" fill-opacity="1" points="12 2 20 7 4 7" d="M72.628,17.61L123.125,49.17L126.241,38.305L25.248,38.305L28.364,49.17L78.861,17.61L72.628,17.61ZM78.861,7.638C76.954,6.447,74.535,6.447,72.628,7.638L22.132,39.198C17.123,42.329,19.341,50.064,25.248,50.064L126.241,50.064C132.148,50.064,134.366,42.329,129.357,39.198L78.861,7.638Z"/>
</g>
  <g id="Regular-L" transform="matrix(1.0,0.0,0.0,1.0,1375.3855419921874,1445.0255615234375)">  <path stroke-opacity="1" stroke-dasharray="none" y2="22" y1="22" stroke-linejoin="round" fill="#000000" x2="21" fill-rule="nonzero" stroke-linecap="round" stroke-width="1.5px" stroke="none" fill-opacity="1" x1="3" stroke-miterlimit="4" d="M18.936,143.599L132.553,143.599C135.167,143.599,137.287,141.479,137.287,138.865C137.287,136.25,135.167,134.131,132.553,134.131L18.936,134.131C16.322,134.131,14.202,136.25,14.202,138.865C14.202,141.479,16.322,143.599,18.936,143.599Z"/>
  <path stroke-dasharray="none" y1="18" stroke-opacity="1" x1="6" fill="#000000" x2="6" fill-rule="nonzero" stroke-linecap="round" stroke-width="1.5px" y2="11" stroke-miterlimit="4" stroke="none" fill-opacity="1" stroke-linejoin="round" d="M42.606,113.617L42.606,69.432C42.606,66.818,40.487,64.698,37.872,64.698C35.258,64.698,33.138,66.818,33.138,69.432L33.138,113.617C33.138,116.231,35.258,118.351,37.872,118.351C40.487,118.351,42.606,116.231,42.606,113.617Z"/>
  <path fill="#000000" stroke-opacity="1" stroke-linejoin="round" y2="11" fill-opacity="1" stroke="none" stroke-dasharray="none" stroke-width="1.5px" fill-rule="nonzero" x1="10" stroke-miterlimit="4" y1="18" stroke-linecap="round" x2="10" d="M67.854,113.617L67.854,69.432C67.854,66.818,65.735,64.698,63.12,64.698C60.506,64.698,58.386,66.818,58.386,69.432L58.386,113.617C58.386,116.231,60.506,118.351,63.12,118.351C65.735,118.351,67.854,116.231,67.854,113.617Z"/>
  <path x2="14" stroke-opacity="1" y1="18" stroke-dasharray="none" fill-opacity="1" stroke-width="1.5px" fill="#000000" fill-rule="nonzero" stroke-linejoin="round" stroke-miterlimit="4" y2="11" stroke="none" x1="14" stroke-linecap="round" d="M93.103,113.617L93.103,69.432C93.103,66.818,90.983,64.698,88.369,64.698C85.754,64.698,83.635,66.818,83.635,69.432L83.635,113.617C83.635,116.231,85.754,118.351,88.369,118.351C90.983,118.351,93.103,116.231,93.103,113.617Z"/>
  <path stroke="none" x2="18" x1="18" stroke-dasharray="none" stroke-linecap="round" stroke-opacity="1" stroke-width="1.5px" stroke-miterlimit="4" fill-opacity="1" y1="18" y2="11" stroke-linejoin="round" fill="#000000" fill-rule="nonzero" d="M118.351,113.617L118.351,69.432C118.351,66.818,116.231,64.698,113.617,64.698C111.002,64.698,108.883,66.818,108.883,69.432L108.883,113.617C108.883,116.231,111.002,118.351,113.617,118.351C116.231,118.351,118.351,116.231,118.351,113.617Z"/>
  <path points="12 2 20 7 4 7" stroke-miterlimit="4" stroke-width="1.5px" stroke-opacity="1" fill="#000000" stroke-dasharray="none" stroke="none" stroke-linecap="round" fill-opacity="1" fill-rule="nonzero" stroke-linejoin="round" d="M73.235,16.639L123.732,48.199L126.241,39.45L25.248,39.45L27.757,48.199L78.253,16.639L73.235,16.639ZM78.253,8.61C76.718,7.65,74.771,7.65,73.235,8.61L22.739,40.17C18.706,42.691,20.492,48.918,25.248,48.918L126.241,48.918C130.997,48.918,132.783,42.691,128.75,40.17L78.253,8.61Z"/>
</g>
  <g id="Light-L" transform="matrix(1.0,0.0,0.0,1.0,1078.6755419921876,1445.0255615234375)">  <path x1="3" y2="22" stroke-linecap="round" fill-opacity="1" x2="21" fill-rule="nonzero" stroke-dasharray="none" stroke-opacity="1" y1="22" stroke-linejoin="round" stroke-miterlimit="4" fill="#000000" stroke="none" stroke-width="1.5px" d="M18.936,142.81L132.553,142.81C134.732,142.81,136.498,141.044,136.498,138.865C136.498,136.686,134.732,134.92,132.553,134.92L18.936,134.92C16.757,134.92,14.991,136.686,14.991,138.865C14.991,141.044,16.757,142.81,18.936,142.81Z"/>
  <path fill="#000000" y2="11" stroke-width="1.5px" stroke-linejoin="round" x2="6" stroke-dasharray="none" stroke-linecap="round" x1="6" stroke-miterlimit="4" stroke-opacity="1" stroke="none" y1="18" fill-opacity="1" fill-rule="nonzero" d="M41.817,113.617L41.817,69.432C41.817,67.254,40.051,65.487,37.872,65.487C35.693,65.487,33.927,67.254,33.927,69.432L33.927,113.617C33.927,115.795,35.693,117.562,37.872,117.562C40.051,117.562,41.817,115.795,41.817,113.617Z"/>
  <path stroke-width="1.5px" y1="18" fill-rule="nonzero" stroke-linejoin="round" fill="#000000" y2="11" stroke="none" fill-opacity="1" x2="10" stroke-opacity="1" stroke-linecap="round" x1="10" stroke-miterlimit="4" stroke-dasharray="none" d="M67.065,113.617L67.065,69.432C67.065,67.254,65.299,65.487,63.12,65.487C60.942,65.487,59.175,67.254,59.175,69.432L59.175,113.617C59.175,115.795,60.942,117.562,63.12,117.562C65.299,117.562,67.065,115.795,67.065,113.617Z"/>
  <path y1="18" x1="14" fill-rule="nonzero" x2="14" stroke="none" stroke-miterlimit="4" y2="11" stroke-linejoin="round" fill-opacity="1" stroke-opacity="1" stroke-dasharray="none" stroke-width="1.5px" fill="#000000" stroke-linecap="round" d="M92.314,113.617L92.314,69.432C92.314,67.254,90.547,65.487,88.369,65.487C86.19,65.487,84.424,67.254,84.424,69.432L84.424,113.617C84.424,115.795,86.19,117.562,88.369,117.562C90.547,117.562,92.314,115.795,92.314,113.617Z"/>
  <path fill-opacity="1" stroke-width="1.5px" y2="11" stroke="none" y1="18" stroke-linecap="round" stroke-dasharray="none" stroke-opacity="1" x2="18" stroke-miterlimit="4" stroke-linejoin="round" fill-rule="nonzero" x1="18" fill="#000000" d="M117.562,113.617L117.562,69.432C117.562,67.254,115.795,65.487,113.617,65.487C111.438,65.487,109.672,67.254,109.672,69.432L109.672,113.617C109.672,115.795,111.438,117.562,113.617,117.562C115.795,117.562,117.562,115.795,117.562,113.617Z"/>
  <path fill="#000000" fill-opacity="1" fill-rule="nonzero" stroke-opacity="1" stroke-width="1.5px" stroke-linejoin="round" stroke-miterlimit="4" stroke="none" points="12 2 20 7 4 7" stroke-dasharray="none" stroke-linecap="round" d="M73.654,15.969L124.15,47.53L126.241,40.239L25.248,40.239L27.339,47.53L77.835,15.969L73.654,15.969ZM77.835,9.279C76.556,8.479,74.933,8.479,73.654,9.279L23.157,40.839C19.796,42.94,21.285,48.129,25.248,48.129L126.241,48.129C130.204,48.129,131.693,42.94,128.332,40.839L77.835,9.279Z"/>
</g>
  <g id="Thin-L" transform="matrix(1.0,0.0,0.0,1.0,781.9655419921876,1445.0255615234375)">  <path fill-rule="nonzero" stroke-opacity="1" stroke-width="1.5px" y2="22" stroke-linecap="round" stroke-miterlimit="4" stroke-dasharray="none" stroke="none" fill="#000000" fill-opacity="1" y1="22" x1="3" x2="21" stroke-linejoin="round" d="M18.936,142.021L132.553,142.021C134.296,142.021,135.709,140.608,135.709,138.865C135.709,137.122,134.296,135.709,132.553,135.709L18.936,135.709C17.193,135.709,15.78,137.122,15.78,138.865C15.78,140.608,17.193,142.021,18.936,142.021Z"/>
  <path fill="#000000" x2="6" stroke-width="1.5px" stroke-opacity="1" y1="18" stroke-linejoin="round" stroke-miterlimit="4" x1="6" fill-rule="nonzero" fill-opacity="1" stroke-linecap="round" stroke-dasharray="none" y2="11" stroke="none" d="M41.028,113.617L41.028,69.432C41.028,67.689,39.615,66.276,37.872,66.276C36.129,66.276,34.716,67.689,34.716,69.432L34.716,113.617C34.716,115.36,36.129,116.773,37.872,116.773C39.615,116.773,41.028,115.36,41.028,113.617Z"/>
  <path fill-opacity="1" x2="10" y1="18" stroke-dasharray="none" y2="11" stroke-linecap="round" fill="#000000" fill-rule="nonzero" stroke-opacity="1" stroke-miterlimit="4" stroke-width="1.5px" stroke-linejoin="round" x1="10" stroke="none" d="M66.276,113.617L66.276,69.432C66.276,67.689,64.863,66.276,63.12,66.276C61.377,66.276,59.964,67.689,59.964,69.432L59.964,113.617C59.964,115.36,61.377,116.773,63.12,116.773C64.863,116.773,66.276,115.36,66.276,113.617Z"/>
  <path y2="11" stroke-width="1.5px" fill-opacity="1" fill="#000000" stroke-dasharray="none" x1="14" stroke-linecap="round" fill-rule="nonzero" y1="18" stroke-linejoin="round" x2="14" stroke="none" stroke-miterlimit="4" stroke-opacity="1" d="M91.525,113.617L91.525,69.432C91.525,67.689,90.112,66.276,88.369,66.276C86.626,66.276,85.213,67.689,85.213,69.432L85.213,113.617C85.213,115.36,86.626,116.773,88.369,116.773C90.112,116.773,91.525,115.36,91.525,113.617Z"/>
  <path stroke-opacity="1" stroke-linejoin="round" x2="18" fill-rule="nonzero" stroke-width="1.5px" fill="#000000" stroke="none" stroke-dasharray="none" stroke-linecap="round" x1="18" y2="11" fill-opacity="1" y1="18" stroke-miterlimit="4" d="M116.773,113.617L116.773,69.432C116.773,67.689,115.36,66.276,113.617,66.276C111.874,66.276,110.461,67.689,110.461,69.432L110.461,113.617C110.461,115.36,111.874,116.773,113.617,116.773C115.36,116.773,116.773,115.36,116.773,113.617Z"/>
  <path stroke-linejoin="round" stroke-miterlimit="4" stroke-linecap="round" stroke-dasharray="none" fill-rule="nonzero" fill-opacity="1" fill="#000000" stroke-width="1.5px" points="12 2 20 7 4 7" stroke-opacity="1" stroke="none" d="M74.072,15.3L124.568,46.861L126.241,41.028L25.248,41.028L26.921,46.861L77.417,15.3L74.072,15.3ZM77.417,9.948C76.394,9.308,75.095,9.308,74.072,9.948L23.575,41.508C20.887,43.188,22.077,47.34,25.248,47.34L126.241,47.34C129.412,47.34,130.602,43.188,127.913,41.508L77.417,9.948Z"/>
</g>
  <g id="Ultralight-L" transform="matrix(1.0,0.0,0.0,1.0,485.2555419921875,1445.0255615234375)">  <path fill-rule="nonzero" fill-opacity="1" y1="22" stroke-dasharray="none" stroke-miterlimit="4" stroke-width="1.5px" y2="22" stroke-opacity="1" x1="3" fill="#000000" x2="21" stroke-linejoin="round" stroke-linecap="round" stroke="none" d="M18.936,141.232L132.553,141.232C133.86,141.232,134.92,140.172,134.92,138.865C134.92,137.558,133.86,136.498,132.553,136.498L18.936,136.498C17.629,136.498,16.569,137.558,16.569,138.865C16.569,140.172,17.629,141.232,18.936,141.232Z"/>
  <path stroke-width="1.5px" x2="6" stroke-dasharray="none" y1="18" y2="11" fill="#000000" stroke="none" fill-opacity="1" x1="6" stroke-linejoin="round" stroke-linecap="round" fill-rule="nonzero" stroke-miterlimit="4" stroke-opacity="1" d="M40.239,113.617L40.239,69.432C40.239,68.125,39.179,67.065,37.872,67.065C36.565,67.065,35.505,68.125,35.505,69.432L35.505,113.617C35.505,114.924,36.565,115.984,37.872,115.984C39.179,115.984,40.239,114.924,40.239,113.617Z"/>
  <path x1="10" stroke-width="1.5px" fill-opacity="1" stroke-dasharray="none" stroke-miterlimit="4" x2="10" stroke-linecap="round" stroke="none" stroke-opacity="1" y2="11" stroke-linejoin="round" y1="18" fill="#000000" fill-rule="nonzero" d="M65.487,113.617L65.487,69.432C65.487,68.125,64.428,67.065,63.12,67.065C61.813,67.065,60.753,68.125,60.753,69.432L60.753,113.617C60.753,114.924,61.813,115.984,63.12,115.984C64.428,115.984,65.487,114.924,65.487,113.617Z"/>
  <path y2="11" y1="18" fill="#000000" stroke-dasharray="none" stroke-width="1.5px" stroke-opacity="1" stroke-linejoin="round" stroke-linecap="round" x2="14" stroke="none" fill-opacity="1" stroke-miterlimit="4" fill-rule="nonzero" x1="14" d="M90.736,113.617L90.736,69.432C90.736,68.125,89.676,67.065,88.369,67.065C87.061,67.065,86.002,68.125,86.002,69.432L86.002,113.617C86.002,114.924,87.061,115.984,88.369,115.984C89.676,115.984,90.736,114.924,90.736,113.617Z"/>
  <path y1="18" fill-rule="nonzero" fill-opacity="1" stroke-miterlimit="4" stroke-dasharray="none" fill="#000000" x2="18" stroke="none" y2="11" stroke-linecap="round" stroke-linejoin="round" x1="18" stroke-width="1.5px" stroke-opacity="1" d="M115.984,113.617L115.984,69.432C115.984,68.125,114.924,67.065,113.617,67.065C112.309,67.065,111.25,68.125,111.25,69.432L111.25,113.617C111.25,114.924,112.309,115.984,113.617,115.984C114.924,115.984,115.984,114.924,115.984,113.617Z"/>
  <path fill-rule="nonzero" stroke="none" stroke-dasharray="none" stroke-linejoin="round" fill="#000000" stroke-opacity="1" stroke-width="1.5px" fill-opacity="1" points="12 2 20 7 4 7" stroke-linecap="round" stroke-miterlimit="4" d="M74.49,14.631L124.986,46.191L126.241,41.817L25.248,41.817L26.503,46.191L76.999,14.631L74.49,14.631ZM76.999,10.617C76.231,10.137,75.257,10.137,74.49,10.617L23.994,42.177C21.977,43.437,22.87,46.551,25.248,46.551L126.241,46.551C128.619,46.551,129.512,43.437,127.495,42.177L76.999,10.617Z"/>
</g>
  <g id="Black-M" transform="matrix(1.0,0.0,0.0,1.0,2875.9633658854164,1032.0533854166667)">  <path stroke-dasharray="none" fill="#000000" stroke-linejoin="round" stroke-width="1.5px" fill-rule="nonzero" fill-opacity="1" x2="21" stroke-linecap="round" y1="22" stroke-miterlimit="4" y2="22" stroke="none" stroke-opacity="1" x1="3" d="M14.679,115.757L102.754,115.757C107.233,115.757,110.864,112.126,110.864,107.647C110.864,103.168,107.233,99.537,102.754,99.537L14.679,99.537C10.2,99.537,6.569,103.168,6.569,107.647C6.569,112.126,10.2,115.757,14.679,115.757Z"/>
  <path stroke-linejoin="round" stroke-width="1.5px" fill-rule="nonzero" stroke-miterlimit="4" x2="6" fill="#000000" stroke-dasharray="none" stroke-linecap="round" stroke="none" fill-opacity="1" stroke-opacity="1" y1="18" y2="11" x1="6" d="M37.469,88.075L37.469,53.824C37.469,49.344,33.837,45.713,29.358,45.713C24.879,45.713,21.248,49.344,21.248,53.824L21.248,88.075C21.248,92.554,24.879,96.185,29.358,96.185C33.837,96.185,37.469,92.554,37.469,88.075Z"/>
  <path y1="18" fill-opacity="1" stroke="none" fill-rule="nonzero" x1="10" stroke-opacity="1" stroke-miterlimit="4" stroke-linecap="round" y2="11" x2="10" fill="#000000" stroke-linejoin="round" stroke-width="1.5px" stroke-dasharray="none" d="M57.041,88.075L57.041,53.824C57.041,49.344,53.41,45.713,48.931,45.713C44.451,45.713,40.82,49.344,40.82,53.824L40.82,88.075C40.82,92.554,44.451,96.185,48.931,96.185C53.41,96.185,57.041,92.554,57.041,88.075Z"/>
  <path stroke-linejoin="round" stroke-opacity="1" x1="14" stroke-miterlimit="4" stroke-linecap="round" stroke-width="1.5px" stroke="none" fill="#000000" x2="14" y2="11" fill-rule="nonzero" y1="18" fill-opacity="1" stroke-dasharray="none" d="M76.613,88.075L76.613,53.824C76.613,49.344,72.982,45.713,68.503,45.713C64.024,45.713,60.393,49.344,60.393,53.824L60.393,88.075C60.393,92.554,64.024,96.185,68.503,96.185C72.982,96.185,76.613,92.554,76.613,88.075Z"/>
  <path stroke-dasharray="none" fill-opacity="1" fill-rule="nonzero" y2="11" stroke-miterlimit="4" stroke="none" fill="#000000" y1="18" stroke-linecap="round" x2="18" x1="18" stroke-linejoin="round" stroke-opacity="1" stroke-width="1.5px" d="M96.185,88.075L96.185,53.824C96.185,49.344,92.554,45.713,88.075,45.713C83.596,45.713,79.965,49.344,79.965,53.824L79.965,88.075C79.965,92.554,83.596,96.185,88.075,96.185C92.554,96.185,96.185,92.554,96.185,88.075Z"/>
  <path stroke-linejoin="round" fill-opacity="1" stroke-miterlimit="4" stroke-linecap="round" stroke="none" fill="#000000" points="12 2 20 7 4 7" stroke-opacity="1" stroke-dasharray="none" stroke-width="1.5px" fill-rule="nonzero" d="M54.418,16.664L93.563,41.129L97.861,26.141L19.572,26.141L23.871,41.129L63.015,16.664L54.418,16.664ZM63.015,2.909C60.385,1.265,57.048,1.265,54.418,2.909L15.274,27.374C8.364,31.692,11.424,42.362,19.572,42.362L97.861,42.362C106.009,42.362,109.069,31.692,102.159,27.374L63.015,2.909Z"/>
</g>
  <g id="Heavy-M" transform="matrix(1.0,0.0,0.0,1.0,2579.2533658854163,1032.0533854166667)">  <path y2="22" stroke-opacity="1" stroke-linecap="round" y1="22" fill-rule="nonzero" fill-opacity="1" x2="21" stroke-dasharray="none" x1="3" stroke-width="1.5px" stroke-miterlimit="4" stroke-linejoin="round" fill="#000000" stroke="none" d="M14.679,114.869L102.754,114.869C106.743,114.869,109.976,111.636,109.976,107.647C109.976,103.658,106.743,100.425,102.754,100.425L14.679,100.425C10.69,100.425,7.457,103.658,7.457,107.647C7.457,111.636,10.69,114.869,14.679,114.869Z"/>
  <path stroke-opacity="1" stroke-miterlimit="4" stroke="none" fill-rule="nonzero" fill-opacity="1" x2="6" stroke-linejoin="round" fill="#000000" y2="11" stroke-width="1.5px" stroke-linecap="round" y1="18" x1="6" stroke-dasharray="none" d="M36.58,88.075L36.58,53.824C36.58,49.835,33.347,46.601,29.358,46.601C25.37,46.601,22.136,49.835,22.136,53.824L22.136,88.075C22.136,92.064,25.37,95.297,29.358,95.297C33.347,95.297,36.58,92.064,36.58,88.075Z"/>
  <path stroke-linecap="round" stroke-width="1.5px" stroke="none" y2="11" x1="10" stroke-linejoin="round" stroke-dasharray="none" stroke-opacity="1" fill="#000000" fill-rule="nonzero" x2="10" fill-opacity="1" stroke-miterlimit="4" y1="18" d="M56.153,88.075L56.153,53.824C56.153,49.835,52.919,46.601,48.931,46.601C44.942,46.601,41.708,49.835,41.708,53.824L41.708,88.075C41.708,92.064,44.942,95.297,48.931,95.297C52.919,95.297,56.153,92.064,56.153,88.075Z"/>
  <path x2="14" fill="#000000" stroke-opacity="1" y1="18" stroke-miterlimit="4" fill-opacity="1" y2="11" stroke-dasharray="none" fill-rule="nonzero" stroke="none" stroke-width="1.5px" stroke-linejoin="round" x1="14" stroke-linecap="round" d="M75.725,88.075L75.725,53.824C75.725,49.835,72.491,46.601,68.503,46.601C64.514,46.601,61.281,49.835,61.281,53.824L61.281,88.075C61.281,92.064,64.514,95.297,68.503,95.297C72.491,95.297,75.725,92.064,75.725,88.075Z"/>
  <path x1="18" stroke-opacity="1" stroke-dasharray="none" y1="18" fill-opacity="1" x2="18" stroke-linejoin="round" fill="#000000" stroke-width="1.5px" stroke-linecap="round" fill-rule="nonzero" stroke="none" stroke-miterlimit="4" y2="11" d="M95.297,88.075L95.297,53.824C95.297,49.835,92.064,46.601,88.075,46.601C84.086,46.601,80.853,49.835,80.853,53.824L80.853,88.075C80.853,92.064,84.086,95.297,88.075,95.297C92.064,95.297,95.297,92.064,95.297,88.075Z"/>
  <path stroke-linejoin="round" fill="#000000" stroke-linecap="round" stroke="none" stroke-width="1.5px" fill-opacity="1" stroke-opacity="1" stroke-miterlimit="4" points="12 2 20 7 4 7" stroke-dasharray="none" fill-rule="nonzero" d="M54.889,15.91L94.033,40.376L97.861,27.029L19.572,27.029L23.4,40.376L62.544,15.91L54.889,15.91ZM62.544,3.662C60.202,2.198,57.231,2.198,54.889,3.662L15.744,28.127C9.591,31.973,12.316,41.474,19.572,41.474L97.861,41.474C105.117,41.474,107.842,31.973,101.689,28.127L62.544,3.662Z"/>
</g>
  <g id="Bold-M" transform="matrix(1.0,0.0,0.0,1.0,2282.5433658854163,1032.0533854166667)">  <path x2="21" y2="22" fill-opacity="1" stroke-miterlimit="4" x1="3" stroke-linecap="round" y1="22" stroke-opacity="1" fill="#000000" stroke="none" stroke-dasharray="none" fill-rule="nonzero" stroke-linejoin="round" stroke-width="1.5px" d="M14.679,113.981L102.754,113.981C106.252,113.981,109.088,111.145,109.088,107.647C109.088,104.149,106.252,101.313,102.754,101.313L14.679,101.313C11.181,101.313,8.345,104.149,8.345,107.647C8.345,111.145,11.181,113.981,14.679,113.981Z"/>
  <path fill="#000000" x2="6" stroke-linecap="round" stroke="none" x1="6" stroke-miterlimit="4" y2="11" stroke-width="1.5px" stroke-linejoin="round" fill-rule="nonzero" stroke-dasharray="none" y1="18" stroke-opacity="1" fill-opacity="1" d="M35.692,88.075L35.692,53.824C35.692,50.325,32.857,47.49,29.358,47.49C25.86,47.49,23.024,50.325,23.024,53.824L23.024,88.075C23.024,91.573,25.86,94.409,29.358,94.409C32.857,94.409,35.692,91.573,35.692,88.075Z"/>
  <path stroke-dasharray="none" stroke-linecap="round" stroke-width="1.5px" stroke="none" fill="#000000" y2="11" fill-opacity="1" stroke-miterlimit="4" x1="10" x2="10" y1="18" fill-rule="nonzero" stroke-linejoin="round" stroke-opacity="1" d="M55.265,88.075L55.265,53.824C55.265,50.325,52.429,47.49,48.931,47.49C45.432,47.49,42.596,50.325,42.596,53.824L42.596,88.075C42.596,91.573,45.432,94.409,48.931,94.409C52.429,94.409,55.265,91.573,55.265,88.075Z"/>
  <path x2="14" stroke-dasharray="none" stroke="none" stroke-opacity="1" fill-opacity="1" x1="14" stroke-linecap="round" fill-rule="nonzero" fill="#000000" y2="11" y1="18" stroke-linejoin="round" stroke-miterlimit="4" stroke-width="1.5px" d="M74.837,88.075L74.837,53.824C74.837,50.325,72.001,47.49,68.503,47.49C65.005,47.49,62.169,50.325,62.169,53.824L62.169,88.075C62.169,91.573,65.005,94.409,68.503,94.409C72.001,94.409,74.837,91.573,74.837,88.075Z"/>
  <path fill="#000000" stroke="none" stroke-dasharray="none" fill-opacity="1" y1="18" fill-rule="nonzero" x2="18" x1="18" y2="11" stroke-miterlimit="4" stroke-width="1.5px" stroke-opacity="1" stroke-linecap="round" stroke-linejoin="round" d="M94.409,88.075L94.409,53.824C94.409,50.325,91.573,47.49,88.075,47.49C84.577,47.49,81.741,50.325,81.741,53.824L81.741,88.075C81.741,91.573,84.577,94.409,88.075,94.409C91.573,94.409,94.409,91.573,94.409,88.075Z"/>
  <path stroke-linejoin="round" stroke-width="1.5px" fill="#000000" stroke-linecap="round" points="12 2 20 7 4 7" stroke-opacity="1" stroke="none" fill-rule="nonzero" stroke-dasharray="none" fill-opacity="1" stroke-miterlimit="4" d="M55.36,15.157L94.504,39.623L97.861,27.917L19.572,27.917L22.929,39.623L62.074,15.157L55.36,15.157ZM62.074,4.415C60.02,3.131,57.414,3.131,55.36,4.415L16.215,28.88C10.819,32.253,13.208,40.585,19.572,40.585L97.861,40.585C104.225,40.585,106.615,32.253,101.218,28.88L62.074,4.415Z"/>
</g>
  <g id="Semibold-M" transform="matrix(1.0,0.0,0.0,1.0,1985.8333658854167,1032.0533854166667)">  <path stroke-miterlimit="4" x2="21" stroke-width="1.5px" y1="22" stroke-linejoin="round" stroke-linecap="round" y2="22" stroke-dasharray="none" stroke="none" stroke-opacity="1" fill="#000000" fill-rule="nonzero" x1="3" fill-opacity="1" d="M14.679,113.093L102.754,113.093C105.762,113.093,108.2,110.655,108.2,107.647C108.2,104.639,105.762,102.201,102.754,102.201L14.679,102.201C11.671,102.201,9.233,104.639,9.233,107.647C9.233,110.655,11.671,113.093,14.679,113.093Z"/>
  <path fill-opacity="1" fill-rule="nonzero" x1="6" stroke-dasharray="none" y2="11" stroke-miterlimit="4" y1="18" stroke-width="1.5px" fill="#000000" stroke-opacity="1" stroke-linecap="round" stroke-linejoin="round" x2="6" stroke="none" d="M34.804,88.075L34.804,53.824C34.804,50.816,32.366,48.378,29.358,48.378C26.351,48.378,23.912,50.816,23.912,53.824L23.912,88.075C23.912,91.083,26.351,93.521,29.358,93.521C32.366,93.521,34.804,91.083,34.804,88.075Z"/>
  <path stroke-opacity="1" fill="#000000" y1="18" fill-rule="nonzero" stroke-width="1.5px" stroke-linejoin="round" x2="10" stroke-miterlimit="4" x1="10" stroke-linecap="round" stroke-dasharray="none" stroke="none" fill-opacity="1" y2="11" d="M54.376,88.075L54.376,53.824C54.376,50.816,51.938,48.378,48.931,48.378C45.923,48.378,43.485,50.816,43.485,53.824L43.485,88.075C43.485,91.083,45.923,93.521,48.931,93.521C51.938,93.521,54.376,91.083,54.376,88.075Z"/>
  <path stroke-width="1.5px" stroke-miterlimit="4" x2="14" stroke-dasharray="none" y2="11" stroke-linecap="round" fill-opacity="1" fill-rule="nonzero" stroke-opacity="1" fill="#000000" x1="14" stroke-linejoin="round" stroke="none" y1="18" d="M73.949,88.075L73.949,53.824C73.949,50.816,71.51,48.378,68.503,48.378C65.495,48.378,63.057,50.816,63.057,53.824L63.057,88.075C63.057,91.083,65.495,93.521,68.503,93.521C71.51,93.521,73.949,91.083,73.949,88.075Z"/>
  <path stroke-linejoin="round" fill="#000000" stroke-miterlimit="4" x2="18" stroke-dasharray="none" stroke="none" stroke-linecap="round" x1="18" stroke-width="1.5px" fill-opacity="1" y1="18" fill-rule="nonzero" y2="11" stroke-opacity="1" d="M93.521,88.075L93.521,53.824C93.521,50.816,91.083,48.378,88.075,48.378C85.067,48.378,82.629,50.816,82.629,53.824L82.629,88.075C82.629,91.083,85.067,93.521,88.075,93.521C91.083,93.521,93.521,91.083,93.521,88.075Z"/>
  <path stroke-linecap="round" stroke-width="1.5px" stroke-miterlimit="4" stroke-dasharray="none" stroke-opacity="1" points="12 2 20 7 4 7" fill="#000000" fill-opacity="1" fill-rule="nonzero" stroke="none" stroke-linejoin="round" d="M55.83,14.404L94.975,38.87L97.861,28.805L19.572,28.805L22.459,38.87L61.603,14.404L55.83,14.404ZM61.603,5.168C59.837,4.064,57.596,4.064,55.83,5.168L16.686,29.633C12.046,32.533,14.101,39.697,19.572,39.697L97.861,39.697C103.333,39.697,105.387,32.533,100.747,29.633L61.603,5.168Z"/>
</g>
  <g id="Medium-M" transform="matrix(1.0,0.0,0.0,1.0,1689.1233658854167,1032.0533854166667)">  <path stroke-linecap="round" y1="22" stroke-dasharray="none" fill-opacity="1" stroke-opacity="1" y2="22" fill-rule="nonzero" stroke-miterlimit="4" stroke-linejoin="round" x2="21" fill="#000000" stroke="none" x1="3" stroke-width="1.5px" d="M14.679,112.205L102.754,112.205C105.271,112.205,107.312,110.164,107.312,107.647C107.312,105.13,105.271,103.089,102.754,103.089L14.679,103.089C12.162,103.089,10.121,105.13,10.121,107.647C10.121,110.164,12.162,112.205,14.679,112.205Z"/>
  <path y1="18" stroke-linejoin="round" fill-opacity="1" stroke-miterlimit="4" stroke-dasharray="none" stroke-opacity="1" stroke="none" stroke-linecap="round" stroke-width="1.5px" y2="11" x1="6" x2="6" fill="#000000" fill-rule="nonzero" d="M33.916,88.075L33.916,53.824C33.916,51.306,31.876,49.266,29.358,49.266C26.841,49.266,24.8,51.306,24.8,53.824L24.8,88.075C24.8,90.592,26.841,92.633,29.358,92.633C31.876,92.633,33.916,90.592,33.916,88.075Z"/>
  <path fill-opacity="1" y1="18" stroke-width="1.5px" stroke-miterlimit="4" y2="11" stroke-dasharray="none" x1="10" x2="10" fill="#000000" stroke-linecap="round" stroke-opacity="1" stroke-linejoin="round" stroke="none" fill-rule="nonzero" d="M53.488,88.075L53.488,53.824C53.488,51.306,51.448,49.266,48.931,49.266C46.413,49.266,44.373,51.306,44.373,53.824L44.373,88.075C44.373,90.592,46.413,92.633,48.931,92.633C51.448,92.633,53.488,90.592,53.488,88.075Z"/>
  <path stroke-linecap="round" stroke-miterlimit="4" y1="18" stroke-dasharray="none" stroke-linejoin="round" x2="14" stroke-width="1.5px" y2="11" fill="#000000" stroke="none" x1="14" fill-opacity="1" fill-rule="nonzero" stroke-opacity="1" d="M73.061,88.075L73.061,53.824C73.061,51.306,71.02,49.266,68.503,49.266C65.985,49.266,63.945,51.306,63.945,53.824L63.945,88.075C63.945,90.592,65.985,92.633,68.503,92.633C71.02,92.633,73.061,90.592,73.061,88.075Z"/>
  <path x1="18" stroke-linecap="round" x2="18" fill-rule="nonzero" y2="11" fill="#000000" fill-opacity="1" y1="18" stroke-opacity="1" stroke-width="1.5px" stroke-linejoin="round" stroke-dasharray="none" stroke="none" stroke-miterlimit="4" d="M92.633,88.075L92.633,53.824C92.633,51.306,90.592,49.266,88.075,49.266C85.558,49.266,83.517,51.306,83.517,53.824L83.517,88.075C83.517,90.592,85.558,92.633,88.075,92.633C90.592,92.633,92.633,90.592,92.633,88.075Z"/>
  <path stroke-linecap="round" stroke-dasharray="none" stroke="none" stroke-linejoin="round" fill-rule="nonzero" stroke-width="1.5px" fill="#000000" stroke-opacity="1" stroke-miterlimit="4" fill-opacity="1" points="12 2 20 7 4 7" d="M56.301,13.651L95.445,38.116L97.861,29.693L19.572,29.693L21.988,38.116L61.132,13.651L56.301,13.651ZM61.132,5.921C59.654,4.997,57.779,4.997,56.301,5.921L17.157,30.386C13.273,32.813,14.993,38.809,19.572,38.809L97.861,38.809C102.44,38.809,104.16,32.813,100.277,30.386L61.132,5.921Z"/>
</g>
  <g id="Regular-M" transform="matrix(1.0,0.0,0.0,1.0,1392.4133658854166,1032.0533854166667)">  <path stroke-opacity="1" stroke-dasharray="none" y2="22" y1="22" stroke-linejoin="round" fill="#000000" x2="21" fill-rule="nonzero" stroke-linecap="round" stroke-width="1.5px" stroke="none" fill-opacity="1" x1="3" stroke-miterlimit="4" d="M14.679,111.317L102.754,111.317C104.781,111.317,106.424,109.674,106.424,107.647C106.424,105.62,104.781,103.977,102.754,103.977L14.679,103.977C12.652,103.977,11.009,105.62,11.009,107.647C11.009,109.674,12.652,111.317,14.679,111.317Z"/>
  <path stroke-dasharray="none" y1="18" stroke-opacity="1" x1="6" fill="#000000" x2="6" fill-rule="nonzero" stroke-linecap="round" stroke-width="1.5px" y2="11" stroke-miterlimit="4" stroke="none" fill-opacity="1" stroke-linejoin="round" d="M33.028,88.075L33.028,53.824C33.028,51.797,31.385,50.154,29.358,50.154C27.332,50.154,25.689,51.797,25.689,53.824L25.689,88.075C25.689,90.102,27.332,91.745,29.358,91.745C31.385,91.745,33.028,90.102,33.028,88.075Z"/>
  <path fill="#000000" stroke-opacity="1" stroke-linejoin="round" y2="11" fill-opacity="1" stroke="none" stroke-dasharray="none" stroke-width="1.5px" fill-rule="nonzero" x1="10" stroke-miterlimit="4" y1="18" stroke-linecap="round" x2="10" d="M52.6,88.075L52.6,53.824C52.6,51.797,50.957,50.154,48.931,50.154C46.904,50.154,45.261,51.797,45.261,53.824L45.261,88.075C45.261,90.102,46.904,91.745,48.931,91.745C50.957,91.745,52.6,90.102,52.6,88.075Z"/>
  <path x2="14" stroke-opacity="1" y1="18" stroke-dasharray="none" fill-opacity="1" stroke-width="1.5px" fill="#000000" fill-rule="nonzero" stroke-linejoin="round" stroke-miterlimit="4" y2="11" stroke="none" x1="14" stroke-linecap="round" d="M72.173,88.075L72.173,53.824C72.173,51.797,70.53,50.154,68.503,50.154C66.476,50.154,64.833,51.797,64.833,53.824L64.833,88.075C64.833,90.102,66.476,91.745,68.503,91.745C70.53,91.745,72.173,90.102,72.173,88.075Z"/>
  <path stroke="none" x2="18" x1="18" stroke-dasharray="none" stroke-linecap="round" stroke-opacity="1" stroke-width="1.5px" stroke-miterlimit="4" fill-opacity="1" y1="18" y2="11" stroke-linejoin="round" fill="#000000" fill-rule="nonzero" d="M91.745,88.075L91.745,53.824C91.745,51.797,90.102,50.154,88.075,50.154C86.048,50.154,84.405,51.797,84.405,53.824L84.405,88.075C84.405,90.102,86.048,91.745,88.075,91.745C90.102,91.745,91.745,90.102,91.745,88.075Z"/>
  <path points="12 2 20 7 4 7" stroke-miterlimit="4" stroke-width="1.5px" stroke-opacity="1" fill="#000000" stroke-dasharray="none" stroke="none" stroke-linecap="round" fill-opacity="1" fill-rule="nonzero" stroke-linejoin="round" d="M56.772,12.898L95.916,37.363L97.861,30.582L19.572,30.582L21.517,37.363L60.662,12.898L56.772,12.898ZM60.662,6.674C59.472,5.93,57.962,5.93,56.772,6.674L17.627,31.139C14.501,33.094,15.885,37.921,19.572,37.921L97.861,37.921C101.548,37.921,102.933,33.094,99.806,31.139L60.662,6.674Z"/>
</g>
  <g id="Light-M" transform="matrix(1.0,0.0,0.0,1.0,1095.7033658854168,1032.0533854166667)">  <path x1="3" y2="22" stroke-linecap="round" fill-opacity="1" x2="21" fill-rule="nonzero" stroke-dasharray="none" stroke-opacity="1" y1="22" stroke-linejoin="round" stroke-miterlimit="4" fill="#000000" stroke="none" stroke-width="1.5px" d="M14.679,110.705L102.754,110.705C104.443,110.705,105.812,109.336,105.812,107.647C105.812,105.958,104.443,104.589,102.754,104.589L14.679,104.589C12.99,104.589,11.621,105.958,11.621,107.647C11.621,109.336,12.99,110.705,14.679,110.705Z"/>
  <path fill="#000000" y2="11" stroke-width="1.5px" stroke-linejoin="round" x2="6" stroke-dasharray="none" stroke-linecap="round" x1="6" stroke-miterlimit="4" stroke-opacity="1" stroke="none" y1="18" fill-opacity="1" fill-rule="nonzero" d="M32.416,88.075L32.416,53.824C32.416,52.135,31.047,50.765,29.358,50.765C27.669,50.765,26.3,52.135,26.3,53.824L26.3,88.075C26.3,89.764,27.669,91.133,29.358,91.133C31.047,91.133,32.416,89.764,32.416,88.075Z"/>
  <path stroke-width="1.5px" y1="18" fill-rule="nonzero" stroke-linejoin="round" fill="#000000" y2="11" stroke="none" fill-opacity="1" x2="10" stroke-opacity="1" stroke-linecap="round" x1="10" stroke-miterlimit="4" stroke-dasharray="none" d="M51.989,88.075L51.989,53.824C51.989,52.135,50.62,50.765,48.931,50.765C47.242,50.765,45.872,52.135,45.872,53.824L45.872,88.075C45.872,89.764,47.242,91.133,48.931,91.133C50.62,91.133,51.989,89.764,51.989,88.075Z"/>
  <path y1="18" x1="14" fill-rule="nonzero" x2="14" stroke="none" stroke-miterlimit="4" y2="11" stroke-linejoin="round" fill-opacity="1" stroke-opacity="1" stroke-dasharray="none" stroke-width="1.5px" fill="#000000" stroke-linecap="round" d="M71.561,88.075L71.561,53.824C71.561,52.135,70.192,50.765,68.503,50.765C66.814,50.765,65.445,52.135,65.445,53.824L65.445,88.075C65.445,89.764,66.814,91.133,68.503,91.133C70.192,91.133,71.561,89.764,71.561,88.075Z"/>
  <path fill-opacity="1" stroke-width="1.5px" y2="11" stroke="none" y1="18" stroke-linecap="round" stroke-dasharray="none" stroke-opacity="1" x2="18" stroke-miterlimit="4" stroke-linejoin="round" fill-rule="nonzero" x1="18" fill="#000000" d="M91.133,88.075L91.133,53.824C91.133,52.135,89.764,50.765,88.075,50.765C86.386,50.765,85.017,52.135,85.017,53.824L85.017,88.075C85.017,89.764,86.386,91.133,88.075,91.133C89.764,91.133,91.133,89.764,91.133,88.075Z"/>
  <path fill="#000000" fill-opacity="1" fill-rule="nonzero" stroke-opacity="1" stroke-width="1.5px" stroke-linejoin="round" stroke-miterlimit="4" stroke="none" points="12 2 20 7 4 7" stroke-dasharray="none" stroke-linecap="round" d="M57.096,12.379L96.24,36.845L97.861,31.193L19.572,31.193L21.193,36.845L60.337,12.379L57.096,12.379ZM60.337,7.193C59.346,6.573,58.087,6.573,57.096,7.193L17.951,31.658C15.346,33.286,16.5,37.31,19.572,37.31L97.861,37.31C100.934,37.31,102.087,33.286,99.482,31.658L60.337,7.193Z"/>
</g>
  <g id="Thin-M" transform="matrix(1.0,0.0,0.0,1.0,798.9933658854167,1032.0533854166667)">  <path fill-rule="nonzero" stroke-opacity="1" stroke-width="1.5px" y2="22" stroke-linecap="round" stroke-miterlimit="4" stroke-dasharray="none" stroke="none" fill="#000000" fill-opacity="1" y1="22" x1="3" x2="21" stroke-linejoin="round" d="M14.679,110.094L102.754,110.094C104.105,110.094,105.201,108.998,105.201,107.647C105.201,106.296,104.105,105.201,102.754,105.201L14.679,105.201C13.328,105.201,12.233,106.296,12.233,107.647C12.233,108.998,13.328,110.094,14.679,110.094Z"/>
  <path fill="#000000" x2="6" stroke-width="1.5px" stroke-opacity="1" y1="18" stroke-linejoin="round" stroke-miterlimit="4" x1="6" fill-rule="nonzero" fill-opacity="1" stroke-linecap="round" stroke-dasharray="none" y2="11" stroke="none" d="M31.805,88.075L31.805,53.824C31.805,52.472,30.709,51.377,29.358,51.377C28.007,51.377,26.912,52.472,26.912,53.824L26.912,88.075C26.912,89.426,28.007,90.521,29.358,90.521C30.709,90.521,31.805,89.426,31.805,88.075Z"/>
  <path fill-opacity="1" x2="10" y1="18" stroke-dasharray="none" y2="11" stroke-linecap="round" fill="#000000" fill-rule="nonzero" stroke-opacity="1" stroke-miterlimit="4" stroke-width="1.5px" stroke-linejoin="round" x1="10" stroke="none" d="M51.377,88.075L51.377,53.824C51.377,52.472,50.282,51.377,48.931,51.377C47.579,51.377,46.484,52.472,46.484,53.824L46.484,88.075C46.484,89.426,47.579,90.521,48.931,90.521C50.282,90.521,51.377,89.426,51.377,88.075Z"/>
  <path y2="11" stroke-width="1.5px" fill-opacity="1" fill="#000000" stroke-dasharray="none" x1="14" stroke-linecap="round" fill-rule="nonzero" y1="18" stroke-linejoin="round" x2="14" stroke="none" stroke-miterlimit="4" stroke-opacity="1" d="M70.949,88.075L70.949,53.824C70.949,52.472,69.854,51.377,68.503,51.377C67.152,51.377,66.056,52.472,66.056,53.824L66.056,88.075C66.056,89.426,67.152,90.521,68.503,90.521C69.854,90.521,70.949,89.426,70.949,88.075Z"/>
  <path stroke-opacity="1" stroke-linejoin="round" x2="18" fill-rule="nonzero" stroke-width="1.5px" fill="#000000" stroke="none" stroke-dasharray="none" stroke-linecap="round" x1="18" y2="11" fill-opacity="1" y1="18" stroke-miterlimit="4" d="M90.521,88.075L90.521,53.824C90.521,52.472,89.426,51.377,88.075,51.377C86.724,51.377,85.628,52.472,85.628,53.824L85.628,88.075C85.628,89.426,86.724,90.521,88.075,90.521C89.426,90.521,90.521,89.426,90.521,88.075Z"/>
  <path stroke-linejoin="round" stroke-miterlimit="4" stroke-linecap="round" stroke-dasharray="none" fill-rule="nonzero" fill-opacity="1" fill="#000000" stroke-width="1.5px" points="12 2 20 7 4 7" stroke-opacity="1" stroke="none" d="M57.42,11.861L96.564,36.326L97.861,31.805L19.572,31.805L20.869,36.326L60.013,11.861L57.42,11.861ZM60.013,7.711C59.22,7.216,58.213,7.216,57.42,7.711L18.276,32.177C16.191,33.479,17.114,36.698,19.572,36.698L97.861,36.698C100.319,36.698,101.242,33.479,99.158,32.177L60.013,7.711Z"/>
</g>
  <g id="Ultralight-M" transform="matrix(1.0,0.0,0.0,1.0,502.2833658854167,1032.0533854166667)">  <path fill-rule="nonzero" fill-opacity="1" y1="22" stroke-dasharray="none" stroke-miterlimit="4" stroke-width="1.5px" y2="22" stroke-opacity="1" x1="3" fill="#000000" x2="21" stroke-linejoin="round" stroke-linecap="round" stroke="none" d="M14.679,109.482L102.754,109.482C103.767,109.482,104.589,108.661,104.589,107.647C104.589,106.634,103.767,105.812,102.754,105.812L14.679,105.812C13.666,105.812,12.844,106.634,12.844,107.647C12.844,108.661,13.666,109.482,14.679,109.482Z"/>
  <path stroke-width="1.5px" x2="6" stroke-dasharray="none" y1="18" y2="11" fill="#000000" stroke="none" fill-opacity="1" x1="6" stroke-linejoin="round" stroke-linecap="round" fill-rule="nonzero" stroke-miterlimit="4" stroke-opacity="1" d="M31.193,88.075L31.193,53.824C31.193,52.81,30.372,51.989,29.358,51.989C28.345,51.989,27.523,52.81,27.523,53.824L27.523,88.075C27.523,89.088,28.345,89.91,29.358,89.91C30.372,89.91,31.193,89.088,31.193,88.075Z"/>
  <path x1="10" stroke-width="1.5px" fill-opacity="1" stroke-dasharray="none" stroke-miterlimit="4" x2="10" stroke-linecap="round" stroke="none" stroke-opacity="1" y2="11" stroke-linejoin="round" y1="18" fill="#000000" fill-rule="nonzero" d="M50.765,88.075L50.765,53.824C50.765,52.81,49.944,51.989,48.931,51.989C47.917,51.989,47.096,52.81,47.096,53.824L47.096,88.075C47.096,89.088,47.917,89.91,48.931,89.91C49.944,89.91,50.765,89.088,50.765,88.075Z"/>
  <path y2="11" y1="18" fill="#000000" stroke-dasharray="none" stroke-width="1.5px" stroke-opacity="1" stroke-linejoin="round" stroke-linecap="round" x2="14" stroke="none" fill-opacity="1" stroke-miterlimit="4" fill-rule="nonzero" x1="14" d="M70.338,88.075L70.338,53.824C70.338,52.81,69.516,51.989,68.503,51.989C67.489,51.989,66.668,52.81,66.668,53.824L66.668,88.075C66.668,89.088,67.489,89.91,68.503,89.91C69.516,89.91,70.338,89.088,70.338,88.075Z"/>
  <path y1="18" fill-rule="nonzero" fill-opacity="1" stroke-miterlimit="4" stroke-dasharray="none" fill="#000000" x2="18" stroke="none" y2="11" stroke-linecap="round" stroke-linejoin="round" x1="18" stroke-width="1.5px" stroke-opacity="1" d="M89.91,88.075L89.91,53.824C89.91,52.81,89.088,51.989,88.075,51.989C87.062,51.989,86.24,52.81,86.24,53.824L86.24,88.075C86.24,89.088,87.062,89.91,88.075,89.91C89.088,89.91,89.91,89.088,89.91,88.075Z"/>
  <path fill-rule="nonzero" stroke="none" stroke-dasharray="none" stroke-linejoin="round" fill="#000000" stroke-opacity="1" stroke-width="1.5px" fill-opacity="1" points="12 2 20 7 4 7" stroke-linecap="round" stroke-miterlimit="4" d="M57.744,11.342L96.889,35.807L97.861,32.416L19.572,32.416L20.545,35.807L59.689,11.342L57.744,11.342ZM59.689,8.23C59.094,7.858,58.339,7.858,57.744,8.23L18.6,32.695C17.036,33.672,17.729,36.086,19.572,36.086L97.861,36.086C99.705,36.086,100.397,33.672,98.834,32.695L59.689,8.23Z"/>
</g>
  <g id="Black-S" transform="matrix(1.0,0.0,0.0,1.0,2888.7048754882812,614.7948950195313)">  <path stroke-dasharray="none" fill="#000000" stroke-linejoin="round" stroke-width="1.5px" fill-rule="nonzero" fill-opacity="1" x2="21" stroke-linecap="round" y1="22" stroke-miterlimit="4" y2="22" stroke="none" stroke-opacity="1" x1="3" d="M11.494,90.638L80.456,90.638C83.964,90.638,86.807,87.795,86.807,84.288C86.807,80.781,83.964,77.937,80.456,77.937L11.494,77.937C7.987,77.937,5.143,80.781,5.143,84.288C5.143,87.795,7.987,90.638,11.494,90.638Z"/>
  <path stroke-linejoin="round" stroke-width="1.5px" fill-rule="nonzero" stroke-miterlimit="4" x2="6" fill="#000000" stroke-dasharray="none" stroke-linecap="round" stroke="none" fill-opacity="1" stroke-opacity="1" y1="18" y2="11" x1="6" d="M29.338,68.963L29.338,42.144C29.338,38.637,26.495,35.794,22.988,35.794C19.48,35.794,16.637,38.637,16.637,42.144L16.637,68.963C16.637,72.47,19.48,75.313,22.988,75.313C26.495,75.313,29.338,72.47,29.338,68.963Z"/>
  <path y1="18" fill-opacity="1" stroke="none" fill-rule="nonzero" x1="10" stroke-opacity="1" stroke-miterlimit="4" stroke-linecap="round" y2="11" x2="10" fill="#000000" stroke-linejoin="round" stroke-width="1.5px" stroke-dasharray="none" d="M44.663,68.963L44.663,42.144C44.663,38.637,41.82,35.794,38.313,35.794C34.805,35.794,31.962,38.637,31.962,42.144L31.962,68.963C31.962,72.47,34.805,75.313,38.313,75.313C41.82,75.313,44.663,72.47,44.663,68.963Z"/>
  <path stroke-linejoin="round" stroke-opacity="1" x1="14" stroke-miterlimit="4" stroke-linecap="round" stroke-width="1.5px" stroke="none" fill="#000000" x2="14" y2="11" fill-rule="nonzero" y1="18" fill-opacity="1" stroke-dasharray="none" d="M59.988,68.963L59.988,42.144C59.988,38.637,57.145,35.794,53.638,35.794C50.13,35.794,47.287,38.637,47.287,42.144L47.287,68.963C47.287,72.47,50.13,75.313,53.638,75.313C57.145,75.313,59.988,72.47,59.988,68.963Z"/>
  <path stroke-dasharray="none" fill-opacity="1" fill-rule="nonzero" y2="11" stroke-miterlimit="4" stroke="none" fill="#000000" y1="18" stroke-linecap="round" x2="18" x1="18" stroke-linejoin="round" stroke-opacity="1" stroke-width="1.5px" d="M75.313,68.963L75.313,42.144C75.313,38.637,72.47,35.794,68.963,35.794C65.456,35.794,62.612,38.637,62.612,42.144L62.612,68.963C62.612,72.47,65.456,75.313,68.963,75.313C72.47,75.313,75.313,72.47,75.313,68.963Z"/>
  <path stroke-linejoin="round" fill-opacity="1" stroke-miterlimit="4" stroke-linecap="round" stroke="none" fill="#000000" points="12 2 20 7 4 7" stroke-opacity="1" stroke-dasharray="none" stroke-width="1.5px" fill-rule="nonzero" d="M42.609,13.048L73.26,32.204L76.625,20.469L15.325,20.469L18.691,32.204L49.341,13.048L42.609,13.048ZM49.341,2.277C47.282,0.99,44.669,0.99,42.609,2.277L11.959,21.434C6.549,24.815,8.945,33.169,15.325,33.169L76.625,33.169C83.005,33.169,85.401,24.815,79.991,21.434L49.341,2.277Z"/>
</g>
  <g id="Heavy-S" transform="matrix(1.0,0.0,0.0,1.0,2591.994875488281,614.7948950195313)">  <path y2="22" stroke-opacity="1" stroke-linecap="round" y1="22" fill-rule="nonzero" fill-opacity="1" x2="21" stroke-dasharray="none" x1="3" stroke-width="1.5px" stroke-miterlimit="4" stroke-linejoin="round" fill="#000000" stroke="none" d="M11.494,89.943L80.456,89.943C83.58,89.943,86.111,87.411,86.111,84.288C86.111,81.165,83.58,78.633,80.456,78.633L11.494,78.633C8.371,78.633,5.839,81.165,5.839,84.288C5.839,87.411,8.371,89.943,11.494,89.943Z"/>
  <path stroke-opacity="1" stroke-miterlimit="4" stroke="none" fill-rule="nonzero" fill-opacity="1" x2="6" stroke-linejoin="round" fill="#000000" y2="11" stroke-width="1.5px" stroke-linecap="round" y1="18" x1="6" stroke-dasharray="none" d="M28.643,68.963L28.643,42.144C28.643,39.021,26.111,36.489,22.988,36.489C19.864,36.489,17.333,39.021,17.333,42.144L17.333,68.963C17.333,72.086,19.864,74.618,22.988,74.618C26.111,74.618,28.643,72.086,28.643,68.963Z"/>
  <path stroke-linecap="round" stroke-width="1.5px" stroke="none" y2="11" x1="10" stroke-linejoin="round" stroke-dasharray="none" stroke-opacity="1" fill="#000000" fill-rule="nonzero" x2="10" fill-opacity="1" stroke-miterlimit="4" y1="18" d="M43.968,68.963L43.968,42.144C43.968,39.021,41.436,36.489,38.313,36.489C35.189,36.489,32.658,39.021,32.658,42.144L32.658,68.963C32.658,72.086,35.189,74.618,38.313,74.618C41.436,74.618,43.968,72.086,43.968,68.963Z"/>
  <path x2="14" fill="#000000" stroke-opacity="1" y1="18" stroke-miterlimit="4" fill-opacity="1" y2="11" stroke-dasharray="none" fill-rule="nonzero" stroke="none" stroke-width="1.5px" stroke-linejoin="round" x1="14" stroke-linecap="round" d="M59.293,68.963L59.293,42.144C59.293,39.021,56.761,36.489,53.638,36.489C50.515,36.489,47.983,39.021,47.983,42.144L47.983,68.963C47.983,72.086,50.515,74.618,53.638,74.618C56.761,74.618,59.293,72.086,59.293,68.963Z"/>
  <path x1="18" stroke-opacity="1" stroke-dasharray="none" y1="18" fill-opacity="1" x2="18" stroke-linejoin="round" fill="#000000" stroke-width="1.5px" stroke-linecap="round" fill-rule="nonzero" stroke="none" stroke-miterlimit="4" y2="11" d="M74.618,68.963L74.618,42.144C74.618,39.021,72.086,36.489,68.963,36.489C65.84,36.489,63.308,39.021,63.308,42.144L63.308,68.963C63.308,72.086,65.84,74.618,68.963,74.618C72.086,74.618,74.618,72.086,74.618,68.963Z"/>
  <path stroke-linejoin="round" fill="#000000" stroke-linecap="round" stroke="none" stroke-width="1.5px" fill-opacity="1" stroke-opacity="1" stroke-miterlimit="4" points="12 2 20 7 4 7" stroke-dasharray="none" fill-rule="nonzero" d="M42.978,12.458L73.628,31.614L76.625,21.164L15.325,21.164L18.322,31.614L48.972,12.458L42.978,12.458ZM48.972,2.867C47.139,1.721,44.812,1.721,42.978,2.867L12.328,22.023C7.51,25.035,9.644,32.474,15.325,32.474L76.625,32.474C82.307,32.474,84.44,25.035,79.622,22.023L48.972,2.867Z"/>
</g>
  <g id="Bold-S" transform="matrix(1.0,0.0,0.0,1.0,2295.284875488281,614.7948950195313)">  <path x2="21" y2="22" fill-opacity="1" stroke-miterlimit="4" x1="3" stroke-linecap="round" y1="22" stroke-opacity="1" fill="#000000" stroke="none" stroke-dasharray="none" fill-rule="nonzero" stroke-linejoin="round" stroke-width="1.5px" d="M11.494,89.247L80.456,89.247C83.196,89.247,85.416,87.027,85.416,84.288C85.416,81.549,83.196,79.328,80.456,79.328L11.494,79.328C8.755,79.328,6.534,81.549,6.534,84.288C6.534,87.027,8.755,89.247,11.494,89.247Z"/>
  <path fill="#000000" x2="6" stroke-linecap="round" stroke="none" x1="6" stroke-miterlimit="4" y2="11" stroke-width="1.5px" stroke-linejoin="round" fill-rule="nonzero" stroke-dasharray="none" y1="18" stroke-opacity="1" fill-opacity="1" d="M27.947,68.963L27.947,42.144C27.947,39.405,25.727,37.184,22.988,37.184C20.248,37.184,18.028,39.405,18.028,42.144L18.028,68.963C18.028,71.702,20.248,73.922,22.988,73.922C25.727,73.922,27.947,71.702,27.947,68.963Z"/>
  <path stroke-dasharray="none" stroke-linecap="round" stroke-width="1.5px" stroke="none" fill="#000000" y2="11" fill-opacity="1" stroke-miterlimit="4" x1="10" x2="10" y1="18" fill-rule="nonzero" stroke-linejoin="round" stroke-opacity="1" d="M43.272,68.963L43.272,42.144C43.272,39.405,41.052,37.184,38.313,37.184C35.574,37.184,33.353,39.405,33.353,42.144L33.353,68.963C33.353,71.702,35.574,73.922,38.313,73.922C41.052,73.922,43.272,71.702,43.272,68.963Z"/>
  <path x2="14" stroke-dasharray="none" stroke="none" stroke-opacity="1" fill-opacity="1" x1="14" stroke-linecap="round" fill-rule="nonzero" fill="#000000" y2="11" y1="18" stroke-linejoin="round" stroke-miterlimit="4" stroke-width="1.5px" d="M58.597,68.963L58.597,42.144C58.597,39.405,56.377,37.184,53.638,37.184C50.899,37.184,48.678,39.405,48.678,42.144L48.678,68.963C48.678,71.702,50.899,73.922,53.638,73.922C56.377,73.922,58.597,71.702,58.597,68.963Z"/>
  <path fill="#000000" stroke="none" stroke-dasharray="none" fill-opacity="1" y1="18" fill-rule="nonzero" x2="18" x1="18" y2="11" stroke-miterlimit="4" stroke-width="1.5px" stroke-opacity="1" stroke-linecap="round" stroke-linejoin="round" d="M73.922,68.963L73.922,42.144C73.922,39.405,71.702,37.184,68.963,37.184C66.224,37.184,64.003,39.405,64.003,42.144L64.003,68.963C64.003,71.702,66.224,73.922,68.963,73.922C71.702,73.922,73.922,71.702,73.922,68.963Z"/>
  <path stroke-linejoin="round" stroke-width="1.5px" fill="#000000" stroke-linecap="round" points="12 2 20 7 4 7" stroke-opacity="1" stroke="none" fill-rule="nonzero" stroke-dasharray="none" fill-opacity="1" stroke-miterlimit="4" d="M43.347,11.868L73.997,31.025L76.625,21.859L15.325,21.859L17.954,31.025L48.604,11.868L43.347,11.868ZM48.604,3.457C46.995,2.452,44.955,2.452,43.347,3.457L12.696,22.613C8.471,25.254,10.342,31.778,15.325,31.778L76.625,31.778C81.608,31.778,83.479,25.254,79.254,22.613L48.604,3.457Z"/>
</g>
  <g id="Semibold-S" transform="matrix(1.0,0.0,0.0,1.0,1998.5748754882811,614.7948950195313)">  <path stroke-miterlimit="4" x2="21" stroke-width="1.5px" y1="22" stroke-linejoin="round" stroke-linecap="round" y2="22" stroke-dasharray="none" stroke="none" stroke-opacity="1" fill="#000000" fill-rule="nonzero" x1="3" fill-opacity="1" d="M11.494,88.552L80.456,88.552C82.812,88.552,84.721,86.643,84.721,84.288C84.721,81.933,82.812,80.024,80.456,80.024L11.494,80.024C9.139,80.024,7.23,81.933,7.23,84.288C7.23,86.643,9.139,88.552,11.494,88.552Z"/>
  <path fill-opacity="1" fill-rule="nonzero" x1="6" stroke-dasharray="none" y2="11" stroke-miterlimit="4" y1="18" stroke-width="1.5px" fill="#000000" stroke-opacity="1" stroke-linecap="round" stroke-linejoin="round" x2="6" stroke="none" d="M27.252,68.963L27.252,42.144C27.252,39.789,25.343,37.88,22.988,37.88C20.633,37.88,18.723,39.789,18.723,42.144L18.723,68.963C18.723,71.318,20.633,73.227,22.988,73.227C25.343,73.227,27.252,71.318,27.252,68.963Z"/>
  <path stroke-opacity="1" fill="#000000" y1="18" fill-rule="nonzero" stroke-width="1.5px" stroke-linejoin="round" x2="10" stroke-miterlimit="4" x1="10" stroke-linecap="round" stroke-dasharray="none" stroke="none" fill-opacity="1" y2="11" d="M42.577,68.963L42.577,42.144C42.577,39.789,40.668,37.88,38.313,37.88C35.958,37.88,34.048,39.789,34.048,42.144L34.048,68.963C34.048,71.318,35.958,73.227,38.313,73.227C40.668,73.227,42.577,71.318,42.577,68.963Z"/>
  <path stroke-width="1.5px" stroke-miterlimit="4" x2="14" stroke-dasharray="none" y2="11" stroke-linecap="round" fill-opacity="1" fill-rule="nonzero" stroke-opacity="1" fill="#000000" x1="14" stroke-linejoin="round" stroke="none" y1="18" d="M57.902,68.963L57.902,42.144C57.902,39.789,55.993,37.88,53.638,37.88C51.283,37.88,49.373,39.789,49.373,42.144L49.373,68.963C49.373,71.318,51.283,73.227,53.638,73.227C55.993,73.227,57.902,71.318,57.902,68.963Z"/>
  <path stroke-linejoin="round" fill="#000000" stroke-miterlimit="4" x2="18" stroke-dasharray="none" stroke="none" stroke-linecap="round" x1="18" stroke-width="1.5px" fill-opacity="1" y1="18" fill-rule="nonzero" y2="11" stroke-opacity="1" d="M73.227,68.963L73.227,42.144C73.227,39.789,71.318,37.88,68.963,37.88C66.608,37.88,64.698,39.789,64.698,42.144L64.698,68.963C64.698,71.318,66.608,73.227,68.963,73.227C71.318,73.227,73.227,71.318,73.227,68.963Z"/>
  <path stroke-linecap="round" stroke-width="1.5px" stroke-miterlimit="4" stroke-dasharray="none" stroke-opacity="1" points="12 2 20 7 4 7" fill="#000000" fill-opacity="1" fill-rule="nonzero" stroke="none" stroke-linejoin="round" d="M43.715,11.279L74.365,30.435L76.625,22.555L15.325,22.555L17.585,30.435L48.235,11.279L43.715,11.279ZM48.235,4.046C46.852,3.182,45.098,3.182,43.715,4.046L13.065,23.203C9.432,25.473,11.041,31.083,15.325,31.083L76.625,31.083C80.909,31.083,82.518,25.473,78.885,23.203L48.235,4.046Z"/>
</g>
  <g id="Medium-S" transform="matrix(1.0,0.0,0.0,1.0,1701.864875488281,614.7948950195313)">  <path stroke-linecap="round" y1="22" stroke-dasharray="none" fill-opacity="1" stroke-opacity="1" y2="22" fill-rule="nonzero" stroke-miterlimit="4" stroke-linejoin="round" x2="21" fill="#000000" stroke="none" x1="3" stroke-width="1.5px" d="M11.494,87.857L80.456,87.857C82.427,87.857,84.025,86.259,84.025,84.288C84.025,82.317,82.427,80.719,80.456,80.719L11.494,80.719C9.523,80.719,7.925,82.317,7.925,84.288C7.925,86.259,9.523,87.857,11.494,87.857Z"/>
  <path y1="18" stroke-linejoin="round" fill-opacity="1" stroke-miterlimit="4" stroke-dasharray="none" stroke-opacity="1" stroke="none" stroke-linecap="round" stroke-width="1.5px" y2="11" x1="6" x2="6" fill="#000000" fill-rule="nonzero" d="M26.556,68.963L26.556,42.144C26.556,40.173,24.959,38.575,22.988,38.575C21.017,38.575,19.419,40.173,19.419,42.144L19.419,68.963C19.419,70.934,21.017,72.532,22.988,72.532C24.959,72.532,26.556,70.934,26.556,68.963Z"/>
  <path fill-opacity="1" y1="18" stroke-width="1.5px" stroke-miterlimit="4" y2="11" stroke-dasharray="none" x1="10" x2="10" fill="#000000" stroke-linecap="round" stroke-opacity="1" stroke-linejoin="round" stroke="none" fill-rule="nonzero" d="M41.881,68.963L41.881,42.144C41.881,40.173,40.284,38.575,38.313,38.575C36.342,38.575,34.744,40.173,34.744,42.144L34.744,68.963C34.744,70.934,36.342,72.532,38.313,72.532C40.284,72.532,41.881,70.934,41.881,68.963Z"/>
  <path stroke-linecap="round" stroke-miterlimit="4" y1="18" stroke-dasharray="none" stroke-linejoin="round" x2="14" stroke-width="1.5px" y2="11" fill="#000000" stroke="none" x1="14" fill-opacity="1" fill-rule="nonzero" stroke-opacity="1" d="M57.206,68.963L57.206,42.144C57.206,40.173,55.609,38.575,53.638,38.575C51.667,38.575,50.069,40.173,50.069,42.144L50.069,68.963C50.069,70.934,51.667,72.532,53.638,72.532C55.609,72.532,57.206,70.934,57.206,68.963Z"/>
  <path x1="18" stroke-linecap="round" x2="18" fill-rule="nonzero" y2="11" fill="#000000" fill-opacity="1" y1="18" stroke-opacity="1" stroke-width="1.5px" stroke-linejoin="round" stroke-dasharray="none" stroke="none" stroke-miterlimit="4" d="M72.532,68.963L72.532,42.144C72.532,40.173,70.934,38.575,68.963,38.575C66.992,38.575,65.394,40.173,65.394,42.144L65.394,68.963C65.394,70.934,66.992,72.532,68.963,72.532C70.934,72.532,72.532,70.934,72.532,68.963Z"/>
  <path stroke-linecap="round" stroke-dasharray="none" stroke="none" stroke-linejoin="round" fill-rule="nonzero" stroke-width="1.5px" fill="#000000" stroke-opacity="1" stroke-miterlimit="4" fill-opacity="1" points="12 2 20 7 4 7" d="M44.084,10.689L74.734,29.845L76.625,23.25L15.325,23.25L17.217,29.845L47.867,10.689L44.084,10.689ZM47.867,4.636C46.709,3.913,45.241,3.913,44.084,4.636L13.434,23.792C10.393,25.693,11.739,30.388,15.325,30.388L76.625,30.388C80.211,30.388,81.557,25.693,78.517,23.792L47.867,4.636Z"/>
</g>
  <g id="Regular-S" transform="matrix(1.0,0.0,0.0,1.0,1405.154875488281,614.7948950195313)">  <path stroke-opacity="1" stroke-dasharray="none" y2="22" y1="22" stroke-linejoin="round" fill="#000000" x2="21" fill-rule="nonzero" stroke-linecap="round" stroke-width="1.5px" stroke="none" fill-opacity="1" x1="3" stroke-miterlimit="4" d="M11.494,87.161L80.456,87.161C82.043,87.161,83.33,85.875,83.33,84.288C83.33,82.701,82.043,81.414,80.456,81.414L11.494,81.414C9.907,81.414,8.62,82.701,8.62,84.288C8.62,85.875,9.907,87.161,11.494,87.161Z"/>
  <path stroke-dasharray="none" y1="18" stroke-opacity="1" x1="6" fill="#000000" x2="6" fill-rule="nonzero" stroke-linecap="round" stroke-width="1.5px" y2="11" stroke-miterlimit="4" stroke="none" fill-opacity="1" stroke-linejoin="round" d="M25.861,68.963L25.861,42.144C25.861,40.557,24.575,39.27,22.988,39.27C21.401,39.27,20.114,40.557,20.114,42.144L20.114,68.963C20.114,70.55,21.401,71.836,22.988,71.836C24.575,71.836,25.861,70.55,25.861,68.963Z"/>
  <path fill="#000000" stroke-opacity="1" stroke-linejoin="round" y2="11" fill-opacity="1" stroke="none" stroke-dasharray="none" stroke-width="1.5px" fill-rule="nonzero" x1="10" stroke-miterlimit="4" y1="18" stroke-linecap="round" x2="10" d="M41.186,68.963L41.186,42.144C41.186,40.557,39.9,39.27,38.313,39.27C36.726,39.27,35.439,40.557,35.439,42.144L35.439,68.963C35.439,70.55,36.726,71.836,38.313,71.836C39.9,71.836,41.186,70.55,41.186,68.963Z"/>
  <path x2="14" stroke-opacity="1" y1="18" stroke-dasharray="none" fill-opacity="1" stroke-width="1.5px" fill="#000000" fill-rule="nonzero" stroke-linejoin="round" stroke-miterlimit="4" y2="11" stroke="none" x1="14" stroke-linecap="round" d="M56.511,68.963L56.511,42.144C56.511,40.557,55.225,39.27,53.638,39.27C52.051,39.27,50.764,40.557,50.764,42.144L50.764,68.963C50.764,70.55,52.051,71.836,53.638,71.836C55.225,71.836,56.511,70.55,56.511,68.963Z"/>
  <path stroke="none" x2="18" x1="18" stroke-dasharray="none" stroke-linecap="round" stroke-opacity="1" stroke-width="1.5px" stroke-miterlimit="4" fill-opacity="1" y1="18" y2="11" stroke-linejoin="round" fill="#000000" fill-rule="nonzero" d="M71.836,68.963L71.836,42.144C71.836,40.557,70.55,39.27,68.963,39.27C67.376,39.27,66.089,40.557,66.089,42.144L66.089,68.963C66.089,70.55,67.376,71.836,68.963,71.836C70.55,71.836,71.836,70.55,71.836,68.963Z"/>
  <path points="12 2 20 7 4 7" stroke-miterlimit="4" stroke-width="1.5px" stroke-opacity="1" fill="#000000" stroke-dasharray="none" stroke="none" stroke-linecap="round" fill-opacity="1" fill-rule="nonzero" stroke-linejoin="round" d="M44.452,10.099L75.102,29.255L76.625,23.945L15.325,23.945L16.848,29.255L47.498,10.099L44.452,10.099ZM47.498,5.226C46.566,4.643,45.384,4.643,44.452,5.226L13.802,24.382C11.354,25.912,12.438,29.692,15.325,29.692L76.625,29.692C79.512,29.692,80.596,25.912,78.148,24.382L47.498,5.226Z"/>
</g>
  <g id="Light-S" transform="matrix(1.0,0.0,0.0,1.0,1108.4448754882812,614.7948950195313)">  <path x1="3" y2="22" stroke-linecap="round" fill-opacity="1" x2="21" fill-rule="nonzero" stroke-dasharray="none" stroke-opacity="1" y1="22" stroke-linejoin="round" stroke-miterlimit="4" fill="#000000" stroke="none" stroke-width="1.5px" d="M11.494,86.682L80.456,86.682C81.779,86.682,82.851,85.61,82.851,84.288C82.851,82.965,81.779,81.893,80.456,81.893L11.494,81.893C10.171,81.893,9.099,82.965,9.099,84.288C9.099,85.61,10.171,86.682,11.494,86.682Z"/>
  <path fill="#000000" y2="11" stroke-width="1.5px" stroke-linejoin="round" x2="6" stroke-dasharray="none" stroke-linecap="round" x1="6" stroke-miterlimit="4" stroke-opacity="1" stroke="none" y1="18" fill-opacity="1" fill-rule="nonzero" d="M25.382,68.963L25.382,42.144C25.382,40.821,24.31,39.749,22.988,39.749C21.665,39.749,20.593,40.821,20.593,42.144L20.593,68.963C20.593,70.285,21.665,71.357,22.988,71.357C24.31,71.357,25.382,70.285,25.382,68.963Z"/>
  <path stroke-width="1.5px" y1="18" fill-rule="nonzero" stroke-linejoin="round" fill="#000000" y2="11" stroke="none" fill-opacity="1" x2="10" stroke-opacity="1" stroke-linecap="round" x1="10" stroke-miterlimit="4" stroke-dasharray="none" d="M40.707,68.963L40.707,42.144C40.707,40.821,39.635,39.749,38.313,39.749C36.99,39.749,35.918,40.821,35.918,42.144L35.918,68.963C35.918,70.285,36.99,71.357,38.313,71.357C39.635,71.357,40.707,70.285,40.707,68.963Z"/>
  <path y1="18" x1="14" fill-rule="nonzero" x2="14" stroke="none" stroke-miterlimit="4" y2="11" stroke-linejoin="round" fill-opacity="1" stroke-opacity="1" stroke-dasharray="none" stroke-width="1.5px" fill="#000000" stroke-linecap="round" d="M56.032,68.963L56.032,42.144C56.032,40.821,54.96,39.749,53.638,39.749C52.315,39.749,51.243,40.821,51.243,42.144L51.243,68.963C51.243,70.285,52.315,71.357,53.638,71.357C54.96,71.357,56.032,70.285,56.032,68.963Z"/>
  <path fill-opacity="1" stroke-width="1.5px" y2="11" stroke="none" y1="18" stroke-linecap="round" stroke-dasharray="none" stroke-opacity="1" x2="18" stroke-miterlimit="4" stroke-linejoin="round" fill-rule="nonzero" x1="18" fill="#000000" d="M71.357,68.963L71.357,42.144C71.357,40.821,70.285,39.749,68.963,39.749C67.64,39.749,66.568,40.821,66.568,42.144L66.568,68.963C66.568,70.285,67.64,71.357,68.963,71.357C70.285,71.357,71.357,70.285,71.357,68.963Z"/>
  <path fill="#000000" fill-opacity="1" fill-rule="nonzero" stroke-opacity="1" stroke-width="1.5px" stroke-linejoin="round" stroke-miterlimit="4" stroke="none" points="12 2 20 7 4 7" stroke-dasharray="none" stroke-linecap="round" d="M44.706,9.693L75.356,28.849L76.625,24.424L15.325,24.424L16.594,28.849L47.244,9.693L44.706,9.693ZM47.244,5.632C46.468,5.147,45.482,5.147,44.706,5.632L14.056,24.788C12.016,26.063,12.919,29.213,15.325,29.213L76.625,29.213C79.031,29.213,79.934,26.063,77.894,24.788L47.244,5.632Z"/>
</g>
  <g id="Thin-S" transform="matrix(1.0,0.0,0.0,1.0,811.7348754882813,614.7948950195313)">  <path fill-rule="nonzero" stroke-opacity="1" stroke-width="1.5px" y2="22" stroke-linecap="round" stroke-miterlimit="4" stroke-dasharray="none" stroke="none" fill="#000000" fill-opacity="1" y1="22" x1="3" x2="21" stroke-linejoin="round" d="M11.494,86.203L80.456,86.203C81.514,86.203,82.372,85.346,82.372,84.288C82.372,83.23,81.514,82.372,80.456,82.372L11.494,82.372C10.436,82.372,9.578,83.23,9.578,84.288C9.578,85.346,10.436,86.203,11.494,86.203Z"/>
  <path fill="#000000" x2="6" stroke-width="1.5px" stroke-opacity="1" y1="18" stroke-linejoin="round" stroke-miterlimit="4" x1="6" fill-rule="nonzero" fill-opacity="1" stroke-linecap="round" stroke-dasharray="none" y2="11" stroke="none" d="M24.903,68.963L24.903,42.144C24.903,41.086,24.046,40.228,22.988,40.228C21.93,40.228,21.072,41.086,21.072,42.144L21.072,68.963C21.072,70.021,21.93,70.878,22.988,70.878C24.046,70.878,24.903,70.021,24.903,68.963Z"/>
  <path fill-opacity="1" x2="10" y1="18" stroke-dasharray="none" y2="11" stroke-linecap="round" fill="#000000" fill-rule="nonzero" stroke-opacity="1" stroke-miterlimit="4" stroke-width="1.5px" stroke-linejoin="round" x1="10" stroke="none" d="M40.228,68.963L40.228,42.144C40.228,41.086,39.371,40.228,38.313,40.228C37.255,40.228,36.397,41.086,36.397,42.144L36.397,68.963C36.397,70.021,37.255,70.878,38.313,70.878C39.371,70.878,40.228,70.021,40.228,68.963Z"/>
  <path y2="11" stroke-width="1.5px" fill-opacity="1" fill="#000000" stroke-dasharray="none" x1="14" stroke-linecap="round" fill-rule="nonzero" y1="18" stroke-linejoin="round" x2="14" stroke="none" stroke-miterlimit="4" stroke-opacity="1" d="M55.553,68.963L55.553,42.144C55.553,41.086,54.696,40.228,53.638,40.228C52.58,40.228,51.722,41.086,51.722,42.144L51.722,68.963C51.722,70.021,52.58,70.878,53.638,70.878C54.696,70.878,55.553,70.021,55.553,68.963Z"/>
  <path stroke-opacity="1" stroke-linejoin="round" x2="18" fill-rule="nonzero" stroke-width="1.5px" fill="#000000" stroke="none" stroke-dasharray="none" stroke-linecap="round" x1="18" y2="11" fill-opacity="1" y1="18" stroke-miterlimit="4" d="M70.878,68.963L70.878,42.144C70.878,41.086,70.021,40.228,68.963,40.228C67.905,40.228,67.047,41.086,67.047,42.144L67.047,68.963C67.047,70.021,67.905,70.878,68.963,70.878C70.021,70.878,70.878,70.021,70.878,68.963Z"/>
  <path stroke-linejoin="round" stroke-miterlimit="4" stroke-linecap="round" stroke-dasharray="none" fill-rule="nonzero" fill-opacity="1" fill="#000000" stroke-width="1.5px" points="12 2 20 7 4 7" stroke-opacity="1" stroke="none" d="M44.96,9.287L75.61,28.443L76.625,24.903L15.325,24.903L16.34,28.443L46.99,9.287L44.96,9.287ZM46.99,6.038C46.369,5.65,45.581,5.65,44.96,6.038L14.31,25.194C12.678,26.214,13.4,28.734,15.325,28.734L76.625,28.734C78.55,28.734,79.273,26.214,77.64,25.194L46.99,6.038Z"/>
</g>
  <g id="Ultralight-S" transform="matrix(1.0,0.0,0.0,1.0,515.0248754882813,614.7948950195313)">  <path fill-rule="nonzero" fill-opacity="1" y1="22" stroke-dasharray="none" stroke-miterlimit="4" stroke-width="1.5px" y2="22" stroke-opacity="1" x1="3" fill="#000000" x2="21" stroke-linejoin="round" stroke-linecap="round" stroke="none" d="M11.494,85.724L80.456,85.724C81.25,85.724,81.893,85.081,81.893,84.288C81.893,83.494,81.25,82.851,80.456,82.851L11.494,82.851C10.7,82.851,10.057,83.494,10.057,84.288C10.057,85.081,10.7,85.724,11.494,85.724Z"/>
  <path stroke-width="1.5px" x2="6" stroke-dasharray="none" y1="18" y2="11" fill="#000000" stroke="none" fill-opacity="1" x1="6" stroke-linejoin="round" stroke-linecap="round" fill-rule="nonzero" stroke-miterlimit="4" stroke-opacity="1" d="M24.424,68.963L24.424,42.144C24.424,41.35,23.781,40.707,22.988,40.707C22.194,40.707,21.551,41.35,21.551,42.144L21.551,68.963C21.551,69.756,22.194,70.399,22.988,70.399C23.781,70.399,24.424,69.756,24.424,68.963Z"/>
  <path x1="10" stroke-width="1.5px" fill-opacity="1" stroke-dasharray="none" stroke-miterlimit="4" x2="10" stroke-linecap="round" stroke="none" stroke-opacity="1" y2="11" stroke-linejoin="round" y1="18" fill="#000000" fill-rule="nonzero" d="M39.749,68.963L39.749,42.144C39.749,41.35,39.106,40.707,38.313,40.707C37.519,40.707,36.876,41.35,36.876,42.144L36.876,68.963C36.876,69.756,37.519,70.399,38.313,70.399C39.106,70.399,39.749,69.756,39.749,68.963Z"/>
  <path y2="11" y1="18" fill="#000000" stroke-dasharray="none" stroke-width="1.5px" stroke-opacity="1" stroke-linejoin="round" stroke-linecap="round" x2="14" stroke="none" fill-opacity="1" stroke-miterlimit="4" fill-rule="nonzero" x1="14" d="M55.074,68.963L55.074,42.144C55.074,41.35,54.431,40.707,53.638,40.707C52.844,40.707,52.201,41.35,52.201,42.144L52.201,68.963C52.201,69.756,52.844,70.399,53.638,70.399C54.431,70.399,55.074,69.756,55.074,68.963Z"/>
  <path y1="18" fill-rule="nonzero" fill-opacity="1" stroke-miterlimit="4" stroke-dasharray="none" fill="#000000" x2="18" stroke="none" y2="11" stroke-linecap="round" stroke-linejoin="round" x1="18" stroke-width="1.5px" stroke-opacity="1" d="M70.399,68.963L70.399,42.144C70.399,41.35,69.756,40.707,68.963,40.707C68.169,40.707,67.526,41.35,67.526,42.144L67.526,68.963C67.526,69.756,68.169,70.399,68.963,70.399C69.756,70.399,70.399,69.756,70.399,68.963Z"/>
  <path fill-rule="nonzero" stroke="none" stroke-dasharray="none" stroke-linejoin="round" fill="#000000" stroke-opacity="1" stroke-width="1.5px" fill-opacity="1" points="12 2 20 7 4 7" stroke-linecap="round" stroke-miterlimit="4" d="M45.214,8.881L75.864,28.037L76.625,25.382L15.325,25.382L16.087,28.037L46.737,8.881L45.214,8.881ZM46.737,6.444C46.271,6.153,45.68,6.153,45.214,6.444L14.564,25.6C13.34,26.366,13.882,28.256,15.325,28.256L76.625,28.256C78.069,28.256,78.611,26.366,77.387,25.6L46.737,6.444Z"/>
</g>
 </g>
</svg>
