<?xml version="1.0" encoding="UTF-8"?>
<!-- Generator: CustomSymbols v2.7.2.48 by @serious_bret https://bretlester.com/app_content/CustomSymbols/ -->
<!-- Guides: Left/Right 0.0/0.0 Cap/Base 0.2/0.19999999999999996 -->
<!-- Settings: RefScale 1.0 Min/Max Stroke Scales 0.5/2.21 -->
<!DOCTYPE svg
PUBLIC "-//W3C//DTD SVG 1.1//EN"
       "http://www.w3.org/Graphics/SVG/1.1/DTD/svg11.dtd">
<svg version="1.1" xmlns="http://www.w3.org/2000/svg" xmlns:xlink="http://www.w3.org/1999/xlink" width="3300" height="2200">
<![CDATA[<svg xmlns="http://www.w3.org/2000/svg" width="24" height="24" viewBox="0 0 24 24" fill="none" stroke="currentColor" stroke-width="1.5" stroke-linecap="round" stroke-linejoin="round" class="lucide lucide-gem"><path d="M6 3h12l4 6-10 13L2 9Z"/><path d="M11 3 8 9l4 13 4-13-3-6"/><path d="M2 9h20"/></svg>]]>
 <g id="Notes">
  <rect height="2200" id="artboard" style="fill:white;opacity:1" width="3300" x="0" y="0"/>
  <line id="" style="fill:none;stroke:black;opacity:1;stroke-width:0.5;" x1="263" x2="3036" y1="292" y2="292"/>
  <text id="reftext1" style="stroke:none;fill:black;font-family:-apple-system,&quot;SF Pro Display&quot;,&quot;SF Pro Text&quot;,Helvetica,sans-serif;font-weight:bold;" transform="matrix(1 0 0 1 263 322)">Weight/Scale Variations</text>
  <text id="reftext2" style="stroke:none;fill:black;font-family:-apple-system,&quot;SF Pro Display&quot;,&quot;SF Pro Text&quot;,Helvetica,sans-serif;text-anchor:middle;" transform="matrix(1 0 0 1 559.711 322)">Ultralight</text>
  <text style="stroke:none;fill:black;font-family:-apple-system,&quot;SF Pro Display&quot;,&quot;SF Pro Text&quot;,Helvetica,sans-serif;text-anchor:middle;" transform="matrix(1 0 0 1 856.422 322)">Thin</text>
  <text style="stroke:none;fill:black;font-family:-apple-system,&quot;SF Pro Display&quot;,&quot;SF Pro Text&quot;,Helvetica,sans-serif;text-anchor:middle;" transform="matrix(1 0 0 1 1153.13 322)">Light</text>
  <text style="stroke:none;fill:black;font-family:-apple-system,&quot;SF Pro Display&quot;,&quot;SF Pro Text&quot;,Helvetica,sans-serif;text-anchor:middle;" transform="matrix(1 0 0 1 1449.84 322)">Regular</text>
  <text style="stroke:none;fill:black;font-family:-apple-system,&quot;SF Pro Display&quot;,&quot;SF Pro Text&quot;,Helvetica,sans-serif;text-anchor:middle;" transform="matrix(1 0 0 1 1746.56 322)">Medium</text>
  <text style="stroke:none;fill:black;font-family:-apple-system,&quot;SF Pro Display&quot;,&quot;SF Pro Text&quot;,Helvetica,sans-serif;text-anchor:middle;" transform="matrix(1 0 0 1 2043.27 322)">Semibold</text>
  <text style="stroke:none;fill:black;font-family:-apple-system,&quot;SF Pro Display&quot;,&quot;SF Pro Text&quot;,Helvetica,sans-serif;text-anchor:middle;" transform="matrix(1 0 0 1 2339.98 322)">Bold</text>
  <text style="stroke:none;fill:black;font-family:-apple-system,&quot;SF Pro Display&quot;,&quot;SF Pro Text&quot;,Helvetica,sans-serif;text-anchor:middle;" transform="matrix(1 0 0 1 2636.69 322)">Heavy</text>
  <text style="stroke:none;fill:black;font-family:-apple-system,&quot;SF Pro Display&quot;,&quot;SF Pro Text&quot;,Helvetica,sans-serif;text-anchor:middle;" transform="matrix(1 0 0 1 2933.4 322)">Black</text>
  <line id="" style="fill:none;stroke:black;opacity:1;stroke-width:0.5;" x1="263" x2="3036" y1="1903" y2="1903"/>
  <g id="" transform="matrix(1 0 0 1 263 1933)">
   <path d="M9.24805 0.830078C13.5547 0.830078 17.1387-2.74414 17.1387-7.05078C17.1387-11.3574 13.5449-14.9316 9.23828-14.9316C4.94141-14.9316 1.36719-11.3574 1.36719-7.05078C1.36719-2.74414 4.95117 0.830078 9.24805 0.830078ZM9.24805-0.654297C5.70312-0.654297 2.87109-3.49609 2.87109-7.05078C2.87109-10.6055 5.69336-13.4473 9.23828-13.4473C12.793-13.4473 15.6348-10.6055 15.6445-7.05078C15.6543-3.49609 12.8027-0.654297 9.24805-0.654297ZM6.39648-6.31836L8.50586-6.31836L8.50586-4.19922C8.50586-3.75977 8.79883-3.45703 9.22852-3.45703C9.67773-3.45703 9.9707-3.75977 9.9707-4.19922L9.9707-6.31836L12.0996-6.31836C12.5391-6.31836 12.8418-6.61133 12.8418-7.04102C12.8418-7.48047 12.5391-7.7832 12.0996-7.7832L9.9707-7.7832L9.9707-9.89258C9.9707-10.3418 9.67773-10.6445 9.22852-10.6445C8.79883-10.6445 8.50586-10.3418 8.50586-9.89258L8.50586-7.7832L6.39648-7.7832C5.94727-7.7832 5.64453-7.48047 5.64453-7.04102C5.64453-6.61133 5.94727-6.31836 6.39648-6.31836Z"/>
  </g>
  <g id="" transform="matrix(1 0 0 1 281.506 1933)">
   <path d="M11.709 2.91016C17.1582 2.91016 21.6699-1.61133 21.6699-7.05078C21.6699-12.5 17.1484-17.0117 11.6992-17.0117C6.25977-17.0117 1.74805-12.5 1.74805-7.05078C1.74805-1.61133 6.26953 2.91016 11.709 2.91016ZM11.709 1.25C7.09961 1.25 3.41797-2.44141 3.41797-7.05078C3.41797-11.6602 7.08984-15.3516 11.6992-15.3516C16.3086-15.3516 20-11.6602 20.0098-7.05078C20.0195-2.44141 16.3184 1.25 11.709 1.25ZM7.98828-6.23047L10.8789-6.23047L10.8789-3.32031C10.8789-2.83203 11.2109-2.5 11.6895-2.5C12.1777-2.5 12.5195-2.83203 12.5195-3.32031L12.5195-6.23047L15.4297-6.23047C15.918-6.23047 16.25-6.5625 16.25-7.04102C16.25-7.5293 15.918-7.87109 15.4297-7.87109L12.5195-7.87109L12.5195-10.7617C12.5195-11.2695 12.1777-11.6016 11.6895-11.6016C11.2109-11.6016 10.8789-11.2598 10.8789-10.7617L10.8789-7.87109L7.98828-7.87109C7.48047-7.87109 7.14844-7.5293 7.14844-7.04102C7.14844-6.5625 7.49023-6.23047 7.98828-6.23047Z"/>
  </g>
  <g id="" transform="matrix(1 0 0 1 304.924 1933)">
   <path d="M14.9707 5.66406C21.9336 5.66406 27.6953-0.0976562 27.6953-7.05078C27.6953-14.0137 21.9238-19.7754 14.9609-19.7754C8.00781-19.7754 2.25586-14.0137 2.25586-7.05078C2.25586-0.0976562 8.01758 5.66406 14.9707 5.66406ZM14.9707 3.84766C8.93555 3.84766 4.08203-1.01562 4.08203-7.05078C4.08203-13.0957 8.92578-17.9492 14.9609-17.9492C21.0059-17.9492 25.8594-13.0957 25.8691-7.05078C25.8789-1.01562 21.0156 3.84766 14.9707 3.84766ZM10.0586-6.14258L14.0625-6.14258L14.0625-2.12891C14.0625-1.5918 14.4336-1.2207 14.9512-1.2207C15.4883-1.2207 15.8594-1.5918 15.8594-2.12891L15.8594-6.14258L19.8828-6.14258C20.4102-6.14258 20.791-6.51367 20.791-7.03125C20.791-7.56836 20.4199-7.94922 19.8828-7.94922L15.8594-7.94922L15.8594-11.9531C15.8594-12.5098 15.4883-12.8809 14.9512-12.8809C14.4336-12.8809 14.0625-12.5 14.0625-11.9531L14.0625-7.94922L10.0586-7.94922C9.50195-7.94922 9.13086-7.56836 9.13086-7.03125C9.13086-6.51367 9.51172-6.14258 10.0586-6.14258Z"/>
  </g>
  <text style="stroke:none;fill:black;font-family:-apple-system,&quot;SF Pro Display&quot;,&quot;SF Pro Text&quot;,Helvetica,sans-serif;font-weight:bold;" transform="matrix(1 0 0 1 263 1953)">Design Variations</text>
  <text style="stroke:none;fill:black;font-family:-apple-system,&quot;SF Pro Display&quot;,&quot;SF Pro Text&quot;,Helvetica,sans-serif;" transform="matrix(1 0 0 1 263 1971)">Symbols are supported in up to nine weights and three scales.</text>
  <text style="stroke:none;fill:black;font-family:-apple-system,&quot;SF Pro Display&quot;,&quot;SF Pro Text&quot;,Helvetica,sans-serif;" transform="matrix(1 0 0 1 263 1989)">For optimal layout with text and other symbols, vertically align</text>
  <text style="stroke:none;fill:black;font-family:-apple-system,&quot;SF Pro Display&quot;,&quot;SF Pro Text&quot;,Helvetica,sans-serif;" transform="matrix(1 0 0 1 263 2007)">symbols with the adjacent text.</text>
  <line id="" style="fill:none;stroke:#00AEEF;stroke-width:0.5;opacity:1.0;" x1="776" x2="776" y1="1919" y2="1933"/>
  <g id="" transform="matrix(1 0 0 1 776 1933)">
   <path d="M3.31055 0.126953C3.82812 0.126953 4.08203-0.0683594 4.26758-0.605469L5.52734-4.0625L11.2891-4.0625L12.5488-0.605469C12.7344-0.0683594 12.9883 0.126953 13.4961 0.126953C14.0137 0.126953 14.3457-0.185547 14.3457-0.673828C14.3457-0.839844 14.3164-0.986328 14.2383-1.20117L9.6582-13.3887C9.43359-13.9941 9.0332-14.2871 8.4082-14.2871C7.80273-14.2871 7.39258-13.9941 7.17773-13.3984L2.59766-1.19141C2.51953-0.976562 2.49023-0.830078 2.49023-0.664062C2.49023-0.175781 2.80273 0.126953 3.31055 0.126953ZM6.00586-5.53711L8.37891-12.1094L8.42773-12.1094L10.8008-5.53711Z"/>
  </g>
  <line id="" style="fill:none;stroke:#00AEEF;stroke-width:0.5;opacity:1.0;" x1="792.836" x2="792.836" y1="1919" y2="1933"/>
  <text style="stroke:none;fill:black;font-family:-apple-system,&quot;SF Pro Display&quot;,&quot;SF Pro Text&quot;,Helvetica,sans-serif;font-weight:bold;" transform="matrix(1 0 0 1 776 1953)">Margins</text>
  <text style="stroke:none;fill:black;font-family:-apple-system,&quot;SF Pro Display&quot;,&quot;SF Pro Text&quot;,Helvetica,sans-serif;" transform="matrix(1 0 0 1 776 1971)">Leading and trailing margins on the left and right side of each symbol</text>
  <text style="stroke:none;fill:black;font-family:-apple-system,&quot;SF Pro Display&quot;,&quot;SF Pro Text&quot;,Helvetica,sans-serif;" transform="matrix(1 0 0 1 776 1989)">can be adjusted by modifying the x-location of the margin guidelines.</text>
  <text style="stroke:none;fill:black;font-family:-apple-system,&quot;SF Pro Display&quot;,&quot;SF Pro Text&quot;,Helvetica,sans-serif;" transform="matrix(1 0 0 1 776 2007)">Modifications are automatically applied proportionally to all</text>
  <text style="stroke:none;fill:black;font-family:-apple-system,&quot;SF Pro Display&quot;,&quot;SF Pro Text&quot;,Helvetica,sans-serif;" transform="matrix(1 0 0 1 776 2025)">scales and weights.</text>
  <g id="" transform="matrix(1 0 0 1 1289 1933)">
   <path d="M2.8418 1.86523L4.54102 3.57422C5.40039 4.44336 6.38672 4.38477 7.31445 3.35938L17.4902-7.85156C17.7539-7.76367 18.0273-7.7832 18.3398-7.8418L19.4043-8.03711L20.0684-7.36328L20.0293-6.80664C19.9902-6.30859 20.1172-5.92773 20.6055-5.44922L21.3672-4.70703C21.8457-4.22852 22.4609-4.19922 22.9297-4.66797L25.8398-7.58789C26.3086-8.05664 26.2891-8.65234 25.8105-9.13086L25.0391-9.89258C24.5605-10.3711 24.1895-10.5273 23.7109-10.4883L23.1348-10.4395L22.4902-11.0742L22.7344-12.1973C22.8613-12.7637 22.7051-13.2031 22.1191-13.7891L19.9219-15.9766C16.582-19.2969 12.1484-19.2188 9.25781-16.3281C8.83789-15.918 8.80859-15.3418 9.04297-14.9512C9.27734-14.5898 9.73633-14.3555 10.3809-14.5215C11.8457-14.8633 13.3691-14.9219 14.7949-13.9844L14.209-12.5293C14.0137-12.0508 13.9844-11.6504 14.1113-11.2891L3.04688-0.898438C2.06055 0.0195312 1.98242 0.996094 2.8418 1.86523ZM10.752-15.957C13.1836-17.7344 16.4746-17.4316 18.7012-15.2051L21.1328-12.793C21.3672-12.5586 21.4062-12.373 21.3379-12.0312L21.0156-10.5469L22.5195-9.0625L23.5059-9.12109C23.7598-9.13086 23.8379-9.11133 24.0332-8.91602L24.6094-8.33984L22.168-5.89844L21.5918-6.47461C21.3965-6.66992 21.3672-6.74805 21.377-7.01172L21.4453-7.98828L19.9512-9.47266L18.4277-9.21875C18.1055-9.15039 17.959-9.17969 17.7148-9.41406L15.7129-11.416C15.459-11.6504 15.4297-11.8164 15.5859-12.1875L16.4648-14.2773C14.9023-15.7324 12.8711-16.3574 10.8398-15.7617C10.6836-15.7227 10.625-15.8496 10.752-15.957ZM5.27344 2.30469L4.10156 1.14258C3.63281 0.683594 3.74023 0.341797 4.14062-0.0195312L14.9512-10.1953L16.416-8.71094L6.42578 2.27539C6.07422 2.67578 5.74219 2.77344 5.27344 2.30469Z"/>
  </g>
  <text style="stroke:none;fill:black;font-family:-apple-system,&quot;SF Pro Display&quot;,&quot;SF Pro Text&quot;,Helvetica,sans-serif;font-weight:bold;" transform="matrix(1 0 0 1 1289 1953)">Exporting</text>
  <text style="stroke:none;fill:black;font-family:-apple-system,&quot;SF Pro Display&quot;,&quot;SF Pro Text&quot;,Helvetica,sans-serif;" transform="matrix(1 0 0 1 1289 1971)">Symbols should be outlined when exporting to ensure the</text>
  <text style="stroke:none;fill:black;font-family:-apple-system,&quot;SF Pro Display&quot;,&quot;SF Pro Text&quot;,Helvetica,sans-serif;" transform="matrix(1 0 0 1 1289 1989)">design is preserved when submitting to Xcode.</text>
  <text id="template-version" style="stroke:none;fill:black;font-family:-apple-system,&quot;SF Pro Display&quot;,&quot;SF Pro Text&quot;,Helvetica,sans-serif;text-anchor:end;" transform="matrix(1 0 0 1 3036 1933)">Template v.2.0</text>
  <text style="stroke:none;fill:black;font-family:-apple-system,&quot;SF Pro Display&quot;,&quot;SF Pro Text&quot;,Helvetica,sans-serif;text-anchor:end;" transform="matrix(1 0 0 1 3036 1951)">Requires Xcode 12 or greater</text>
  <text style="stroke:none;fill:black;font-family:-apple-system,&quot;SF Pro Display&quot;,&quot;SF Pro Text&quot;,Helvetica,sans-serif;" transform="matrix(1 0 0 1 263 726)">Small</text>
  <text style="stroke:none;fill:black;font-family:-apple-system,&quot;SF Pro Display&quot;,&quot;SF Pro Text&quot;,Helvetica,sans-serif;" transform="matrix(1 0 0 1 263 1156)">Medium</text>
  <text style="stroke:none;fill:black;font-family:-apple-system,&quot;SF Pro Display&quot;,&quot;SF Pro Text&quot;,Helvetica,sans-serif;" transform="matrix(1 0 0 1 263 1586)">Large</text>
 </g>
 <g id="Guides">
  <g id="H-reference" style="fill:#27AAE1;stroke:none;" transform="matrix(1 0 0 1 339 696)">
   <path d="M0.976562 0L3.66211 0L12.9883-24.4629L45.752-24.4629L55.127 0L57.7637 0L30.6152-70.459L28.125-70.459ZM29.3457-67.1387L29.4434-67.1387L44.873-26.709L13.8672-26.709Z"/>
  </g>
  <line id="Baseline-S" style="fill:none;stroke:#27AAE1;opacity:1;stroke-width:0.5;" x1="263" x2="3036" y1="696" y2="696"/>
  <line id="Capline-S" style="fill:none;stroke:#27AAE1;opacity:1;stroke-width:0.5;" x1="263" x2="3036" y1="625.541" y2="625.541"/>
  <g id="H-reference" style="fill:#27AAE1;stroke:none;" transform="matrix(1 0 0 1 339 1126)">
   <path d="M0.976562 0L3.66211 0L12.9883-24.4629L45.752-24.4629L55.127 0L57.7637 0L30.6152-70.459L28.125-70.459ZM29.3457-67.1387L29.4434-67.1387L44.873-26.709L13.8672-26.709Z"/>
  </g>
  <line id="Baseline-M" style="fill:none;stroke:#27AAE1;opacity:1;stroke-width:0.5;" x1="263" x2="3036" y1="1126" y2="1126"/>
  <line id="Capline-M" style="fill:none;stroke:#27AAE1;opacity:1;stroke-width:0.5;" x1="263" x2="3036" y1="1055.54" y2="1055.54"/>
  <g id="H-reference" style="fill:#27AAE1;stroke:none;" transform="matrix(1 0 0 1 339 1556)">
   <path d="M0.976562 0L3.66211 0L12.9883-24.4629L45.752-24.4629L55.127 0L57.7637 0L30.6152-70.459L28.125-70.459ZM29.3457-67.1387L29.4434-67.1387L44.873-26.709L13.8672-26.709Z"/>
  </g>
  <line id="Baseline-L" style="fill:none;stroke:#27AAE1;opacity:1;stroke-width:0.5;" x1="263" x2="3036" y1="1556" y2="1556"/>
  <line id="Capline-L" style="fill:none;stroke:#27AAE1;opacity:1;stroke-width:0.5;" x1="263" x2="3036" y1="1485.54" y2="1485.54"/>
  <line id="left-margin" x1="1392.4133658854166" x2="1392.4133658854166" y1="1030.79" y2="1150.12" style="fill:none;stroke:#00AEEF;stroke-width:0.5;opacity:1.0;"/>
  <line id="right-margin" x1="1509.8466341145831" x2="1509.8466341145831" y1="1030.79" y2="1150.12" style="fill:none;stroke:#00AEEF;stroke-width:0.5;opacity:1.0;"/>
 </g>
 <g id="Symbols">
  <g id="Black-L" transform="matrix(1.0,0.0,0.0,1.0,2858.935541992187,1445.0255615234375)">  <path fill="#000000" stroke-linejoin="round" stroke="none" stroke-opacity="1" stroke-linecap="round" stroke-miterlimit="4" fill-opacity="1" stroke-dasharray="none" stroke-width="1.5px" fill-rule="nonzero" d="M37.872,29.398L113.617,29.398L104.912,24.74L130.16,62.612L130.572,50.429L67.452,132.486L84.037,132.486L20.917,50.429L21.329,62.612L46.577,24.74L37.872,29.398ZM37.872,8.474C34.374,8.474,31.108,10.222,29.167,13.133L3.919,51.005C1.432,54.735,1.598,59.634,4.331,63.187L67.452,145.244C71.64,150.688,79.849,150.688,84.037,145.244L147.157,63.187C149.891,59.634,150.056,54.735,147.57,51.005L122.322,13.133C120.381,10.222,117.115,8.474,113.617,8.474L37.872,8.474Z"/>
  <path stroke-linecap="round" stroke-width="1.5px" stroke-opacity="1" fill-rule="nonzero" stroke-linejoin="round" fill-opacity="1" stroke="none" stroke-dasharray="none" fill="#000000" stroke-miterlimit="4" d="M60.075,14.257L41.139,52.13C39.935,54.536,39.705,57.314,40.497,59.885L65.745,141.942C68.775,151.789,82.714,151.789,85.744,141.942L110.992,59.885C111.783,57.314,111.554,54.536,110.35,52.13L91.414,14.257C88.83,9.089,82.546,6.994,77.378,9.578C72.21,12.162,70.115,18.447,72.699,23.615L91.635,61.487L90.993,53.732L65.745,135.788L85.744,135.788L60.496,53.732L59.854,61.487L78.79,23.615C81.374,18.447,79.279,12.162,74.111,9.578C68.943,6.994,62.659,9.089,60.075,14.257Z"/>
  <path fill-rule="nonzero" fill="#000000" stroke-miterlimit="4" stroke-dasharray="none" fill-opacity="1" stroke-linejoin="round" stroke-opacity="1" stroke-linecap="round" stroke="none" stroke-width="1.5px" d="M12.624,67.271L138.865,67.271C144.643,67.271,149.327,62.586,149.327,56.808C149.327,51.03,144.643,46.346,138.865,46.346L12.624,46.346C6.846,46.346,2.162,51.03,2.162,56.808C2.162,62.586,6.846,67.271,12.624,67.271Z"/>
</g>
  <g id="Heavy-L" transform="matrix(1.0,0.0,0.0,1.0,2562.225541992187,1445.0255615234375)">  <path stroke-miterlimit="4" stroke-linecap="round" stroke-linejoin="round" fill-opacity="1" fill="#000000" stroke-width="1.5px" stroke="none" stroke-dasharray="none" fill-rule="nonzero" stroke-opacity="1" d="M37.872,28.253L113.617,28.253L105.865,24.104L131.113,61.976L131.48,51.128L68.36,133.184L83.129,133.184L20.009,51.128L20.376,61.976L45.624,24.104L37.872,28.253ZM37.872,9.62C34.757,9.62,31.848,11.176,30.12,13.768L4.872,51.64C2.658,54.962,2.806,59.325,5.24,62.489L68.36,144.545C72.089,149.393,79.4,149.393,83.129,144.545L146.249,62.489C148.683,59.325,148.831,54.962,146.617,51.64L121.369,13.768C119.641,11.176,116.732,9.62,113.617,9.62L37.872,9.62Z"/>
  <path fill-opacity="1" fill-rule="nonzero" stroke="none" fill="#000000" stroke-dasharray="none" stroke-width="1.5px" stroke-opacity="1" stroke-linejoin="round" stroke-miterlimit="4" stroke-linecap="round" d="M61.099,14.77L42.163,52.642C41.092,54.785,40.887,57.258,41.592,59.548L66.84,141.605C69.538,150.374,81.951,150.374,84.649,141.605L109.897,59.548C110.602,57.258,110.397,54.785,109.326,52.642L90.389,14.77C88.088,10.167,82.492,8.302,77.89,10.603C73.288,12.904,71.422,18.5,73.724,23.103L92.66,60.975L92.088,54.068L66.84,136.125L84.649,136.125L59.401,54.068L58.829,60.975L77.765,23.103C80.067,18.5,78.201,12.904,73.599,10.603C68.997,8.302,63.401,10.167,61.099,14.77Z"/>
  <path stroke-opacity="1" stroke-width="1.5px" stroke-linejoin="round" stroke-dasharray="none" stroke-miterlimit="4" fill="#000000" stroke="none" stroke-linecap="round" fill-rule="nonzero" fill-opacity="1" d="M12.624,66.125L138.865,66.125C144.01,66.125,148.181,61.954,148.181,56.808C148.181,51.663,144.01,47.492,138.865,47.492L12.624,47.492C7.479,47.492,3.308,51.663,3.308,56.808C3.308,61.954,7.479,66.125,12.624,66.125Z"/>
</g>
  <g id="Bold-L" transform="matrix(1.0,0.0,0.0,1.0,2265.515541992187,1445.0255615234375)">  <path stroke-linejoin="round" fill-rule="nonzero" fill="#000000" stroke-opacity="1" stroke-linecap="round" stroke-width="1.5px" stroke-miterlimit="4" fill-opacity="1" stroke="none" stroke-dasharray="none" d="M37.872,27.107L113.617,27.107L106.818,23.469L132.066,61.341L132.388,51.826L69.268,133.883L82.221,133.883L19.101,51.826L19.423,61.341L44.671,23.469L37.872,27.107ZM37.872,10.765C35.14,10.765,32.589,12.131,31.074,14.404L5.825,52.276C3.883,55.189,4.013,59.015,6.148,61.79L69.268,143.847C72.539,148.099,78.95,148.099,82.221,143.847L145.341,61.79C147.476,59.015,147.605,55.189,145.663,52.276L120.415,14.404C118.9,12.131,116.349,10.765,113.617,10.765L37.872,10.765Z"/>
  <path fill-opacity="1" stroke-dasharray="none" fill="#000000" stroke="none" stroke-width="1.5px" stroke-miterlimit="4" stroke-opacity="1" fill-rule="nonzero" stroke-linejoin="round" stroke-linecap="round" d="M62.124,15.282L43.188,53.154C42.248,55.034,42.069,57.203,42.687,59.211L67.935,141.268C70.301,148.958,81.188,148.958,83.554,141.268L108.802,59.211C109.42,57.203,109.241,55.034,108.301,53.154L89.365,15.282C87.347,11.246,82.439,9.61,78.402,11.628C74.366,13.646,72.73,18.554,74.748,22.59L93.684,60.462L93.183,54.405L67.935,136.462L83.554,136.462L58.306,54.405L57.805,60.462L76.741,22.59C78.759,18.554,77.123,13.646,73.087,11.628C69.05,9.61,64.142,11.246,62.124,15.282Z"/>
  <path stroke-opacity="1" stroke-linejoin="round" stroke-miterlimit="4" stroke="none" fill="#000000" stroke-linecap="round" fill-opacity="1" fill-rule="nonzero" stroke-width="1.5px" stroke-dasharray="none" d="M12.624,64.979L138.865,64.979C143.378,64.979,147.036,61.321,147.036,56.808C147.036,52.296,143.378,48.637,138.865,48.637L12.624,48.637C8.111,48.637,4.453,52.296,4.453,56.808C4.453,61.321,8.111,64.979,12.624,64.979Z"/>
</g>
  <g id="Semibold-L" transform="matrix(1.0,0.0,0.0,1.0,1968.8055419921875,1445.0255615234375)">  <path stroke-linecap="round" stroke-linejoin="round" stroke-dasharray="none" stroke="none" fill-opacity="1" fill-rule="nonzero" stroke-miterlimit="4" stroke-width="1.5px" stroke-opacity="1" fill="#000000" d="M37.872,25.961L113.617,25.961L107.771,22.833L133.019,60.705L133.296,52.525L70.176,134.581L81.313,134.581L18.192,52.525L18.469,60.705L43.718,22.833L37.872,25.961ZM37.872,11.911C35.523,11.911,33.33,13.085,32.027,15.039L6.779,52.911C5.109,55.416,5.22,58.706,7.056,61.092L70.176,143.148C72.988,146.804,78.501,146.804,81.313,143.148L144.433,61.092C146.269,58.706,146.38,55.416,144.71,52.911L119.462,15.039C118.159,13.085,115.966,11.911,113.617,11.911L37.872,11.911Z"/>
  <path fill-rule="nonzero" stroke="none" stroke-dasharray="none" fill="#000000" stroke-miterlimit="4" stroke-linecap="round" stroke-linejoin="round" fill-opacity="1" stroke-width="1.5px" stroke-opacity="1" d="M63.149,15.794L44.213,53.667C43.405,55.282,43.25,57.148,43.782,58.874L69.03,140.931C71.064,147.543,80.425,147.543,82.459,140.931L107.707,58.874C108.239,57.148,108.084,55.282,107.276,53.667L88.34,15.794C86.605,12.324,82.385,10.917,78.915,12.652C75.444,14.388,74.038,18.608,75.773,22.078L94.709,59.95L94.278,54.742L69.03,136.799L82.459,136.799L57.211,54.742L56.78,59.95L75.716,22.078C77.451,18.608,76.045,14.388,72.574,12.652C69.104,10.917,64.884,12.324,63.149,15.794Z"/>
  <path fill="#000000" stroke-linecap="round" fill-rule="nonzero" stroke-dasharray="none" fill-opacity="1" stroke-width="1.5px" stroke="none" stroke-miterlimit="4" stroke-opacity="1" stroke-linejoin="round" d="M12.624,63.834L138.865,63.834C142.745,63.834,145.89,60.688,145.89,56.808C145.89,52.928,142.745,49.783,138.865,49.783L12.624,49.783C8.744,49.783,5.599,52.928,5.599,56.808C5.599,60.688,8.744,63.834,12.624,63.834Z"/>
</g>
  <g id="Medium-L" transform="matrix(1.0,0.0,0.0,1.0,1672.0955419921875,1445.0255615234375)">  <path stroke-opacity="1" stroke-linejoin="round" stroke-dasharray="none" stroke-miterlimit="4" stroke-width="1.5px" fill-opacity="1" stroke="none" fill="#000000" fill-rule="nonzero" stroke-linecap="round" d="M37.872,24.816L113.617,24.816L108.725,22.198L133.973,60.07L134.204,53.223L71.084,135.28L80.405,135.28L17.284,53.223L17.516,60.07L42.764,22.198L37.872,24.816ZM37.872,13.056C35.906,13.056,34.071,14.039,32.98,15.675L7.732,53.547C6.334,55.643,6.428,58.396,7.964,60.393L71.084,142.45C73.438,145.509,78.051,145.509,80.405,142.45L143.525,60.393C145.061,58.396,145.154,55.643,143.757,53.547L118.509,15.675C117.418,14.039,115.583,13.056,113.617,13.056L37.872,13.056Z"/>
  <path stroke-miterlimit="4" stroke-linejoin="round" stroke-width="1.5px" fill-rule="nonzero" fill-opacity="1" stroke-linecap="round" stroke-opacity="1" stroke="none" fill="#000000" stroke-dasharray="none" d="M64.173,16.307L45.237,54.179C44.561,55.531,44.432,57.092,44.877,58.537L70.125,140.594C71.828,146.128,79.661,146.128,81.364,140.594L106.612,58.537C107.057,57.092,106.928,55.531,106.252,54.179L87.315,16.307C85.863,13.402,82.331,12.225,79.427,13.677C76.523,15.129,75.345,18.661,76.798,21.566L95.734,59.438L95.373,55.079L70.125,137.136L81.364,137.136L56.116,55.079L55.755,59.438L74.691,21.566C76.144,18.661,74.966,15.129,72.062,13.677C69.157,12.225,65.626,13.402,64.173,16.307Z"/>
  <path stroke-opacity="1" fill="#000000" fill-opacity="1" stroke="none" stroke-width="1.5px" stroke-linecap="round" stroke-miterlimit="4" stroke-linejoin="round" stroke-dasharray="none" fill-rule="nonzero" d="M12.624,62.688L138.865,62.688C142.112,62.688,144.745,60.056,144.745,56.808C144.745,53.561,142.112,50.929,138.865,50.929L12.624,50.929C9.377,50.929,6.744,53.561,6.744,56.808C6.744,60.056,9.377,62.688,12.624,62.688Z"/>
</g>
  <g id="Regular-L" transform="matrix(1.0,0.0,0.0,1.0,1375.3855419921874,1445.0255615234375)">  <path stroke-linecap="round" fill-rule="nonzero" fill-opacity="1" stroke-linejoin="round" stroke="none" fill="#000000" stroke-dasharray="none" stroke-opacity="1" stroke-width="1.5px" stroke-miterlimit="4" d="M37.872,23.67L113.617,23.67L109.678,21.562L134.926,59.434L135.113,53.922L71.992,135.978L79.497,135.978L16.376,53.922L16.563,59.434L41.811,21.562L37.872,23.67ZM37.872,14.202C36.289,14.202,34.811,14.993,33.933,16.31L8.685,54.182C7.56,55.87,7.635,58.087,8.872,59.695L71.992,141.751C73.887,144.215,77.602,144.215,79.497,141.751L142.617,59.695C143.854,58.087,143.929,55.87,142.804,54.182L117.556,16.31C116.678,14.993,115.2,14.202,113.617,14.202L37.872,14.202Z"/>
  <path stroke-linecap="round" stroke-dasharray="none" fill-rule="nonzero" stroke-miterlimit="4" stroke-linejoin="round" stroke-width="1.5px" stroke="none" fill-opacity="1" fill="#000000" stroke-opacity="1" d="M65.198,16.819L46.262,54.691C45.718,55.78,45.614,57.037,45.972,58.201L71.22,140.257C72.591,144.713,78.898,144.713,80.269,140.257L105.517,58.201C105.875,57.037,105.771,55.78,105.227,54.691L86.291,16.819C85.121,14.48,82.278,13.533,79.939,14.702C77.601,15.871,76.653,18.715,77.822,21.053L96.758,58.925L96.468,55.416L71.22,137.473L80.269,137.473L55.021,55.416L54.731,58.925L73.667,21.053C74.836,18.715,73.888,15.871,71.55,14.702C69.211,13.533,66.367,14.48,65.198,16.819Z"/>
  <path stroke-linecap="round" fill-rule="nonzero" stroke-dasharray="none" stroke-width="1.5px" fill-opacity="1" stroke-opacity="1" stroke="none" fill="#000000" stroke-miterlimit="4" stroke-linejoin="round" d="M12.624,61.542L138.865,61.542C141.479,61.542,143.599,59.423,143.599,56.808C143.599,54.194,141.479,52.074,138.865,52.074L12.624,52.074C10.01,52.074,7.89,54.194,7.89,56.808C7.89,59.423,10.01,61.542,12.624,61.542Z"/>
</g>
  <g id="Light-L" transform="matrix(1.0,0.0,0.0,1.0,1078.6755419921876,1445.0255615234375)">  <path stroke-dasharray="none" fill="#000000" stroke-linejoin="round" fill-opacity="1" stroke-width="1.5px" fill-rule="nonzero" stroke-linecap="round" stroke="none" stroke-miterlimit="4" stroke-opacity="1" d="M37.872,22.881L113.617,22.881L110.334,21.124L135.582,58.997L135.738,54.403L72.618,136.46L78.871,136.46L15.751,54.403L15.907,58.997L41.155,21.124L37.872,22.881ZM37.872,14.991C36.553,14.991,35.321,15.65,34.59,16.748L9.342,54.62C8.404,56.026,8.467,57.874,9.497,59.214L72.618,141.27C74.197,143.323,77.292,143.323,78.871,141.27L141.992,59.214C143.022,57.874,143.085,56.026,142.147,54.62L116.899,16.748C116.167,15.65,114.936,14.991,113.617,14.991L37.872,14.991Z"/>
  <path stroke-linejoin="round" fill-opacity="1" stroke-width="1.5px" stroke-linecap="round" stroke="none" fill="#000000" stroke-miterlimit="4" stroke-dasharray="none" fill-rule="nonzero" stroke-opacity="1" d="M65.904,17.172L46.968,55.044C46.514,55.952,46.427,56.999,46.726,57.969L71.974,140.025C73.116,143.738,78.373,143.738,79.515,140.025L104.763,57.969C105.062,56.999,104.975,55.952,104.521,55.044L85.585,17.172C84.611,15.223,82.241,14.433,80.292,15.408C78.343,16.382,77.554,18.752,78.528,20.7L97.464,58.573L97.222,55.648L71.974,137.705L79.515,137.705L54.267,55.648L54.025,58.573L72.961,20.7C73.935,18.752,73.145,16.382,71.197,15.408C69.248,14.433,66.878,15.223,65.904,17.172Z"/>
  <path stroke-opacity="1" fill-rule="nonzero" stroke-width="1.5px" stroke-miterlimit="4" stroke="none" fill-opacity="1" stroke-linecap="round" fill="#000000" stroke-dasharray="none" stroke-linejoin="round" d="M12.624,60.753L138.865,60.753C141.044,60.753,142.81,58.987,142.81,56.808C142.81,54.63,141.044,52.863,138.865,52.863L12.624,52.863C10.445,52.863,8.679,54.63,8.679,56.808C8.679,58.987,10.445,60.753,12.624,60.753Z"/>
</g>
  <g id="Thin-L" transform="matrix(1.0,0.0,0.0,1.0,781.9655419921876,1445.0255615234375)">  <path stroke="none" stroke-linecap="round" fill-rule="nonzero" stroke-width="1.5px" fill-opacity="1" stroke-linejoin="round" stroke-dasharray="none" stroke-opacity="1" fill="#000000" stroke-miterlimit="4" d="M37.872,22.092L113.617,22.092L110.991,20.687L136.239,58.559L136.363,54.884L73.243,136.941L78.246,136.941L15.126,54.884L15.25,58.559L40.498,20.687L37.872,22.092ZM37.872,15.78C36.817,15.78,35.832,16.307,35.246,17.185L9.998,55.058C9.248,56.183,9.298,57.661,10.123,58.733L73.243,140.789C74.506,142.431,76.983,142.431,78.246,140.789L141.366,58.733C142.191,57.661,142.241,56.183,141.491,55.058L116.243,17.185C115.657,16.307,114.672,15.78,113.617,15.78L37.872,15.78Z"/>
  <path stroke-dasharray="none" fill-opacity="1" stroke="none" stroke-linecap="round" fill="#000000" stroke-linejoin="round" stroke-opacity="1" fill-rule="nonzero" stroke-width="1.5px" stroke-miterlimit="4" d="M66.61,17.525L47.673,55.397C47.311,56.123,47.241,56.961,47.48,57.736L72.728,139.793C73.642,142.763,77.847,142.763,78.761,139.793L104.009,57.736C104.248,56.961,104.178,56.123,103.815,55.397L84.879,17.525C84.1,15.966,82.204,15.334,80.645,16.113C79.086,16.893,78.454,18.789,79.234,20.348L98.17,58.22L97.976,55.88L72.728,137.937L78.761,137.937L53.513,55.88L53.319,58.22L72.255,20.348C73.035,18.789,72.403,16.893,70.844,16.113C69.285,15.334,67.389,15.966,66.61,17.525Z"/>
  <path fill-opacity="1" stroke-width="1.5px" stroke-dasharray="none" stroke-linecap="round" stroke-opacity="1" stroke-linejoin="round" fill-rule="nonzero" stroke-miterlimit="4" stroke="none" fill="#000000" d="M12.624,59.964L138.865,59.964C140.608,59.964,142.021,58.551,142.021,56.808C142.021,55.065,140.608,53.652,138.865,53.652L12.624,53.652C10.881,53.652,9.468,55.065,9.468,56.808C9.468,58.551,10.881,59.964,12.624,59.964Z"/>
</g>
  <g id="Ultralight-L" transform="matrix(1.0,0.0,0.0,1.0,485.2555419921875,1445.0255615234375)">  <path stroke-opacity="1" stroke="none" fill-opacity="1" stroke-dasharray="none" stroke-linejoin="round" fill="#000000" stroke-linecap="round" stroke-miterlimit="4" stroke-width="1.5px" fill-rule="nonzero" d="M37.872,21.303L113.617,21.303L111.647,20.249L136.895,58.121L136.989,55.365L73.868,137.422L77.621,137.422L14.5,55.365L14.594,58.121L39.842,20.249L37.872,21.303ZM37.872,16.569C37.081,16.569,36.342,16.965,35.903,17.623L10.655,55.495C10.092,56.339,10.13,57.448,10.748,58.252L73.868,140.308C74.816,141.54,76.673,141.54,77.621,140.308L140.741,58.252C141.359,57.448,141.397,56.339,140.834,55.495L115.586,17.623C115.147,16.965,114.408,16.569,113.617,16.569L37.872,16.569Z"/>
  <path stroke-opacity="1" stroke-linejoin="round" stroke-dasharray="none" fill-opacity="1" fill-rule="nonzero" fill="#000000" stroke-linecap="round" stroke-width="1.5px" stroke="none" stroke-miterlimit="4" d="M67.315,17.878L48.379,55.75C48.107,56.294,48.055,56.923,48.234,57.504L73.482,139.561C74.168,141.789,77.321,141.789,78.007,139.561L103.255,57.504C103.434,56.923,103.382,56.294,103.11,55.75L84.174,17.878C83.589,16.708,82.167,16.234,80.998,16.819C79.829,17.404,79.355,18.825,79.939,19.995L98.875,57.867L98.73,56.112L73.482,138.169L78.007,138.169L52.759,56.112L52.613,57.867L71.55,19.995C72.134,18.825,71.66,17.404,70.491,16.819C69.322,16.234,67.9,16.708,67.315,17.878Z"/>
  <path stroke-miterlimit="4" stroke-width="1.5px" stroke-opacity="1" fill-rule="nonzero" fill-opacity="1" stroke-linejoin="round" stroke="none" stroke-dasharray="none" fill="#000000" stroke-linecap="round" d="M12.624,59.175L138.865,59.175C140.172,59.175,141.232,58.116,141.232,56.808C141.232,55.501,140.172,54.441,138.865,54.441L12.624,54.441C11.317,54.441,10.257,55.501,10.257,56.808C10.257,58.116,11.317,59.175,12.624,59.175Z"/>
</g>
  <g id="Black-M" transform="matrix(1.0,0.0,0.0,1.0,2875.9633658854164,1032.0533854166667)">  <path fill="#000000" stroke-linejoin="round" stroke="none" stroke-opacity="1" stroke-linecap="round" stroke-miterlimit="4" fill-opacity="1" stroke-dasharray="none" stroke-width="1.5px" fill-rule="nonzero" d="M29.358,22.789L88.075,22.789L81.327,19.178L100.899,48.536L101.219,39.093L52.288,102.702L65.145,102.702L16.214,39.093L16.534,48.536L36.106,19.178L29.358,22.789ZM29.358,6.569C26.647,6.569,24.114,7.924,22.61,10.18L3.038,39.539C1.11,42.43,1.239,46.228,3.358,48.982L52.288,112.592C55.535,116.813,61.899,116.813,65.145,112.592L114.076,48.982C116.194,46.228,116.323,42.43,114.395,39.539L94.823,10.18C93.319,7.924,90.787,6.569,88.075,6.569L29.358,6.569Z"/>
  <path stroke-linecap="round" stroke-width="1.5px" stroke-opacity="1" fill-rule="nonzero" stroke-linejoin="round" fill-opacity="1" stroke="none" stroke-dasharray="none" fill="#000000" stroke-miterlimit="4" d="M46.57,11.052L31.89,40.41C30.958,42.276,30.779,44.429,31.393,46.423L50.965,110.032C53.314,117.666,64.119,117.666,66.468,110.032L86.04,46.423C86.654,44.429,86.476,42.276,85.543,40.41L70.864,11.052C68.861,7.046,63.989,5.422,59.983,7.425C55.976,9.428,54.353,14.3,56.356,18.306L71.035,47.664L70.537,41.652L50.965,105.262L66.468,105.262L46.896,41.652L46.398,47.664L61.078,18.306C63.081,14.3,61.457,9.428,57.451,7.425C53.444,5.422,48.573,7.046,46.57,11.052Z"/>
  <path fill-rule="nonzero" fill="#000000" stroke-miterlimit="4" stroke-dasharray="none" fill-opacity="1" stroke-linejoin="round" stroke-opacity="1" stroke-linecap="round" stroke="none" stroke-width="1.5px" d="M9.786,52.148L107.647,52.148C112.126,52.148,115.757,48.517,115.757,44.037C115.757,39.558,112.126,35.927,107.647,35.927L9.786,35.927C5.307,35.927,1.676,39.558,1.676,44.037C1.676,48.517,5.307,52.148,9.786,52.148Z"/>
</g>
  <g id="Heavy-M" transform="matrix(1.0,0.0,0.0,1.0,2579.2533658854163,1032.0533854166667)">  <path stroke-miterlimit="4" stroke-linecap="round" stroke-linejoin="round" fill-opacity="1" fill="#000000" stroke-width="1.5px" stroke="none" stroke-dasharray="none" fill-rule="nonzero" stroke-opacity="1" d="M29.358,21.901L88.075,21.901L82.066,18.685L101.638,48.044L101.923,39.634L52.992,103.244L64.441,103.244L15.511,39.634L15.795,48.044L35.368,18.685L29.358,21.901ZM29.358,7.457C26.944,7.457,24.689,8.664,23.349,10.673L3.777,40.031C2.06,42.606,2.175,45.988,4.062,48.441L52.992,112.051C55.883,115.809,61.55,115.809,64.441,112.051L113.372,48.441C115.258,45.988,115.373,42.606,113.656,40.031L94.084,10.673C92.745,8.664,90.49,7.457,88.075,7.457L29.358,7.457Z"/>
  <path fill-opacity="1" fill-rule="nonzero" stroke="none" fill="#000000" stroke-dasharray="none" stroke-width="1.5px" stroke-opacity="1" stroke-linejoin="round" stroke-miterlimit="4" stroke-linecap="round" d="M47.364,11.449L32.685,40.808C31.854,42.469,31.695,44.386,32.242,46.161L51.814,109.771C53.905,116.569,63.528,116.569,65.619,109.771L85.192,46.161C85.738,44.386,85.579,42.469,84.749,40.808L70.069,11.449C68.286,7.882,63.947,6.436,60.38,8.219C56.812,10.003,55.366,14.341,57.15,17.909L71.829,47.267L71.386,41.914L51.814,105.523L65.619,105.523L46.047,41.914L45.604,47.267L60.283,17.909C62.067,14.341,60.621,10.003,57.053,8.219C53.486,6.436,49.148,7.882,47.364,11.449Z"/>
  <path stroke-opacity="1" stroke-width="1.5px" stroke-linejoin="round" stroke-dasharray="none" stroke-miterlimit="4" fill="#000000" stroke="none" stroke-linecap="round" fill-rule="nonzero" fill-opacity="1" d="M9.786,51.26L107.647,51.26C111.636,51.26,114.869,48.026,114.869,44.037C114.869,40.049,111.636,36.815,107.647,36.815L9.786,36.815C5.797,36.815,2.564,40.049,2.564,44.037C2.564,48.026,5.797,51.26,9.786,51.26Z"/>
</g>
  <g id="Bold-M" transform="matrix(1.0,0.0,0.0,1.0,2282.5433658854163,1032.0533854166667)">  <path stroke-linejoin="round" fill-rule="nonzero" fill="#000000" stroke-opacity="1" stroke-linecap="round" stroke-width="1.5px" stroke-miterlimit="4" fill-opacity="1" stroke="none" stroke-dasharray="none" d="M29.358,21.013L88.075,21.013L82.805,18.193L102.377,47.551L102.627,40.176L53.696,103.785L63.737,103.785L14.807,40.176L15.056,47.551L34.629,18.193L29.358,21.013ZM29.358,8.345C27.241,8.345,25.263,9.404,24.088,11.166L4.516,40.524C3.01,42.782,3.111,45.748,4.766,47.899L53.696,111.509C56.232,114.805,61.202,114.805,63.737,111.509L112.668,47.899C114.322,45.748,114.423,42.782,112.917,40.524L93.345,11.166C92.17,9.404,90.193,8.345,88.075,8.345L29.358,8.345Z"/>
  <path fill-opacity="1" stroke-dasharray="none" fill="#000000" stroke="none" stroke-width="1.5px" stroke-miterlimit="4" stroke-opacity="1" fill-rule="nonzero" stroke-linejoin="round" stroke-linecap="round" d="M48.158,11.846L33.479,41.205C32.751,42.662,32.611,44.343,33.09,45.9L52.663,109.51C54.497,115.472,62.936,115.472,64.771,109.51L84.343,45.9C84.822,44.343,84.683,42.662,83.954,41.205L69.275,11.846C67.711,8.718,63.906,7.449,60.777,9.014C57.648,10.578,56.38,14.383,57.944,17.512L72.623,46.87L72.235,42.175L52.663,105.784L64.771,105.784L45.198,42.175L44.81,46.87L59.489,17.512C61.053,14.383,59.785,10.578,56.656,9.014C53.527,7.449,49.723,8.718,48.158,11.846Z"/>
  <path stroke-opacity="1" stroke-linejoin="round" stroke-miterlimit="4" stroke="none" fill="#000000" stroke-linecap="round" fill-opacity="1" fill-rule="nonzero" stroke-width="1.5px" stroke-dasharray="none" d="M9.786,50.372L107.647,50.372C111.145,50.372,113.981,47.536,113.981,44.037C113.981,40.539,111.145,37.703,107.647,37.703L9.786,37.703C6.288,37.703,3.452,40.539,3.452,44.037C3.452,47.536,6.288,50.372,9.786,50.372Z"/>
</g>
  <g id="Semibold-M" transform="matrix(1.0,0.0,0.0,1.0,1985.8333658854167,1032.0533854166667)">  <path stroke-linecap="round" stroke-linejoin="round" stroke-dasharray="none" stroke="none" fill-opacity="1" fill-rule="nonzero" stroke-miterlimit="4" stroke-width="1.5px" stroke-opacity="1" fill="#000000" d="M29.358,20.125L88.075,20.125L83.544,17.7L103.116,47.058L103.331,40.717L54.4,104.327L63.033,104.327L14.103,40.717L14.317,47.058L33.89,17.7L29.358,20.125ZM29.358,9.233C27.537,9.233,25.837,10.143,24.827,11.658L5.255,41.017C3.96,42.958,4.047,45.508,5.47,47.358L54.4,110.968C56.58,113.802,60.853,113.802,63.033,110.968L111.964,47.358C113.386,45.508,113.473,42.958,112.178,41.017L92.606,11.658C91.596,10.143,89.896,9.233,88.075,9.233L29.358,9.233Z"/>
  <path fill-rule="nonzero" stroke="none" stroke-dasharray="none" fill="#000000" stroke-miterlimit="4" stroke-linecap="round" stroke-linejoin="round" fill-opacity="1" stroke-width="1.5px" stroke-opacity="1" d="M48.953,12.244L34.273,41.602C33.647,42.855,33.527,44.3,33.939,45.639L53.511,109.249C55.089,114.375,62.345,114.375,63.922,109.249L83.494,45.639C83.906,44.3,83.786,42.855,83.16,41.602L68.481,12.244C67.136,9.553,63.864,8.463,61.174,9.808C58.484,11.153,57.394,14.424,58.739,17.115L73.418,46.473L73.084,42.436L53.511,106.046L63.922,106.046L44.35,42.436L44.015,46.473L58.695,17.115C60.04,14.424,58.949,11.153,56.259,9.808C53.569,8.463,50.298,9.553,48.953,12.244Z"/>
  <path fill="#000000" stroke-linecap="round" fill-rule="nonzero" stroke-dasharray="none" fill-opacity="1" stroke-width="1.5px" stroke="none" stroke-miterlimit="4" stroke-opacity="1" stroke-linejoin="round" d="M9.786,49.483L107.647,49.483C110.655,49.483,113.093,47.045,113.093,44.037C113.093,41.03,110.655,38.592,107.647,38.592L9.786,38.592C6.778,38.592,4.34,41.03,4.34,44.037C4.34,47.045,6.778,49.483,9.786,49.483Z"/>
</g>
  <g id="Medium-M" transform="matrix(1.0,0.0,0.0,1.0,1689.1233658854167,1032.0533854166667)">  <path stroke-opacity="1" stroke-linejoin="round" stroke-dasharray="none" stroke-miterlimit="4" stroke-width="1.5px" fill-opacity="1" stroke="none" fill="#000000" fill-rule="nonzero" stroke-linecap="round" d="M29.358,19.237L88.075,19.237L84.283,17.207L103.855,46.566L104.034,41.258L55.104,104.868L62.329,104.868L13.399,41.258L13.578,46.566L33.151,17.207L29.358,19.237ZM29.358,10.121C27.834,10.121,26.411,10.883,25.566,12.151L5.994,41.509C4.91,43.134,4.983,45.269,6.173,46.816L55.104,110.426C56.928,112.798,60.505,112.798,62.329,110.426L111.26,46.816C112.451,45.269,112.523,43.134,111.44,41.509L91.867,12.151C91.022,10.883,89.599,10.121,88.075,10.121L29.358,10.121Z"/>
  <path stroke-miterlimit="4" stroke-linejoin="round" stroke-width="1.5px" fill-rule="nonzero" fill-opacity="1" stroke-linecap="round" stroke-opacity="1" stroke="none" fill="#000000" stroke-dasharray="none" d="M49.747,12.641L35.068,41.999C34.544,43.048,34.443,44.258,34.788,45.378L54.36,108.988C55.68,113.278,61.753,113.278,63.073,108.988L82.645,45.378C82.99,44.258,82.89,43.048,82.366,41.999L67.686,12.641C66.561,10.389,63.823,9.477,61.571,10.602C59.32,11.728,58.407,14.466,59.533,16.718L74.212,46.076L73.933,42.697L54.36,106.307L63.073,106.307L43.501,42.697L43.221,46.076L57.9,16.718C59.026,14.466,58.113,11.728,55.862,10.602C53.61,9.477,50.873,10.389,49.747,12.641Z"/>
  <path stroke-opacity="1" fill="#000000" fill-opacity="1" stroke="none" stroke-width="1.5px" stroke-linecap="round" stroke-miterlimit="4" stroke-linejoin="round" stroke-dasharray="none" fill-rule="nonzero" d="M9.786,48.595L107.647,48.595C110.164,48.595,112.205,46.555,112.205,44.037C112.205,41.52,110.164,39.48,107.647,39.48L9.786,39.48C7.269,39.48,5.228,41.52,5.228,44.037C5.228,46.555,7.269,48.595,9.786,48.595Z"/>
</g>
  <g id="Regular-M" transform="matrix(1.0,0.0,0.0,1.0,1392.4133658854166,1032.0533854166667)">  <path stroke-linecap="round" fill-rule="nonzero" fill-opacity="1" stroke-linejoin="round" stroke="none" fill="#000000" stroke-dasharray="none" stroke-opacity="1" stroke-width="1.5px" stroke-miterlimit="4" d="M29.358,18.349L88.075,18.349L85.022,16.715L104.594,46.073L104.738,41.8L55.808,105.41L61.625,105.41L12.695,41.8L12.84,46.073L32.412,16.715L29.358,18.349ZM29.358,11.009C28.131,11.009,26.985,11.623,26.305,12.644L6.733,42.002C5.86,43.31,5.919,45.029,6.877,46.275L55.808,109.885C57.277,111.794,60.156,111.794,61.625,109.885L110.556,46.275C111.515,45.029,111.573,43.31,110.701,42.002L91.128,12.644C90.448,11.623,89.302,11.009,88.075,11.009L29.358,11.009Z"/>
  <path stroke-linecap="round" stroke-dasharray="none" fill-rule="nonzero" stroke-miterlimit="4" stroke-linejoin="round" stroke-width="1.5px" stroke="none" fill-opacity="1" fill="#000000" stroke-opacity="1" d="M50.541,13.038L35.862,42.396C35.44,43.24,35.359,44.215,35.637,45.117L55.209,108.726C56.272,112.18,61.161,112.18,62.224,108.726L81.796,45.117C82.074,44.215,81.993,43.24,81.571,42.396L66.892,13.038C65.986,11.225,63.781,10.49,61.969,11.397C60.156,12.303,59.421,14.508,60.327,16.32L75.006,45.679L74.781,42.958L55.209,106.568L62.224,106.568L42.652,42.958L42.427,45.679L57.106,16.32C58.012,14.508,57.278,12.303,55.465,11.397C53.652,10.49,51.448,11.225,50.541,13.038Z"/>
  <path stroke-linecap="round" fill-rule="nonzero" stroke-dasharray="none" stroke-width="1.5px" fill-opacity="1" stroke-opacity="1" stroke="none" fill="#000000" stroke-miterlimit="4" stroke-linejoin="round" d="M9.786,47.707L107.647,47.707C109.674,47.707,111.317,46.064,111.317,44.037C111.317,42.011,109.674,40.368,107.647,40.368L9.786,40.368C7.759,40.368,6.116,42.011,6.116,44.037C6.116,46.064,7.759,47.707,9.786,47.707Z"/>
</g>
  <g id="Light-M" transform="matrix(1.0,0.0,0.0,1.0,1095.7033658854168,1032.0533854166667)">  <path stroke-dasharray="none" fill="#000000" stroke-linejoin="round" fill-opacity="1" stroke-width="1.5px" fill-rule="nonzero" stroke-linecap="round" stroke="none" stroke-miterlimit="4" stroke-opacity="1" d="M29.358,17.737L88.075,17.737L85.53,16.376L105.103,45.734L105.223,42.173L56.293,105.783L61.141,105.783L12.21,42.173L12.331,45.734L31.903,16.376L29.358,17.737ZM29.358,11.621C28.336,11.621,27.381,12.132,26.814,12.983L7.242,42.341C6.515,43.431,6.563,44.863,7.362,45.902L56.293,109.512C57.517,111.103,59.916,111.103,61.141,109.512L110.071,45.902C110.87,44.863,110.919,43.431,110.192,42.341L90.619,12.983C90.052,12.132,89.097,11.621,88.075,11.621L29.358,11.621Z"/>
  <path stroke-linejoin="round" fill-opacity="1" stroke-width="1.5px" stroke-linecap="round" stroke="none" fill="#000000" stroke-miterlimit="4" stroke-dasharray="none" fill-rule="nonzero" stroke-opacity="1" d="M51.088,13.312L36.409,42.67C36.057,43.373,35.99,44.185,36.221,44.937L55.794,108.547C56.679,111.425,60.754,111.425,61.64,108.547L81.212,44.937C81.443,44.185,81.376,43.373,81.024,42.67L66.345,13.312C65.59,11.801,63.753,11.189,62.242,11.944C60.731,12.699,60.119,14.536,60.874,16.047L75.554,45.405L75.366,43.138L55.794,106.748L61.64,106.748L42.067,43.138L41.88,45.405L56.559,16.047C57.314,14.536,56.702,12.699,55.191,11.944C53.681,11.189,51.844,11.801,51.088,13.312Z"/>
  <path stroke-opacity="1" fill-rule="nonzero" stroke-width="1.5px" stroke-miterlimit="4" stroke="none" fill-opacity="1" stroke-linecap="round" fill="#000000" stroke-dasharray="none" stroke-linejoin="round" d="M9.786,47.096L107.647,47.096C109.336,47.096,110.705,45.726,110.705,44.037C110.705,42.349,109.336,40.979,107.647,40.979L9.786,40.979C8.097,40.979,6.728,42.349,6.728,44.037C6.728,45.726,8.097,47.096,9.786,47.096Z"/>
</g>
  <g id="Thin-M" transform="matrix(1.0,0.0,0.0,1.0,798.9933658854167,1032.0533854166667)">  <path stroke="none" stroke-linecap="round" fill-rule="nonzero" stroke-width="1.5px" fill-opacity="1" stroke-linejoin="round" stroke-dasharray="none" stroke-opacity="1" fill="#000000" stroke-miterlimit="4" d="M29.358,17.126L88.075,17.126L86.039,16.036L105.612,45.395L105.708,42.546L56.777,106.155L60.656,106.155L11.725,42.546L11.822,45.395L31.394,16.036L29.358,17.126ZM29.358,12.233C28.54,12.233,27.776,12.641,27.323,13.322L7.75,42.68C7.169,43.553,7.208,44.698,7.847,45.529L56.777,109.139C57.757,110.412,59.676,110.412,60.656,109.139L109.586,45.529C110.225,44.698,110.264,43.553,109.683,42.68L90.111,13.322C89.657,12.641,88.893,12.233,88.075,12.233L29.358,12.233Z"/>
  <path stroke-dasharray="none" fill-opacity="1" stroke="none" stroke-linecap="round" fill="#000000" stroke-linejoin="round" stroke-opacity="1" fill-rule="nonzero" stroke-width="1.5px" stroke-miterlimit="4" d="M51.635,13.585L36.956,42.943C36.675,43.506,36.621,44.156,36.806,44.757L56.378,108.367C57.087,110.669,60.346,110.669,61.055,108.367L80.627,44.757C80.812,44.156,80.758,43.506,80.477,42.943L65.798,13.585C65.194,12.377,63.724,11.887,62.516,12.491C61.307,13.095,60.817,14.565,61.421,15.773L76.101,45.132L75.951,43.318L56.378,106.928L61.055,106.928L41.483,43.318L41.333,45.132L56.012,15.773C56.616,14.565,56.126,13.095,54.918,12.491C53.709,11.887,52.24,12.377,51.635,13.585Z"/>
  <path fill-opacity="1" stroke-width="1.5px" stroke-dasharray="none" stroke-linecap="round" stroke-opacity="1" stroke-linejoin="round" fill-rule="nonzero" stroke-miterlimit="4" stroke="none" fill="#000000" d="M9.786,46.484L107.647,46.484C108.998,46.484,110.094,45.389,110.094,44.037C110.094,42.686,108.998,41.591,107.647,41.591L9.786,41.591C8.435,41.591,7.34,42.686,7.34,44.037C7.34,45.389,8.435,46.484,9.786,46.484Z"/>
</g>
  <g id="Ultralight-M" transform="matrix(1.0,0.0,0.0,1.0,502.2833658854167,1032.0533854166667)">  <path stroke-opacity="1" stroke="none" fill-opacity="1" stroke-dasharray="none" stroke-linejoin="round" fill="#000000" stroke-linecap="round" stroke-miterlimit="4" stroke-width="1.5px" fill-rule="nonzero" d="M29.358,16.514L88.075,16.514L86.548,15.697L106.12,45.055L106.193,42.919L57.262,106.528L60.171,106.528L11.24,42.919L11.313,45.055L30.885,15.697L29.358,16.514ZM29.358,12.844C28.745,12.844,28.172,13.151,27.832,13.661L8.259,43.02C7.823,43.674,7.852,44.533,8.332,45.156L57.262,108.766C57.997,109.721,59.437,109.721,60.171,108.766L109.102,45.156C109.581,44.533,109.61,43.674,109.174,43.02L89.602,13.661C89.261,13.151,88.688,12.844,88.075,12.844L29.358,12.844Z"/>
  <path stroke-opacity="1" stroke-linejoin="round" stroke-dasharray="none" fill-opacity="1" fill-rule="nonzero" fill="#000000" stroke-linecap="round" stroke-width="1.5px" stroke="none" stroke-miterlimit="4" d="M52.182,13.859L37.503,43.217C37.292,43.639,37.252,44.126,37.391,44.577L56.963,108.187C57.494,109.914,59.939,109.914,60.47,108.187L80.043,44.577C80.181,44.126,80.141,43.639,79.93,43.217L65.251,13.859C64.798,12.952,63.695,12.585,62.789,13.038C61.883,13.491,61.515,14.593,61.969,15.5L76.648,44.858L76.535,43.498L56.963,107.108L60.47,107.108L40.898,43.498L40.786,44.858L55.465,15.5C55.918,14.593,55.551,13.491,54.644,13.038C53.738,12.585,52.636,12.952,52.182,13.859Z"/>
  <path stroke-miterlimit="4" stroke-width="1.5px" stroke-opacity="1" fill-rule="nonzero" fill-opacity="1" stroke-linejoin="round" stroke="none" stroke-dasharray="none" fill="#000000" stroke-linecap="round" d="M9.786,45.872L107.647,45.872C108.661,45.872,109.482,45.051,109.482,44.037C109.482,43.024,108.661,42.203,107.647,42.203L9.786,42.203C8.773,42.203,7.951,43.024,7.951,44.037C7.951,45.051,8.773,45.872,9.786,45.872Z"/>
</g>
  <g id="Black-S" transform="matrix(1.0,0.0,0.0,1.0,2888.7048754882812,614.7948950195313)">  <path fill="#000000" stroke-linejoin="round" stroke="none" stroke-opacity="1" stroke-linecap="round" stroke-miterlimit="4" fill-opacity="1" stroke-dasharray="none" stroke-width="1.5px" fill-rule="nonzero" d="M22.988,17.844L68.963,17.844L63.679,15.016L79.004,38.004L79.254,30.609L40.942,80.416L51.009,80.416L12.696,30.609L12.946,38.004L28.271,15.016L22.988,17.844ZM22.988,5.143C20.864,5.143,18.882,6.205,17.704,7.971L2.379,30.959C0.869,33.223,0.97,36.197,2.629,38.353L40.942,88.16C43.484,91.464,48.467,91.464,51.009,88.16L89.321,38.353C90.98,36.197,91.081,33.223,89.572,30.959L74.246,7.971C73.069,6.205,71.086,5.143,68.963,5.143L22.988,5.143Z"/>
  <path stroke-linecap="round" stroke-width="1.5px" stroke-opacity="1" fill-rule="nonzero" stroke-linejoin="round" fill-opacity="1" stroke="none" stroke-dasharray="none" fill="#000000" stroke-miterlimit="4" d="M36.464,8.654L24.97,31.641C24.24,33.102,24.1,34.788,24.581,36.349L39.906,86.155C41.745,92.132,50.206,92.132,52.045,86.155L67.37,36.349C67.85,34.788,67.71,33.102,66.98,31.641L55.486,8.654C53.918,5.517,50.103,4.245,46.966,5.814C43.83,7.382,42.558,11.197,44.126,14.334L55.62,37.321L55.231,32.614L39.906,82.42L52.045,82.42L36.72,32.614L36.33,37.321L47.824,14.334C49.392,11.197,48.121,7.382,44.984,5.814C41.847,4.245,38.032,5.517,36.464,8.654Z"/>
  <path fill-rule="nonzero" fill="#000000" stroke-miterlimit="4" stroke-dasharray="none" fill-opacity="1" stroke-linejoin="round" stroke-opacity="1" stroke-linecap="round" stroke="none" stroke-width="1.5px" d="M7.663,40.832L84.288,40.832C87.795,40.832,90.638,37.989,90.638,34.481C90.638,30.974,87.795,28.131,84.288,28.131L7.663,28.131C4.155,28.131,1.312,30.974,1.312,34.481C1.312,37.989,4.155,40.832,7.663,40.832Z"/>
</g>
  <g id="Heavy-S" transform="matrix(1.0,0.0,0.0,1.0,2591.994875488281,614.7948950195313)">  <path stroke-miterlimit="4" stroke-linecap="round" stroke-linejoin="round" fill-opacity="1" fill="#000000" stroke-width="1.5px" stroke="none" stroke-dasharray="none" fill-rule="nonzero" stroke-opacity="1" d="M22.988,17.149L68.963,17.149L64.257,14.631L79.583,37.618L79.805,31.033L41.493,80.84L50.457,80.84L12.145,31.033L12.368,37.618L27.693,14.631L22.988,17.149ZM22.988,5.839C21.097,5.839,19.331,6.784,18.282,8.357L2.957,31.345C1.613,33.361,1.703,36.009,3.18,37.929L41.493,87.736C43.757,90.678,48.194,90.678,50.457,87.736L88.77,37.929C90.247,36.009,90.337,33.361,88.993,31.345L73.668,8.357C72.619,6.784,70.853,5.839,68.963,5.839L22.988,5.839Z"/>
  <path fill-opacity="1" fill-rule="nonzero" stroke="none" fill="#000000" stroke-dasharray="none" stroke-width="1.5px" stroke-opacity="1" stroke-linejoin="round" stroke-miterlimit="4" stroke-linecap="round" d="M37.086,8.965L25.592,31.952C24.942,33.253,24.818,34.754,25.245,36.144L40.57,85.951C42.208,91.273,49.742,91.273,51.38,85.951L66.705,36.144C67.133,34.754,67.008,33.253,66.358,31.952L54.864,8.965C53.468,6.171,50.071,5.039,47.277,6.436C44.484,7.833,43.352,11.229,44.748,14.023L56.242,37.01L55.895,32.818L40.57,82.625L51.38,82.625L36.055,32.818L35.708,37.01L47.202,14.023C48.599,11.229,47.466,7.833,44.673,6.436C41.879,5.039,38.483,6.171,37.086,8.965Z"/>
  <path stroke-opacity="1" stroke-width="1.5px" stroke-linejoin="round" stroke-dasharray="none" stroke-miterlimit="4" fill="#000000" stroke="none" stroke-linecap="round" fill-rule="nonzero" fill-opacity="1" d="M7.663,40.136L84.288,40.136C87.411,40.136,89.943,37.604,89.943,34.481C89.943,31.358,87.411,28.826,84.288,28.826L7.663,28.826C4.539,28.826,2.008,31.358,2.008,34.481C2.008,37.604,4.539,40.136,7.663,40.136Z"/>
</g>
  <g id="Bold-S" transform="matrix(1.0,0.0,0.0,1.0,2295.284875488281,614.7948950195313)">  <path stroke-linejoin="round" fill-rule="nonzero" fill="#000000" stroke-opacity="1" stroke-linecap="round" stroke-width="1.5px" stroke-miterlimit="4" fill-opacity="1" stroke="none" stroke-dasharray="none" d="M22.988,16.453L68.963,16.453L64.836,14.245L80.161,37.232L80.357,31.457L42.044,81.264L49.906,81.264L11.594,31.457L11.789,37.232L27.114,14.245L22.988,16.453ZM22.988,6.534C21.329,6.534,19.781,7.363,18.861,8.743L3.536,31.73C2.357,33.498,2.436,35.821,3.731,37.505L42.044,87.312C44.029,89.893,47.921,89.893,49.906,87.312L88.219,37.505C89.514,35.821,89.593,33.498,88.414,31.73L73.089,8.743C72.169,7.363,70.621,6.534,68.963,6.534L22.988,6.534Z"/>
  <path fill-opacity="1" stroke-dasharray="none" fill="#000000" stroke="none" stroke-width="1.5px" stroke-miterlimit="4" stroke-opacity="1" fill-rule="nonzero" stroke-linejoin="round" stroke-linecap="round" d="M37.708,9.276L26.214,32.263C25.644,33.404,25.535,34.721,25.91,35.94L41.235,85.746C42.671,90.414,49.279,90.414,50.715,85.746L66.04,35.94C66.416,34.721,66.307,33.404,65.736,32.263L54.242,9.276C53.017,6.826,50.038,5.833,47.588,7.058C45.138,8.283,44.145,11.262,45.37,13.712L56.864,36.699L56.56,33.023L41.235,82.829L50.715,82.829L35.39,33.023L35.086,36.699L46.58,13.712C47.805,11.262,46.812,8.283,44.362,7.058C41.912,5.833,38.933,6.826,37.708,9.276Z"/>
  <path stroke-opacity="1" stroke-linejoin="round" stroke-miterlimit="4" stroke="none" fill="#000000" stroke-linecap="round" fill-opacity="1" fill-rule="nonzero" stroke-width="1.5px" stroke-dasharray="none" d="M7.663,39.441L84.288,39.441C87.027,39.441,89.247,37.22,89.247,34.481C89.247,31.742,87.027,29.522,84.288,29.522L7.663,29.522C4.923,29.522,2.703,31.742,2.703,34.481C2.703,37.22,4.923,39.441,7.663,39.441Z"/>
</g>
  <g id="Semibold-S" transform="matrix(1.0,0.0,0.0,1.0,1998.5748754882811,614.7948950195313)">  <path stroke-linecap="round" stroke-linejoin="round" stroke-dasharray="none" stroke="none" fill-opacity="1" fill-rule="nonzero" stroke-miterlimit="4" stroke-width="1.5px" stroke-opacity="1" fill="#000000" d="M22.988,15.758L68.963,15.758L65.415,13.859L80.74,36.847L80.908,31.881L42.595,81.688L49.355,81.688L11.042,31.881L11.211,36.847L26.536,13.859L22.988,15.758ZM22.988,7.23C21.562,7.23,20.23,7.942,19.44,9.128L4.114,32.116C3.101,33.636,3.169,35.633,4.283,37.081L42.595,86.888C44.302,89.107,47.648,89.107,49.355,86.888L87.668,37.081C88.782,35.633,88.849,33.636,87.836,32.116L72.511,9.128C71.72,7.942,70.388,7.23,68.963,7.23L22.988,7.23Z"/>
  <path fill-rule="nonzero" stroke="none" stroke-dasharray="none" fill="#000000" stroke-miterlimit="4" stroke-linecap="round" stroke-linejoin="round" fill-opacity="1" stroke-width="1.5px" stroke-opacity="1" d="M38.33,9.587L26.836,32.574C26.346,33.555,26.252,34.687,26.574,35.735L41.899,85.542C43.134,89.555,48.816,89.555,50.051,85.542L65.376,35.735C65.698,34.687,65.605,33.555,65.114,32.574L53.62,9.587C52.567,7.48,50.006,6.627,47.899,7.68C45.793,8.733,44.939,11.294,45.992,13.401L57.486,36.388L57.225,33.227L41.899,83.034L50.051,83.034L34.726,33.227L34.464,36.388L45.958,13.401C47.011,11.294,46.157,8.733,44.051,7.68C41.944,6.627,39.383,7.48,38.33,9.587Z"/>
  <path fill="#000000" stroke-linecap="round" fill-rule="nonzero" stroke-dasharray="none" fill-opacity="1" stroke-width="1.5px" stroke="none" stroke-miterlimit="4" stroke-opacity="1" stroke-linejoin="round" d="M7.663,38.746L84.288,38.746C86.643,38.746,88.552,36.836,88.552,34.481C88.552,32.126,86.643,30.217,84.288,30.217L7.663,30.217C5.307,30.217,3.398,32.126,3.398,34.481C3.398,36.836,5.307,38.746,7.663,38.746Z"/>
</g>
  <g id="Medium-S" transform="matrix(1.0,0.0,0.0,1.0,1701.864875488281,614.7948950195313)">  <path stroke-opacity="1" stroke-linejoin="round" stroke-dasharray="none" stroke-miterlimit="4" stroke-width="1.5px" fill-opacity="1" stroke="none" fill="#000000" fill-rule="nonzero" stroke-linecap="round" d="M22.988,15.063L68.963,15.063L65.993,13.473L81.318,36.461L81.459,32.305L43.146,82.112L48.804,82.112L10.491,32.305L10.632,36.461L25.957,13.473L22.988,15.063ZM22.988,7.925C21.794,7.925,20.68,8.521,20.018,9.514L4.693,32.502C3.845,33.774,3.901,35.445,4.834,36.657L43.146,86.464C44.575,88.321,47.375,88.321,48.804,86.464L87.116,36.657C88.049,35.445,88.105,33.774,87.257,32.502L71.932,9.514C71.27,8.521,70.156,7.925,68.963,7.925L22.988,7.925Z"/>
  <path stroke-miterlimit="4" stroke-linejoin="round" stroke-width="1.5px" fill-rule="nonzero" fill-opacity="1" stroke-linecap="round" stroke-opacity="1" stroke="none" fill="#000000" stroke-dasharray="none" d="M38.952,9.898L27.458,32.885C27.048,33.706,26.969,34.654,27.239,35.531L42.564,85.337C43.598,88.696,48.353,88.696,49.386,85.337L64.711,35.531C64.981,34.654,64.903,33.706,64.492,32.885L52.998,9.898C52.117,8.135,49.973,7.42,48.21,8.302C46.447,9.183,45.733,11.327,46.614,13.09L58.108,36.077L57.889,33.432L42.564,83.238L49.386,83.238L34.061,33.432L33.842,36.077L45.336,13.09C46.217,11.327,45.503,9.183,43.74,8.302C41.977,7.42,39.833,8.135,38.952,9.898Z"/>
  <path stroke-opacity="1" fill="#000000" fill-opacity="1" stroke="none" stroke-width="1.5px" stroke-linecap="round" stroke-miterlimit="4" stroke-linejoin="round" stroke-dasharray="none" fill-rule="nonzero" d="M7.663,38.05L84.288,38.05C86.259,38.05,87.857,36.452,87.857,34.481C87.857,32.51,86.259,30.913,84.288,30.913L7.663,30.913C5.692,30.913,4.094,32.51,4.094,34.481C4.094,36.452,5.692,38.05,7.663,38.05Z"/>
</g>
  <g id="Regular-S" transform="matrix(1.0,0.0,0.0,1.0,1405.154875488281,614.7948950195313)">  <path stroke-linecap="round" fill-rule="nonzero" fill-opacity="1" stroke-linejoin="round" stroke="none" fill="#000000" stroke-dasharray="none" stroke-opacity="1" stroke-width="1.5px" stroke-miterlimit="4" d="M22.988,14.367L68.963,14.367L66.572,13.088L81.897,36.075L82.01,32.729L43.698,82.536L48.253,82.536L9.94,32.729L10.053,36.075L25.378,13.088L22.988,14.367ZM22.988,8.62C22.027,8.62,21.13,9.1,20.597,9.9L5.272,32.887C4.589,33.912,4.634,35.257,5.385,36.233L43.698,86.04C44.848,87.535,47.102,87.535,48.253,86.04L86.565,36.233C87.316,35.257,87.362,33.912,86.679,32.887L71.354,9.9C70.821,9.1,69.923,8.62,68.963,8.62L22.988,8.62Z"/>
  <path stroke-linecap="round" stroke-dasharray="none" fill-rule="nonzero" stroke-miterlimit="4" stroke-linejoin="round" stroke-width="1.5px" stroke="none" fill-opacity="1" fill="#000000" stroke-opacity="1" d="M39.574,10.209L28.08,33.196C27.75,33.857,27.686,34.62,27.904,35.326L43.229,85.133C44.061,87.837,47.889,87.837,48.722,85.133L64.047,35.326C64.264,34.62,64.201,33.857,63.87,33.196L52.376,10.209C51.667,8.789,49.941,8.214,48.521,8.924C47.102,9.633,46.527,11.359,47.236,12.779L58.73,35.766L58.554,33.636L43.229,83.443L48.722,83.443L33.396,33.636L33.22,35.766L44.714,12.779C45.424,11.359,44.848,9.633,43.429,8.924C42.009,8.214,40.283,8.789,39.574,10.209Z"/>
  <path stroke-linecap="round" fill-rule="nonzero" stroke-dasharray="none" stroke-width="1.5px" fill-opacity="1" stroke-opacity="1" stroke="none" fill="#000000" stroke-miterlimit="4" stroke-linejoin="round" d="M7.663,37.355L84.288,37.355C85.875,37.355,87.161,36.068,87.161,34.481C87.161,32.894,85.875,31.608,84.288,31.608L7.663,31.608C6.076,31.608,4.789,32.894,4.789,34.481C4.789,36.068,6.076,37.355,7.663,37.355Z"/>
</g>
  <g id="Light-S" transform="matrix(1.0,0.0,0.0,1.0,1108.4448754882812,614.7948950195313)">  <path stroke-dasharray="none" fill="#000000" stroke-linejoin="round" fill-opacity="1" stroke-width="1.5px" fill-rule="nonzero" stroke-linecap="round" stroke="none" stroke-miterlimit="4" stroke-opacity="1" d="M22.988,13.888L68.963,13.888L66.97,12.822L82.295,35.81L82.39,33.021L44.077,82.828L47.873,82.828L9.56,33.021L9.655,35.81L24.98,12.822L22.988,13.888ZM22.988,9.099C22.187,9.099,21.439,9.499,20.995,10.166L5.67,33.153C5.101,34.007,5.139,35.128,5.765,35.941L44.077,85.748C45.036,86.994,46.915,86.994,47.873,85.748L86.186,35.941C86.811,35.128,86.849,34.007,86.28,33.153L70.955,10.166C70.511,9.499,69.763,9.099,68.963,9.099L22.988,9.099Z"/>
  <path stroke-linejoin="round" fill-opacity="1" stroke-width="1.5px" stroke-linecap="round" stroke="none" fill="#000000" stroke-miterlimit="4" stroke-dasharray="none" fill-rule="nonzero" stroke-opacity="1" d="M40.002,10.423L28.508,33.41C28.233,33.961,28.18,34.597,28.361,35.186L43.686,84.992C44.38,87.246,47.57,87.246,48.264,84.992L63.589,35.186C63.77,34.597,63.717,33.961,63.442,33.41L51.948,10.423C51.357,9.24,49.918,8.761,48.736,9.352C47.553,9.943,47.073,11.382,47.665,12.565L59.158,35.552L59.012,33.777L43.686,83.584L48.264,83.584L32.939,33.777L32.792,35.552L44.286,12.565C44.877,11.382,44.398,9.943,43.215,9.352C42.032,8.761,40.594,9.24,40.002,10.423Z"/>
  <path stroke-opacity="1" fill-rule="nonzero" stroke-width="1.5px" stroke-miterlimit="4" stroke="none" fill-opacity="1" stroke-linecap="round" fill="#000000" stroke-dasharray="none" stroke-linejoin="round" d="M7.663,36.876L84.288,36.876C85.61,36.876,86.682,35.804,86.682,34.481C86.682,33.159,85.61,32.087,84.288,32.087L7.663,32.087C6.34,32.087,5.268,33.159,5.268,34.481C5.268,35.804,6.34,36.876,7.663,36.876Z"/>
</g>
  <g id="Thin-S" transform="matrix(1.0,0.0,0.0,1.0,811.7348754882813,614.7948950195313)">  <path stroke="none" stroke-linecap="round" fill-rule="nonzero" stroke-width="1.5px" fill-opacity="1" stroke-linejoin="round" stroke-dasharray="none" stroke-opacity="1" fill="#000000" stroke-miterlimit="4" d="M22.988,13.409L68.963,13.409L67.369,12.556L82.694,35.544L82.769,33.313L44.457,83.12L47.493,83.12L9.181,33.313L9.256,35.544L24.581,12.556L22.988,13.409ZM22.988,9.578C22.347,9.578,21.749,9.898,21.394,10.431L6.069,33.419C5.613,34.102,5.644,34.999,6.144,35.649L44.457,85.456C45.224,86.453,46.727,86.453,47.493,85.456L85.806,35.649C86.307,34.999,86.337,34.102,85.882,33.419L70.557,10.431C70.201,9.898,69.603,9.578,68.963,9.578L22.988,9.578Z"/>
  <path stroke-dasharray="none" fill-opacity="1" stroke="none" stroke-linecap="round" fill="#000000" stroke-linejoin="round" stroke-opacity="1" fill-rule="nonzero" stroke-width="1.5px" stroke-miterlimit="4" d="M40.43,10.637L28.937,33.625C28.716,34.065,28.674,34.574,28.819,35.045L44.144,84.851C44.699,86.654,47.251,86.654,47.806,84.851L63.131,35.045C63.276,34.574,63.234,34.065,63.014,33.625L51.52,10.637C51.047,9.691,49.896,9.307,48.95,9.78C48.003,10.254,47.62,11.404,48.093,12.35L59.587,35.338L59.469,33.918L44.144,83.724L47.806,83.724L32.481,33.918L32.363,35.338L43.857,12.35C44.33,11.404,43.947,10.254,43.001,9.78C42.054,9.307,40.904,9.691,40.43,10.637Z"/>
  <path fill-opacity="1" stroke-width="1.5px" stroke-dasharray="none" stroke-linecap="round" stroke-opacity="1" stroke-linejoin="round" fill-rule="nonzero" stroke-miterlimit="4" stroke="none" fill="#000000" d="M7.663,36.397L84.288,36.397C85.346,36.397,86.203,35.539,86.203,34.481C86.203,33.423,85.346,32.566,84.288,32.566L7.663,32.566C6.605,32.566,5.747,33.423,5.747,34.481C5.747,35.539,6.605,36.397,7.663,36.397Z"/>
</g>
  <g id="Ultralight-S" transform="matrix(1.0,0.0,0.0,1.0,515.0248754882813,614.7948950195313)">  <path stroke-opacity="1" stroke="none" fill-opacity="1" stroke-dasharray="none" stroke-linejoin="round" fill="#000000" stroke-linecap="round" stroke-miterlimit="4" stroke-width="1.5px" fill-rule="nonzero" d="M22.988,12.931L68.963,12.931L67.767,12.291L83.092,35.278L83.149,33.605L44.836,83.412L47.114,83.412L8.801,33.605L8.858,35.278L24.183,12.291L22.988,12.931ZM22.988,10.057C22.507,10.057,22.059,10.297,21.792,10.697L6.467,33.684C6.126,34.197,6.148,34.869,6.524,35.357L44.836,85.164C45.411,85.911,46.539,85.911,47.114,85.164L85.427,35.357C85.802,34.869,85.825,34.197,85.483,33.684L70.158,10.697C69.892,10.297,69.443,10.057,68.963,10.057L22.988,10.057Z"/>
  <path stroke-opacity="1" stroke-linejoin="round" stroke-dasharray="none" fill-opacity="1" fill-rule="nonzero" fill="#000000" stroke-linecap="round" stroke-width="1.5px" stroke="none" stroke-miterlimit="4" d="M40.859,10.851L29.365,33.839C29.2,34.169,29.168,34.551,29.277,34.904L44.602,84.71C45.018,86.063,46.932,86.063,47.348,84.71L62.673,34.904C62.782,34.551,62.75,34.169,62.585,33.839L51.091,10.851C50.737,10.142,49.874,9.854,49.164,10.209C48.454,10.564,48.166,11.427,48.521,12.136L60.015,35.124L59.927,34.059L44.602,83.865L47.348,83.865L32.023,34.059L31.935,35.124L43.429,12.136C43.784,11.427,43.496,10.564,42.786,10.209C42.077,9.854,41.214,10.142,40.859,10.851Z"/>
  <path stroke-miterlimit="4" stroke-width="1.5px" stroke-opacity="1" fill-rule="nonzero" fill-opacity="1" stroke-linejoin="round" stroke="none" stroke-dasharray="none" fill="#000000" stroke-linecap="round" d="M7.663,35.918L84.288,35.918C85.081,35.918,85.724,35.275,85.724,34.481C85.724,33.688,85.081,33.045,84.288,33.045L7.663,33.045C6.869,33.045,6.226,33.688,6.226,34.481C6.226,35.275,6.869,35.918,7.663,35.918Z"/>
</g>
 </g>
</svg>
